<svg width="513" height="243" viewBox="0 0 513 243" fill="none" xmlns="http://www.w3.org/2000/svg">
<path d="M512.104 224.609C511.584 222.209 510.804 219.459 507.854 219.109C504.624 218.719 504.704 216.469 504.854 214.449C506.014 202.449 506.104 190.449 506.244 178.449C506.424 163.089 507.794 147.819 508.924 132.529C509.36 128.75 509.195 124.926 508.434 121.199C507.574 117.719 505.824 115.329 501.924 114.729C498.024 114.129 494.114 113.519 490.164 113.189C479.324 112.269 468.494 111.259 457.654 110.339C449.274 109.629 441.024 107.799 432.654 107.509C420.46 107.096 408.27 106.639 396.084 106.139C392.084 105.979 388.194 105.599 384.264 105.139C380.734 104.739 378.854 102.529 378.584 98.9092C378.557 97.4277 378.376 95.9531 378.044 94.5092C376.164 87.9892 375.204 81.2992 373.634 74.7192C371.23 65.1266 369.443 55.39 368.284 45.5692C366.974 33.2892 364.934 21.0792 363.024 8.86915C361.944 2.00915 358.944 -0.160847 351.874 0.00915316C347.214 0.129153 342.874 1.89915 338.154 1.81915C329.734 1.65915 321.334 2.48915 312.914 2.12915C305.827 1.82915 298.734 1.73249 291.634 1.83915C270.034 2.15915 248.454 2.61915 226.854 3.02915C223.234 3.09915 219.574 2.93915 215.984 3.36915C200.734 5.22915 185.384 3.76915 170.104 4.82915C162.724 5.33915 155.274 4.72915 147.854 4.82915C135.484 5.01915 123.114 5.19915 110.754 5.70915C103.024 6.02915 95.2636 5.81915 87.5436 6.85915C80.1972 7.9143 72.8003 8.58189 65.3836 8.85915C56.5736 9.12915 48.0436 10.8592 39.4536 12.3992C36.0085 12.8923 32.6833 14.0143 29.6436 15.7092C21.2136 20.8592 12.4936 25.5792 4.4836 31.4092C3.6736 31.9992 2.77361 32.5692 3.61361 33.8792C9.02389 33.9178 14.4284 33.5164 19.7736 32.6791C24.6636 31.9991 24.5236 32.0892 24.7736 37.1592C24.9436 40.8292 24.0136 44.3792 24.0736 47.9892C24.1936 55.4092 24.3936 62.8292 24.0736 70.2492C23.6436 79.1192 23.5936 88.0192 23.6236 96.8692C23.6236 110.509 24.7236 124.159 24.1136 137.869C23.9936 140.459 25.2236 143.169 24.8636 145.679C23.7636 153.439 24.6836 161.169 24.8636 168.879C25.0836 177.789 24.4237 186.659 24.5337 195.559C24.6537 205.419 24.6936 215.289 24.7636 225.139C24.7636 230.189 24.7636 230.189 19.5236 230.209C18.5236 230.209 17.5236 230.209 16.5236 230.209C12.9036 230.349 9.27365 230.439 5.65365 230.689C2.29365 230.909 0.42364 232.439 0.33364 234.779C0.22364 237.339 2.11365 238.779 5.97365 238.879C8.27365 238.949 10.5936 238.779 12.9036 238.679C17.1336 238.479 21.4636 237.459 25.2736 240.429C25.5547 240.602 25.8685 240.716 26.1955 240.762C26.5224 240.809 26.8554 240.787 27.1736 240.699C32.7136 239.099 38.2836 240.079 43.8536 240.269C44.4536 240.269 44.9536 240.269 45.3636 240.339C45.4814 238.845 45.7802 237.371 46.2536 235.949C46.1489 235.875 46.0647 235.776 46.0088 235.66C45.9528 235.545 45.9269 235.417 45.9336 235.289C46.7136 226.199 49.8236 218.369 57.9336 213.289C62.9279 210.099 68.1257 207.24 73.4936 204.729C80.0136 201.729 86.8136 201.269 93.7536 201.289C94.4294 201.246 95.1073 201.327 95.7536 201.529C102.854 204.169 110.094 206.689 115.444 212.379C119.924 217.179 121.844 223.219 123.504 230.239C123.324 230.089 123.154 229.949 122.994 229.799C123.516 231.094 123.924 232.433 124.214 233.799C124.961 233.712 125.717 233.746 126.454 233.899C129.934 234.339 133.344 234.699 136.374 232.319C136.798 232.056 137.273 231.885 137.767 231.818C138.262 231.751 138.765 231.789 139.244 231.929C142.036 232.202 144.85 232.165 147.634 231.819C160.801 230.868 174.012 230.661 187.204 231.199C191.654 231.419 196.104 231.359 200.554 231.269C220.834 230.849 241.094 230.339 261.364 229.939C272.934 229.719 284.364 231.329 295.894 232.399C297.364 232.529 298.843 232.529 300.314 232.399C309.344 231.705 318.423 231.983 327.394 233.229C332.614 233.919 337.944 234.859 343.094 234.709C350.034 234.529 356.894 235.279 363.804 235.179C372.374 235.059 380.914 236.389 389.504 235.679C390.053 235.596 390.613 235.627 391.15 235.77C391.687 235.913 392.188 236.164 392.624 236.509C392.524 237.049 392.434 237.589 392.334 238.129C395.334 232.499 396.904 227.659 399.064 223.869C401.224 220.079 399.724 206.809 414.984 199.669C430.244 192.529 434.984 193.669 449.444 195.929C463.904 198.189 473.544 205.219 478.024 219.029C482.504 232.839 480.684 238.029 480.684 238.029C480.684 238.029 480.494 238.269 480.214 238.649C481.47 239.679 482.61 240.842 483.614 242.119L484.034 242.049C487.484 241.759 490.854 240.899 494.354 240.889C498.48 240.981 502.606 240.707 506.684 240.069C510.524 239.379 512.134 237.789 512.574 233.929C512.929 230.818 512.771 227.669 512.104 224.609ZM20.6637 28.9492C19.3737 29.0492 18.0836 29.1292 16.7936 29.2392C16.3138 29.3233 15.8395 29.4369 15.3736 29.5792C17.9077 27.5273 20.6183 25.7035 23.4737 24.1292C24.5637 28.6592 24.5637 28.6592 20.6637 28.9492ZM22.7636 234.819H6.4836V234.239H22.8936C22.8536 234.419 22.8036 234.619 22.7636 234.819ZM251.914 168.819C252.104 171.589 251.144 172.959 248.404 173.699C244.104 174.859 239.924 176.399 235.724 177.869C234.414 178.319 232.604 178.309 232.434 180.309C232.264 182.309 233.854 182.739 235.194 183.309C239.194 184.979 243.194 186.519 247.084 188.219C250.974 189.919 251.024 190.039 250.534 194.159C249.664 201.659 249.744 209.259 248.104 216.699C247.584 219.029 248.194 221.619 248.324 224.089C248.444 226.149 247.804 226.989 245.484 226.849C232.604 226.049 219.774 227.679 206.914 227.599C200.154 227.599 193.394 227.799 186.634 228.059C184.494 228.149 184.194 226.889 183.984 225.359C183.184 219.809 182.094 214.249 182.214 208.649C182.209 202.217 181.711 195.795 180.724 189.439C179.454 179.729 180.194 170.009 180.894 160.289C181.754 163.539 184.644 163.809 187.054 164.459C188.644 164.899 189.414 163.589 189.624 162.149C190.894 154.02 191.612 145.815 191.774 137.589C191.774 135.509 190.774 134.469 188.624 135.319C186.474 136.169 183.424 134.869 181.394 137.589C181.394 133.689 181.394 130.259 181.394 126.839C181.524 110.169 181.644 93.4892 182.664 76.8392C183.604 61.5192 183.664 46.1692 184.604 30.8392C184.784 27.7292 184.434 24.5892 185.074 21.4692C185.404 19.8492 185.904 19.0192 187.744 18.6292C192.204 17.6792 196.654 18.0492 201.064 18.3592C211.264 19.0892 221.464 19.6092 231.664 20.1392C239.228 20.6322 246.823 20.2969 254.314 19.1392C257.574 18.5892 257.674 18.7992 257.754 22.0492C257.899 27.82 257.688 33.5942 257.124 39.3392C256.124 49.0192 256.244 58.7492 255.764 68.4592C255.454 74.5492 254.484 80.6092 254.194 86.6992C253.854 93.6992 253.814 100.829 253.864 107.899C253.864 112.379 253.234 116.779 252.864 121.209C252.895 121.932 252.655 122.641 252.191 123.196C251.726 123.751 251.071 124.113 250.354 124.209C247.004 125.059 243.884 126.649 240.424 127.209C239.288 127.423 238.178 127.758 237.114 128.209C236.542 128.343 236.032 128.667 235.669 129.129C235.305 129.59 235.11 130.162 235.114 130.749C235.194 132.229 236.284 132.569 237.474 132.809C240.864 133.519 244.254 134.219 247.634 134.949C252.334 135.949 251.634 136.459 251.524 140.079C251.254 146.659 251.754 153.259 251.884 159.849C251.994 162.879 251.704 165.859 251.914 168.819ZM250.654 183.729C247.914 183.599 245.714 182.239 242.994 181.139C245.301 179.72 247.873 178.788 250.554 178.399C251.171 180.117 251.206 181.99 250.654 183.729ZM184.654 142.119C184.654 139.629 185.914 139.069 188.184 139.309C189.024 146.629 187.964 153.669 185.884 160.809C184.354 159.699 184.554 158.469 184.554 157.389C184.544 152.299 184.684 147.209 184.644 142.119H184.654ZM257.814 132.399C256.484 130.399 256.614 129.399 257.194 128.289C258.264 129.349 257.654 130.359 257.804 132.399H257.814ZM256.384 176.499C258.674 180.329 256.984 183.349 256.484 186.389C255.604 183.349 255.024 180.309 256.384 176.499ZM251.724 130.009C251.724 130.519 251.494 131.009 250.384 130.769C250.384 130.769 249.654 130.599 249.644 130.379C249.584 129.629 250.194 129.319 250.874 129.189C251.554 129.059 251.734 129.509 251.724 130.009ZM268.894 27.0092C268.554 37.1992 267.464 47.3492 267.594 57.5692C267.764 73.0692 267.674 88.5692 267.124 104.069C267.014 107.339 267.594 110.639 267.714 113.939C268.264 128.129 266.714 142.239 266.044 156.379C265.674 163.959 265.044 171.519 264.454 179.059C263.544 190.399 263.914 201.719 263.574 213.059C263.474 216.799 262.434 220.499 263.374 224.279C263.604 225.199 263.094 225.849 262.054 225.899C261.394 225.899 260.734 225.899 260.054 225.989C252.724 226.509 251.554 225.499 252.914 218.319C254.124 211.969 254.344 205.589 254.914 199.209C255.064 197.399 255.514 195.609 255.544 193.809C255.574 192.009 256.224 191.079 258.064 190.909C261.224 190.599 262.064 188.629 261.864 185.699C261.624 182.589 262.664 179.499 262.104 176.329C261.734 174.209 261.334 172.329 258.664 172.449C256.754 172.529 256.544 171.379 256.544 169.919C256.544 166.779 256.544 163.649 256.544 160.509C256.484 155.409 256.854 150.299 256.144 145.189C255.981 143.219 256.038 141.237 256.314 139.279C256.464 137.689 256.944 136.729 259.084 136.779C262.434 136.859 262.454 136.579 262.544 133.099C262.544 131.289 262.544 129.469 262.544 127.649C262.634 125.279 262.474 123.269 259.204 123.649C257.984 123.779 257.524 122.879 257.654 121.709C257.834 119.899 258.014 118.089 258.174 116.289C258.476 114.502 258.616 112.691 258.594 110.879C257.544 98.8092 259.274 86.8792 259.984 74.8792C260.454 66.9692 260.384 59.0492 260.934 51.1692C261.634 40.9792 262.534 30.7992 262.544 20.5692C262.54 20.0774 262.597 19.587 262.714 19.1092C263.874 14.6592 263.614 14.2292 259.014 14.3192C256.54 14.3819 254.075 14.6157 251.634 15.0192C238.954 17.0192 226.294 15.3492 213.634 15.0192C207.704 14.8592 201.804 14.1292 195.864 14.0192C191.694 13.9092 187.654 14.6592 183.544 14.9292C181.544 15.0692 180.804 16.2192 180.544 18.1292C180.117 22.0585 179.89 26.0069 179.864 29.9592C179.194 48.2392 178.084 66.4992 177.744 84.7792C177.564 94.6592 177.334 104.559 177.014 114.409C176.314 136.329 176.864 158.279 175.424 180.179C175.004 186.619 176.424 192.999 176.964 199.399C177.174 201.859 177.544 204.289 177.544 206.769C177.496 213.622 178.22 220.459 179.704 227.149C170.254 227.509 161.234 228.039 152.194 228.099C147.934 228.099 143.724 229.169 139.384 228.429C137.384 228.069 136.454 227.309 136.244 225.509C135.504 219.559 133.314 214.019 131.594 208.349C129.874 202.679 126.774 197.989 121.154 195.219C117.179 193.206 113.379 190.864 109.794 188.219C107.139 186.247 104.071 184.903 100.822 184.288C97.5721 183.673 94.2255 183.803 91.0337 184.669C83.3337 186.509 75.4636 187.409 67.6836 188.779C64.6836 189.289 62.0336 191.649 59.2436 193.199C52.9292 196.802 47.5082 201.782 43.3836 207.769C39.0636 213.889 37.5636 221.309 36.8536 228.769C36.6336 231.029 36.8536 233.349 36.0436 235.919C34.3436 235.729 33.1636 234.669 31.7636 235.409C28.7636 237.059 28.4237 234.999 28.1637 232.859C27.7437 227.924 27.6234 222.969 27.8036 218.019C27.8036 198.719 28.3936 179.419 27.8036 160.109C27.6436 154.189 27.8636 148.239 27.9236 142.299C27.9766 141.255 28.3922 140.263 29.0987 139.492C29.8051 138.722 30.7582 138.222 31.7936 138.079C33.2036 137.859 33.4436 138.959 33.6836 139.839C34.7206 143.297 35.956 146.693 37.3836 150.009C38.0436 151.649 38.8637 152.009 40.2837 151.849C40.94 151.794 41.5896 151.677 42.2237 151.499C52.1537 148.349 60.9437 143.379 67.6637 135.199C69.1937 133.339 69.6636 131.039 70.3536 128.869C70.9836 126.949 71.8836 125.629 74.0736 125.549C74.8836 126.549 74.5336 127.719 74.5136 128.809C74.4663 129.172 74.4943 129.541 74.596 129.892C74.6976 130.244 74.8707 130.571 75.1045 130.852C75.3382 131.134 75.6275 131.364 75.9542 131.529C76.281 131.693 76.6383 131.789 77.0036 131.809C82.0006 132.896 87.1125 133.363 92.2237 133.199C95.5637 133.019 95.6636 132.969 95.3136 129.819C95.1736 128.519 94.7537 127.229 94.7237 125.929C94.6737 123.649 95.7937 122.419 98.1637 121.929C100.534 121.439 100.924 122.849 101.504 124.479C102.294 126.649 103.384 128.719 104.084 130.899C104.211 131.467 104.452 132.004 104.791 132.477C105.131 132.95 105.562 133.35 106.06 133.652C106.557 133.955 107.111 134.154 107.687 134.238C108.263 134.321 108.851 134.288 109.414 134.139C113.624 133.449 117.834 132.639 121.964 131.569C123.964 131.029 123.894 129.119 123.294 127.439C122.38 124.962 121.886 122.349 121.834 119.709C121.834 114.239 121.754 114.239 127.994 112.169C128.169 116.729 127.995 121.296 127.474 125.829C127.104 128.772 126.914 131.734 126.904 134.699C126.904 136.819 127.684 137.699 129.904 137.399C138.746 136.401 147.651 136.067 156.544 136.399C160.594 136.499 161.114 135.999 161.544 132.069C161.874 128.949 162.154 125.839 162.364 122.709C162.624 119.019 162.194 118.529 158.274 118.299C155.154 118.109 152.014 118.089 148.874 118.039C147.514 118.039 146.674 117.549 146.764 116.039C146.854 114.529 146.994 112.739 146.934 111.099C146.854 108.879 148.074 108.329 149.994 108.169C153.274 107.919 156.544 107.259 159.824 107.169C162.234 107.169 163.354 106.329 164.034 104.039C165.164 100.269 164.484 96.4992 164.434 92.7292C164.384 91.0092 162.754 91.0092 161.384 91.0092C157.757 91.0339 154.133 90.8234 150.534 90.3792C148.754 90.1992 147.714 89.6992 147.704 87.8092C147.555 83.6824 147.722 79.5504 148.204 75.4492C148.256 74.5431 148.631 73.6856 149.26 73.0311C149.889 72.3766 150.73 71.9681 151.634 71.8792C155.667 71.0486 159.767 70.5867 163.884 70.4992C168.114 70.4992 169.034 69.5892 169.544 65.3492C170.054 61.1092 170.264 56.7992 170.654 52.5392C170.844 50.4792 170.014 49.6992 167.924 49.4192C164.497 48.8856 161.031 48.6547 157.564 48.7292C149.144 49.1092 140.734 48.6092 132.324 48.6292C128.454 48.6292 128.014 49.0092 127.884 52.8492C127.67 56.9702 127.687 61.1 127.934 65.2192C128.524 73.4992 126.674 81.6692 127.084 89.9192C127.174 91.5792 126.374 92.4292 124.764 92.3792C122.574 92.3092 123.284 90.7592 123.374 89.5092C123.934 80.5092 125.374 71.5092 126.734 62.5692C127.324 58.8592 126.944 54.9992 127.054 51.2092C127.054 49.2892 126.204 48.5491 124.364 48.6091C120.088 48.6978 115.812 48.4973 111.564 48.0092C107.474 47.5592 106.494 48.2092 106.334 52.4892C106.094 59.2692 104.824 65.9192 104.284 72.6492C104.174 74.1292 104.004 75.6492 103.864 77.1292C102.104 76.5392 102.464 74.9992 102.264 73.7892C101.024 66.6492 99.6736 59.5192 98.6936 52.3292C98.3036 49.4992 97.0237 48.6592 94.4737 48.7992C90.3737 49.0292 86.2237 48.3292 82.1637 49.5092C80.8937 49.8892 79.4637 49.9192 78.9137 52.6292C78.1337 48.7092 76.3736 47.7792 73.3536 47.4892C65.4674 46.8093 57.5406 46.7391 49.6436 47.2792C46.6436 47.4692 45.5236 48.7392 45.1436 51.2792C44.9326 52.4133 44.8354 53.5657 44.8536 54.7192C45.3936 67.7192 43.9836 80.7192 44.5436 93.7892C44.8636 101.329 43.9736 108.919 43.6736 116.489C43.6393 117.55 43.3944 118.592 42.9532 119.557C42.512 120.522 41.8832 121.39 41.1036 122.109C37.1822 125.871 32.9764 129.324 28.5236 132.439C27.1536 131.609 27.9936 130.369 27.9636 129.339C27.7836 122.899 27.9636 116.449 27.4836 110.039C26.6236 97.8492 27.3936 85.6892 27.5436 73.5092C27.6236 65.9192 27.5936 58.3292 27.8036 50.7392C28.0436 42.5192 28.6336 34.2892 28.8036 26.0592C28.9236 21.1892 31.4636 18.2592 35.8036 17.1192C43.5686 14.9499 51.526 13.54 59.5636 12.9092C68.2736 12.3792 76.9737 11.5992 85.6637 10.7192C95.6637 9.71915 105.734 9.23915 115.794 9.07915C128.5 8.89249 141.207 8.68915 153.914 8.46915C161.144 8.34915 168.424 9.30915 175.654 8.73915C189.474 7.65915 203.334 8.34915 217.174 7.14915C226.703 6.3184 236.278 6.11796 245.834 6.54915C255.534 7.01915 265.294 6.33915 275.024 6.05915C286.894 5.71915 298.744 5.54915 310.624 5.97915C320.674 6.32915 330.764 5.97915 340.824 5.74915C344.924 5.63915 349.004 4.84915 353.134 4.93915C357.664 5.03915 358.504 5.41915 359.134 9.77915C360.134 17.4692 361.504 25.0892 362.744 32.7292C363.494 37.2792 363.834 41.8992 364.434 46.4692C364.797 48.5658 364.871 50.7024 364.654 52.8192C363.124 50.5392 363.024 48.3792 362.474 46.3692C360.204 38.1092 357.634 29.9192 356.474 21.3692C356.134 18.7292 356.054 16.1092 355.774 13.4892C355.384 9.50915 354.884 9.00915 350.934 9.00915C338.554 8.85915 326.244 10.2092 313.934 10.6392C307.664 10.8692 301.404 10.9592 295.144 11.3192C290.054 11.6092 284.974 12.2192 279.884 12.6492C278.41 12.8122 276.925 12.8557 275.444 12.7792C271.334 12.4692 270.074 13.2592 269.574 17.2292C269.114 20.4692 269.004 23.7892 268.894 27.0092ZM73.9836 106.669C73.9836 106.489 74.5336 106.459 75.1536 106.269C75.8736 111.269 75.6836 116.039 72.9636 120.399C73.7236 115.789 72.6636 111.119 73.9836 106.669ZM73.9836 101.369C74.4476 86.262 75.8335 71.1973 78.1336 56.2592C79.1936 70.4592 77.9736 85.4992 75.7736 100.479C75.7036 100.739 74.9436 100.899 73.9536 101.369H73.9836ZM94.6836 112.449C96.0545 113.448 96.9776 114.946 97.2536 116.619C97.2496 116.846 97.189 117.068 97.0772 117.265C96.9655 117.463 96.8061 117.629 96.6136 117.749C96.481 117.837 96.3294 117.892 96.1713 117.91C96.0132 117.927 95.8531 117.907 95.7045 117.85C95.5559 117.793 95.4229 117.702 95.3166 117.584C95.2104 117.465 95.134 117.323 95.0937 117.169C94.63 115.642 94.4804 114.036 94.6536 112.449H94.6836ZM132.684 95.4492C140.854 94.1792 149.024 94.7692 157.204 95.1892C159.604 95.3092 159.694 96.7192 159.824 98.4392C159.994 100.539 160.054 102.499 157.264 102.829C153.684 103.249 150.094 103.719 146.504 104.099C138.337 104.801 130.27 106.383 122.444 108.819C122.35 108.656 122.28 108.481 122.234 108.299C121.664 98.5092 123.004 97.0092 132.684 95.4692V95.4492ZM271.894 143.109C271.574 141.449 271.024 139.539 272.404 138.059C272.52 137.944 272.669 137.867 272.831 137.839C272.993 137.811 273.159 137.834 273.308 137.903C273.456 137.973 273.579 138.087 273.661 138.229C273.743 138.372 273.778 138.536 273.764 138.699C273.724 140.395 274.15 142.068 274.994 143.539C273.384 144.009 272.104 144.259 271.894 143.129V143.109ZM276.384 149.109C275.696 149.494 274.927 149.711 274.14 149.742C273.353 149.773 272.569 149.618 271.854 149.289C273.314 148.249 274.544 148.539 276.384 149.129V149.109ZM322.744 228.729C319.434 228.729 316.274 227.479 312.924 227.729C311.464 227.839 309.454 228.439 309.344 225.729C309.204 222.619 310.064 220.819 312.504 220.459C316.078 219.885 319.679 219.494 323.294 219.289C330.184 218.969 337.064 218.799 343.914 220.289C345.674 220.669 346.594 221.189 346.704 222.969C346.814 224.749 346.954 226.569 347.114 228.709C338.534 228.729 330.634 228.709 322.744 228.749V228.729ZM318.034 209.259C316.844 209.259 315.554 209.259 315.734 207.579C315.874 206.189 317.054 206.299 318.004 206.359C324.234 206.739 330.464 207.169 336.684 207.589C330.464 209.249 324.254 209.349 318.034 209.279V209.259ZM339.474 214.039C331.764 215.219 324.644 214.929 316.564 215.149C319.274 212.549 321.754 214.149 323.864 213.809C326.462 213.475 329.075 213.272 331.694 213.199C334.074 213.119 336.534 212.409 339.474 214.059V214.039ZM370.594 169.369C367.194 169.539 363.784 169.829 360.354 169.839C357.984 169.839 357.134 170.979 357.004 173.129C356.717 177.729 356.384 182.329 356.004 186.929C355.916 188.242 355.742 189.549 355.484 190.839C354.294 196.429 353.874 196.669 348.104 197.649C342.164 198.649 336.274 198.139 330.384 197.449C325.144 196.839 319.924 195.929 314.634 196.979C314.301 197.015 313.966 197.015 313.634 196.979C309.224 196.779 308.764 196.339 309.544 192.069C310.324 187.799 311.614 183.429 311.244 178.899C311.197 177.42 310.982 175.95 310.604 174.519C310.345 173.483 309.79 172.544 309.007 171.818C308.224 171.092 307.246 170.609 306.194 170.429C298.924 168.699 291.814 169.569 284.674 171.069C280.134 172.019 275.494 171.159 270.914 171.589C269.914 171.689 269.504 170.949 269.544 170.009C269.604 168.539 269.714 167.069 269.824 165.349C272.059 166.068 274.41 166.363 276.754 166.219C281.064 165.919 283.264 163.219 281.024 159.659C278.554 155.749 281.274 152.359 280.714 148.759C280.504 147.469 282.394 147.459 283.384 147.049C287.294 145.439 290.304 139.849 289.274 135.909C288.724 133.739 286.794 133.349 285.064 133.019C281.63 132.519 278.152 132.408 274.694 132.689C271.534 132.819 271.534 132.819 271.544 129.589C271.604 103.699 271.544 77.7892 271.824 51.8792C271.954 41.1692 273.034 30.4892 273.584 19.7992C273.684 17.8892 274.434 17.2492 276.274 17.1692C286.144 16.6992 295.964 15.5292 305.874 15.3992C316.254 15.2692 326.614 14.3992 336.974 13.9192C340.444 13.7692 343.974 13.9192 347.374 13.7092C350.064 13.5192 351.374 14.3992 351.194 17.1992C351.134 17.9692 351.704 18.7592 350.964 19.8292C349.184 17.4292 346.634 17.2492 343.964 17.2292C333.964 17.1592 323.964 15.3692 313.844 16.8692C303.247 18.4107 292.552 19.1694 281.844 19.1392C276.844 19.1392 276.844 19.3492 276.154 24.3592C275.873 26.1481 275.755 27.9589 275.804 29.7692C276.504 43.6092 275.494 57.4292 275.274 71.2592C275.124 80.4892 274.504 89.6992 275.464 98.9292C275.764 101.799 275.074 104.769 274.814 107.929C280.934 108.129 286.894 108.559 292.714 107.689C299.824 106.689 306.904 106.969 313.944 107.489C320.724 107.979 327.424 107.169 334.174 107.309C343.414 107.499 352.654 107.309 361.884 107.789C363.197 107.905 364.52 107.835 365.814 107.579C368.814 106.889 369.714 105.289 369.174 102.169C367.334 91.5892 364.174 81.3492 361.304 71.0392C358.704 61.6792 356.254 52.2592 354.304 42.7292C353.772 40.9018 353.646 38.9804 353.934 37.0992C355.254 37.9492 355.214 39.3392 355.534 40.3892C361.894 61.6992 367.144 83.2892 371.474 105.099C371.526 105.257 371.553 105.423 371.554 105.589C371.404 108.819 374.024 112.709 371.654 115.079C368.671 117.987 364.725 119.699 360.564 119.889C358.93 120.089 357.327 120.492 355.794 121.089C354.794 121.389 353.964 121.839 353.794 123.029C353.731 123.61 353.877 124.195 354.208 124.677C354.538 125.159 355.029 125.508 355.594 125.659C356.653 126.123 357.755 126.485 358.884 126.739C360.974 127.199 363.084 127.579 365.194 127.929C370.944 128.929 370.954 128.929 370.664 134.579C370.504 137.869 370.124 141.169 370.184 144.449C370.184 147.269 368.944 148.729 366.454 149.509C364.254 150.199 362.074 150.929 359.864 151.599C358.133 152.163 356.525 153.048 355.124 154.209C353.614 155.409 353.664 156.679 355.184 157.869C356.753 159.08 358.533 159.989 360.434 160.549C362.174 161.079 363.944 161.449 365.694 161.929C370.864 163.399 370.864 163.409 370.594 169.389V169.369ZM280.804 142.179L281.594 141.869L283.354 137.499C284.844 140.159 284.784 140.299 281.694 141.949C281.534 142.169 281.384 142.379 281.234 142.609L280.804 142.179ZM355.504 76.7292C353.254 78.3592 351.044 80.0492 348.374 82.0392C348.265 80.3216 348.035 78.614 347.684 76.9292C346.734 73.5492 343.954 71.9292 340.464 72.4292C337.874 72.8192 335.924 75.4292 336.294 78.7292C336.994 84.9692 337.034 91.2192 337.174 97.4792C337.174 99.5992 336.514 100.209 334.444 100.479C326.927 101.444 319.325 101.555 311.784 100.809C303.284 99.9192 294.674 100.069 286.114 99.6892C282.204 99.5092 282.044 99.3992 282.464 95.7992C283.744 84.7992 282.834 73.7392 283.064 62.7192C283.254 53.3292 284.264 43.9692 283.834 34.5692C283.915 33.2601 284.099 31.9595 284.384 30.6792C284.604 28.8892 285.384 28.3892 287.384 28.3592C292.154 28.2892 296.914 27.7992 301.674 27.4492C302.484 27.3892 303.304 27.1392 304.114 27.1392C318.274 27.1392 332.414 27.1392 346.564 27.0792C348.904 27.0792 349.854 27.9792 349.874 30.2292C350.004 43.9092 353.874 56.8692 357.624 69.8392C358.384 72.7392 357.984 75.0092 355.504 76.7492V76.7292ZM359.614 78.2592C362.794 86.2592 364.024 94.3692 365.884 102.339C366.264 103.969 365.624 104.959 363.884 104.909C360.614 104.809 357.344 104.609 354.074 104.409C352.314 104.289 352.074 102.999 352.074 101.589C352 96.1825 351.934 90.7692 351.874 85.3492C351.876 84.6889 352.065 84.0428 352.419 83.4854C352.773 82.928 353.277 82.4821 353.874 82.1992C355.654 81.0892 357.384 79.8292 359.614 78.2792V78.2592ZM339.884 79.8092C339.814 78.1892 339.344 76.0292 341.484 75.7292C343.824 75.3992 344.334 77.7292 344.564 79.4292C345.03 82.8435 345.288 86.2833 345.334 89.7292C345.334 93.1792 345.034 96.6092 345.554 100.059C345.589 100.878 345.502 101.697 345.294 102.489C345.034 103.919 344.004 104.159 342.734 104.189C341.094 104.189 340.904 103.259 340.844 101.979C340.674 98.0392 340.434 94.0992 340.214 90.1492H340.324C340.17 86.6825 340.024 83.2358 339.884 79.8092ZM371.884 158.439C368.764 158.439 366.104 156.949 363.204 155.439L371.294 152.669C373.014 154.449 372.624 156.329 371.894 158.439H371.884ZM371.524 124.789L366.344 123.789C368.164 122.219 370.214 121.789 372.944 120.519C372.294 122.499 371.944 123.539 371.534 124.789H371.524ZM491.844 140.889C492.034 139.059 492.234 136.429 492.604 133.889C492.874 131.989 494.024 130.839 496.034 131.319C497.975 131.683 499.948 131.854 501.924 131.829C503.694 131.889 504.644 132.409 504.394 134.479C503.991 137.577 503.777 140.696 503.754 143.819C503.754 146.269 502.584 146.879 500.464 147.049C498.99 147.186 497.506 147.143 496.044 146.919C492.204 146.219 491.774 145.669 491.854 140.889H491.844ZM409.844 134.169C410.114 132.379 410.594 130.599 410.714 128.809C410.904 126.229 412.604 125.659 414.714 125.379C416.824 125.099 419.004 125.709 421.074 126.109C434.754 128.779 448.594 128.849 462.424 128.849C470.184 128.849 477.864 129.919 485.614 130.179C487.294 130.229 487.874 130.999 487.694 132.709C487.344 136.309 487.044 139.919 486.954 143.549C486.804 148.869 487.664 149.769 492.754 150.939C495.478 151.619 498.301 151.815 501.094 151.519C502.864 151.299 503.534 152.059 503.374 153.739C503.214 155.419 503.004 157.339 502.764 159.599C500.254 159.599 498.134 159.519 495.974 159.599C492.144 159.759 490.974 160.889 489.594 164.599C488.764 166.859 489.464 170.099 487.064 171.229C485.144 172.129 482.534 171.539 480.244 171.709C470.784 172.399 461.514 170.709 452.244 169.519C443.534 168.389 434.824 169.459 426.154 170.159C421.398 170.534 416.62 170.534 411.864 170.159C409.744 169.999 408.634 169.159 408.244 166.589C406.494 155.629 408.224 144.919 409.814 134.169H409.844ZM502.724 173.629C499.544 171.769 496.614 171.549 493.834 171.149C493.477 169.808 493.634 168.381 494.274 167.149C495.584 163.789 498.594 162.719 501.694 164.469C502.041 164.665 502.321 164.96 502.499 165.316C502.677 165.673 502.745 166.074 502.694 166.469C502.714 168.609 502.694 170.719 502.694 173.629H502.724ZM377.574 170.289C375.954 170.569 374.884 169.799 375.164 168.109C375.414 166.619 373.794 163.909 376.904 163.959C379.794 163.959 380.634 162.649 380.904 160.179C381.074 158.389 381.604 156.629 381.744 154.829C382.174 149.379 382.164 149.299 377.024 147.069C376.319 146.857 375.712 146.4 375.315 145.78C374.917 145.16 374.753 144.419 374.854 143.689C375.004 140.579 374.954 137.429 375.254 134.319C375.484 132.019 375.254 129.119 378.914 129.169C382.424 123.579 387.914 126.639 392.594 126.169C395.724 126.169 398.864 126.249 402.014 126.169C404.364 126.089 404.874 127.169 404.404 129.229C402.184 138.889 402.244 148.819 401.104 158.619C400.671 161.397 400.725 164.23 401.264 166.989C401.794 169.289 400.844 169.689 398.794 169.989C394.794 170.569 390.904 169.879 386.964 169.899C383.818 169.766 380.667 169.896 377.544 170.289H377.574ZM401.384 179.009C399.244 179.529 397.634 180.959 395.634 182.459C395.364 179.899 395.244 177.859 396.634 176.019C397.094 175.432 397.7 174.974 398.39 174.69C399.081 174.406 399.833 174.306 400.574 174.399C401.764 174.449 402.174 175.309 402.504 176.319C402.934 177.619 402.874 178.649 401.384 179.009ZM480.924 216.249C478.584 209.309 473.814 204.079 468.984 198.879C468.085 197.813 466.983 196.938 465.741 196.304C464.5 195.671 463.144 195.291 461.754 195.189C457.654 194.859 453.984 192.569 450.254 190.929C447.308 189.481 444.054 188.774 440.774 188.869C437.654 189.039 434.264 186.929 431.544 190.089C426.544 188.719 422.864 192.259 418.764 193.859C411.165 196.644 404.629 201.739 400.074 208.429C398.64 210.628 397.623 213.072 397.074 215.639C395.904 220.589 394.074 225.379 392.634 230.259C392.512 230.74 392.212 231.156 391.793 231.422C391.375 231.688 390.87 231.783 390.384 231.689C388.574 231.689 386.754 231.989 384.174 231.139C386.634 225.379 387.494 219.559 388.904 213.879C389.384 211.969 390.104 210.089 390.394 208.149C391.394 201.019 394.764 194.779 398.124 188.589C399.063 186.637 400.567 185.013 402.441 183.927C404.316 182.841 406.473 182.343 408.634 182.499C420.634 183.029 432.634 182.319 444.704 182.619C451.594 182.779 458.504 181.769 465.404 181.279C471.827 180.833 478.28 181.386 484.534 182.919C489.534 184.129 492.874 187.199 494.984 191.869C497.094 196.539 497.824 201.669 498.414 206.709C498.654 209.974 499.278 213.2 500.274 216.319C501.354 219.319 500.554 220.199 497.434 220.189C492.814 220.189 488.284 218.879 483.644 219.189C481.564 219.379 481.384 217.529 480.914 216.269L480.924 216.249ZM508.504 231.799C508.274 235.089 507.734 235.749 504.554 236.429C503.59 236.622 502.614 236.748 501.634 236.809L484.014 238.049C483.194 233.899 483.524 229.959 483.434 226.049C483.434 224.379 484.074 223.599 485.774 223.819C491.104 224.529 496.594 223.979 501.774 225.749C504.194 226.589 505.214 224.649 506.704 223.079C508.194 225.736 508.82 228.791 508.494 231.819L508.504 231.799Z" fill="#003872"/>
<path d="M364.504 46.4693C363.914 41.8993 363.564 37.2793 362.814 32.7293C361.564 25.0793 360.214 17.4593 359.204 9.77927C358.624 5.41927 357.774 5.03927 353.204 4.93927C349.084 4.85927 344.994 5.64927 340.894 5.74927C330.834 6.01927 320.744 6.32927 310.694 5.97927C298.814 5.54927 286.964 5.71927 275.094 6.05927C265.354 6.32927 255.604 7.05927 245.904 6.54927C236.347 6.11817 226.773 6.31861 217.244 7.14927C203.414 8.34927 189.544 7.66927 175.724 8.73927C168.494 9.30927 161.214 8.33927 153.984 8.46927C141.277 8.69594 128.57 8.89927 115.864 9.07927C105.804 9.23927 95.7536 9.70927 85.7336 10.7193C77.0436 11.5993 68.3436 12.3893 59.6336 12.9093C51.5934 13.5459 43.6333 14.9557 35.8636 17.1193C31.5136 18.2593 28.9736 21.1893 28.8636 26.0593C28.6536 34.2893 28.0636 42.5193 27.8636 50.7393C27.6536 58.3293 27.6936 65.9293 27.6036 73.5093C27.4636 85.6793 26.6936 97.8493 27.5436 110.039C28.0036 116.449 27.8436 122.899 28.0236 129.339C28.0236 130.339 27.2136 131.609 28.5836 132.439C33.0364 129.325 37.2422 125.871 41.1636 122.109C41.9433 121.39 42.572 120.522 43.0132 119.557C43.4544 118.593 43.6993 117.55 43.7336 116.489C44.0336 108.929 44.9236 101.329 44.6036 93.7893C44.0436 80.7893 45.4436 67.7893 44.9136 54.7193C44.8971 53.5663 44.9908 52.4144 45.1936 51.2793C45.5736 48.6993 46.6836 47.4393 49.6936 47.2793C57.5903 46.7292 65.5179 46.7994 73.4036 47.4893C76.4036 47.7793 78.1936 48.7093 78.9736 52.6293C79.5336 49.9193 80.9736 49.8893 82.2236 49.5093C86.2836 48.3293 90.4336 49.0293 94.5336 48.7993C97.0836 48.6693 98.3636 49.5093 98.7536 52.3293C99.7536 59.5193 101.084 66.6493 102.324 73.7893C102.524 74.9993 102.164 76.5393 103.924 77.1293C104.064 75.5993 104.234 74.1293 104.344 72.6493C104.874 65.9193 106.154 59.2693 106.344 52.4893C106.504 48.2093 107.474 47.5593 111.574 48.0093C115.831 48.5057 120.118 48.7129 124.404 48.6293C126.234 48.5693 127.154 49.3093 127.094 51.2293C126.984 55.0093 127.364 58.8793 126.774 62.5893C125.374 71.5893 123.974 80.4793 123.414 89.5293C123.334 90.7893 122.614 92.3293 124.804 92.3993C126.414 92.3993 127.204 91.5993 127.124 89.9393C126.724 81.6893 128.574 73.5193 127.974 65.2393C127.754 61.1189 127.754 56.9897 127.974 52.8693C128.114 49.0293 128.544 48.6593 132.414 48.6493C140.834 48.6493 149.234 49.1293 157.654 48.7493C161.121 48.6748 164.587 48.9057 168.014 49.4393C170.104 49.7193 170.934 50.4993 170.744 52.5593C170.354 56.8293 170.134 61.1193 169.634 65.3693C169.134 69.6193 168.214 70.4693 163.974 70.5193C159.857 70.608 155.757 71.0699 151.724 71.8993C150.82 71.9883 149.979 72.3968 149.35 73.0512C148.721 73.7057 148.346 74.5632 148.294 75.4693C147.802 79.5697 147.635 83.7025 147.794 87.8293C147.794 89.7193 148.844 90.2093 150.624 90.3993C154.223 90.8435 157.847 91.054 161.474 91.0293C162.814 91.0293 164.474 91.0293 164.474 92.7693C164.474 96.5293 165.204 100.299 164.074 104.079C163.384 106.369 162.264 107.169 159.864 107.209C156.584 107.279 153.314 107.939 150.034 108.209C148.114 108.369 146.894 108.919 146.974 111.139C146.974 112.779 146.884 114.429 146.794 116.079C146.704 117.729 147.554 118.079 148.914 118.079C152.054 118.139 155.194 118.159 158.314 118.339C162.234 118.569 162.664 119.059 162.404 122.749C162.184 125.869 161.91 128.989 161.584 132.109C161.164 136.039 160.644 136.539 156.584 136.439C147.691 136.107 138.786 136.441 129.944 137.439C127.734 137.699 126.944 136.859 126.944 134.739C126.949 131.774 127.139 128.811 127.514 125.869C128.04 121.336 128.214 116.769 128.034 112.209C121.784 114.279 121.844 114.279 121.874 119.749C121.921 122.39 122.415 125.003 123.334 127.479C123.934 129.159 124.054 131.069 122.004 131.609C117.874 132.679 113.664 133.479 109.454 134.179C108.891 134.328 108.303 134.361 107.727 134.278C107.151 134.194 106.597 133.995 106.1 133.693C105.602 133.39 105.171 132.99 104.831 132.517C104.492 132.044 104.251 131.507 104.124 130.939C103.424 128.759 102.334 126.689 101.544 124.519C100.954 122.899 100.544 121.519 98.2036 121.969C95.8636 122.419 94.7136 123.699 94.7636 125.969C94.7636 127.269 95.2136 128.559 95.3536 129.859C95.6936 133.009 95.5936 133.059 92.2636 133.239C87.1525 133.403 82.0406 132.936 77.0436 131.849C76.6782 131.829 76.321 131.733 75.9942 131.569C75.6674 131.404 75.3781 131.174 75.1444 130.892C74.9107 130.611 74.7377 130.284 74.636 129.932C74.5343 129.581 74.5063 129.212 74.5536 128.849C74.5536 127.759 74.9236 126.579 74.1136 125.589C71.9336 125.669 71.0236 126.989 70.3936 128.909C69.6836 131.079 69.2136 133.389 67.7036 135.239C60.9836 143.419 52.1936 148.379 42.2636 151.539C41.6293 151.716 40.9798 151.834 40.3236 151.889C40.0122 151.961 39.6897 151.971 39.3746 151.917C39.0595 151.864 38.7582 151.748 38.4883 151.576C38.2185 151.405 37.9854 151.182 37.8026 150.92C37.6198 150.658 37.4909 150.362 37.4236 150.049C35.9912 146.742 34.7459 143.357 33.6936 139.909C33.4536 139.029 33.2136 137.909 31.8036 138.149C30.7674 138.29 29.8133 138.79 29.1065 139.56C28.3996 140.331 27.9847 141.325 27.9336 142.369C27.8536 148.299 27.6436 154.249 27.8136 160.179C28.3836 179.489 27.8136 198.789 27.8136 218.089C27.6434 223.039 27.7636 227.994 28.1736 232.929C28.4236 235.069 28.7836 237.119 31.7736 235.479C33.1136 234.739 34.2836 235.799 35.9936 235.999C36.7936 233.439 36.5836 231.119 36.8536 228.839C37.5736 221.369 39.0836 213.949 43.3936 207.839C47.5096 201.826 52.9357 196.824 59.2636 193.209C62.0536 191.669 64.7236 189.309 67.7036 188.799C75.4836 187.439 83.3436 186.539 91.0536 184.689C94.2454 183.823 97.5921 183.693 100.842 184.308C104.091 184.923 107.159 186.267 109.814 188.239C113.394 190.887 117.19 193.229 121.164 195.239C126.784 198.009 129.874 202.629 131.614 208.369C133.354 214.109 135.534 219.579 136.264 225.519C136.474 227.329 137.364 228.099 139.404 228.449C143.744 229.189 147.954 228.139 152.214 228.109C161.214 228.059 170.274 227.519 179.724 227.109C178.237 220.422 177.509 213.589 177.554 206.739C177.554 204.259 177.184 201.829 176.984 199.369C176.434 192.969 174.984 186.589 175.444 180.149C176.874 158.249 176.334 136.299 177.034 114.379C177.344 104.529 177.574 94.6193 177.764 84.7493C178.104 66.4693 179.214 48.2093 179.884 29.9293C179.911 25.977 180.137 22.0286 180.564 18.0993C180.824 16.1893 181.564 15.0493 183.564 14.8993C187.664 14.6193 191.714 13.8993 195.884 13.9893C201.824 14.1293 207.724 14.8593 213.654 14.9893C226.324 15.3193 238.994 16.9893 251.654 14.9893C254.095 14.5859 256.56 14.352 259.034 14.2893C263.634 14.1993 263.884 14.6293 262.734 19.0793C262.617 19.5571 262.56 20.0475 262.564 20.5393C262.564 30.7693 261.654 40.9493 260.954 51.1393C260.404 59.0193 260.474 66.9393 259.954 74.8493C259.234 86.8493 257.514 98.7893 258.564 110.849C258.587 112.662 258.446 114.472 258.144 116.259C257.984 118.059 257.804 119.869 257.614 121.679C257.494 122.839 257.944 123.749 259.174 123.619C262.434 123.269 262.604 125.269 262.514 127.619C262.434 129.439 262.514 131.259 262.514 133.069C262.424 136.549 262.404 136.829 259.054 136.749C256.904 136.699 256.424 137.659 256.284 139.249C256.008 141.207 255.951 143.189 256.114 145.159C256.824 150.259 256.454 155.369 256.514 160.479C256.514 163.619 256.514 166.749 256.514 169.889C256.514 171.349 256.724 172.499 258.634 172.419C261.304 172.309 261.704 174.179 262.074 176.299C262.634 179.479 261.594 182.559 261.834 185.679C262.044 188.599 261.194 190.569 258.034 190.879C256.194 191.049 255.544 191.969 255.514 193.779C255.484 195.589 255.024 197.369 254.884 199.179C254.354 205.549 254.114 211.939 252.884 218.289C251.514 225.469 252.694 226.469 260.024 225.959L262.024 225.869C263.024 225.809 263.574 225.159 263.344 224.249C262.404 220.469 263.434 216.769 263.544 213.029C263.884 201.709 263.544 190.369 264.424 179.029C265.024 171.479 265.634 163.919 266.014 156.349C266.704 142.209 268.234 128.099 267.684 113.909C267.554 110.609 266.984 107.319 267.094 104.039C267.644 88.5293 267.744 73.0393 267.554 57.5393C267.434 47.3193 268.554 37.1693 268.864 26.9793C268.964 23.7193 269.084 20.4093 269.504 17.1493C269.994 13.1493 271.264 12.3793 275.374 12.6993C276.855 12.7756 278.34 12.7321 279.814 12.5693C284.904 12.1493 289.974 11.5693 295.074 11.2393C301.334 10.8793 307.594 10.7793 313.864 10.5593C326.214 10.1393 338.524 8.77927 350.864 8.92927C354.864 8.92927 355.334 9.43927 355.764 13.4393C356.044 16.0593 356.124 18.6893 356.464 21.3193C357.574 29.8593 360.144 38.0493 362.464 46.3193C363.014 48.3193 363.114 50.4993 364.644 52.7693C364.873 50.6722 364.826 48.5541 364.504 46.4693ZM82.2736 144.739C81.2736 144.949 80.2736 144.949 79.3336 145.099C76.9936 145.449 77.3336 147.289 77.2136 148.899C77.0736 150.899 78.4136 150.899 79.7636 151.019C81.0928 151.147 82.4287 151.194 83.7636 151.159C84.9236 151.079 85.7636 151.399 85.7636 152.589C85.7636 153.589 84.8736 153.839 83.9736 153.839H81.1436C80.3636 153.779 79.7036 153.739 79.0236 153.659C74.7936 153.259 74.2936 152.799 74.5136 148.409C74.6536 145.619 75.0936 142.849 75.5136 140.079C75.8536 137.759 79.4436 136.279 81.5136 137.629C82.5136 138.289 82.0436 139.039 81.2836 139.549C80.2336 140.269 77.6336 139.549 78.4436 141.859C78.9736 143.329 80.7836 141.859 82.0136 142.039C83.4736 142.249 85.8636 140.499 86.1736 142.809C86.3836 144.939 83.7536 144.409 82.2736 144.739ZM99.1136 152.739C97.9236 153.259 97.4036 152.239 96.8936 151.379C96.2236 150.279 95.4936 149.189 94.6836 147.909C92.3236 149.069 91.5336 150.969 90.2336 152.389C89.6536 153.029 88.9736 153.449 88.1336 152.739C87.971 152.612 87.8353 152.453 87.7342 152.273C87.6331 152.092 87.5686 151.894 87.5444 151.688C87.5203 151.483 87.537 151.275 87.5934 151.076C87.6499 150.877 87.7451 150.691 87.8736 150.529C89.2536 148.529 92.2336 147.409 92.2136 144.939C92.2136 142.749 89.4336 141.459 88.3636 139.439C88.3023 139.216 88.2977 138.982 88.3501 138.756C88.4025 138.531 88.5103 138.322 88.6636 138.149C88.9249 137.947 89.2515 137.847 89.5814 137.869C89.9114 137.891 90.2217 138.034 90.4536 138.269C91.9136 139.799 93.3336 141.379 94.7136 142.899C96.1536 142.729 96.5536 141.479 97.3336 140.699C97.8736 140.159 98.4936 139.959 99.0236 140.409C99.2642 140.64 99.419 140.946 99.4627 141.277C99.5063 141.608 99.4361 141.944 99.2636 142.229C99.0034 142.83 98.6376 143.378 98.1836 143.849C96.5936 145.279 96.8936 146.639 98.0736 148.129C98.5623 148.789 98.9655 149.508 99.2736 150.269C99.6536 151.089 100.464 152.119 99.1136 152.729V152.739ZM111.114 146.349C109.174 147.019 109.214 148.349 109.414 149.859C109.734 152.289 110.084 154.729 110.474 157.149C110.684 158.479 112.034 160.389 109.684 160.659C107.684 160.889 107.894 158.789 107.684 157.349C107.264 153.599 106.794 149.869 106.334 146.119C106.184 144.819 106.064 143.509 105.894 142.209C105.504 139.309 105.894 138.889 108.894 138.829C110.894 138.829 113.014 138.829 113.714 141.269C113.904 141.772 113.986 142.309 113.955 142.846C113.925 143.382 113.782 143.907 113.536 144.385C113.29 144.862 112.946 145.283 112.527 145.62C112.108 145.957 111.623 146.202 111.104 146.339L111.114 146.349ZM123.384 145.079C123.174 145.519 123.074 146.139 122.724 146.379C119.604 148.459 119.964 150.609 122.434 152.939C122.599 153.066 122.73 153.232 122.815 153.422C122.9 153.612 122.937 153.82 122.921 154.028C122.905 154.235 122.837 154.436 122.724 154.611C122.611 154.786 122.456 154.929 122.274 155.029C121.614 155.519 121.064 155.169 120.574 154.719C119.874 154.089 119.214 153.439 118.364 152.619C118.188 153.146 118.048 153.684 117.944 154.229C117.864 155.399 117.854 156.839 116.274 156.629C114.694 156.419 115.124 154.889 115.204 153.819C115.464 150.239 115.784 146.649 116.084 143.059C116.174 141.909 116.214 140.369 117.484 140.209C118.455 140.119 119.435 140.225 120.365 140.522C121.295 140.82 122.155 141.302 122.894 141.939C123.34 142.315 123.636 142.84 123.726 143.418C123.816 143.995 123.695 144.585 123.384 145.079ZM136.804 154.009C136.614 155.059 135.584 155.009 134.804 154.899C132.338 154.694 129.859 154.694 127.394 154.899C125.964 154.969 125.154 154.209 125.314 152.789C125.684 149.689 125.974 146.559 126.634 143.529C127.294 140.499 130.634 139.659 132.894 142.049C133.02 142.156 133.115 142.296 133.167 142.453C133.219 142.61 133.227 142.778 133.19 142.939C133.153 143.1 133.072 143.248 132.956 143.366C132.84 143.485 132.694 143.569 132.534 143.609C131.897 143.745 131.24 143.745 130.604 143.609C129.604 143.489 129.024 143.739 128.884 144.779C128.744 145.819 129.094 146.659 130.404 146.709C130.859 146.666 131.316 146.774 131.705 147.016C132.093 147.258 132.391 147.621 132.554 148.049C131.654 150.049 127.654 148.219 128.404 151.319C128.904 153.319 131.334 151.459 132.804 152.149C133.589 152.391 134.403 152.529 135.224 152.559C136.044 152.769 137.024 152.879 136.804 154.009ZM147.744 145.679C147.154 145.679 146.534 145.299 145.904 145.139C144.974 144.889 143.804 144.489 143.314 145.579C142.824 146.669 143.924 147.279 144.684 147.869C145.087 148.15 145.475 148.454 145.844 148.779C147.254 150.239 147.524 152.849 146.434 154.169C145.494 155.289 142.244 155.959 140.884 155.169C140.679 155.046 140.505 154.879 140.373 154.68C140.242 154.481 140.157 154.255 140.124 154.019C140.168 153.79 140.262 153.573 140.398 153.383C140.535 153.193 140.71 153.035 140.914 152.919C141.914 152.359 143.244 153.219 144.324 151.839C143.964 150.179 142.484 149.839 141.634 148.839C139.844 146.839 139.924 144.159 141.824 142.839C143.724 141.519 147.474 142.129 148.544 143.899C149.004 144.679 148.904 145.609 147.744 145.689V145.679ZM160.384 143.779C159.563 143.731 158.74 143.785 157.934 143.939C155.254 144.759 154.694 147.139 156.934 148.939C158.664 150.389 160.004 151.879 159.934 154.159C160.104 156.609 158.624 157.899 156.804 158.839C155.819 159.431 154.712 159.788 153.567 159.882C152.422 159.975 151.271 159.803 150.204 159.379C150.022 159.236 149.88 159.049 149.79 158.835C149.701 158.622 149.668 158.389 149.694 158.159C149.773 157.943 149.906 157.751 150.081 157.602C150.257 157.453 150.468 157.352 150.694 157.309C152.172 157.483 153.67 157.273 155.044 156.699C157.584 155.639 157.984 153.699 156.044 151.699C154.924 150.549 153.124 149.949 152.814 148.149C152.569 147.1 152.634 146.003 152.999 144.99C153.365 143.976 154.016 143.091 154.874 142.439C155.679 141.727 156.654 141.234 157.705 141.009C158.756 140.783 159.847 140.831 160.874 141.149C161.197 141.23 161.479 141.429 161.664 141.706C161.848 141.983 161.923 142.32 161.874 142.649C161.654 143.579 161.024 143.729 160.384 143.779Z" fill="#F7E74D"/>
<path fill-rule="evenodd" clip-rule="evenodd" d="M180.893 160.288C181.753 163.548 184.643 163.808 187.043 164.478C188.623 164.918 189.393 163.608 189.613 162.168C190.879 154.039 191.597 145.834 191.763 137.608C191.763 135.528 190.763 134.488 188.613 135.338C186.463 136.188 183.423 134.878 181.373 137.608C181.373 133.708 181.373 130.278 181.373 126.858C181.513 110.188 181.633 93.5083 182.643 76.8583C183.583 61.5383 183.643 46.1983 184.583 30.8583C184.773 27.7483 184.433 24.6083 185.063 21.4883C185.393 19.8583 185.873 19.0383 187.733 18.6483C192.193 17.6483 196.633 18.0683 201.053 18.3783C211.253 19.0983 221.443 19.6283 231.653 20.1583C239.217 20.6514 246.812 20.3161 254.303 19.1583C257.563 18.6083 257.663 18.8183 257.743 22.0683C257.888 27.8391 257.678 33.6134 257.113 39.3583C256.113 49.0383 256.233 58.7683 255.743 68.4783C255.433 74.5683 254.473 80.6283 254.183 86.7183C253.833 93.7783 253.793 100.858 253.843 107.918C253.843 112.398 253.223 116.798 252.903 121.228C252.935 121.951 252.695 122.66 252.23 123.215C251.766 123.77 251.111 124.132 250.393 124.228C247.043 125.078 243.913 126.668 240.463 127.228C239.324 127.44 238.211 127.776 237.143 128.228C236.572 128.364 236.064 128.689 235.701 129.15C235.337 129.611 235.141 130.181 235.143 130.768C235.213 132.238 236.313 132.588 237.503 132.828C240.893 133.538 244.283 134.238 247.663 134.968C252.363 135.968 251.663 136.478 251.543 140.098C251.283 146.678 251.793 153.268 251.903 159.868C251.963 162.868 251.673 165.868 251.903 168.778C252.093 171.548 251.143 172.918 248.393 173.658C244.113 174.818 239.923 176.348 235.723 177.828C234.413 178.278 232.593 178.268 232.433 180.268C232.273 182.268 233.853 182.708 235.193 183.268C239.193 184.928 243.193 186.478 247.073 188.178C250.953 189.878 251.073 189.998 250.533 194.118C249.643 201.618 249.743 209.218 248.103 216.658C247.583 218.988 248.193 221.578 248.323 224.048C248.443 226.098 247.803 226.938 245.473 226.808C232.613 226.008 219.783 227.638 206.913 227.558C200.153 227.558 193.393 227.758 186.633 228.018C184.493 228.108 184.203 226.858 183.973 225.318C183.183 219.768 182.093 214.208 182.213 208.608C182.205 202.176 181.704 195.754 180.713 189.398C179.443 179.728 180.193 170.008 180.893 160.288ZM184.783 90.4683H184.683C184.683 94.9183 184.683 99.3683 184.683 103.818C184.683 108.818 184.813 109.038 189.993 109.068C198.573 109.068 207.133 109.288 215.693 109.828C219.152 110.007 222.62 109.91 226.063 109.538C231.155 109.056 236.271 108.879 241.383 109.008C243.853 109.058 246.333 109.078 248.813 109.008C251.293 108.938 252.403 107.788 252.193 105.238C251.983 102.688 251.943 100.308 251.923 97.8383C251.803 83.4783 254.013 69.2883 254.383 55.0083C254.663 45.0083 255.463 34.9383 255.953 24.8983C256.123 21.5483 255.743 21.1883 252.393 21.2683C250.753 21.3746 249.121 21.5749 247.503 21.8683C244.243 22.3083 240.993 22.9683 237.713 23.1983C224.073 24.1383 210.423 24.5983 196.713 23.3783C194.412 23.2534 192.105 23.2534 189.803 23.3783C188.253 23.3783 187.213 24.1283 187.263 25.7383C187.413 31.1783 185.913 36.5183 186.353 42.0083C186.513 44.0083 187.723 45.6883 187.353 47.7483C185.763 56.8083 187.623 66.1783 184.873 75.1483C184.649 76.284 184.595 77.4468 184.713 78.5983C184.783 82.5483 184.783 86.5083 184.783 90.4683ZM185.553 168.108C183.313 167.978 181.853 169.168 181.713 171.108C181.523 173.868 182.493 175.408 184.463 175.448C184.955 175.434 185.44 175.323 185.888 175.12C186.337 174.917 186.741 174.627 187.077 174.267C187.412 173.907 187.673 173.484 187.845 173.023C188.016 172.561 188.093 172.07 188.073 171.578C188.103 169.708 187.443 168.338 185.553 168.108Z" fill="#F7E74D"/>
<path fill-rule="evenodd" clip-rule="evenodd" d="M269.874 165.369C272.11 166.085 274.46 166.38 276.804 166.239C281.124 165.949 283.314 163.239 281.074 159.679C278.604 155.769 281.334 152.379 280.764 148.779C280.554 147.489 282.444 147.469 283.434 147.069C287.334 145.459 290.344 139.879 289.324 135.929C288.774 133.759 286.844 133.369 285.114 133.039C281.681 132.539 278.202 132.428 274.744 132.709C271.594 132.829 271.584 132.849 271.594 129.609C271.654 103.699 271.594 77.7988 271.874 51.8988C272.004 41.2088 273.084 30.5088 273.644 19.8188C273.734 17.9088 274.484 17.2788 276.324 17.1888C286.204 16.7188 296.014 15.5588 305.924 15.4188C316.304 15.2888 326.654 14.4188 337.024 13.9388C340.484 13.7888 343.964 13.9388 347.424 13.7288C350.114 13.5388 351.424 14.4188 351.244 17.2188C351.184 17.9888 351.754 18.7788 351.014 19.8488C349.234 17.4388 346.684 17.2588 344.014 17.2488C334.014 17.1788 324.014 15.3988 313.894 16.8888C303.299 18.4408 292.602 19.1995 281.894 19.1588C276.894 19.1588 276.894 19.3788 276.204 24.3788C275.923 26.1678 275.806 27.9786 275.854 29.7888C276.564 43.6288 275.544 57.4488 275.324 71.2788C275.164 80.5088 274.554 89.7188 275.514 98.9488C275.814 101.819 275.124 104.789 274.864 107.949C280.984 108.149 286.944 108.569 292.764 107.709C299.874 106.709 306.954 106.989 313.994 107.509C320.784 107.999 327.474 107.179 334.234 107.329C343.454 107.529 352.694 107.329 361.934 107.819C363.248 107.921 364.57 107.847 365.864 107.599C368.864 106.909 369.764 105.309 369.224 102.189C367.384 91.6088 364.224 81.3688 361.354 71.0588C358.744 61.6988 356.304 52.2788 354.354 42.7588C353.823 40.9279 353.697 39.0034 353.984 37.1188C355.304 37.9688 355.264 39.3588 355.584 40.4088C361.954 61.7188 367.194 83.3088 371.524 105.119C371.564 105.28 371.591 105.444 371.604 105.609C371.454 108.849 374.084 112.729 371.704 115.099C368.717 118 364.773 119.711 360.614 119.909C358.979 120.103 357.376 120.506 355.844 121.109C354.844 121.409 354.014 121.849 353.844 123.049C353.781 123.63 353.928 124.214 354.258 124.697C354.588 125.179 355.079 125.527 355.644 125.679C356.704 126.142 357.806 126.503 358.934 126.759C361.024 127.219 363.134 127.599 365.244 127.949C370.994 128.949 371.004 128.949 370.714 134.599C370.554 137.889 370.174 141.189 370.234 144.469C370.234 147.289 368.994 148.749 366.504 149.529C364.304 150.219 362.124 150.959 359.914 151.619C358.184 152.182 356.575 153.068 355.174 154.229C353.664 155.429 353.704 156.699 355.234 157.889C356.806 159.101 358.589 160.009 360.494 160.569C362.224 161.099 364.004 161.469 365.744 161.949C370.844 163.359 370.844 163.369 370.574 169.349C367.184 169.519 363.764 169.819 360.334 169.819C357.964 169.819 357.114 170.959 356.984 173.109C356.694 177.719 356.364 182.319 355.984 186.909C355.891 188.222 355.718 189.527 355.464 190.819C354.274 196.409 353.854 196.649 348.084 197.629C342.084 198.629 336.254 198.119 330.364 197.429C325.114 196.809 319.904 195.899 314.624 196.959C314.291 196.994 313.956 196.994 313.624 196.959C309.204 196.759 308.754 196.319 309.534 192.049C310.314 187.779 311.604 183.399 311.234 178.879C311.186 177.396 310.971 175.924 310.594 174.489C310.334 173.454 309.778 172.518 308.995 171.793C308.212 171.069 307.235 170.588 306.184 170.409C298.924 168.679 291.804 169.549 284.664 171.049C280.124 171.999 275.474 171.139 270.904 171.569C269.904 171.669 269.494 170.929 269.534 169.989C269.664 168.559 269.764 167.089 269.874 165.369ZM308.104 162.739C311.974 162.659 312.014 162.569 315.924 164.629C321.204 167.389 326.364 167.269 331.354 164.099C332.971 162.96 334.434 161.615 335.704 160.099C336.348 159.263 337.171 158.581 338.112 158.104C339.053 157.626 340.089 157.365 341.144 157.339C343.803 157.2 346.343 156.191 348.374 154.469C351.154 152.209 351.934 148.159 349.644 145.679C347.954 143.839 345.084 142.969 345.774 139.629C345.774 139.449 345.034 138.899 344.654 138.899C342.654 138.899 342.384 137.509 341.954 136.009C341.489 134.248 340.634 132.615 339.451 131.23C338.269 129.845 336.79 128.744 335.124 128.009C329.604 125.549 323.824 124.489 317.824 125.759C308.924 127.639 304.414 134.569 300.094 141.629C299.614 142.498 299.398 143.489 299.474 144.479C299.714 147.539 298.694 150.229 297.544 152.989C295.964 156.809 297.894 160.469 301.794 161.909C303.827 162.576 305.967 162.858 308.104 162.739Z" fill="#F7E74D"/>
<path fill-rule="evenodd" clip-rule="evenodd" d="M348.384 82.0584C348.274 80.3449 348.047 78.6409 347.704 76.9584C347.333 75.4103 346.367 74.0705 345.016 73.2285C343.665 72.3864 342.037 72.1098 340.484 72.4584C337.894 72.8484 335.944 75.4584 336.314 78.7584C337.014 84.9984 337.054 91.2484 337.194 97.5084C337.194 99.6384 336.524 100.248 334.464 100.508C326.947 101.471 319.346 101.586 311.804 100.848C303.304 99.9484 294.694 100.098 286.134 99.7184C282.214 99.5384 282.064 99.4384 282.484 95.8284C283.764 84.8284 282.854 73.7684 283.084 62.7484C283.274 53.3584 284.274 43.9984 283.854 34.5984C283.93 33.2888 284.114 31.9877 284.404 30.7084C284.624 28.9184 285.404 28.4284 287.404 28.3884C292.174 28.3184 296.934 27.8184 301.694 27.4784C302.504 27.4084 303.324 27.1684 304.134 27.1684C318.284 27.1684 332.434 27.1684 346.584 27.1084C348.924 27.1084 349.874 28.0084 349.894 30.2584C350.014 43.9384 353.894 56.8984 357.644 69.8684C358.494 72.7684 358.044 74.9984 355.574 76.7884C353.254 78.3784 351.054 80.0684 348.384 82.0584ZM289.574 54.5084C289.674 56.3784 289.324 57.7184 290.834 58.1584C292.344 58.5984 293.834 58.3684 294.644 56.7784C295.036 56.0533 295.341 55.2847 295.554 54.4884C296.994 48.6784 301.324 45.3984 306.204 42.8884C308.317 41.6375 310.345 40.2478 312.274 38.7284C313.664 37.7284 314.864 36.1984 314.144 34.5184C313.294 32.5184 311.254 32.5784 309.394 33.0584C308.431 33.3057 307.506 33.6825 306.644 34.1784C303.017 36.1542 299.657 38.5837 296.644 41.4084C293.076 45.0041 290.621 49.5526 289.574 54.5084ZM294.804 65.7584C294.904 63.9884 293.304 62.0584 291.704 62.0084C290.104 61.9584 288.544 64.3684 288.514 66.3984C288.473 66.7253 288.502 67.0572 288.598 67.3721C288.695 67.6871 288.857 67.978 289.075 68.2256C289.292 68.4732 289.559 68.6719 289.859 68.8085C290.159 68.9452 290.484 69.0167 290.814 69.0184C291.296 69.1124 291.794 69.0989 292.271 68.979C292.748 68.859 293.193 68.6355 293.573 68.3243C293.954 68.0132 294.262 67.622 294.475 67.1785C294.687 66.735 294.8 66.2502 294.804 65.7584Z" fill="#FDF9F7"/>
<path fill-rule="evenodd" clip-rule="evenodd" d="M502.694 159.599C500.184 159.599 498.044 159.529 495.924 159.599C492.084 159.759 490.924 160.879 489.544 164.599C488.714 166.869 489.403 170.109 487.013 171.229C485.083 172.129 482.484 171.539 480.194 171.709C470.734 172.389 461.464 170.709 452.194 169.519C443.484 168.389 434.773 169.469 426.103 170.159C421.349 170.55 416.571 170.567 411.814 170.209C409.694 170.039 408.584 169.209 408.194 166.639C406.554 155.639 408.283 144.959 409.873 134.209C410.143 132.409 410.613 130.649 410.743 128.849C410.913 126.269 412.623 125.699 414.743 125.419C416.863 125.139 419.033 125.749 421.103 126.159C434.783 128.819 448.623 128.889 462.453 128.889C470.223 128.889 477.903 129.959 485.633 130.219C487.323 130.269 487.883 131.039 487.723 132.749C487.363 136.349 487.073 139.979 486.983 143.589C486.833 148.929 487.694 149.809 492.784 150.979C495.507 151.665 498.331 151.861 501.123 151.559C502.893 151.339 503.553 152.099 503.403 153.779C503.253 155.459 502.934 157.329 502.694 159.599ZM419.694 154.509C421.694 154.599 423.694 154.969 425.544 154.309C426.259 154.098 426.888 153.664 427.34 153.07C427.791 152.477 428.041 151.754 428.054 151.009C428.114 149.939 427.813 148.909 426.733 148.639C423.281 147.621 419.665 147.282 416.083 147.639C413.693 147.959 413.463 150.229 413.603 152.319C413.743 154.409 415.173 154.519 416.743 154.469C417.723 154.489 418.704 154.509 419.684 154.509H419.694Z" fill="#F7E74D"/>
<path d="M500.264 216.329C499.271 213.209 498.65 209.984 498.414 206.719C497.824 201.719 497.124 196.609 494.984 191.879C492.844 187.149 489.594 184.129 484.534 182.879C478.28 181.346 471.827 180.792 465.404 181.239C458.504 181.729 451.594 182.749 444.704 182.579C432.704 182.269 420.644 182.989 408.634 182.459C406.473 182.303 404.316 182.8 402.442 183.886C400.567 184.972 399.063 186.596 398.124 188.549C394.764 194.729 391.444 200.969 390.394 208.119C390.114 210.059 389.394 211.919 388.904 213.839C387.494 219.529 386.634 225.349 384.174 231.109C386.754 231.959 388.584 231.619 390.384 231.649C390.869 231.728 391.367 231.627 391.782 231.363C392.197 231.099 392.5 230.692 392.634 230.219C394.104 225.339 395.914 220.539 397.064 215.599C397.615 213.032 398.632 210.588 400.064 208.389C404.615 201.695 411.152 196.599 418.754 193.819C422.854 192.229 426.514 188.679 431.534 190.049C434.244 186.889 437.654 188.999 440.764 188.829C444.044 188.734 447.298 189.441 450.244 190.889C453.984 192.529 457.634 194.819 461.744 195.149C463.134 195.252 464.489 195.632 465.731 196.265C466.972 196.899 468.075 197.774 468.974 198.839C473.804 204.039 478.574 209.259 480.914 216.209C481.334 217.469 481.574 219.319 483.644 219.209C488.284 218.869 492.814 220.209 497.434 220.209C500.554 220.209 501.384 219.299 500.264 216.329Z" fill="#F7E74D"/>
<path fill-rule="evenodd" clip-rule="evenodd" d="M392.544 126.209C395.674 126.209 398.814 126.289 401.944 126.209C404.294 126.119 404.794 127.209 404.334 129.269C402.114 138.939 402.164 148.869 401.034 158.659C400.612 161.437 400.666 164.268 401.194 167.029C401.724 169.319 400.784 169.719 398.724 170.029C394.724 170.599 390.834 169.919 386.894 169.939C383.761 169.812 380.624 169.946 377.514 170.339C375.894 170.619 374.844 169.849 375.114 168.169C375.364 166.659 373.744 163.959 376.844 164.009C379.734 164.009 380.594 162.699 380.844 160.229C381.014 158.429 381.544 156.669 381.674 154.879C382.104 149.419 382.094 149.339 376.964 147.119C376.257 146.908 375.65 146.451 375.252 145.831C374.854 145.211 374.691 144.468 374.794 143.739C374.934 140.619 374.894 137.479 375.194 134.369C375.424 132.079 375.194 129.169 378.844 129.219C382.384 123.579 387.884 126.639 392.544 126.209Z" fill="#F7E74D"/>
<path d="M84.7634 205.709C94.1434 207.299 103.563 209.439 111.763 214.709C115.453 217.049 119.233 219.559 119.963 224.549C121.196 226.17 122.205 227.949 122.963 229.839C123.133 229.979 123.293 230.129 123.473 230.269C121.803 223.269 119.893 217.199 115.413 212.439C110.063 206.739 102.823 204.219 95.7234 201.579C95.0759 201.382 94.399 201.301 93.7234 201.339C86.7834 201.339 79.9734 201.759 73.4634 204.779C68.0951 207.299 62.8944 210.162 57.8934 213.349C49.7634 218.449 46.6534 226.289 45.8934 235.349C45.8846 235.476 45.9085 235.604 45.9628 235.719C46.017 235.835 46.0998 235.935 46.2034 236.009C46.939 233.789 48.0519 231.711 49.4933 229.869C50.9376 225.115 53.7138 220.874 57.4933 217.649C62.6733 213.119 68.6533 210.159 74.6833 207.239C77.819 205.746 81.326 205.214 84.7634 205.709Z" fill="#F7E74D"/>
<path fill-rule="evenodd" clip-rule="evenodd" d="M122.444 108.829C122.353 108.669 122.285 108.497 122.244 108.319C121.684 98.4986 123.024 96.9486 132.694 95.4686C140.874 94.2086 149.034 94.7886 157.214 95.2086C159.614 95.3286 159.704 96.7386 159.844 98.4586C160.004 100.559 160.054 102.459 157.284 102.849C153.684 103.269 150.104 103.739 146.514 104.119C138.343 104.811 130.273 106.391 122.444 108.829Z" fill="#DF2A3C"/>
<path fill-rule="evenodd" clip-rule="evenodd" d="M347.104 228.728C338.534 228.728 330.634 228.728 322.724 228.728C319.424 228.728 316.264 227.478 312.914 227.728C311.454 227.848 309.444 228.448 309.334 225.728C309.194 222.618 310.064 220.828 312.484 220.458C316.061 219.885 319.666 219.494 323.284 219.288C330.184 218.968 337.064 218.798 343.894 220.288C345.674 220.678 346.584 221.188 346.694 222.968C346.804 224.748 346.954 226.578 347.104 228.728Z" fill="#F7E74D"/>
<path d="M506.683 223.099C505.203 224.669 504.173 226.599 501.763 225.769C496.583 223.999 491.093 224.549 485.763 223.839C484.063 223.619 483.373 224.389 483.423 226.069C483.513 229.989 483.183 233.919 483.993 238.069L501.613 236.839C502.597 236.777 503.576 236.65 504.543 236.459C507.723 235.779 508.263 235.119 508.493 231.829C508.816 228.801 508.184 225.748 506.683 223.099Z" fill="#F7E74D"/>
<path fill-rule="evenodd" clip-rule="evenodd" d="M359.614 78.2783C362.794 86.2783 364.024 94.3883 365.884 102.348C366.264 103.978 365.624 104.968 363.884 104.918C360.614 104.828 357.344 104.618 354.074 104.418C352.304 104.298 352.074 103.008 352.074 101.598C352.014 96.1917 351.947 90.7783 351.874 85.3583C351.876 84.6981 352.065 84.052 352.419 83.4946C352.773 82.9372 353.277 82.4913 353.874 82.2083C355.654 81.0883 357.384 79.8283 359.614 78.2783Z" fill="#FDF9F7"/>
<path fill-rule="evenodd" clip-rule="evenodd" d="M491.854 140.889C492.044 139.059 492.244 136.429 492.624 133.829C492.884 131.919 494.034 130.829 496.054 131.249C497.995 131.621 499.968 131.796 501.944 131.769C503.704 131.819 504.664 132.349 504.414 134.419C504.012 137.513 503.798 140.629 503.774 143.749C503.774 146.209 502.604 146.819 500.484 146.989C499.011 147.126 497.527 147.082 496.064 146.859C492.204 146.219 491.774 145.669 491.854 140.889Z" fill="#FDF9F7"/>
<path fill-rule="evenodd" clip-rule="evenodd" d="M340.383 90.1383C340.223 86.6916 340.07 83.2416 339.923 79.7883C339.863 78.1783 339.383 76.0183 341.523 75.7083C343.863 75.3783 344.373 77.7083 344.603 79.4083C345.07 82.8227 345.327 86.2625 345.373 89.7083C345.373 93.1583 345.073 96.5883 345.593 100.038C345.63 100.857 345.543 101.676 345.333 102.468C345.073 103.898 344.043 104.138 342.773 104.168C341.143 104.168 340.943 103.228 340.883 101.958C340.703 98.0183 340.473 94.0683 340.253 90.1283L340.383 90.1383Z" fill="#FDF9F7"/>
<path fill-rule="evenodd" clip-rule="evenodd" d="M78.1036 56.2588C79.1636 70.4588 77.9436 85.5088 75.7436 100.479C75.7436 100.739 74.9336 100.899 73.9536 101.369C74.4171 86.2616 75.803 71.1969 78.1036 56.2588Z" fill="#F7E74D"/>
<path fill-rule="evenodd" clip-rule="evenodd" d="M185.864 160.809C184.354 159.699 184.544 158.469 184.544 157.399C184.544 152.309 184.684 147.219 184.644 142.139C184.644 139.639 185.904 139.079 188.174 139.319C189.014 146.639 187.954 153.669 185.864 160.809Z" fill="#F9E8E2"/>
<path fill-rule="evenodd" clip-rule="evenodd" d="M502.693 173.629C499.513 171.769 496.583 171.549 493.813 171.139C493.448 169.799 493.602 168.371 494.243 167.139C495.553 163.779 498.573 162.709 501.663 164.459C502.01 164.655 502.291 164.95 502.469 165.306C502.647 165.663 502.715 166.064 502.663 166.459C502.713 168.609 502.693 170.719 502.693 173.629Z" fill="#FDF9F7"/>
<path fill-rule="evenodd" clip-rule="evenodd" d="M336.683 207.609C330.463 209.259 324.253 209.349 318.043 209.269C316.853 209.269 315.563 209.319 315.743 207.579C315.873 206.209 317.053 206.319 318.013 206.369C324.223 206.759 330.463 207.179 336.683 207.609Z" fill="#F7E74D"/>
<path fill-rule="evenodd" clip-rule="evenodd" d="M339.474 214.059C331.764 215.239 324.624 214.949 316.554 215.169C319.274 212.579 321.734 214.169 323.854 213.829C326.434 213.449 329.064 213.339 331.674 213.219C334.074 213.119 336.534 212.409 339.474 214.059Z" fill="#E4AA9C"/>
<path fill-rule="evenodd" clip-rule="evenodd" d="M371.304 152.679C373.024 154.449 372.624 156.329 371.894 158.439C368.774 158.439 366.114 156.949 363.214 155.439L371.304 152.679Z" fill="#F9E8E2"/>
<path fill-rule="evenodd" clip-rule="evenodd" d="M395.624 182.479C395.344 179.919 395.234 177.879 396.624 176.029C397.091 175.434 397.706 174.971 398.408 174.687C399.11 174.402 399.874 174.307 400.624 174.409C401.804 174.469 402.224 175.329 402.554 176.329C402.974 177.609 402.914 178.649 401.414 179.009C399.244 179.549 397.634 181.009 395.624 182.479Z" fill="#F9E8E2"/>
<path fill-rule="evenodd" clip-rule="evenodd" d="M72.9736 120.399C73.7236 115.789 72.6736 111.119 73.9736 106.659C73.9736 106.489 74.5336 106.459 75.1436 106.249C75.8836 111.279 75.6836 116.009 72.9736 120.399Z" fill="#DF2A3C"/>
<path fill-rule="evenodd" clip-rule="evenodd" d="M15.3838 29.5791C17.9203 27.5276 20.6305 25.7007 23.4838 24.1191C24.5738 28.6491 24.5738 28.6491 20.6738 28.9391C19.3838 29.0291 18.0938 29.1191 16.8038 29.2291C16.3247 29.3211 15.8507 29.438 15.3838 29.5791Z" fill="#F9E8E2"/>
<path fill-rule="evenodd" clip-rule="evenodd" d="M242.994 181.138C245.303 179.718 247.88 178.785 250.564 178.398C251.172 180.118 251.204 181.989 250.654 183.728C247.914 183.588 245.714 182.218 242.994 181.138Z" fill="#F9E8E2"/>
<path fill-rule="evenodd" clip-rule="evenodd" d="M256.524 186.389C255.604 183.389 255.024 180.299 256.424 176.499C258.714 180.329 257.014 183.349 256.524 186.389Z" fill="#F9E8E2"/>
<path fill-rule="evenodd" clip-rule="evenodd" d="M372.964 120.539C372.294 122.539 371.964 123.539 371.524 124.779L366.344 123.779C368.184 122.239 370.234 121.819 372.964 120.539Z" fill="#F9E8E2"/>
<path fill-rule="evenodd" clip-rule="evenodd" d="M22.7634 234.819H6.4834V234.239H22.8934C22.8534 234.419 22.8034 234.619 22.7634 234.819Z" fill="#E4AA9C"/>
<path fill-rule="evenodd" clip-rule="evenodd" d="M94.6535 112.449C96.0233 113.451 96.9488 114.946 97.2334 116.619C97.2235 116.845 97.1603 117.065 97.0491 117.261C96.9378 117.457 96.7817 117.625 96.5935 117.749C96.4602 117.837 96.3078 117.892 96.1491 117.909C95.9904 117.926 95.83 117.904 95.6812 117.847C95.5324 117.789 95.3995 117.696 95.2938 117.577C95.1881 117.457 95.1125 117.314 95.0734 117.159C94.611 115.635 94.468 114.031 94.6535 112.449Z" fill="#DF2A3C"/>
<path fill-rule="evenodd" clip-rule="evenodd" d="M274.994 143.559C273.384 143.969 272.104 144.259 271.884 143.139C271.574 141.469 271.014 139.569 272.394 138.079C272.51 137.963 272.659 137.886 272.821 137.858C272.983 137.83 273.149 137.853 273.298 137.923C273.446 137.993 273.569 138.106 273.651 138.249C273.733 138.391 273.769 138.555 273.754 138.719C273.727 140.414 274.156 142.085 274.994 143.559Z" fill="#FDF9F7"/>
<path fill-rule="evenodd" clip-rule="evenodd" d="M281.594 141.879C282.174 140.439 282.754 138.999 283.344 137.509C284.844 140.169 284.784 140.319 281.684 141.959L281.594 141.879Z" fill="#E4AA9C"/>
<path fill-rule="evenodd" clip-rule="evenodd" d="M250.383 130.749C250.383 130.749 249.653 130.579 249.633 130.359C249.573 129.609 250.183 129.289 250.863 129.169C251.543 129.049 251.723 129.509 251.713 129.999C251.703 130.489 251.493 131.009 250.383 130.749Z" fill="#E4AA9C"/>
<path fill-rule="evenodd" clip-rule="evenodd" d="M276.384 149.129C275.696 149.514 274.927 149.731 274.14 149.762C273.353 149.793 272.569 149.638 271.854 149.309C273.304 148.249 274.544 148.539 276.384 149.129Z" fill="#F9E8E2"/>
<path fill-rule="evenodd" clip-rule="evenodd" d="M257.184 128.289C258.264 129.349 257.644 130.359 257.804 132.399C256.484 130.399 256.604 129.409 257.184 128.289Z" fill="#F9E8E2"/>
<path fill-rule="evenodd" clip-rule="evenodd" d="M281.683 142.009L281.224 142.659L280.793 142.229L281.583 141.919L281.683 142.009Z" fill="#E4AA9C"/>
<path fill-rule="evenodd" clip-rule="evenodd" d="M81.1338 153.839C80.3438 153.779 79.6838 153.739 79.0338 153.669C74.8138 153.269 74.3238 152.809 74.5238 148.419C74.6638 145.629 75.0938 142.859 75.5238 140.089C75.8638 137.769 79.4638 136.289 81.5238 137.639C82.5238 138.299 82.0638 139.049 81.2938 139.559C80.2438 140.279 77.6538 139.559 78.4538 141.869C78.9738 143.339 80.8038 141.869 82.0338 142.049C83.4838 142.249 85.8838 140.509 86.1838 142.829C86.4738 144.949 83.8238 144.409 82.3538 144.749C81.3538 144.959 80.3538 144.959 79.4038 145.109C77.0638 145.449 77.4038 147.279 77.2938 148.909C77.1438 150.859 78.4838 150.909 79.8438 151.029C81.1531 151.156 82.4689 151.202 83.7838 151.169C84.9538 151.089 85.7838 151.409 85.7838 152.599C85.7838 153.599 84.9038 153.849 84.0038 153.849L81.1338 153.839Z" fill="#003872"/>
<path fill-rule="evenodd" clip-rule="evenodd" d="M94.6837 147.899C92.3337 149.059 91.5336 150.959 90.2336 152.389C89.6636 153.029 88.9737 153.449 88.1437 152.729C87.9804 152.602 87.8437 152.444 87.7417 152.264C87.6397 152.084 87.5743 151.886 87.5492 151.68C87.5241 151.475 87.5398 151.267 87.5955 151.067C87.6512 150.868 87.7457 150.682 87.8737 150.519C89.2537 148.569 92.2437 147.409 92.2237 144.939C92.2237 142.749 89.4437 141.459 88.3737 139.439C88.3111 139.217 88.3048 138.983 88.3555 138.757C88.4061 138.532 88.512 138.323 88.6637 138.149C88.9241 137.944 89.2512 137.843 89.5817 137.865C89.9123 137.887 90.2229 138.031 90.4537 138.269C91.9237 139.799 93.3237 141.379 94.7137 142.899C96.1537 142.729 96.5537 141.479 97.3437 140.699C97.8737 140.159 98.4937 139.959 99.0337 140.409C99.2696 140.643 99.4212 140.949 99.4646 141.278C99.508 141.607 99.4409 141.942 99.2737 142.229C99.0112 142.83 98.6419 143.379 98.1837 143.849C96.5937 145.269 96.8937 146.629 98.0837 148.129C98.565 148.794 98.9677 149.512 99.2837 150.269C99.6637 151.099 100.464 152.129 99.1136 152.729C97.9236 153.269 97.4137 152.239 96.8937 151.379C96.2237 150.269 95.5037 149.179 94.6837 147.899Z" fill="#003872"/>
<path fill-rule="evenodd" clip-rule="evenodd" d="M108.924 138.818C110.924 138.818 113.044 138.818 113.734 141.248C113.927 141.754 114.011 142.294 113.98 142.834C113.949 143.374 113.804 143.901 113.554 144.381C113.305 144.861 112.957 145.283 112.533 145.618C112.109 145.954 111.618 146.196 111.094 146.328C109.154 146.998 109.194 148.328 109.394 149.828C109.704 152.268 110.064 154.708 110.454 157.128C110.674 158.458 112.014 160.368 109.664 160.638C107.714 160.858 107.874 158.768 107.714 157.328C107.274 153.578 106.804 149.848 106.354 146.098C106.204 144.798 106.084 143.488 105.914 142.188C105.534 139.298 105.894 138.878 108.924 138.818ZM110.924 142.458C110.859 142.228 110.713 142.028 110.513 141.896C110.313 141.764 110.072 141.708 109.834 141.738C109.324 141.788 108.984 142.038 109.044 142.608C109.114 143.368 109.564 143.748 110.284 143.518C110.495 143.443 110.673 143.296 110.785 143.101C110.897 142.907 110.935 142.679 110.894 142.458H110.924Z" fill="#003872"/>
<path fill-rule="evenodd" clip-rule="evenodd" d="M118.384 152.619C118.197 153.148 118.059 153.694 117.974 154.249C117.884 155.419 117.874 156.859 116.304 156.649C114.734 156.439 115.154 154.909 115.224 153.839C115.484 150.249 115.814 146.669 116.104 143.079C116.194 141.929 116.234 140.379 117.504 140.239C118.475 140.146 119.455 140.251 120.384 140.546C121.314 140.842 122.174 141.322 122.914 141.959C123.36 142.335 123.657 142.859 123.748 143.436C123.84 144.012 123.721 144.603 123.414 145.099C123.204 145.539 123.104 146.159 122.754 146.399C119.614 148.479 119.984 150.629 122.464 152.959C122.626 153.087 122.755 153.254 122.838 153.445C122.92 153.635 122.955 153.842 122.938 154.049C122.921 154.256 122.854 154.455 122.741 154.63C122.629 154.804 122.475 154.948 122.294 155.049C121.634 155.539 121.084 155.179 120.594 154.739C119.894 154.089 119.234 153.439 118.384 152.619ZM120.794 145.169C120.584 143.719 120.074 143.409 119.694 143.459C118.974 143.529 118.744 144.189 118.694 144.849C118.677 144.965 118.69 145.083 118.73 145.193C118.769 145.303 118.836 145.402 118.922 145.481C119.009 145.56 119.114 145.616 119.227 145.646C119.341 145.675 119.46 145.676 119.574 145.649C119.996 145.541 120.403 145.38 120.784 145.169H120.794Z" fill="#003872"/>
<path fill-rule="evenodd" clip-rule="evenodd" d="M159.824 154.209C159.994 156.669 158.514 157.949 156.704 158.909C155.72 159.501 154.612 159.858 153.467 159.952C152.322 160.045 151.171 159.873 150.104 159.449C149.923 159.303 149.781 159.114 149.692 158.899C149.603 158.684 149.569 158.45 149.594 158.219C149.684 157.869 150.274 157.349 150.594 157.379C152.072 157.542 153.568 157.333 154.944 156.769C157.484 155.709 157.884 153.769 155.944 151.769C154.824 150.619 153.024 150.029 152.714 148.229C152.468 147.179 152.533 146.08 152.9 145.066C153.268 144.053 153.922 143.168 154.784 142.519C155.586 141.803 156.561 141.307 157.613 141.081C158.665 140.855 159.758 140.906 160.784 141.229C161.11 141.306 161.394 141.503 161.58 141.782C161.765 142.06 161.838 142.399 161.784 142.729C161.684 143.559 161.064 143.729 160.374 143.729C159.554 143.681 158.731 143.735 157.924 143.889C155.244 144.719 154.684 147.099 156.924 148.939C158.574 150.439 159.924 151.929 159.824 154.209Z" fill="#003872"/>
<path fill-rule="evenodd" clip-rule="evenodd" d="M132.564 148.109C131.674 150.109 127.664 148.279 128.424 151.379C128.924 153.379 131.354 151.529 132.824 152.209C133.613 152.447 134.43 152.584 135.254 152.619C136.054 152.769 137.034 152.879 136.814 154.019C136.594 155.159 135.604 155.019 134.814 154.909C132.348 154.699 129.869 154.699 127.404 154.909C125.984 154.989 125.164 154.219 125.334 152.799C125.694 149.699 125.994 146.579 126.644 143.539C127.294 140.499 130.644 139.669 132.904 142.059C133.034 142.164 133.131 142.303 133.186 142.461C133.24 142.619 133.249 142.789 133.212 142.952C133.174 143.114 133.092 143.263 132.974 143.381C132.855 143.499 132.706 143.582 132.544 143.619C131.907 143.755 131.25 143.755 130.614 143.619C129.614 143.499 129.024 143.749 128.894 144.789C128.764 145.829 129.104 146.679 130.424 146.719C130.884 146.682 131.343 146.798 131.73 147.05C132.118 147.301 132.411 147.674 132.564 148.109Z" fill="#003872"/>
<path fill-rule="evenodd" clip-rule="evenodd" d="M144.324 151.869C143.964 150.209 142.474 149.869 141.634 148.869C139.834 146.869 139.914 144.199 141.814 142.869C143.714 141.539 147.464 142.149 148.534 143.929C149.004 144.699 148.894 145.629 147.744 145.709C147.104 145.614 146.481 145.429 145.894 145.159C144.954 144.919 143.794 144.509 143.304 145.599C142.814 146.689 143.924 147.289 144.674 147.889C145.082 148.167 145.473 148.471 145.844 148.799C147.244 150.259 147.514 152.869 146.434 154.189C145.504 155.309 142.244 155.979 140.874 155.189C140.644 155.104 140.446 154.95 140.306 154.749C140.166 154.548 140.091 154.309 140.091 154.064C140.091 153.819 140.166 153.58 140.306 153.379C140.446 153.178 140.644 153.024 140.874 152.939C141.884 152.389 143.254 153.249 144.324 151.869Z" fill="#003872"/>
<path fill-rule="evenodd" clip-rule="evenodd" d="M184.784 90.4693C184.784 86.5193 184.784 82.5693 184.784 78.5993C184.675 77.4474 184.729 76.2861 184.944 75.1493C187.694 66.1493 185.833 56.8093 187.423 47.7493C187.793 45.6993 186.573 43.9893 186.423 42.0093C185.983 36.5193 187.494 31.1893 187.334 25.7393C187.334 24.1293 188.334 23.4093 189.874 23.3793C192.174 23.3793 194.493 23.1393 196.793 23.3793C210.443 24.5893 224.103 24.1393 237.733 23.1993C241.013 22.9793 244.264 22.3093 247.524 21.8693C249.141 21.5758 250.773 21.3755 252.414 21.2693C255.774 21.1893 256.144 21.5493 255.974 24.9093C255.484 34.9093 254.684 44.9693 254.404 55.0093C254.014 69.3193 251.804 83.5093 251.894 97.8393C251.894 100.309 251.954 102.789 252.154 105.239C252.354 107.689 251.154 108.959 248.774 109.009C246.394 109.059 243.823 109.009 241.353 109.009C236.247 108.894 231.138 109.085 226.053 109.579C222.613 109.95 219.149 110.047 215.694 109.869C207.124 109.329 198.563 109.139 189.983 109.109C184.803 109.109 184.623 108.829 184.673 103.859C184.673 99.4093 184.673 94.9593 184.673 90.5093L184.784 90.4693ZM248.584 99.8093C248.974 76.5693 252.064 54.1693 251.764 31.3293C241.924 32.2693 232.374 31.5393 222.844 32.1293C215.784 32.5693 208.684 31.8293 201.644 33.0293C197.984 33.6493 197.944 33.5893 197.974 37.3693C198.044 43.9593 198.454 50.5793 198.074 57.1493C197.404 68.8493 197.294 80.5493 197.214 92.2493C197.214 93.8893 196.854 95.7793 197.524 97.1293C198.524 99.0493 200.774 97.6693 202.444 98.1293C207.566 99.4813 212.937 99.5978 218.113 98.4693C218.915 98.277 219.755 98.3187 220.534 98.5893C224.784 100.389 229.224 99.9693 233.654 99.8693C238.444 99.7393 243.214 99.8093 248.584 99.8093Z" fill="#003872"/>
<path fill-rule="evenodd" clip-rule="evenodd" d="M185.564 168.109C187.444 168.339 188.104 169.709 188.064 171.539C188.085 172.031 188.008 172.522 187.838 172.984C187.667 173.447 187.406 173.87 187.07 174.23C186.734 174.591 186.33 174.88 185.88 175.083C185.431 175.285 184.946 175.396 184.454 175.409C182.454 175.409 181.524 173.829 181.714 171.069C181.854 169.159 183.324 168.009 185.564 168.109Z" fill="#003872"/>
<path fill-rule="evenodd" clip-rule="evenodd" d="M308.104 162.739C305.964 162.862 303.821 162.584 301.784 161.919C297.884 160.479 295.954 156.819 297.534 152.999C298.674 150.239 299.694 147.549 299.464 144.489C299.383 143.499 299.599 142.506 300.084 141.639C304.394 134.579 308.904 127.639 317.814 125.769C323.814 124.499 329.594 125.559 335.114 128.019C336.78 128.754 338.259 129.855 339.441 131.24C340.624 132.625 341.479 134.259 341.944 136.019C342.374 137.519 342.644 138.909 344.644 138.909C345.034 138.909 345.804 139.459 345.754 139.639C345.074 142.979 347.934 143.849 349.634 145.689C351.924 148.169 351.144 152.229 348.364 154.479C346.339 156.212 343.796 157.222 341.134 157.349C340.079 157.374 339.042 157.635 338.101 158.112C337.16 158.59 336.337 159.272 335.694 160.109C334.425 161.631 332.959 162.976 331.334 164.109C326.334 167.279 321.194 167.399 315.914 164.639C312.014 162.579 311.984 162.649 308.104 162.739ZM303.814 150.079C300.814 150.429 299.574 152.479 299.654 155.139C299.648 156.131 299.965 157.097 300.557 157.892C301.148 158.688 301.983 159.269 302.934 159.549C305.874 160.389 308.934 161.229 311.984 159.889C314.214 158.889 316.534 158.169 318.814 157.339C318.924 157.339 319.094 157.339 319.104 157.339C319.214 157.049 319.104 156.959 318.804 157.089C315.474 156.429 312.274 157.589 309.004 157.769C301.364 158.159 300.734 157.329 303.924 150.639C304.174 150.604 304.422 150.551 304.664 150.479C304.614 149.799 304.224 149.889 303.814 150.079ZM337.264 148.079C337.414 149.699 335.604 151.859 338.804 152.149C340.394 152.289 341.334 151.679 341.244 150.009C341.094 146.899 338.474 149.159 337.264 148.009V148.079ZM313.034 148.579C316.504 147.779 320.264 148.579 323.334 146.449C319.654 146.079 316.384 147.669 313.034 148.539V148.579ZM320.634 156.849L329.254 155.259C325.924 154.329 323.574 154.869 320.634 156.809V156.849ZM319.714 130.849C319.794 131.009 319.854 131.189 319.964 131.259C320.03 131.28 320.101 131.284 320.169 131.27C320.237 131.256 320.301 131.225 320.354 131.179C321.114 130.179 322.434 129.629 322.924 127.899C320.614 128.159 320.184 129.509 319.714 130.829V130.849ZM342.604 141.849C342.383 141.839 342.166 141.902 341.985 142.029C341.804 142.156 341.67 142.338 341.604 142.549C341.491 142.835 341.489 143.152 341.598 143.439C341.707 143.725 341.92 143.961 342.194 144.099C342.844 144.459 342.904 143.789 343.014 143.419C343.134 142.839 343.264 142.229 342.604 141.829V141.849ZM339.504 138.219C337.384 137.669 336.084 137.519 334.734 138.439C335.48 138.822 336.314 139.001 337.151 138.959C337.988 138.917 338.8 138.655 339.504 138.199V138.219ZM337.614 134.219C337.314 134.049 336.914 133.659 336.614 133.709C336.314 133.759 335.724 134.219 335.704 134.539C335.704 135.029 336.264 135.139 336.704 135.089C337.144 135.039 337.594 135.009 337.614 134.209V134.219ZM308.814 149.349C308.754 149.279 308.704 149.159 308.654 149.159C308.323 149.101 307.985 149.101 307.654 149.159C307.204 149.309 307.294 149.509 307.834 149.509C308.165 149.483 308.493 149.426 308.814 149.339V149.349Z" fill="#003872"/>
<path fill-rule="evenodd" clip-rule="evenodd" d="M289.574 54.5091C290.622 49.5556 293.072 45.0081 296.634 41.4091C299.647 38.5844 303.007 36.1549 306.634 34.1791C307.493 33.6786 308.419 33.3015 309.384 33.0591C311.244 32.5791 313.274 32.5391 314.134 34.5191C314.854 36.1991 313.654 37.7691 312.264 38.7291C310.332 40.2451 308.305 41.6346 306.194 42.8891C301.314 45.3891 296.974 48.6791 295.544 54.4891C295.331 55.2854 295.026 56.054 294.634 56.7791C293.804 58.3691 292.384 58.6191 290.824 58.1591C289.264 57.6991 289.674 56.3791 289.574 54.5091ZM295.914 48.3791C296.134 47.8591 296.334 47.3791 296.554 46.8291C296.818 46.8542 297.081 46.7734 297.285 46.6047C297.489 46.4359 297.618 46.1929 297.644 45.9291C298.059 45.6934 298.433 45.393 298.754 45.0391C298.974 44.7091 299.174 44.0391 298.994 43.8291C298.464 43.1491 297.894 43.5991 297.464 44.0691C297.16 44.4476 296.877 44.8414 296.614 45.2491C296.354 45.5991 296.094 45.9491 295.844 46.3091C295.264 47.0391 295.584 47.7391 295.904 48.4191L295.244 47.8191C295.154 47.9691 295.074 48.0991 295.004 48.2391L295.914 48.3791ZM310.204 35.6991C306.364 36.2991 303.834 39.1191 300.844 41.1891C300.423 41.403 300.03 41.6684 299.674 41.9791C299.414 42.2691 299.104 42.8491 299.224 43.0891C299.624 43.8791 300.224 43.4891 300.734 43.0891C301.077 42.7702 301.389 42.4185 301.664 42.0391C305.194 40.8491 308.664 39.6091 310.934 36.3291C311.224 35.9391 311.294 35.5291 310.814 35.2591C310.734 35.2091 310.384 35.5391 310.204 35.6991Z" fill="#003872"/>
<path fill-rule="evenodd" clip-rule="evenodd" d="M294.814 65.7585C294.808 66.2505 294.695 66.7353 294.481 67.1783C294.267 67.6214 293.958 68.012 293.576 68.3222C293.195 68.6325 292.749 68.8548 292.272 68.9734C291.794 69.092 291.296 69.104 290.814 69.0085C290.484 69.0069 290.159 68.9353 289.859 68.7987C289.559 68.662 289.292 68.4633 289.075 68.2157C288.857 67.9681 288.695 67.6772 288.598 67.3623C288.502 67.0473 288.473 66.7154 288.514 66.3885C288.514 64.3885 290.274 61.9585 291.704 61.9985C293.304 62.0585 294.894 64.0085 294.814 65.7585Z" fill="#003872"/>
<path fill-rule="evenodd" clip-rule="evenodd" d="M419.684 154.509C418.684 154.509 417.683 154.509 416.743 154.509C415.163 154.509 413.743 154.429 413.603 152.359C413.463 150.289 413.693 147.999 416.083 147.679C419.665 147.327 423.28 147.666 426.733 148.679C427.813 148.959 428.113 149.979 428.053 151.049C428.041 151.794 427.791 152.517 427.34 153.11C426.888 153.704 426.259 154.138 425.543 154.349C423.633 155.009 421.634 154.599 419.684 154.509ZM425.993 151.189C423.319 150.073 420.427 149.578 417.533 149.739C416.853 149.789 416.284 150.029 416.194 150.829C416.162 150.99 416.163 151.155 416.196 151.316C416.229 151.477 416.295 151.629 416.388 151.764C416.481 151.9 416.6 152.015 416.739 152.103C416.877 152.191 417.032 152.251 417.194 152.279C419.894 152.669 422.723 153.499 425.993 151.189Z" fill="#003872"/>
<path fill-rule="evenodd" clip-rule="evenodd" d="M110.904 142.459C110.934 142.684 110.887 142.912 110.771 143.106C110.655 143.3 110.476 143.45 110.264 143.529C109.534 143.759 109.084 143.369 109.014 142.619C109.014 142.049 109.304 141.799 109.804 141.749C110.042 141.715 110.284 141.769 110.486 141.899C110.688 142.029 110.836 142.228 110.904 142.459Z" fill="#F7E74D"/>
<path fill-rule="evenodd" clip-rule="evenodd" d="M120.784 145.169C120.418 145.389 120.019 145.551 119.604 145.649C119.49 145.676 119.371 145.675 119.257 145.646C119.144 145.617 119.039 145.56 118.952 145.481C118.866 145.403 118.8 145.304 118.76 145.194C118.72 145.083 118.708 144.965 118.724 144.849C118.724 144.189 118.964 143.529 119.724 143.459C120.064 143.409 120.574 143.719 120.784 145.169Z" fill="#F7E74D"/>
<path fill-rule="evenodd" clip-rule="evenodd" d="M248.584 99.8086C243.214 99.8086 238.444 99.7386 233.664 99.8086C229.234 99.9086 224.794 100.329 220.544 98.5285C219.764 98.2629 218.926 98.2213 218.124 98.4086C212.948 99.5421 207.576 99.4255 202.454 98.0686C200.784 97.6486 198.454 99.0686 197.534 97.0686C196.864 95.7286 197.214 93.8386 197.224 92.1886C197.294 80.4786 197.404 68.7886 198.084 57.0886C198.464 50.5186 198.084 43.8986 197.984 37.3086C197.984 33.5286 197.984 33.5886 201.654 32.9686C208.654 31.7786 215.794 32.5086 222.854 32.0686C232.394 31.4786 241.944 32.2086 251.774 31.2686C252.074 54.1686 248.994 76.5686 248.584 99.8086ZM241.854 69.8986C241.829 69.5582 241.762 69.2223 241.654 68.8986C238.838 63.7054 236.304 58.3644 234.064 52.8986C233.674 51.8986 232.654 51.6386 231.564 52.1886C230.474 52.7386 229.304 53.3586 229.614 54.6886C230.954 60.4286 232.294 66.2085 235.904 71.0686C237.024 72.5886 238.844 72.2386 240.394 72.0686C241.474 72.0086 241.864 71.0086 241.854 69.8986ZM244.854 77.2186C244.744 75.7686 244.124 74.4786 242.374 74.3686C241.467 74.261 240.555 74.516 239.836 75.0779C239.117 75.6398 238.649 76.4631 238.534 77.3686C238.144 79.2186 239.384 80.0286 240.954 80.2986C241.872 80.3569 242.779 80.0751 243.502 79.5069C244.225 78.9388 244.713 78.1241 244.874 77.2186H244.854Z" fill="#FDF9F7"/>
<path fill-rule="evenodd" clip-rule="evenodd" d="M318.814 157.339C316.534 158.189 314.214 158.929 311.984 159.889C308.874 161.219 305.874 160.379 302.934 159.549C301.983 159.269 301.148 158.688 300.557 157.892C299.965 157.097 299.648 156.13 299.654 155.139C299.584 152.479 300.804 150.429 303.804 150.079L303.684 150.379L303.934 150.599C300.734 157.299 301.354 158.129 309.004 157.739C312.274 157.579 315.484 156.399 318.804 157.059C318.797 157.153 318.801 157.246 318.814 157.339Z" fill="#F9E8E2"/>
<path fill-rule="evenodd" clip-rule="evenodd" d="M337.264 148.009C338.474 149.129 341.094 146.879 341.264 149.949C341.354 151.609 340.414 152.219 338.824 152.079C335.604 151.809 337.384 149.649 337.264 148.009Z" fill="#F9E8E2"/>
<path fill-rule="evenodd" clip-rule="evenodd" d="M313.034 148.539C316.374 147.669 319.654 146.079 323.334 146.409C320.264 148.539 316.504 147.739 313.034 148.539Z" fill="#E4AA9C"/>
<path fill-rule="evenodd" clip-rule="evenodd" d="M320.634 156.809C323.574 154.869 325.924 154.329 329.254 155.219L320.634 156.809Z" fill="#E4AA9C"/>
<path fill-rule="evenodd" clip-rule="evenodd" d="M319.714 130.829C320.184 129.509 320.614 128.159 322.924 127.879C322.434 129.609 321.104 130.199 320.354 131.159C320.301 131.204 320.237 131.235 320.169 131.249C320.101 131.263 320.03 131.26 319.964 131.239C319.854 131.169 319.804 131.009 319.714 130.829Z" fill="#E4AA9C"/>
<path fill-rule="evenodd" clip-rule="evenodd" d="M342.604 141.829C343.264 142.229 343.144 142.829 342.984 143.399C342.864 143.779 342.804 144.399 342.164 144.079C341.891 143.939 341.68 143.703 341.571 143.417C341.462 143.131 341.463 142.814 341.574 142.529C341.63 142.307 341.766 142.113 341.956 141.984C342.146 141.855 342.376 141.8 342.604 141.829Z" fill="#E4AA9C"/>
<path fill-rule="evenodd" clip-rule="evenodd" d="M339.503 138.198C338.799 138.654 337.986 138.914 337.148 138.953C336.31 138.992 335.477 138.807 334.733 138.418C336.083 137.498 337.383 137.648 339.503 138.198Z" fill="#F9E8E2"/>
<path fill-rule="evenodd" clip-rule="evenodd" d="M337.613 134.209C337.613 134.969 337.093 135.039 336.613 135.079C336.133 135.119 335.613 135.019 335.613 134.529C335.613 134.219 336.173 133.759 336.523 133.699C336.873 133.639 337.303 134.009 337.613 134.209Z" fill="#F9E8E2"/>
<path fill-rule="evenodd" clip-rule="evenodd" d="M308.813 149.338C308.502 149.421 308.184 149.474 307.863 149.498C307.303 149.498 307.223 149.288 307.683 149.148C308.014 149.09 308.353 149.09 308.683 149.148C308.703 149.148 308.753 149.268 308.813 149.338Z" fill="#E4AA9C"/>
<path fill-rule="evenodd" clip-rule="evenodd" d="M303.803 150.078C304.233 149.888 304.623 149.798 304.663 150.438C304.424 150.509 304.18 150.563 303.933 150.598L303.693 150.378L303.803 150.078Z" fill="#E4AA9C"/>
<path fill-rule="evenodd" clip-rule="evenodd" d="M318.814 157.339C318.809 157.242 318.809 157.145 318.814 157.049C319.114 156.929 319.234 157.049 319.124 157.309C319.084 157.349 318.924 157.329 318.814 157.339Z" fill="#E4AA9C"/>
<path fill-rule="evenodd" clip-rule="evenodd" d="M300.844 41.1785C303.844 39.1085 306.364 36.2885 310.214 35.6885C310.433 35.9277 310.678 36.1423 310.944 36.3285C308.694 39.6085 305.204 40.8485 301.674 42.0385C301.384 41.7585 301.124 41.4685 300.844 41.1785Z" fill="#F9E8E2"/>
<path fill-rule="evenodd" clip-rule="evenodd" d="M296.614 45.2484C296.87 44.8362 297.154 44.4419 297.464 44.0684C297.894 43.5984 298.464 43.1484 298.994 43.8284C299.174 44.0384 298.994 44.7084 298.754 45.0384C298.429 45.3877 298.055 45.6875 297.644 45.9284C297.294 45.7084 296.954 45.4784 296.614 45.2484Z" fill="#F9E8E2"/>
<path fill-rule="evenodd" clip-rule="evenodd" d="M301.674 42.0084C301.393 42.3681 301.082 42.7028 300.744 43.0084C300.264 43.3984 299.634 43.7784 299.234 43.0084C299.114 42.7784 299.424 42.1884 299.684 41.8984C300.039 41.5877 300.432 41.3223 300.854 41.1084C301.124 41.4684 301.384 41.7584 301.674 42.0084Z" fill="#F9E8E2"/>
<path fill-rule="evenodd" clip-rule="evenodd" d="M310.204 35.6989C310.424 35.5489 310.734 35.2089 310.824 35.2589C311.304 35.5289 311.214 35.9389 310.944 36.3289C310.677 36.1438 310.429 35.9327 310.204 35.6989Z" fill="#F9E8E2"/>
<path fill-rule="evenodd" clip-rule="evenodd" d="M297.643 45.9293C297.604 46.1889 297.47 46.4247 297.267 46.5909C297.063 46.7572 296.806 46.8421 296.543 46.8293C296.324 46.6305 296.086 46.4531 295.833 46.2993L296.613 45.2393C296.953 45.4793 297.303 45.7093 297.643 45.9293Z" fill="#F9E8E2"/>
<path fill-rule="evenodd" clip-rule="evenodd" d="M296.544 46.8288C296.324 47.3488 296.114 47.8288 295.904 48.3788V48.4288C295.584 47.7288 295.254 47.0388 295.834 46.2988C296.085 46.4551 296.322 46.6324 296.544 46.8288Z" fill="#F9E8E2"/>
<path fill-rule="evenodd" clip-rule="evenodd" d="M295.913 48.3786C295.613 48.3786 295.303 48.2886 295.003 48.2286C295.083 48.0886 295.173 47.9586 295.243 47.8086L295.903 48.4186L295.913 48.3786Z" fill="#F9E8E2"/>
<path fill-rule="evenodd" clip-rule="evenodd" d="M425.993 151.189C422.743 153.499 419.903 152.659 417.143 152.279C416.98 152.254 416.824 152.196 416.684 152.109C416.544 152.021 416.424 151.906 416.33 151.77C416.237 151.634 416.172 151.481 416.139 151.319C416.107 151.157 416.109 150.99 416.143 150.829C416.243 150.039 416.803 149.829 417.483 149.739C420.393 149.571 423.303 150.066 425.993 151.189Z" fill="#F9E8E2"/>
<path fill-rule="evenodd" clip-rule="evenodd" d="M241.854 69.8988C241.854 70.9788 241.474 72.0488 240.384 72.1588C238.844 72.3188 237.024 72.6588 235.894 71.1588C232.294 66.2988 230.964 60.5188 229.614 54.7788C229.304 53.4488 230.504 52.7788 231.564 52.2788C231.766 52.1312 231.999 52.0316 232.246 51.9876C232.492 51.9436 232.746 51.9563 232.987 52.0247C233.228 52.0931 233.45 52.2155 233.636 52.3825C233.823 52.5495 233.969 52.7569 234.064 52.9888C236.297 58.4563 238.827 63.7976 241.644 68.9888C241.753 69.2815 241.824 69.5875 241.854 69.8988Z" fill="#003872"/>
<path fill-rule="evenodd" clip-rule="evenodd" d="M244.874 77.2184C244.709 78.1176 244.22 78.925 243.499 79.4873C242.778 80.0495 241.876 80.3275 240.964 80.2684C239.404 79.9984 238.164 79.1884 238.554 77.3384C238.671 76.4341 239.14 75.6124 239.859 75.051C240.577 74.4896 241.488 74.2336 242.394 74.3384C244.144 74.4784 244.764 75.7684 244.874 77.2184Z" fill="#003872"/>
</svg>
