<svg width="32" height="32" viewBox="0 0 32 32" fill="none" xmlns="http://www.w3.org/2000/svg">
<path d="M22.0188 3H1.58008V30H28.5801L28.5799 3H22.0188ZM3.90266 5.32263H26.2575L26.2577 8.4H3.90286L3.90266 5.32263ZM18.651 22.2775L9.33169 12.9291V10.7225H11.5091L20.8575 20.0709V22.2773L18.651 22.2775ZM9.33169 16.2097L13.9188 20.7968V22.2774L9.33169 22.2776V16.2097ZM20.8575 16.7903L16.2412 12.2034V10.7226H20.8575V16.7903ZM3.90266 10.7226H7.00921V22.2774H3.90266V10.7226ZM26.2575 27.6774H3.90266V24.6001H26.2575V27.6774ZM26.2575 22.2774L23.1801 22.2776V10.7228H26.2577L26.2575 22.2774Z" fill="#203475"/>
<circle cx="23.5801" cy="24" r="8" fill="white"/>
<path d="M21.9652 25.1375L20.4555 23.7368L18.5801 25.4771L22.3762 29L28.5801 20.3661L26.3731 19L21.9652 25.1375Z" fill="#E11C22"/>
</svg>
