<svg width="32" height="32" viewBox="0 0 32 32" fill="none" xmlns="http://www.w3.org/2000/svg">
<path fill-rule="evenodd" clip-rule="evenodd" d="M1.58092 8.34252C1.58092 6.14477 3.34869 4.36328 5.52963 4.36328H17.0161C19.1971 4.36328 20.9649 6.14483 20.9649 8.34252V8.70444H23.8566C25.3523 8.70444 26.7195 9.55593 27.3883 10.9041L29.1633 14.4815C29.4373 15.0341 29.5801 15.6433 29.5801 16.261V22.8131C29.5801 24.2116 28.4551 25.3454 27.0674 25.3454H26.2078L26.045 25.5913C24.4821 27.954 21.0372 27.954 19.4741 25.5913L19.3114 25.3454H11.8488L11.686 25.5913C10.1231 27.954 6.67821 27.954 5.11511 25.5913L4.95237 25.3454H4.09276C2.70504 25.3454 1.58008 24.2116 1.58008 22.8131L1.58092 8.34252ZM19.8882 19.5576H18.4524C17.8577 19.5576 17.3755 19.0717 17.3755 18.4723C17.3755 17.873 17.8577 17.387 18.4524 17.387H18.8113V8.34252C18.8113 7.34374 18.0077 6.53386 17.0164 6.53386H5.52987C4.53857 6.53386 3.73496 7.34374 3.73496 8.34252V22.8135C3.73496 23.0133 3.89578 23.1752 4.09384 23.1752H5.52987C5.88996 23.1752 6.22598 23.3564 6.42579 23.6585L6.90823 24.3874C7.61855 25.4615 9.18437 25.4615 9.89494 24.3874L10.3771 23.6585C10.5769 23.3564 10.9132 23.1752 11.2732 23.1752H19.8884C20.2485 23.1752 20.5845 23.3564 20.7844 23.6585L21.2668 24.3874C21.9771 25.4615 23.5432 25.4615 24.2537 24.3874L24.7359 23.6585C24.9357 23.3564 25.2717 23.1752 25.6319 23.1752H27.0679C27.2662 23.1752 27.4268 23.0133 27.4268 22.8135V16.2614C27.4268 15.9807 27.3619 15.7038 27.2374 15.4525L25.4624 11.8752C25.1583 11.2625 24.5369 10.8754 23.8571 10.8754H20.9654V17.3871H24.1961C24.7908 17.3871 25.273 17.8731 25.273 18.4724C25.273 19.0718 24.7908 19.5577 24.1961 19.5577L19.8882 19.5576Z" fill="#203475"/>
<path fill-rule="evenodd" clip-rule="evenodd" d="M5.52169 13.7749L10.7884 8.48435C11.1116 8.1597 11.6356 8.1597 11.9588 8.48435L17.2255 13.7749C17.5487 14.0995 17.5487 14.6259 17.2255 14.9505C16.9023 15.2752 16.3783 15.2752 16.0551 14.9505L12.2012 11.0792L12.2012 18.9968C12.2012 19.456 11.8307 19.8282 11.3736 19.8282C10.9165 19.8282 10.546 19.456 10.546 18.9968L10.546 11.0792L6.69208 14.9505C6.36888 15.2752 5.84488 15.2752 5.52169 14.9505C5.1985 14.6259 5.1985 14.0995 5.52169 13.7749Z" fill="#E11C22"/>
</svg>
