<svg width="28" height="28" viewBox="0 0 28 28" fill="none" xmlns="http://www.w3.org/2000/svg">
<path d="M14.001 3.6875C11.2002 3.6875 10.8487 3.69975 9.74874 3.7498C8.65087 3.80008 7.90149 3.97389 7.24578 4.22891C6.56751 4.4923 5.99215 4.84465 5.41894 5.41807C4.84531 5.99127 4.49296 6.56662 4.2287 7.24467C3.97303 7.90059 3.799 8.65018 3.74959 9.7476C3.70039 10.8476 3.6875 11.1993 3.6875 14C3.6875 16.8007 3.69996 17.1511 3.74981 18.2511C3.80029 19.349 3.9741 20.0983 4.22891 20.754C4.49253 21.4323 4.84488 22.0077 5.4183 22.5809C5.99129 23.1545 6.56665 23.5077 7.24449 23.7711C7.90063 24.0261 8.65023 24.1999 9.74788 24.2502C10.8479 24.3003 11.1992 24.3125 13.9997 24.3125C16.8006 24.3125 17.151 24.3003 18.2511 24.2502C19.3489 24.1999 20.0992 24.0261 20.7553 23.7711C21.4333 23.5077 22.0078 23.1545 22.5808 22.5809C23.1545 22.0077 23.5068 21.4323 23.7711 20.7543C24.0246 20.0983 24.1986 19.3487 24.2502 18.2513C24.2996 17.1513 24.3125 16.8007 24.3125 14C24.3125 11.1993 24.2996 10.8478 24.2502 9.74781C24.1986 8.64996 24.0246 7.90059 23.7711 7.24488C23.5068 6.56662 23.1545 5.99127 22.5808 5.41807C22.0072 4.84443 21.4336 4.49209 20.7547 4.22891C20.0972 3.97389 19.3474 3.80008 18.2495 3.7498C17.1495 3.69975 16.7993 3.6875 13.9977 3.6875H14.001ZM13.0758 5.5459C13.3504 5.54547 13.6568 5.5459 14.001 5.5459C16.7544 5.5459 17.0808 5.55578 18.1681 5.6052C19.1736 5.65117 19.7193 5.81918 20.0828 5.96033C20.5641 6.14725 20.9072 6.37068 21.2679 6.73162C21.6289 7.09256 21.8523 7.43631 22.0396 7.91756C22.1808 8.28064 22.349 8.82635 22.3948 9.83182C22.4442 10.9189 22.4549 11.2455 22.4549 13.9976C22.4549 16.7498 22.4442 17.0763 22.3948 18.1635C22.3488 19.1689 22.1808 19.7146 22.0396 20.0777C21.8527 20.559 21.6289 20.9016 21.2679 21.2624C20.907 21.6233 20.5643 21.8467 20.0828 22.0337C19.7197 22.1754 19.1736 22.343 18.1681 22.389C17.081 22.4384 16.7544 22.4492 14.001 22.4492C11.2473 22.4492 10.9209 22.4384 9.83382 22.389C8.82834 22.3426 8.28263 22.1746 7.91889 22.0334C7.43764 21.8465 7.09388 21.6231 6.73294 21.2621C6.372 20.9012 6.14856 20.5583 5.96122 20.0769C5.82006 19.7138 5.65184 19.1681 5.60607 18.1626C5.55666 17.0755 5.54678 16.7489 5.54678 13.9951C5.54678 11.2412 5.55666 10.9163 5.60607 9.82924C5.65205 8.82377 5.82006 8.27807 5.96122 7.91455C6.14813 7.4333 6.372 7.08955 6.73294 6.72861C7.09388 6.36768 7.43764 6.14424 7.91889 5.95689C8.28241 5.8151 8.82834 5.64752 9.83382 5.60133C10.7852 5.55836 11.1538 5.54547 13.0758 5.54332V5.5459ZM19.5058 7.2582C18.8225 7.2582 18.2682 7.81185 18.2682 8.49527C18.2682 9.17848 18.8225 9.73277 19.5058 9.73277C20.189 9.73277 20.7433 9.17848 20.7433 8.49527C20.7433 7.81207 20.189 7.25777 19.5058 7.25777V7.2582ZM14.001 8.7041C11.0763 8.7041 8.70501 11.0753 8.70501 14C8.70501 16.9247 11.0763 19.2948 14.001 19.2948C16.9257 19.2948 19.2961 16.9247 19.2961 14C19.2961 11.0753 16.9255 8.7041 14.0008 8.7041H14.001ZM14.001 10.5625C15.8993 10.5625 17.4385 12.1014 17.4385 14C17.4385 15.8984 15.8993 17.4375 14.001 17.4375C12.1024 17.4375 10.5634 15.8984 10.5634 14C10.5634 12.1014 12.1024 10.5625 14.001 10.5625Z" fill="#4D4D4D"/>
</svg>
