<svg width="28" height="28" viewBox="0 0 28 28" fill="none" xmlns="http://www.w3.org/2000/svg">
<path d="M24 12.4319C22.034 12.4367 20.1162 11.8197 18.5176 10.6683V18.6988C18.5171 20.1861 18.0653 21.6378 17.2226 22.8598C16.38 24.0818 15.1867 25.0158 13.8022 25.537C12.4178 26.0581 10.9082 26.1415 9.47537 25.7761C8.04254 25.4107 6.75472 24.6138 5.78412 23.4921C4.81353 22.3703 4.20642 20.9771 4.04397 19.4988C3.88153 18.0205 4.17149 16.5275 4.87509 15.2194C5.57869 13.9114 6.66238 12.8507 7.98127 12.1791C9.30016 11.5076 10.7914 11.2572 12.2555 11.4614V15.5004C11.5855 15.2884 10.8661 15.2948 10.1999 15.5187C9.53373 15.7426 8.95491 16.1726 8.54609 16.7473C8.13728 17.3219 7.91939 18.0119 7.92352 18.7186C7.92766 19.4253 8.15362 20.1126 8.56913 20.6824C8.98464 21.2522 9.56846 21.6753 10.2372 21.8913C10.906 22.1073 11.6254 22.1052 12.2929 21.8852C12.9604 21.6652 13.5417 21.2387 13.9538 20.6664C14.366 20.0942 14.5879 19.4055 14.5879 18.6988V3H18.5176C18.5149 3.33392 18.5427 3.66738 18.6007 3.99617C18.7372 4.73015 19.0211 5.42838 19.4351 6.04815C19.849 6.66793 20.3843 7.19622 21.0081 7.60072C21.8955 8.19118 22.9361 8.5059 24 8.50567V12.4319Z" fill="#4D4D4D"/>
</svg>
