<svg width="32" height="32" viewBox="0 0 32 32" fill="none" xmlns="http://www.w3.org/2000/svg">
<path d="M29.1841 10.3772L26.9346 4.79621C26.7417 4.31817 26.238 4 25.6741 4H6.48585C5.92195 4 5.41827 4.31817 5.22536 4.79621L2.97675 10.3772C2.32294 11.9972 2.48443 13.6747 3.40884 14.8646C3.76134 15.3189 4.2075 15.6776 4.71908 15.944V25.371C4.71908 27.3721 6.52338 29 8.74144 29H23.4185C25.6366 29 27.4409 27.3721 27.4409 25.371V15.944C27.9525 15.6776 28.3986 15.3189 28.7511 14.8647C29.6755 13.6747 29.837 11.9972 29.1841 10.3772ZM26.664 11.2041C27.0184 12.083 26.9774 12.9328 26.5549 13.477C26.259 13.8586 25.7955 14.0519 25.1774 14.0519C23.4185 14.0519 21.5985 12.428 21.3593 10.645L20.7916 6.41935H24.7349L26.664 11.2041ZM17.9323 13.2833C17.5884 13.6341 16.9869 14.0519 16.08 14.0519C15.173 14.0519 14.5716 13.6341 14.2277 13.2833C13.6323 12.6776 13.3469 11.7999 13.463 10.9363L14.0699 6.41935H18.0901L18.697 10.9363C18.8131 11.7999 18.5276 12.6776 17.9323 13.2833ZM5.49684 11.2041L7.42509 6.41935H11.3684L10.8006 10.645C10.5615 12.428 8.74144 14.0519 6.98254 14.0519C6.36451 14.0519 5.901 13.8586 5.60508 13.477C5.18259 12.9328 5.14156 12.083 5.49684 11.2041ZM13.4368 26.5806V24.904C13.4368 23.5891 14.6222 22.5196 16.08 22.5196C17.5377 22.5196 18.7232 23.5891 18.7232 24.904V26.5806H13.4368ZM23.4185 26.5806H21.4047V24.904C21.4047 22.255 19.0164 20.1003 16.08 20.1003C13.1435 20.1003 10.7552 22.255 10.7552 24.904V26.5806H8.74144C8.00209 26.5806 7.40066 26.038 7.40066 25.371V16.4502C9.04554 16.3311 10.6168 15.5239 11.755 14.3341C11.8976 14.5265 12.0496 14.7135 12.2209 14.8879C13.2238 15.9089 14.5943 16.4713 16.08 16.4713C17.5657 16.4713 18.9361 15.9089 19.9391 14.8879C20.1104 14.7135 20.2624 14.5265 20.405 14.3341C21.5431 15.5239 23.1144 16.3311 24.7593 16.4502V25.371C24.7593 26.038 24.1579 26.5806 23.4185 26.5806Z" fill="#203475"/>
<circle cx="23.5801" cy="9" r="8" fill="white"/>
<path fill-rule="evenodd" clip-rule="evenodd" d="M24.9135 5H22.2469V7.66669H19.5801V10.3333H22.2469V13H24.9135V10.3333H27.5801V7.66669H24.9135V5Z" fill="#E11C22"/>
</svg>
