<svg width="32" height="32" viewBox="0 0 32 32" fill="none" xmlns="http://www.w3.org/2000/svg">
<path fill-rule="evenodd" clip-rule="evenodd" d="M5.84931 7.75H6.27239H24.8878H25.3108C26.741 7.75 27.8301 8.93747 27.8301 10.3125V10.75V18H25.3301V11.9612C24.4662 11.7924 23.8208 11.0919 23.6709 10.25H7.48948C7.41625 10.6641 7.22231 11.0533 6.92312 11.3627C6.6272 11.6687 6.24594 11.8775 5.83008 11.9602V20.0398C6.24595 20.1225 6.6272 20.3313 6.92312 20.6373C7.22231 20.9467 7.41625 21.3359 7.48948 21.75H19.5801V24.25H6.27239H5.84931C5.16739 24.25 4.52223 23.9695 4.05326 23.4845C3.58566 23.001 3.33008 22.3538 3.33008 21.6875V21.25V10.75V10.3125C3.33008 8.93747 4.41917 7.75 5.84931 7.75ZM14.0854 14.3941C14.4892 13.9765 15.0277 13.75 15.5801 13.75C16.1324 13.75 16.671 13.9765 17.0748 14.3941C17.48 14.8131 17.7147 15.39 17.7147 16C17.7147 16.61 17.48 17.1869 17.0748 17.6059C16.671 18.0235 16.1324 18.25 15.5801 18.25C15.0277 18.25 14.4892 18.0235 14.0854 17.6059C13.6802 17.1869 13.4455 16.61 13.4455 16C13.4455 15.39 13.6802 14.8131 14.0854 14.3941ZM15.5801 11.25C14.3371 11.25 13.1539 11.761 12.2882 12.6562C11.4239 13.5499 10.9455 14.7535 10.9455 16C10.9455 17.2465 11.4239 18.4501 12.2882 19.3438C13.1539 20.239 14.3371 20.75 15.5801 20.75C16.823 20.75 18.0063 20.239 18.8719 19.3438C19.7362 18.4501 20.2147 17.2465 20.2147 16C20.2147 14.7535 19.7362 13.5499 18.8719 12.6562C18.0063 11.761 16.823 11.25 15.5801 11.25ZM8.81085 14.75C8.12049 14.75 7.56085 15.3096 7.56085 16V16.0093C7.56085 16.6997 8.12049 17.2593 8.81085 17.2593H8.81987C9.51023 17.2593 10.0699 16.6997 10.0699 16.0093V16C10.0699 15.3096 9.51023 14.75 8.81987 14.75H8.81085ZM22.3493 14.75C21.659 14.75 21.0993 15.3096 21.0993 16V16.0093C21.0993 16.6997 21.659 17.2593 22.3493 17.2593H22.3583C23.0487 17.2593 23.6083 16.6997 23.6083 16.0093V16C23.6083 15.3096 23.0487 14.75 22.3583 14.75H22.3493Z" fill="#203475"/>
<path d="M27.8299 26H21.7051C21.2212 26 20.8301 26.3911 20.8301 26.875V27.75C20.8301 28.2339 21.2212 28.625 21.7051 28.625H27.8299C28.3138 28.625 28.7049 28.2339 28.7049 27.75V26.875C28.7049 26.3911 28.3138 26 27.8299 26Z" fill="#E11C22"/>
<path d="M28.7049 22.5H22.5801C22.0962 22.5 21.7051 22.8911 21.7051 23.375V24.25C21.7051 24.7339 22.0962 25.125 22.5801 25.125H28.7049C29.1888 25.125 29.5799 24.7339 29.5799 24.25V23.375C29.5799 22.8911 29.1888 22.5 28.7049 22.5Z" fill="#E11C22"/>
<path d="M21.7051 21.625H27.8299C28.3138 21.625 28.7049 21.2339 28.7049 20.75V19.875C28.7049 19.3911 28.3138 19 27.8299 19H21.7051C21.2212 19 20.8301 19.3911 20.8301 19.875V20.75C20.8301 21.2339 21.2212 21.625 21.7051 21.625Z" fill="#E11C22"/>
</svg>
