<svg width="32" height="32" viewBox="0 0 32 32" fill="none" xmlns="http://www.w3.org/2000/svg">
<path d="M27.5358 9C29.0119 9 30.2211 10.1422 30.3282 11.591L30.3358 11.8V14.991C30.3358 16.0039 29.7909 16.9214 28.9381 17.4146L28.9358 25.8001C28.9358 28.0368 27.1873 29.8651 24.9827 29.9928L24.7358 30H7.9359C5.69921 30 3.87087 28.2516 3.74317 26.0469L3.73594 25.8001L3.73497 17.4156C2.94472 16.9592 2.41877 16.1389 2.34492 15.2154L2.33594 14.9912V11.8002C2.33594 10.3241 3.47813 9.11487 4.92693 9.00782L5.13591 9.0002L27.5358 9ZM26.1358 18.408L20.5348 20.2761C20.4944 21.7872 19.2567 22.9999 17.7358 22.9999H14.9358C13.3893 22.9999 12.1358 21.7464 12.1358 20.2L12.1386 20.2769L6.53609 18.408V25.7999C6.53609 26.5179 7.07654 27.1097 7.77279 27.1905L7.93607 27.1999H24.736C25.4539 27.1999 26.0457 26.6595 26.1266 25.9632L26.136 25.7999L26.1358 18.408ZM17.7358 17.4H14.9358V20.2H17.7358V17.4ZM27.5358 11.8H5.13587V14.991L12.1368 17.3244C12.1769 15.8129 13.4148 14.6 14.9358 14.6H17.7358C19.2823 14.6 20.5358 15.8535 20.5358 17.4L20.5331 17.3244L27.5355 14.991L27.5358 11.8Z" fill="#203475"/>
<path fill-rule="evenodd" clip-rule="evenodd" d="M9 3.60712C9 2.71953 9.71953 2 10.6071 2C10.6699 2 10.7319 2.0036 10.7928 2.01061C10.8609 2.00359 10.93 2 11 2H20.7852H21.9995H22C23.1046 2 24 2.89543 24 4V5H23.9995V7C23.9995 7.55228 23.5518 8 22.9995 8H21.7852C21.2329 8 20.7852 7.55228 20.7852 7V5H12.2142V7C12.2142 7.55228 11.7665 8 11.2142 8H10C9.44771 8 9 7.55228 9 7V5V4V3.60712Z" fill="#E11C22"/>
</svg>
