<svg width="32" height="32" viewBox="0 0 32 32" fill="none" xmlns="http://www.w3.org/2000/svg">
<path d="M14.3851 17.1375L12.8754 15.7368L11 17.4771L14.7961 21L21 12.3661L18.793 11L14.3851 17.1375Z" fill="#E11C22"/>
<path d="M26.0225 7.31515C24.6916 7.31515 21.5967 7.00018 21.5967 4.07879V3H10.5322V4.07879C10.5322 7.00021 7.43741 7.31515 6.10645 7.31515H5V19.1818C5 23.908 14.518 28.3065 15.6029 28.7929L16.0643 29L16.5256 28.7939C17.6111 28.3065 27.1286 23.9083 27.1286 19.1822V7.3155L26.0225 7.31515ZM24.9161 19.1818C24.9161 21.6069 19.6703 24.9254 16.0645 26.6199C12.4574 24.9271 7.2129 21.6098 7.2129 19.1818V9.41663C10.1803 9.106 12.1853 7.52875 12.6444 5.15758H19.4854C19.9435 7.52875 21.9484 9.106 24.9159 9.41663L24.9161 19.1818Z" fill="#203475"/>
</svg>
