<svg width="40" height="40" viewBox="0 0 40 40" fill="none" xmlns="http://www.w3.org/2000/svg">
<path d="M33.3804 25.5011C34.1028 23.757 34.4746 21.8878 34.4746 20C34.4746 16.1875 32.9601 12.5312 30.2643 9.83534C27.5684 7.1395 23.9121 5.625 20.0996 5.625C16.2871 5.625 12.6308 7.1395 9.93495 9.83534C7.23911 12.5312 5.72461 16.1875 5.72461 20C5.72461 21.8878 6.09643 23.757 6.81884 25.5011C7.54125 27.2451 8.60011 28.8298 9.93495 30.1647C11.2698 31.4995 12.8545 32.5584 14.5985 33.2808C16.3426 34.0032 18.2119 34.375 20.0996 34.375C21.9874 34.375 23.8566 34.0032 25.6007 33.2808C27.3447 32.5584 28.9294 31.4995 30.2643 30.1647C31.5991 28.8298 32.658 27.2451 33.3804 25.5011Z" stroke="#203475" stroke-width="3" stroke-linecap="round" stroke-linejoin="round"/>
<path d="M20.0996 12.1592V21.3069H27.9405" stroke="#203475" stroke-width="3" stroke-linecap="round"/>
<circle cx="28.2246" cy="28.75" r="10" fill="white"/>
<path fill-rule="evenodd" clip-rule="evenodd" d="M25.5725 23.4463L22.9209 26.0979L25.5729 28.75L22.9214 31.4015L25.5731 34.0531L28.2246 31.4016L30.8758 34.0529L33.5275 31.4012L30.8762 28.75L33.528 26.0982L30.8764 23.4465L28.2246 26.0983L25.5725 23.4463Z" fill="#E11C22"/>
</svg>
