<svg width="40" height="40" viewBox="0 0 40 40" fill="none" xmlns="http://www.w3.org/2000/svg">
<path d="M19.4746 33.75C22.5225 33.7498 25.4841 32.7374 27.8942 30.8717C30.3044 29.006 32.0267 26.3927 32.7907 23.4421M19.4746 33.75C16.4267 33.7498 13.4652 32.7374 11.055 30.8717C8.64481 29.006 6.92251 26.3927 6.1585 23.4421M19.4746 33.75C23.2711 33.75 26.3496 27.5931 26.3496 20C26.3496 12.4069 23.2711 6.25 19.4746 6.25M19.4746 33.75C15.6781 33.75 12.5996 27.5931 12.5996 20C12.5996 12.4069 15.6781 6.25 19.4746 6.25M19.4746 6.25C21.9133 6.24898 24.3084 6.8968 26.4141 8.12697C28.5197 9.35715 30.2602 11.1254 31.457 13.2503M19.4746 6.25C17.0359 6.24898 14.6408 6.8968 12.5351 8.12697C10.4295 9.35715 8.68897 11.1254 7.49225 13.2503M31.457 13.2503C28.1305 16.1316 23.8754 17.7147 19.4746 17.7083C14.8943 17.7083 10.7052 16.0278 7.49225 13.2503M31.457 13.2503C32.6194 15.3097 33.2284 17.6352 33.2246 20C33.2246 21.1886 33.0733 22.3421 32.7907 23.4421M32.7907 23.4421C28.7164 25.7007 24.1331 26.8823 19.4746 26.875C14.6438 26.875 10.1047 25.6299 6.1585 23.4421M6.1585 23.4421C5.86937 22.3176 5.72358 21.1611 5.72461 20C5.72461 17.5479 6.36628 15.244 7.49225 13.2503" stroke="#203475" stroke-width="2.5" stroke-linecap="round" stroke-linejoin="round"/>
<circle cx="26.3496" cy="15.625" r="4.375" fill="#E11C22"/>
<circle cx="26.3496" cy="15.625" r="1.875" fill="white"/>
<circle cx="13.8496" cy="25.625" r="4.375" fill="#E11C22"/>
<circle cx="13.8496" cy="25.625" r="1.875" fill="white"/>
</svg>
