<svg width="40" height="40" viewBox="0 0 40 40" fill="none" xmlns="http://www.w3.org/2000/svg">
<path d="M7.83999 11.25V12.3438C7.83999 12.6338 7.72856 12.912 7.5302 13.1171C7.33185 13.3223 7.06282 13.4375 6.7823 13.4375H5.72461M5.72461 13.4375V12.8906C5.72461 11.985 6.43538 11.25 7.31115 11.25H31.1092M5.72461 13.4375V26.5625M31.1092 11.25V12.3438C31.1092 12.9475 31.5831 13.4375 32.1669 13.4375H33.2246M31.1092 11.25H31.6381C32.5138 11.25 33.2246 11.985 33.2246 12.8906V27.1094C33.2246 28.015 32.5138 28.75 31.6381 28.75H31.1092M5.72461 26.5625V27.1094C5.72461 27.5445 5.89176 27.9618 6.1893 28.2695C6.48683 28.5772 6.89037 28.75 7.31115 28.75H7.83999M5.72461 26.5625H6.7823C7.06282 26.5625 7.33185 26.6777 7.5302 26.8829C7.72856 27.088 7.83999 27.3662 7.83999 27.6563V28.75M31.1092 28.75V27.6563C31.1092 27.3662 31.2207 27.088 31.419 26.8829C31.6174 26.6777 31.8864 26.5625 32.1669 26.5625H33.2246M31.1092 28.75H7.83999M23.7054 20C23.7054 21.1603 23.2596 22.2731 22.4662 23.0936C21.6728 23.9141 20.5967 24.375 19.4746 24.375C18.3525 24.375 17.2764 23.9141 16.483 23.0936C15.6896 22.2731 15.2438 21.1603 15.2438 20C15.2438 18.8397 15.6896 17.7269 16.483 16.9064C17.2764 16.0859 18.3525 15.625 19.4746 15.625C20.5967 15.625 21.6728 16.0859 22.4662 16.9064C23.2596 17.7269 23.7054 18.8397 23.7054 20ZM27.9361 20H27.9474V20.0117H27.9361V20ZM11.0131 20H11.0244V20.0117H11.0131V20Z" stroke="#203475" stroke-width="2.5" stroke-linecap="round" stroke-linejoin="round"/>
<circle cx="29.4746" cy="30" r="10" fill="white"/>
<path d="M27.456 31.4219L25.5688 29.671L23.2246 31.8464L27.9697 36.25L35.7246 25.4576L32.9659 23.75L27.456 31.4219Z" fill="#E11C22"/>
</svg>
