<svg width="154" height="64" viewBox="0 0 154 64" fill="none" xmlns="http://www.w3.org/2000/svg">
<path fill-rule="evenodd" clip-rule="evenodd" d="M101.389 45.9553L111.079 0H147.281L144.858 11.4888H126.754L125.542 17.2368H140.94L138.524 28.7256H123.12L121.909 34.4664H140.02L137.598 45.9553H101.389Z" fill="white"/>
<path fill-rule="evenodd" clip-rule="evenodd" d="M0 45.9552C32.1979 30.6392 75.7674 20.8726 115.511 17.2297C126.248 16.2445 136.886 15.6988 151.691 15.6988C152.269 15.6988 153.23 15.5074 154 15.316L151.015 29.491C150.851 30.2565 149.575 30.6392 148.613 30.6392C57.8195 30.6392 3.46988 45.9623 3.46988 45.9623L0 45.9552Z" fill="white"/>
<path fill-rule="evenodd" clip-rule="evenodd" d="M48.7568 45.9553L58.4397 0H75.7749L86.0776 20.8726L90.4738 0H107.802L98.1189 45.9553H80.7909L70.6449 24.3172L66.0849 45.9553H48.7568Z" fill="white"/>
<path fill-rule="evenodd" clip-rule="evenodd" d="M32.1982 26.812L37.8484 0H55.1764L48.3934 32.1701C46.2915 42.128 38.5039 45.9553 28.1655 45.9553H15.3975L18.3045 32.1701H24.0828C28.3151 32.1701 31.386 30.6392 32.1982 26.812Z" fill="white"/>
<path d="M87.7446 61.2217L88.1151 58.7765H91.9626L92.3117 56.1967H88.4642L88.7279 54.2618H92.7107L93.0599 51.6819H86.8754L85.2295 63.7945H91.7061L92.0624 61.2217H87.7446Z" fill="white"/>
<path d="M101.375 51.6819H98.689L97.4207 53.8932C97.2284 54.2334 97.0075 54.6303 96.7581 55.0981C96.5586 54.4744 96.4517 54.1271 96.4304 54.0563L95.6324 51.6819H93.331L95.2761 57.6354L91.792 63.8015H94.5351L95.6537 61.8525C95.9102 61.3989 96.124 61.0162 96.2879 60.7114C96.3805 61.0303 96.5016 61.4131 96.637 61.8454L97.2711 63.8015H99.7079L97.777 58.0819L101.375 51.6819Z" fill="white"/>
<path d="M107.559 54.8926C107.559 54.2263 107.459 53.6452 107.26 53.1561C107.053 52.6387 106.754 52.2631 106.383 52.0292C106.02 51.8024 105.528 51.689 104.93 51.689H101.617L99.9707 63.8015H102.179L102.771 59.4356H103.455C104.146 59.4356 104.609 59.4073 104.873 59.3506C105.329 59.2514 105.699 59.1025 105.977 58.9112C106.255 58.7198 106.511 58.4363 106.747 58.0749C106.982 57.7134 107.167 57.2527 107.324 56.6715C107.48 56.0904 107.559 55.495 107.559 54.8926ZM103.476 54.2334H104.281C104.915 54.2334 105.065 54.3043 105.079 54.3114C105.158 54.3539 105.222 54.4319 105.272 54.5453C105.329 54.6799 105.364 54.8642 105.364 55.091C105.364 55.4525 105.293 55.7856 105.158 56.0833C105.029 56.3668 104.866 56.5581 104.659 56.6786C104.538 56.7495 104.189 56.87 103.213 56.87H103.127L103.476 54.2334Z" fill="white"/>
<path d="M113.402 59.5491C113.295 59.2656 113.181 59.0175 113.06 58.8049C113.694 58.5852 114.193 58.1812 114.542 57.5929C114.948 56.9125 115.155 56.0408 115.155 55.0131C115.155 54.2901 115.048 53.6664 114.841 53.1491C114.62 52.6033 114.314 52.2135 113.929 51.9938C113.559 51.7812 113.067 51.6819 112.44 51.6819H108.849L107.203 63.7945H109.412L110.053 59.0529H110.381C110.744 59.0529 110.865 59.138 110.894 59.1734C111.029 59.3223 111.243 59.6766 111.485 60.5271C111.863 61.8808 112.127 62.8873 112.255 63.5251L112.312 63.7945H114.656L114.549 63.3763C114.136 61.7462 113.751 60.4563 113.402 59.5491ZM110.701 54.2618H112.091C112.618 54.2618 112.739 54.3539 112.739 54.3539C112.889 54.4957 112.967 54.7296 112.967 55.0485C112.967 55.3533 112.903 55.6439 112.768 55.9203C112.647 56.1825 112.483 56.3668 112.276 56.4802C112.155 56.5511 111.799 56.6644 110.808 56.6644H110.381L110.701 54.2618Z" fill="white"/>
<path d="M121.795 58.7765L122.144 56.1967H118.296L118.56 54.2618H122.543L122.892 51.6819H116.707L115.062 63.7945H121.545L121.894 61.2217H117.577L117.947 58.7765H121.795Z" fill="white"/>
<path d="M126.412 54.0208C126.739 54.0208 126.96 54.12 127.117 54.3256C127.295 54.5595 127.402 54.928 127.438 55.4029L127.459 55.736L129.582 55.5871L129.568 55.2611C129.518 54.1484 129.233 53.2412 128.713 52.5608C128.171 51.845 127.402 51.4835 126.419 51.4835C125.45 51.4835 124.694 51.852 124.181 52.575C123.69 53.2624 123.44 54.1342 123.44 55.1619C123.44 55.7502 123.526 56.2746 123.69 56.7211C123.861 57.1747 124.096 57.5575 124.395 57.8481C124.68 58.1245 125.108 58.4505 125.706 58.8545C126.419 59.3293 126.618 59.5349 126.682 59.6199C126.818 59.7971 126.889 60.0097 126.889 60.272C126.889 60.5909 126.803 60.8461 126.625 61.0658C126.469 61.2642 126.198 61.3564 125.799 61.3564C125.172 61.3564 124.958 61.1083 124.858 60.9169C124.794 60.8035 124.687 60.4846 124.659 59.627L124.652 59.2797L122.543 59.4498L122.536 59.7546C122.521 60.5555 122.621 61.2713 122.821 61.895C123.034 62.5471 123.412 63.0715 123.939 63.4401C124.466 63.8086 125.086 64 125.792 64C126.825 64 127.644 63.5889 128.228 62.788C128.784 62.0155 129.069 61.0799 129.069 60.0027C129.069 59.1238 128.877 58.3867 128.492 57.8126C128.228 57.4157 127.666 56.9338 126.768 56.3384C126.105 55.8919 125.849 55.6438 125.749 55.5163C125.628 55.3603 125.571 55.1619 125.571 54.9067C125.571 54.6303 125.635 54.4177 125.77 54.2476C125.884 54.0917 126.098 54.0208 126.412 54.0208Z" fill="white"/>
<path d="M133.929 56.3313C133.266 55.8848 133.01 55.6367 132.91 55.5092C132.789 55.3532 132.732 55.1548 132.732 54.8996C132.732 54.6232 132.796 54.4106 132.931 54.2405C133.045 54.0988 133.259 54.0279 133.573 54.0279C133.9 54.0279 134.121 54.1271 134.278 54.3327C134.456 54.5665 134.563 54.9351 134.599 55.4099L134.62 55.7431L136.743 55.5942L136.729 55.2682C136.679 54.1555 136.387 53.2483 135.874 52.5679C135.333 51.852 134.563 51.4906 133.58 51.4906C132.611 51.4906 131.856 51.8591 131.343 52.582C130.851 53.2695 130.602 54.1413 130.602 55.169C130.602 55.7572 130.687 56.2817 130.851 56.7282C131.022 57.1818 131.257 57.5645 131.556 57.8551C131.841 58.1315 132.269 58.4576 132.867 58.8616C133.58 59.3364 133.786 59.542 133.843 59.627C133.979 59.8042 134.043 60.0168 134.043 60.2791C134.043 60.5909 133.957 60.8531 133.779 61.0728C133.623 61.2713 133.352 61.3634 132.953 61.3634C132.326 61.3634 132.112 61.1154 132.012 60.924C131.948 60.8106 131.841 60.4917 131.813 59.6341V59.2797L129.704 59.4498L129.697 59.7546C129.682 60.5555 129.782 61.2713 129.982 61.895C130.195 62.547 130.573 63.0715 131.093 63.4401C131.62 63.8086 132.24 64 132.946 64C133.979 64 134.798 63.5889 135.382 62.788C135.938 62.0155 136.223 61.0799 136.223 60.0026C136.223 59.1238 136.031 58.3867 135.646 57.8126C135.397 57.4086 134.827 56.9267 133.929 56.3313Z" fill="white"/>
</svg>
