<svg width="306" height="602" viewBox="0 0 306 602" fill="none" xmlns="http://www.w3.org/2000/svg">
<ellipse cx="153" cy="584" rx="153" ry="18" fill="#F0F0F0"/>
<path fill-rule="evenodd" clip-rule="evenodd" d="M5.30098 587C4.00027 585.457 3.90158 583.689 4.05408 581.732C4.47569 576.274 5.23823 570.826 5.23823 565.341C5.23823 563.744 5.85712 563.077 7.409 563.185C8.1984 563.239 8.98781 563.23 9.7772 563.266C22.3268 563.916 34.8765 563.51 47.4171 563.14C52.7635 562.977 58.1277 562.526 63.501 562.4C65.1426 562.364 66.8021 562.644 68.4347 562.499C71.2873 562.247 71.7986 561.029 70.1301 558.738C63.8239 550.059 57.3024 541.526 51.2564 532.676C47.2017 526.731 43.0306 520.868 39.0029 514.905C37.5945 512.821 35.7645 511.54 33.3515 510.918C29.6736 509.971 26.0495 508.798 22.3627 507.878C20.8826 507.508 20.4789 506.795 20.4341 505.334C20.2457 499.353 19.9676 493.372 19.6357 487.4C19.5549 485.984 20.4969 486.507 21.0261 486.489C27.2695 486.3 33.5129 486.237 39.7474 486.002C52.593 485.524 65.4207 486.417 78.2574 486.661C82.4555 486.742 84.5276 485.055 84.9134 480.806C86.2769 465.651 87.5507 450.478 88.95 435.323C90.3943 419.744 91.9641 404.174 93.4622 388.595C94.8346 374.305 96.1533 360.016 97.5438 345.727C99.3109 327.487 100.782 309.229 101.553 290.916C102.074 278.738 102.684 266.56 103.33 254.391C104.146 239.118 105.85 223.909 107.07 208.664C108.299 193.202 109.277 177.731 110.407 162.26C111.556 146.573 112.246 130.868 112.91 115.153C113.152 109.371 111.843 104.175 109.017 99.2495C107.94 97.3732 107.043 95.4067 105.967 93.5393C105.204 92.2223 105.482 91.3743 106.667 90.4361C111.215 86.8097 112.471 82.8676 109.546 77.9242C103.644 67.9561 105.68 58.8269 111.645 50.0045C113.78 46.8472 115.215 43.9786 114.363 39.9101C113.412 35.3726 115.619 31.2952 117.853 27.4704C122.751 19.0809 127.505 10.5742 133.937 3.20414C134.87 2.13065 135.282 -0.070435 136.448 0.00173212C137.686 0.0738992 137.543 2.3201 138.234 3.51987C140.386 7.26354 142.432 11.0704 144.54 14.8411C146.441 18.242 148.155 21.715 149.285 25.4767C150.837 30.6276 150.819 35.7244 148.738 40.722C147.805 42.9772 147.805 45.1332 148.558 47.4426C150.074 52.0883 151.904 56.6258 152.613 61.5332C153.322 66.4676 152.882 71.2036 150.684 75.6599C149.5 78.0685 149.536 80.2425 150.577 82.6872C151.797 85.5198 152.685 88.4967 153.672 91.4285C154.147 92.8267 154.335 94.3241 153.689 95.6683C149.42 104.509 149.151 113.899 149.913 123.398C151.626 144.76 152.478 166.166 153.977 187.537C156.578 224.613 157.61 261.761 159.027 298.882C159.736 317.339 160.292 335.804 161.26 354.243C162.202 372.177 163.548 390.092 164.768 408.008C165.773 422.775 165.988 437.56 166.096 452.354C166.176 463.098 165.889 473.86 167.531 484.541C167.997 487.545 168.042 487.761 171.092 487.851C186.369 488.284 201.645 488.708 216.922 489.141C219.703 489.223 220.537 489.935 220.878 492.614C221.506 497.549 222.071 502.492 222.771 507.418C223.031 509.249 222.537 510.205 220.672 510.701C217.909 511.441 215.218 512.451 212.491 513.335C209.701 514.247 207.35 515.744 205.431 518.044C193.24 532.622 180.995 547.155 168.778 561.705C168.105 562.508 167.441 563.32 166.768 564.123C166.831 564.385 166.894 564.646 166.957 564.908C169.854 564.908 172.761 564.836 175.658 564.917C195.169 565.476 214.67 566.09 234.181 566.595C235.823 566.64 236.047 567.244 235.993 568.643C235.769 573.974 235.625 579.314 235.473 584.655C235.455 585.43 235.231 586.242 235.679 586.982C158.874 587 82.0877 587 5.30098 587ZM36.7603 582.688C36.8858 583.139 37.2177 583.202 37.6124 583.166L37.747 583.211L37.8816 583.157C38.1327 583.392 38.3839 583.401 38.635 583.166C39.2271 583.166 39.8191 583.166 40.4201 583.166C42.4923 583.897 44.6631 583.518 46.7712 583.59C54.3242 583.834 61.8863 584.005 69.4484 583.662C73.198 583.942 76.9477 583.969 80.7063 583.861C85.2453 584.573 89.8112 584.285 94.3682 584.24C95.8842 584.276 97.4001 584.321 98.9161 584.357C104.289 585.06 109.681 584.781 115.063 584.763C117.664 584.79 120.257 584.808 122.858 584.835C123.271 584.925 123.684 585.088 124.096 585.088C144.504 585.376 164.911 585.493 185.319 585.124C185.875 585.115 186.431 584.934 186.979 584.835C192.433 584.952 197.86 584.582 203.305 584.393C212.401 584.077 221.452 583.112 230.539 582.67C231.624 582.616 232.297 582.21 232.324 581.001C232.396 578.556 232.504 576.103 232.629 573.658C232.71 572.107 232.037 571.457 230.485 571.412C217.738 571.051 204.982 570.645 192.235 570.266C184 570.014 175.757 569.752 167.522 569.536C157 569.247 146.477 568.606 135.937 568.778C131.739 568.038 127.523 567.993 123.289 568.291C121.557 568.011 119.817 567.975 118.077 568.119C117.96 568.02 117.835 568.011 117.709 568.101C117.395 568.092 117.081 568.083 116.767 568.074C113.52 567.352 110.237 567.677 106.972 567.731C104.935 567.695 102.899 567.65 100.863 567.605C96.7364 566.865 92.5831 567.181 88.4388 567.19C84.5725 567.01 80.7062 566.802 76.84 566.667C65.017 566.261 53.1941 565.828 41.3711 565.53C35.2981 565.377 36.3476 564.773 36.2758 570.375C36.2668 570.735 36.3296 571.087 36.3565 571.448C36.1592 575.192 36.0067 578.935 36.7333 582.643L36.7603 582.688ZM127.55 491.144C127.55 491.171 127.55 491.198 127.55 491.234C107.896 490.955 88.2414 490.666 68.5872 490.404C58.8274 490.278 49.0766 490.188 39.3258 490.089C38.339 490.08 37.2805 489.845 37.2446 491.46C37.1369 496.223 36.9576 500.977 36.7782 505.731C36.7334 506.949 37.2357 507.391 38.4467 507.346C41.1737 507.237 43.9007 507.327 46.6187 507.147C62.5322 506.074 78.4547 506.516 94.3682 507.039C111.502 507.598 128.626 508.239 145.751 509.023C153.349 509.366 160.947 509.492 168.544 509.7C183.39 510.106 198.228 510.413 213.074 510.692C215.935 510.746 217.2 509.447 217.711 506.642C218.411 502.772 217.801 498.848 218.214 494.987C218.447 492.768 217.586 492.254 215.567 492.263C207.315 492.299 199.071 492.118 190.827 491.974C169.729 491.586 148.639 491.397 127.55 491.144ZM146.172 31.8365C146.199 30.6637 145.93 29.5452 145.813 28.3995C145.634 26.7036 145.159 26.5773 143.912 27.6057C134.367 35.4719 124.903 43.4283 116.48 52.5304C113.637 55.5975 111.502 59.0886 110.919 63.3013C110.533 66.0798 110.856 68.9123 110.425 71.7178C110.183 73.3145 111.349 74.0632 112.802 73.3235C113.359 73.0349 113.807 72.5207 114.247 72.0516C123.621 62.0113 133.004 51.9711 142.342 41.8947C144.943 39.0802 146.029 35.6252 146.172 31.8365ZM132.331 92.105C124.85 92.4027 118.911 92.6372 112.964 92.8808C112.076 92.9169 110.901 92.6733 111.08 94.1979C111.663 99.2496 112.775 102.542 119.36 102.326C126.877 102.082 134.367 101.532 141.911 101.866C146.998 102.082 150.074 98.7083 150.326 93.7197C150.397 92.2674 150.003 91.6089 148.433 91.672C142.557 91.8885 136.673 91.7442 132.331 92.105ZM25.0987 578.141C25.2423 575.183 24.6682 572.26 24.6592 569.301C24.6592 568.173 24.2824 567.596 23.0445 567.56C19.0437 567.461 15.0339 567.334 11.0331 567.082C9.11341 566.956 8.45856 567.804 8.44062 569.572C8.39577 573.965 8.34196 578.358 8.22534 582.742C8.18946 584.149 8.83533 584.853 10.136 584.673C13.9126 584.14 17.725 584.492 21.5016 584.204C25.1346 583.933 25.1346 583.879 25.0987 580.279C25.0987 579.585 25.0987 578.863 25.0987 578.141ZM148.998 66.4676C148.81 63.7975 148.37 61.1814 147.455 58.6646C147.303 58.2316 147.392 57.546 146.702 57.5099C146.109 57.4828 145.93 58.0782 145.625 58.4661C143.078 61.6775 140.53 64.889 137.982 68.1004C136.063 70.518 134.143 72.9537 132.214 75.3622C131.335 76.4538 131.299 77.5724 132.017 78.7631C132.744 79.9719 133.641 79.16 134.493 79.0067C135.973 78.736 137.453 78.5015 138.924 78.1948C145.625 76.7875 149.088 72.7552 148.998 66.4676ZM128.438 564.177C128.438 564.159 128.438 564.141 128.438 564.123C130.079 564.051 131.73 563.925 133.372 563.916C134.744 563.907 135.067 563.311 134.861 562.012C134.358 558.828 133.928 555.625 133.524 552.423C133.138 549.32 132.923 549.022 129.846 548.986C128.348 548.968 126.85 549.13 125.361 549.302C121.845 549.699 120.463 551.358 120.634 554.904C120.759 557.43 121.468 559.856 121.961 562.319C122.284 563.934 123.083 564.655 124.787 564.394C125.989 564.195 127.227 564.231 128.438 564.177ZM119.835 41.7684C120.113 41.7324 120.347 41.7685 120.517 41.6782C129.541 37.0596 137.498 31.223 142.611 22.1209C142.934 21.5436 143.445 21.0294 142.844 20.3979C142.234 19.7575 141.526 19.6131 140.727 20.1454C138.879 21.3812 136.96 22.5179 135.148 23.8078C129.864 27.5605 124.715 31.4666 121.261 37.1497C120.409 38.557 119.575 39.9643 119.835 41.7684ZM142.835 48.5882C139.059 52.801 135.524 56.7341 131.999 60.6672C127.209 66.0166 122.419 71.366 117.629 76.7154C117.306 77.0762 116.669 77.419 116.965 77.9422C117.314 78.5737 117.978 78.2489 118.49 78.0324C119.611 77.5543 120.804 77.1754 121.8 76.5079C130.824 70.5 137.893 62.733 142.477 52.81C143.006 51.6553 143.427 50.4014 142.835 48.5882ZM115.511 88.0997C125.827 88.2711 135.856 87.5314 146.37 87.4953C139.785 81.2258 118.579 82.3264 115.511 88.0997ZM116.785 556.654C117.018 548.815 117.018 548.842 110.569 549.554C109.223 549.708 108.712 550.276 108.703 551.62C108.703 554.642 108.613 557.664 108.524 560.686C108.497 561.705 108.757 562.328 109.923 562.355C111.636 562.391 113.35 562.508 115.063 562.608C116.211 562.671 116.812 562.22 116.785 560.993C116.758 559.261 116.785 557.529 116.785 556.654ZM122.867 27.299C123.02 27.4613 123.181 27.6147 123.334 27.768C128.052 25.4677 132.762 23.1132 136.152 18.8554C138.153 16.3476 137.991 12.6941 136.09 10.2044C135.489 9.41052 134.968 9.13989 134.304 10.1502C130.501 15.8785 126.68 21.5887 122.867 27.299ZM25.4934 498.018C25.5203 498.018 25.5561 498.018 25.5831 498.018C25.5831 495.925 25.5203 493.832 25.61 491.739C25.6638 490.44 25.2871 489.935 23.9236 489.98C22.4973 490.034 22.2461 490.711 22.3986 491.929C22.5152 492.858 22.4972 493.796 22.56 494.734C22.7753 497.901 22.9727 501.067 23.2238 504.224C23.2777 504.919 23.3225 505.839 24.2644 505.875C25.4037 505.929 25.0897 504.928 25.1345 504.278C25.2781 502.195 25.3768 500.102 25.4934 498.018Z" fill="#213A6D"/>
<path fill-rule="evenodd" clip-rule="evenodd" d="M127.547 491.145C148.636 491.407 169.726 491.587 190.815 491.966C199.059 492.11 207.312 492.291 215.556 492.255C217.574 492.246 218.435 492.76 218.202 494.979C217.798 498.849 218.408 502.764 217.699 506.634C217.188 509.439 215.923 510.738 213.062 510.684C198.216 510.405 183.37 510.098 168.533 509.692C160.935 509.484 153.337 509.367 145.739 509.015C128.614 508.23 111.49 507.59 94.3563 507.031C78.4428 506.508 62.5204 506.066 46.6069 507.139C43.8889 507.319 41.1529 507.229 38.4349 507.337C37.2328 507.383 36.7215 506.941 36.7664 505.723C36.9458 500.969 37.1251 496.206 37.2327 491.452C37.2686 489.828 38.3272 490.071 39.3139 490.08C49.0737 490.18 58.8246 490.261 68.5754 490.396C88.2296 490.658 107.884 490.946 127.538 491.226C127.547 491.199 127.547 491.172 127.547 491.145Z" fill="#F4E54C"/>
<path fill-rule="evenodd" clip-rule="evenodd" d="M36.3482 571.43C36.3213 571.069 36.2675 570.708 36.2675 570.357C36.3482 564.755 35.2988 565.359 41.3627 565.512C53.1857 565.81 65.0087 566.243 76.8317 566.649C80.6979 566.784 84.5642 566.992 88.4305 567.172C90.8794 567.921 93.3911 567.533 95.858 567.452C97.5444 567.398 99.177 568.625 100.863 567.587C102.9 567.632 104.936 567.668 106.972 567.705C110.202 569.004 113.494 568.39 116.768 568.047C117.082 568.056 117.396 568.065 117.71 568.074C117.835 568.083 117.952 568.083 118.078 568.092C119.818 567.948 121.558 567.975 123.289 568.255C123.603 568.949 124.231 568.796 124.779 568.796C128.501 568.787 132.215 568.769 135.938 568.751C146.478 568.58 156.991 569.22 167.523 569.509C175.766 569.734 184.001 569.996 192.236 570.239C204.983 570.627 217.739 571.033 230.486 571.385C232.047 571.43 232.71 572.08 232.63 573.631C232.504 576.076 232.406 578.521 232.325 580.974C232.289 582.183 231.625 582.589 230.54 582.643C221.453 583.085 212.401 584.05 203.305 584.366C197.86 584.556 192.433 584.925 186.979 584.808C165.603 584.808 144.226 584.808 122.859 584.808C120.257 584.781 117.665 584.763 115.064 584.736C114.391 584.132 113.565 584.393 112.812 584.393C108.183 584.357 103.546 584.348 98.9168 584.339C97.4008 584.303 95.8849 584.258 94.3689 584.222C93.3373 584.041 92.3057 583.771 91.2651 583.708C87.7398 583.491 84.2144 583.211 80.7069 583.843C76.9483 583.951 73.1987 583.924 69.449 583.644C69.144 582.941 68.5071 583.103 67.9599 583.103C58.7832 583.112 49.5975 583.13 40.4208 583.148C39.8288 583.148 39.2367 583.148 38.6357 583.148C38.3845 583.148 38.1334 583.148 37.8822 583.139L37.7476 583.193L37.6131 583.148C37.4426 582.778 37.1377 582.661 36.7609 582.67L36.725 582.607C36.725 581.11 36.8147 579.612 36.716 578.124C36.5635 575.914 37.2094 573.631 36.3482 571.43Z" fill="#DE293C"/>
<path fill-rule="evenodd" clip-rule="evenodd" d="M146.174 31.8361C146.039 35.6248 144.945 39.0798 142.343 41.8943C133.005 51.9707 123.622 62.0019 114.248 72.0512C113.808 72.5203 113.36 73.0435 112.804 73.3231C111.35 74.0719 110.184 73.3141 110.427 71.7174C110.857 68.9209 110.534 66.0794 110.92 63.3009C111.503 59.0882 113.647 55.5971 116.482 52.53C124.914 43.4279 134.369 35.4715 143.913 27.6053C145.16 26.5769 145.635 26.7032 145.815 28.3991C145.931 29.5357 146.2 30.6633 146.174 31.8361Z" fill="#DB2B3F"/>
<path fill-rule="evenodd" clip-rule="evenodd" d="M132.332 92.1044C136.673 91.7526 142.558 91.8879 148.434 91.6623C150.003 91.5992 150.398 92.2577 150.326 93.7101C150.075 98.7077 146.998 102.081 141.912 101.856C134.368 101.531 126.878 102.072 119.36 102.316C112.776 102.533 111.664 99.2399 111.081 94.1882C110.901 92.6637 112.077 92.9163 112.965 92.8712C118.912 92.6366 124.859 92.4021 132.332 92.1044Z" fill="#F4E54C"/>
<path fill-rule="evenodd" clip-rule="evenodd" d="M25.0994 578.142C25.0994 578.863 25.0904 579.585 25.0994 580.298C25.1353 583.897 25.1353 583.942 21.5023 584.222C17.7257 584.501 13.9133 584.159 10.1367 584.691C8.83602 584.871 8.19014 584.168 8.22603 582.76C8.33367 578.367 8.39646 573.974 8.44131 569.59C8.45925 567.822 9.10513 566.974 11.0338 567.1C15.0346 567.353 19.0354 567.47 23.0452 567.578C24.2831 567.614 24.6599 568.183 24.6599 569.319C24.6688 572.26 25.2519 575.183 25.0994 578.142Z" fill="#DB2B3F"/>
<path fill-rule="evenodd" clip-rule="evenodd" d="M148.996 66.4679C149.077 72.7555 145.623 76.7878 138.922 78.1951C137.451 78.5018 135.971 78.7363 134.491 79.0069C133.648 79.1603 132.751 79.9722 132.015 78.7634C131.297 77.5726 131.333 76.4631 132.212 75.3625C134.141 72.9449 136.061 70.5183 137.98 68.1007C140.528 64.8893 143.076 61.6778 145.623 58.4664C145.928 58.0785 146.108 57.4921 146.7 57.5102C147.39 57.5372 147.292 58.2318 147.453 58.6648C148.368 61.1817 148.817 63.8067 148.996 66.4679Z" fill="#DB2B3F"/>
<path fill-rule="evenodd" clip-rule="evenodd" d="M128.44 564.176C127.229 564.239 125.991 564.194 124.798 564.384C123.094 564.645 122.295 563.933 121.972 562.309C121.479 559.846 120.77 557.429 120.645 554.894C120.474 551.357 121.856 549.689 125.372 549.292C126.861 549.12 128.368 548.958 129.857 548.976C132.925 549.012 133.141 549.301 133.535 552.413C133.939 555.615 134.361 558.818 134.872 562.002C135.078 563.301 134.746 563.897 133.383 563.906C131.741 563.915 130.091 564.041 128.449 564.113C128.44 564.14 128.44 564.158 128.44 564.176Z" fill="#F1F2F6"/>
<path fill-rule="evenodd" clip-rule="evenodd" d="M119.837 41.7674C119.567 39.9632 120.402 38.5469 121.263 37.1487C124.716 31.4655 129.865 27.5595 135.149 23.8068C136.961 22.5168 138.872 21.3802 140.729 20.1443C141.527 19.6121 142.245 19.7564 142.846 20.3969C143.438 21.0284 142.935 21.5426 142.612 22.1199C137.508 31.222 129.543 37.0585 120.518 41.6772C120.348 41.7674 120.115 41.7403 119.837 41.7674Z" fill="#DB2B3F"/>
<path fill-rule="evenodd" clip-rule="evenodd" d="M142.837 48.5879C143.429 50.4011 143.007 51.655 142.469 52.8187C137.885 62.7417 130.816 70.5087 121.792 76.5166C120.797 77.1841 119.595 77.563 118.482 78.0411C117.971 78.2576 117.307 78.5824 116.957 77.9509C116.661 77.4277 117.298 77.0849 117.621 76.724C122.402 71.3656 127.192 66.0163 131.992 60.6759C135.526 56.7248 139.06 52.7916 142.837 48.5879Z" fill="#DB2B3F"/>
<path fill-rule="evenodd" clip-rule="evenodd" d="M115.512 88.1006C118.58 82.3272 139.795 81.2266 146.37 87.4962C135.848 87.5232 125.828 88.272 115.512 88.1006Z" fill="#DB2B3F"/>
<path fill-rule="evenodd" clip-rule="evenodd" d="M116.788 556.653C116.788 557.528 116.761 559.26 116.797 560.983C116.824 562.21 116.232 562.661 115.074 562.598C113.361 562.499 111.648 562.381 109.934 562.345C108.768 562.327 108.508 561.705 108.535 560.676C108.625 557.654 108.714 554.632 108.714 551.61C108.714 550.266 109.235 549.698 110.58 549.545C117.03 548.841 117.021 548.814 116.788 556.653Z" fill="#F1F2F6"/>
<path fill-rule="evenodd" clip-rule="evenodd" d="M122.867 27.2985C126.68 21.5883 130.501 15.8781 134.304 10.1588C134.977 9.14848 135.489 9.41911 136.09 10.2129C137.991 12.6937 138.153 16.3471 136.152 18.864C132.761 23.1218 128.052 25.4763 123.334 27.7766C123.181 27.6142 123.029 27.4519 122.867 27.2985Z" fill="#DB2B3F"/>
<path fill-rule="evenodd" clip-rule="evenodd" d="M25.4924 498.019C25.3758 500.112 25.2681 502.195 25.1246 504.288C25.0797 504.938 25.3937 505.939 24.2545 505.885C23.3216 505.84 23.2678 504.929 23.214 504.234C22.9628 501.077 22.7564 497.91 22.5501 494.744C22.4873 493.806 22.5053 492.868 22.3887 491.939C22.2362 490.721 22.4873 490.044 23.9136 489.99C25.2861 489.936 25.6539 490.45 25.6 491.749C25.5103 493.842 25.5731 495.935 25.5731 498.028C25.5552 498.01 25.5283 498.019 25.4924 498.019Z" fill="#F4E54C"/>
<path fill-rule="evenodd" clip-rule="evenodd" d="M122.867 584.836C144.244 584.836 165.62 584.836 186.988 584.836C186.431 584.935 185.875 585.116 185.328 585.125C164.92 585.504 144.513 585.377 124.105 585.089C123.692 585.089 123.28 584.926 122.867 584.836Z" fill="#DB2B3F"/>
<path fill-rule="evenodd" clip-rule="evenodd" d="M40.4199 583.157C49.5966 583.139 58.7823 583.121 67.959 583.112C68.5062 583.112 69.1432 582.95 69.4481 583.653C61.8861 583.996 54.324 583.824 46.7709 583.581C44.6629 583.518 42.4921 583.887 40.4199 583.157Z" fill="#DB2B3F"/>
<path fill-rule="evenodd" clip-rule="evenodd" d="M80.707 583.853C84.2234 583.221 87.7488 583.501 91.2652 583.717C92.3058 583.78 93.3373 584.06 94.3689 584.231C89.812 584.285 85.2461 584.574 80.707 583.853Z" fill="#DB2B3F"/>
<path fill-rule="evenodd" clip-rule="evenodd" d="M135.937 568.768C132.215 568.786 128.501 568.805 124.778 568.814C124.231 568.814 123.594 568.976 123.289 568.273C127.523 567.984 131.748 568.029 135.937 568.768Z" fill="#DB2B3F"/>
<path fill-rule="evenodd" clip-rule="evenodd" d="M116.77 568.055C113.487 568.398 110.195 569.011 106.975 567.712C110.249 567.667 113.532 567.343 116.77 568.055Z" fill="#DB2B3F"/>
<path fill-rule="evenodd" clip-rule="evenodd" d="M98.9258 584.357C103.555 584.375 108.192 584.375 112.821 584.412C113.574 584.421 114.4 584.15 115.073 584.755C109.681 584.782 104.29 585.061 98.9258 584.357Z" fill="#DB2B3F"/>
<path fill-rule="evenodd" clip-rule="evenodd" d="M100.867 567.595C99.1891 568.623 97.5476 567.405 95.8611 567.46C93.3943 567.541 90.8825 567.928 88.4336 567.18C92.5869 567.171 96.7402 566.855 100.867 567.595Z" fill="#DB2B3F"/>
<path fill-rule="evenodd" clip-rule="evenodd" d="M36.347 571.43C37.2081 573.622 36.5623 575.904 36.7148 578.15C36.8135 579.639 36.7238 581.136 36.7238 582.634C35.9972 578.917 36.1496 575.173 36.347 571.43Z" fill="#DB2B3F"/>
<path fill-rule="evenodd" clip-rule="evenodd" d="M36.7598 582.688C37.1365 582.679 37.4415 582.796 37.6119 583.166C37.2172 583.202 36.8854 583.139 36.7598 582.688Z" fill="#DB2B3F"/>
<path fill-rule="evenodd" clip-rule="evenodd" d="M118.077 568.11C117.951 568.101 117.835 568.092 117.709 568.092C117.835 568.001 117.96 568.01 118.077 568.11Z" fill="#DB2B3F"/>
<path fill-rule="evenodd" clip-rule="evenodd" d="M37.8848 583.156C38.1359 583.156 38.3871 583.156 38.6382 583.165C38.3871 583.4 38.1359 583.391 37.8848 583.156Z" fill="#DB2B3F"/>
</svg>
