<?xml version="1.0" standalone="no"?>
<!DOCTYPE svg PUBLIC "-//W3C//DTD SVG 20010904//EN"
 "http://www.w3.org/TR/2001/REC-SVG-20010904/DTD/svg10.dtd">
<svg version="1.0" xmlns="http://www.w3.org/2000/svg"
 width="1000.000000pt" height="1000.000000pt" viewBox="0 0 1000.000000 1000.000000"
 preserveAspectRatio="xMidYMid meet">

<g transform="translate(0.000000,1000.000000) scale(0.100000,-0.100000)"
fill="#000000" stroke="none">
<path d="M5530 8255 c-277 -38 -517 -125 -720 -260 -95 -63 -282 -249 -342
-340 -98 -149 -167 -315 -210 -507 -20 -88 -22 -127 -25 -670 l-4 -578 -410 0
-409 0 0 -550 0 -550 410 0 410 0 0 -1535 0 -1535 585 0 585 0 0 1535 0 1535
575 0 c316 0 575 1 575 3 2 13 40 1005 40 1045 l0 52 -595 0 -595 0 0 438 c1
613 11 691 99 782 36 38 61 53 116 71 68 22 83 23 502 27 l431 3 6 82 c3 45
13 270 22 501 12 323 13 420 4 426 -12 8 -76 14 -320 30 -203 14 -615 11 -730
-5z"/>
</g>
</svg>
