<?xml version="1.0" standalone="no"?>
<!DOCTYPE svg PUBLIC "-//W3C//DTD SVG 20010904//EN"
 "http://www.w3.org/TR/2001/REC-SVG-20010904/DTD/svg10.dtd">
<svg version="1.0" xmlns="http://www.w3.org/2000/svg"
 width="1000.000000pt" height="1000.000000pt" viewBox="0 0 1000.000000 1000.000000"
 preserveAspectRatio="xMidYMid meet">

<g transform="translate(0.000000,1000.000000) scale(0.100000,-0.100000)"
fill="#000000" stroke="none">
<path d="M2034 8291 c-161 -46 -287 -175 -329 -336 -13 -53 -15 -386 -15
-2955 0 -3174 -4 -2949 58 -3064 59 -110 194 -209 320 -235 75 -16 5789 -16
5864 0 176 37 332 190 367 362 8 37 10 912 9 2967 l-3 2915 -23 57 c-51 126
-153 225 -290 280 l-57 23 -2920 2 c-2755 2 -2923 1 -2981 -16z m1306 -917
c142 -44 265 -152 330 -289 44 -93 60 -159 60 -255 0 -160 -53 -286 -169 -400
-125 -123 -264 -176 -436 -167 -231 12 -425 158 -507 383 -33 91 -37 251 -8
346 54 180 174 309 347 374 126 48 248 50 383 8z m3045 -1475 c265 -32 479
-130 626 -286 194 -206 290 -489 319 -948 5 -89 10 -570 10 -1082 l0 -923
-495 0 -495 0 0 848 c0 498 -4 895 -11 965 -28 319 -127 481 -334 543 -74 22
-255 25 -335 5 -204 -50 -330 -190 -384 -429 -29 -130 -36 -334 -36 -1135 l0
-797 -492 2 -493 3 -3 1583 -2 1582 480 0 480 0 2 -212 3 -213 29 49 c72 122
265 286 420 356 79 36 217 77 301 89 88 13 306 13 410 0z m-2725 -1649 l0
-1590 -500 0 -500 0 0 1590 0 1590 500 0 500 0 0 -1590z"/>
</g>
</svg>
