<?xml version="1.0" standalone="no"?>
<!DOCTYPE svg PUBLIC "-//W3C//DTD SVG 20010904//EN"
 "http://www.w3.org/TR/2001/REC-SVG-20010904/DTD/svg10.dtd">
<svg version="1.0" xmlns="http://www.w3.org/2000/svg"
 width="1000.000000pt" height="1000.000000pt" viewBox="0 0 1000.000000 1000.000000"
 preserveAspectRatio="xMidYMid meet">

<g transform="translate(0.000000,1000.000000) scale(0.100000,-0.100000)"
fill="#000000" stroke="none">
<path d="M5615 8270 c-60 -4 -891 -8 -1845 -9 l-1736 -1 -69 -34 c-90 -43
-168 -120 -209 -206 l-31 -65 -3 -2975 c-1 -1704 1 -2984 6 -2995 62 -139 118
-204 224 -261 l73 -39 2945 0 2945 0 68 32 c88 42 168 121 210 210 l32 68 0
2980 0 2980 -30 60 c-45 89 -121 165 -207 208 l-73 36 -945 6 c-520 3 -1012 7
-1095 9 -82 2 -199 0 -260 -4z m-1718 -605 c11 -8 58 -70 104 -137 45 -68 99
-145 119 -173 20 -27 63 -88 95 -135 32 -47 92 -132 134 -190 41 -58 98 -138
126 -179 27 -40 74 -108 103 -150 29 -42 64 -92 77 -111 13 -19 53 -74 87
-122 35 -48 117 -165 183 -259 222 -318 330 -464 347 -467 9 -2 35 17 59 45
24 26 73 79 109 118 68 75 80 88 174 200 87 102 173 202 231 265 27 31 91 103
140 160 50 58 115 132 145 165 30 33 91 103 135 155 44 51 105 121 135 155 30
34 93 106 140 160 47 54 123 142 170 194 47 53 123 140 169 193 45 53 97 104
116 112 27 13 71 16 229 16 142 0 196 -3 196 -12 0 -13 -45 -75 -75 -103 -39
-36 -217 -234 -445 -495 -122 -140 -246 -282 -275 -315 -29 -33 -74 -85 -101
-116 -118 -135 -306 -350 -394 -449 -335 -375 -650 -739 -650 -749 1 -14 120
-195 270 -409 100 -142 350 -501 422 -605 18 -27 65 -92 103 -145 39 -54 86
-119 105 -147 85 -126 133 -195 179 -260 28 -38 71 -99 95 -135 25 -36 83
-119 130 -185 46 -66 98 -140 116 -165 79 -115 164 -235 170 -240 12 -11 211
-295 304 -435 22 -33 69 -98 105 -145 69 -91 121 -169 121 -182 0 -4 -348 -8
-774 -8 l-775 0 -34 43 c-18 23 -42 56 -53 74 -40 65 -208 307 -349 503 -34
47 -95 135 -137 195 -41 61 -124 179 -184 264 -60 85 -140 200 -179 256 -38
56 -78 112 -88 126 -33 45 -180 253 -241 343 -86 124 -86 125 -134 189 -46 62
-63 69 -90 35 -9 -12 -46 -54 -82 -93 -36 -39 -76 -84 -89 -100 -13 -17 -43
-50 -65 -76 -23 -25 -75 -85 -116 -134 -41 -49 -102 -119 -135 -155 -33 -36
-83 -93 -111 -125 -111 -130 -145 -169 -319 -365 -99 -111 -193 -219 -210
-240 -40 -49 -269 -310 -454 -519 -35 -40 -77 -89 -91 -109 -15 -20 -45 -54
-67 -75 l-39 -37 -218 2 -217 3 23 31 c22 30 120 142 224 254 27 30 107 120
176 200 69 80 134 154 144 165 11 11 32 36 48 55 16 19 55 64 86 100 115 129
416 473 449 514 19 22 60 68 90 101 31 33 69 76 86 95 16 19 81 94 144 165 62
72 154 177 205 235 50 57 116 132 146 165 119 132 203 231 213 252 12 27 -33
96 -363 561 -47 66 -112 159 -145 207 -33 48 -89 128 -126 179 -67 94 -114
160 -214 306 -32 47 -77 111 -99 143 -94 132 -209 297 -326 468 -69 99 -141
202 -161 228 -21 27 -88 122 -151 212 -63 90 -141 200 -172 244 -32 44 -64 89
-71 100 -8 11 -47 65 -88 120 -40 55 -86 122 -101 148 l-28 47 769 0 c662 0
771 -2 790 -15z"/>
<path d="M2977 7333 c-7 -12 9 -47 27 -62 9 -7 16 -17 16 -22 0 -5 24 -42 53
-82 29 -39 83 -117 121 -172 37 -55 95 -136 127 -180 67 -91 151 -209 256
-358 39 -56 85 -120 101 -142 190 -263 557 -778 697 -979 114 -163 207 -295
302 -424 23 -31 82 -113 130 -182 48 -69 117 -165 153 -215 37 -49 140 -193
230 -320 90 -126 187 -261 215 -300 28 -38 57 -80 65 -92 29 -42 196 -276 265
-371 39 -54 90 -124 112 -157 23 -33 68 -96 100 -140 32 -44 72 -101 88 -125
17 -25 60 -85 98 -133 37 -49 67 -92 67 -96 0 -3 18 -25 39 -49 l40 -43 322 2
c343 2 369 4 369 24 0 16 -123 200 -225 337 -57 76 -80 109 -322 448 -97 135
-186 261 -199 280 -21 32 -111 158 -181 255 -17 22 -113 157 -214 300 -102
143 -234 329 -295 413 -141 198 -143 202 -180 253 -17 24 -60 84 -95 132 -100
137 -156 217 -196 277 -20 30 -39 57 -43 60 -6 5 -134 184 -214 299 -22 31
-58 81 -80 111 -23 30 -54 74 -71 98 -100 144 -152 217 -255 362 -63 89 -142
199 -174 243 -32 45 -72 100 -88 122 -15 22 -52 72 -81 112 -28 39 -106 149
-172 244 -66 95 -139 197 -163 226 l-43 53 -349 0 c-192 0 -351 -3 -353 -7z"/>
</g>
</svg>
