<svg width="32" height="32" viewBox="0 0 32 32" fill="none" xmlns="http://www.w3.org/2000/svg">
<path d="M23.9423 12.2759H18.5936C19.5893 11.5907 20.2448 10.4388 20.2448 9.13494C20.2448 7.03877 18.5518 5.33333 16.4709 5.33333C14.39 5.33333 12.697 7.03877 12.697 9.13494C12.697 10.4389 13.3525 11.5911 14.3482 12.2759H8.99991L2.66699 26.6667H30.2748L23.9423 12.2759ZM16.4709 7.26756C17.4931 7.26756 18.3243 8.10527 18.3243 9.13459C18.3243 10.1639 17.4931 11.0016 16.4709 11.0016C15.4491 11.0016 14.6175 10.1639 14.6175 9.13459C14.6175 8.10527 15.4491 7.26756 16.4709 7.26756Z" fill="#E11C22"/>
</svg>
