<svg width="32" height="32" viewBox="0 0 32 32" fill="none" xmlns="http://www.w3.org/2000/svg">
<ellipse cx="16" cy="14.666" rx="4" ry="4" fill="white"/>
<path d="M23.3616 11.4015C22.7701 10.0419 21.7895 8.87431 20.5357 8.03623C19.2816 7.19814 17.8064 6.72445 16.2836 6.67111C14.7609 6.61761 13.2542 6.98661 11.9409 7.73473C10.6276 8.48272 9.5625 9.57847 8.8709 10.8931C8.1793 12.2076 7.89019 13.6862 8.03742 15.1544C8.18482 16.6228 8.76248 18.0198 9.70243 19.181L9.75813 19.2452L15.1105 24.9498C15.3385 25.1936 15.6625 25.3327 16.0022 25.3327C16.3418 25.3327 16.6657 25.1936 16.8938 24.9498L22.2461 19.2452L22.3018 19.181C23.1796 18.0941 23.7418 16.7998 23.9299 15.4324C24.1181 14.0647 23.9256 12.6731 23.3723 11.4017L23.3616 11.4015ZM15.9987 17.4544C15.2037 17.4544 14.4414 17.1487 13.8792 16.6045C13.3171 16.0602 13.0014 15.322 13.0014 14.5524C13.0014 13.7827 13.3171 13.0446 13.8792 12.5003C14.4413 11.956 15.2037 11.6502 15.9987 11.6502C16.7936 11.6502 17.556 11.956 18.1181 12.5003C18.6803 13.0445 18.996 13.7827 18.996 14.5524C18.996 15.322 18.6803 16.0602 18.1181 16.6045C17.556 17.1488 16.7936 17.4544 15.9987 17.4544Z" fill="#E11C22"/>
</svg>
