<svg width="32" height="32" viewBox="0 0 32 32" fill="none" xmlns="http://www.w3.org/2000/svg">
<path d="M25.5613 13.7577C25.5613 8.37777 21.0781 4 15.5399 4C10.0018 4 5.51852 8.37782 5.51852 13.7577V14.5489H5.53434C4.72123 16.2632 4.84231 18.2746 5.85516 19.8789C6.86823 21.4834 8.63182 22.4576 10.5293 22.4605C10.739 22.4605 10.9403 22.3772 11.0888 22.2289C11.237 22.0805 11.3205 21.8792 11.3205 21.6693V12.1754V12.1755C11.3205 11.9656 11.237 11.7644 11.0888 11.6161C10.9403 11.4677 10.7391 11.3843 10.5293 11.3843C9.32606 11.3845 8.15608 11.7791 7.19845 12.5077C7.82351 8.59148 11.3257 5.5827 15.54 5.5827C19.6752 5.5827 23.1244 8.48373 23.8393 12.2892H23.8394C22.9412 11.6987 21.8895 11.3841 20.8145 11.3847C20.6047 11.3847 20.4035 11.468 20.255 11.6165C20.1068 11.7648 20.0233 11.966 20.0233 12.1759V21.6699V21.6697C20.0233 21.8796 20.1068 22.0808 20.255 22.2293C20.4035 22.3776 20.6047 22.4609 20.8145 22.4609C21.2937 22.4596 21.7707 22.3958 22.2333 22.2711C22.0159 22.9392 21.5926 23.5214 21.0242 23.9344C20.4558 24.3474 19.7713 24.5702 19.0687 24.5707H18.5993C18.448 23.6191 17.8439 22.8003 16.9792 22.3754C16.1144 21.9504 15.0969 21.9723 14.2512 22.4341C13.4054 22.8958 12.837 23.7398 12.727 24.6971C12.6168 25.6542 12.9788 26.6053 13.6977 27.247C14.4165 27.8888 15.4024 28.141 16.341 27.9234C17.2798 27.7057 18.054 27.0455 18.4173 26.1531H19.0687C20.3309 26.1517 21.544 25.6644 22.4565 24.7922C23.3687 23.9201 23.9103 22.7303 23.9686 21.4694C25.1228 20.6712 25.9291 19.463 26.2232 18.0909C26.5172 16.7187 26.2767 15.2862 25.551 14.0852L25.5613 13.7577Z" fill="#4D4D4D"/>
</svg>
