<svg width="32" height="32" viewBox="0 0 32 32" fill="none" xmlns="http://www.w3.org/2000/svg">
<ellipse cx="16" cy="14.6667" rx="4" ry="4" fill="white"/>
<path d="M23.3616 11.4022C22.7701 10.0426 21.7895 8.87497 20.5357 8.03688C19.2816 7.1988 17.8064 6.7251 16.2836 6.67176C14.7609 6.61826 13.2542 6.98727 11.9409 7.73539C10.6276 8.48337 9.5625 9.57913 8.8709 10.8938C8.1793 12.2083 7.89019 13.6869 8.03742 15.1551C8.18482 16.6234 8.76248 18.0205 9.70243 19.1817L9.75813 19.2459L15.1105 24.9504C15.3385 25.1942 15.6625 25.3333 16.0022 25.3333C16.3418 25.3333 16.6657 25.1942 16.8938 24.9504L22.2461 19.2459L22.3018 19.1817C23.1796 18.0948 23.7418 16.8005 23.9299 15.4331C24.1181 14.0653 23.9256 12.6738 23.3723 11.4024L23.3616 11.4022ZM15.9987 17.4551C15.2037 17.4551 14.4414 17.1494 13.8792 16.6051C13.3171 16.0609 13.0014 15.3227 13.0014 14.553C13.0014 13.7834 13.3171 13.0452 13.8792 12.5009C14.4413 11.9566 15.2037 11.6508 15.9987 11.6508C16.7936 11.6508 17.556 11.9567 18.1181 12.5009C18.6803 13.0452 18.996 13.7834 18.996 14.553C18.996 15.3227 18.6803 16.0608 18.1181 16.6051C17.556 17.1494 16.7936 17.4551 15.9987 17.4551Z" fill="black"/>
</svg>
