<svg width="24" height="24" viewBox="0 0 24 24" fill="none" xmlns="http://www.w3.org/2000/svg">
<circle cx="12" cy="11" r="3" fill="white"/>
<path d="M17.5212 8.55163C17.0776 7.53192 16.3421 6.65622 15.4017 6.02766C14.4612 5.3991 13.3548 5.04382 12.2127 5.00382C11.0707 4.96369 9.94067 5.24045 8.95568 5.80154C7.97069 6.36253 7.17188 7.18434 6.65318 8.17031C6.13447 9.1562 5.91765 10.2652 6.02807 11.3663C6.13862 12.4676 6.57186 13.5154 7.27682 14.3863L7.3186 14.4344L11.3329 18.7128C11.5039 18.8957 11.7469 19 12.0017 19C12.2564 19 12.4993 18.8957 12.6703 18.7128L16.6846 14.4344L16.7264 14.3863C17.3847 13.5711 17.8063 12.6004 17.9475 11.5748C18.0886 10.549 17.9442 9.50531 17.5292 8.55176L17.5212 8.55163ZM11.999 13.0913C11.4028 13.0913 10.831 12.862 10.4094 12.4538C9.98781 12.0457 9.75105 11.492 9.75105 10.9148C9.75105 10.3375 9.98783 9.7839 10.4094 9.37569C10.831 8.96748 11.4028 8.73813 11.999 8.73813C12.5952 8.73813 13.167 8.96749 13.5886 9.37569C14.0102 9.78388 14.247 10.3375 14.247 10.9148C14.247 11.492 14.0102 12.0456 13.5886 12.4538C13.167 12.8621 12.5952 13.0913 11.999 13.0913Z" fill="#203475"/>
</svg>
