<svg width="44" height="44" viewBox="0 0 44 44" fill="none" xmlns="http://www.w3.org/2000/svg">
<path d="M32.0212 15.3898C31.6914 15.5361 31.3523 15.6595 31.0059 15.7598C31.4161 15.2959 31.7288 14.7501 31.9197 14.1528C31.9625 14.0189 31.9181 13.8724 31.8081 13.7848C31.6982 13.6972 31.5455 13.6867 31.4245 13.7584C30.6887 14.1948 29.8949 14.5084 29.0625 14.6918C28.2241 13.8725 27.0853 13.4062 25.9081 13.4062C23.4231 13.4062 21.4015 15.4279 21.4015 17.9128C21.4015 18.1085 21.4138 18.3031 21.4384 18.495C18.3548 18.2243 15.488 16.7087 13.5194 14.2938C13.4492 14.2078 13.3411 14.1614 13.2305 14.1703C13.1198 14.1789 13.0203 14.2414 12.9644 14.3373C12.5651 15.0224 12.354 15.806 12.354 16.6033C12.354 17.6892 12.7417 18.7194 13.4265 19.5245C13.2183 19.4524 13.0162 19.3622 12.8234 19.2552C12.7198 19.1975 12.5935 19.1984 12.4906 19.2574C12.3877 19.3164 12.3231 19.4249 12.3204 19.5435C12.3199 19.5634 12.3199 19.5834 12.3199 19.6037C12.3199 21.2245 13.1923 22.6838 14.526 23.4792C14.4115 23.4677 14.2969 23.4511 14.1832 23.4294C14.0659 23.407 13.9453 23.4481 13.8662 23.5375C13.7869 23.6269 13.7607 23.7515 13.7972 23.8653C14.2909 25.4066 15.5619 26.5403 17.0985 26.8859C15.8241 27.6841 14.3667 28.1022 12.8368 28.1022C12.5175 28.1022 12.1965 28.0835 11.8823 28.0463C11.7262 28.0278 11.5769 28.1199 11.5238 28.2684C11.4706 28.4169 11.5269 28.5824 11.6597 28.6676C13.6252 29.9278 15.8978 30.5938 18.2317 30.5938C22.82 30.5938 25.6903 28.4302 27.2901 26.6151C29.2851 24.3519 30.4293 21.3562 30.4293 18.3962C30.4293 18.2726 30.4274 18.1477 30.4236 18.0232C31.2107 17.4302 31.8884 16.7125 32.4398 15.8876C32.5236 15.7623 32.5145 15.5968 32.4175 15.4814C32.3206 15.3661 32.1591 15.3287 32.0212 15.3898Z" fill="#E11C22"/>
</svg>
