<svg width="44" height="44" viewBox="0 0 44 44" fill="none" xmlns="http://www.w3.org/2000/svg">
<g clip-path="url(#clip0_2357_813)">
<path fill-rule="evenodd" clip-rule="evenodd" d="M12 22.0558C12 27.0275 15.6108 31.1617 20.3333 32V24.7775H17.8333V22H20.3333V19.7775C20.3333 17.2775 21.9442 15.8892 24.2225 15.8892C24.9442 15.8892 25.7225 16 26.4442 16.1108V18.6667H25.1667C23.9442 18.6667 23.6667 19.2775 23.6667 20.0558V22H26.3333L25.8892 24.7775H23.6667V32C28.3892 31.1617 32 27.0283 32 22.0558C32 16.525 27.5 12 22 12C16.5 12 12 16.525 12 22.0558Z" fill="#E11C22"/>
</g>
<defs>
<clipPath id="clip0_2357_813">
<rect width="20" height="20" fill="white" transform="translate(12 12)"/>
</clipPath>
</defs>
</svg>
