<svg width="32" height="32" viewBox="0 0 32 32" fill="none" xmlns="http://www.w3.org/2000/svg">
<path fill-rule="evenodd" clip-rule="evenodd" d="M4.00106 11.8111C4 12.0809 4 12.3657 4 12.6665V19.3332C4 22.1616 4 23.5758 4.87868 24.4545C5.75736 25.3332 7.17157 25.3332 10 25.3332H22C24.8284 25.3332 26.2426 25.3332 27.1213 24.4545C28 23.5758 28 22.1616 28 19.3332V12.6665C28 12.3657 28 12.0809 27.9989 11.8111L16.9713 17.9375C16.3672 18.2731 15.6328 18.2731 15.0287 17.9375L4.00106 11.8111ZM4.07586 9.66914C4.21552 9.67968 4.35518 9.71987 4.48564 9.79235L16 16.1892L27.5144 9.79235C27.6448 9.71987 27.7845 9.67968 27.9241 9.66915C27.8284 8.6926 27.6116 8.03551 27.1213 7.54518C26.2426 6.6665 24.8284 6.6665 22 6.6665H10C7.17157 6.6665 5.75736 6.6665 4.87868 7.54518C4.38835 8.03551 4.17164 8.6926 4.07586 9.66914Z" fill="#4D4D4D"/>
</svg>
