<svg width="24" height="24" viewBox="0 0 24 24" fill="none" xmlns="http://www.w3.org/2000/svg">
<path fill-rule="evenodd" clip-rule="evenodd" d="M9.03846 4C8.295 4 7.69231 4.63959 7.69231 5.42857V7.70716C7.38618 7.74704 7.08126 7.79111 6.77761 7.83933C5.73368 8.00509 5 8.96886 5 10.0615V14.8571C5 16.1195 5.96431 17.1429 7.15385 17.1429H7.34743L7.23613 18.4421C7.16447 19.2787 7.78518 20 8.57676 20H15.4232C16.2148 20 16.8355 19.2787 16.7639 18.4421L16.6526 17.1429H16.8462C18.0357 17.1429 19 16.1195 19 14.8571V10.0615C19 8.96886 18.2663 8.00509 17.2224 7.83933C16.9187 7.79111 16.6138 7.74704 16.3077 7.70716V5.42857C16.3077 4.63959 15.705 4 14.9615 4H9.03846ZM15.2308 7.58474V5.42857C15.2308 5.27078 15.1102 5.14286 14.9615 5.14286H9.03846C8.88977 5.14286 8.76923 5.27078 8.76923 5.42857V7.58474C9.83321 7.48138 10.9109 7.42857 12 7.42857C13.0891 7.42857 14.1668 7.48138 15.2308 7.58474ZM15.0753 13.8816C15.2026 13.8956 15.3023 14.0036 15.3139 14.1389L15.6914 18.5456C15.7057 18.7129 15.5816 18.8571 15.4232 18.8571H8.57676C8.41844 18.8571 8.2943 18.7129 8.30863 18.5456L8.68613 14.1389C8.69771 14.0036 8.79742 13.8956 8.92473 13.8816C9.93545 13.771 10.9614 13.7143 12 13.7143C13.0386 13.7143 14.0646 13.771 15.0753 13.8816ZM15.7692 10.8571C15.7692 10.5416 16.0103 10.2857 16.3077 10.2857H16.3131C16.6105 10.2857 16.8515 10.5416 16.8515 10.8571V10.8629C16.8515 11.1784 16.6105 11.4343 16.3131 11.4343H16.3077C16.0103 11.4343 15.7692 11.1784 15.7692 10.8629V10.8571ZM14.1538 10.2857C13.8565 10.2857 13.6154 10.5416 13.6154 10.8571V10.8629C13.6154 11.1784 13.8565 11.4343 14.1538 11.4343H14.1592C14.4566 11.4343 14.6977 11.1784 14.6977 10.8629V10.8571C14.6977 10.5416 14.4566 10.2857 14.1592 10.2857H14.1538Z" fill="#212121"/>
</svg>
