<svg width="32" height="32" viewBox="0 0 32 32" fill="none" xmlns="http://www.w3.org/2000/svg">
<path d="M4.91781 12.9581L2.5 14.8455L7.70142 28.5L14.2093 23.2877" stroke="#203475" stroke-width="2" stroke-miterlimit="10" stroke-linecap="round" stroke-linejoin="round"/>
<path d="M17.7908 10.4099L13.2861 9.91083" stroke="#203475" stroke-width="2" stroke-miterlimit="10" stroke-linecap="round" stroke-linejoin="round"/>
<path d="M11.0391 14.8735L14.2094 23.2877L22.9922 24.0609" stroke="#203475" stroke-width="2" stroke-miterlimit="10" stroke-linecap="round" stroke-linejoin="round"/>
<path d="M17.791 10.4099L24.2954 5.1976L29.5003 18.8522L22.9924 24.061L17.791 10.4099Z" stroke="#203475" stroke-width="2" stroke-miterlimit="10" stroke-linecap="round" stroke-linejoin="round"/>
<path d="M13.2856 9.9108C12.9267 11.8122 11.9861 13.5344 11.0385 14.8735C9.80518 16.6203 8.56144 17.7169 8.56144 17.7169C8.56144 17.7169 6.36311 15.7733 4.91731 12.9545C4.21008 11.5768 3.6875 9.98812 3.6875 8.31513C3.6875 5.90405 5.66634 3.5 8.56144 3.5C11.46 3.5 13.4389 5.90405 13.4389 8.31864C13.4389 8.85991 13.3831 9.39062 13.2856 9.9108ZM10.5229 8.22023C10.5229 7.15176 9.64492 6.28715 8.56492 6.28715C7.48492 6.28715 6.60698 7.15176 6.60698 8.22023C6.60698 9.2887 7.48492 10.1568 8.56492 10.1568C9.64492 10.1533 10.5229 9.2887 10.5229 8.22023Z" fill="#E11C22"/>
</svg>
