<svg width="24" height="24" viewBox="0 0 24 24" fill="none" xmlns="http://www.w3.org/2000/svg">
<path fill-rule="evenodd" clip-rule="evenodd" d="M6 7.71429C6 6.76751 6.76751 6 7.71429 6H8.49807C8.98972 6 9.41827 6.3346 9.53751 6.81157L10.1694 9.3391C10.2739 9.75731 10.1177 10.1975 9.77281 10.4561L9.0336 11.0105C8.95684 11.0681 8.94015 11.1524 8.96171 11.2112C9.61058 12.9826 11.0174 14.3894 12.7888 15.0383C12.8476 15.0598 12.9319 15.0432 12.9895 14.9664L13.5439 14.2272C13.8025 13.8823 14.2427 13.7261 14.6609 13.8306L17.1884 14.4625C17.6654 14.5817 18 15.0103 18 15.5019V16.2857C18 17.2325 17.2325 18 16.2857 18H15C10.0294 18 6 13.9706 6 9V7.71429Z" fill="#0F172A"/>
</svg>
