<svg width="24" height="24" viewBox="0 0 24 24" fill="none" xmlns="http://www.w3.org/2000/svg">
<path d="M20.4113 9.40778V14.3547C20.4113 15.0367 19.8566 15.5914 19.1746 15.5914H19.1554C18.9607 17.316 17.1037 18.6733 14.846 18.6733V18.6832C14.846 19.3652 14.2913 19.9199 13.6093 19.9199H12.3725C11.6905 19.9199 11.1358 19.3652 11.1358 18.6832V17.4465C11.1358 16.7645 11.6905 16.2098 12.3725 16.2098H13.6093C14.2882 16.2098 14.8398 16.8281 14.8454 17.4465H14.846C16.4048 17.4465 17.6849 16.6346 17.8951 15.592C17.2329 15.5685 16.7011 15.0219 16.7011 14.3547V9.40779C16.7011 8.7548 17.2112 8.22421 17.8531 8.17976C17.4067 6.4663 15.1225 5.15654 12.3726 5.15654C9.62274 5.15654 7.33844 6.46626 6.89216 8.17976C7.53398 8.2242 8.04415 8.75476 8.04415 9.40779V14.3547C8.04415 15.0367 7.48943 15.5914 6.80743 15.5914H5.57071C4.88871 15.5914 4.33398 15.0367 4.33398 14.3547V9.40779C4.33398 8.72579 4.88871 8.17106 5.57071 8.17106H5.63199C6.05862 5.77741 8.91538 3.91992 12.3728 3.91992C15.8303 3.91992 18.6868 5.77748 19.1137 8.17106H19.175C19.857 8.17106 20.4117 8.72579 20.4117 9.40779L20.4113 9.40778Z" fill="#212121"/>
</svg>
