<svg width="44" height="44" viewBox="0 0 44 44" fill="none" xmlns="http://www.w3.org/2000/svg">
<path d="M10.8838 14.0002C10.5185 14.0002 10.1811 14.1062 9.89284 14.2847L21.5578 23.6735C22.1668 24.1636 22.812 24.1636 23.4219 23.6735L35.107 14.2847C34.8188 14.106 34.4814 14 34.1161 14H10.8837L10.8838 14.0002ZM9.10797 15.2559C9.03876 15.4523 9 15.663 9 15.8838V28.4418C9 29.4853 9.84004 30.3256 10.8838 30.3256H34.1162C35.1597 30.3256 36 29.4856 36 28.4418V15.8838C36 15.663 35.9612 15.4523 35.892 15.2559L24.2069 24.6548C23.1945 25.4682 21.7853 25.4695 20.7731 24.6548L9.10797 15.2559Z" fill="#E11C22"/>
</svg>
