<svg width="1440" height="309" viewBox="0 0 1440 309" fill="none" xmlns="http://www.w3.org/2000/svg">
<ellipse cx="1333.99" cy="299.847" rx="168.989" ry="8.57188" fill="#DDDDDD"/>
<path fill-rule="evenodd" clip-rule="evenodd" d="M1461.1 263.024C1460.27 262.374 1459.51 262.352 1458.79 262.413C1452.44 262.932 1446.12 261.947 1439.78 262.038C1434.67 262.115 1429.59 261.557 1424.45 261.695C1420.64 261.802 1416.7 261.107 1412.84 260.595C1406.18 259.709 1399.5 259.434 1392.8 259.984C1391.69 260.076 1390.63 260.068 1389.53 259.969C1381.03 259.174 1372.54 257.983 1363.98 258.151C1348.98 258.441 1333.99 258.823 1318.99 259.129C1315.7 259.197 1312.4 259.243 1309.11 259.083C1299.34 258.609 1289.59 258.907 1279.83 259.541C1277.77 259.678 1275.7 259.938 1273.63 259.617C1272.89 259.503 1272.11 259.426 1271.5 259.908C1269.26 261.672 1266.74 261.404 1264.16 261.076C1261.94 260.801 1261.99 260.862 1262.03 263.1C1262.12 268.156 1261.13 273.021 1259.34 277.741C1258.09 281.017 1256.33 284.156 1256.69 287.852C1256.72 288.082 1256.68 288.387 1256.54 288.555C1254.15 291.549 1253.06 295.345 1249.99 298.003C1245.51 301.867 1240.45 303.219 1234.71 304.128C1229.98 304.884 1225.96 303.471 1222.1 301.974C1219.14 300.828 1216.48 298.262 1214.15 295.749C1210.06 291.335 1206.36 286.707 1205.8 280.414C1205.45 276.427 1205.29 272.418 1205.56 268.408C1205.73 265.911 1205.63 265.872 1203.06 265.781C1198.94 265.643 1194.82 264.918 1190.72 266.101C1190.3 266.224 1189.64 266.163 1189.31 265.903C1186.49 263.703 1183.29 264.46 1180.16 264.605C1178.45 264.681 1176.74 264.803 1175.04 264.757C1172.18 264.681 1170.78 263.612 1170.86 261.718C1170.93 259.992 1172.31 258.861 1174.8 258.693C1177.47 258.51 1180.16 258.441 1182.84 258.342C1183.57 258.311 1184.31 258.342 1185.04 258.334C1188.94 258.319 1188.94 258.319 1188.91 254.584C1188.86 247.291 1188.84 239.989 1188.74 232.696C1188.66 226.113 1189.15 219.544 1188.99 212.953C1188.85 207.248 1188.17 201.528 1188.99 195.793C1189.26 193.929 1188.35 191.928 1188.43 190.011C1188.88 179.899 1188.11 169.803 1188.07 159.714C1188.05 153.161 1188.09 146.578 1188.4 140.017C1188.66 134.526 1188.52 129.035 1188.42 123.544C1188.38 120.871 1189.07 118.243 1188.94 115.532C1188.77 111.782 1188.87 111.713 1185.25 112.218C1181.27 112.767 1177.28 113.21 1173.29 113.103C1172.68 112.134 1173.34 111.713 1173.94 111.278C1179.86 106.963 1186.32 103.473 1192.56 99.6619C1194.75 98.3253 1197.3 97.6609 1199.81 97.2103C1206.17 96.0877 1212.48 94.7893 1219 94.5907C1224.47 94.4227 1229.96 93.827 1235.39 93.0862C1241.11 92.3148 1246.85 92.4676 1252.57 92.2308C1261.71 91.8566 1270.87 91.7191 1280.02 91.5817C1285.51 91.4976 1291.02 91.9482 1296.48 91.574C1307.79 90.7874 1319.14 91.8718 1330.42 90.4971C1333.08 90.1764 1335.79 90.2909 1338.47 90.2451C1354.45 89.9396 1370.42 89.5959 1386.4 89.3592C1391.64 89.2828 1396.9 89.3516 1402.15 89.573C1408.38 89.8403 1414.59 89.2293 1420.82 89.3439C1424.28 89.405 1427.52 88.099 1430.97 88.0074C1436.2 87.8775 1438.42 89.4431 1439.23 94.5525C1440.64 103.587 1442.14 112.622 1443.11 121.711C1443.9 129.02 1445.37 136.153 1447.08 143.278C1448.24 148.143 1448.95 153.1 1450.34 157.919C1450.64 158.958 1450.66 160.081 1450.73 161.173C1450.93 163.853 1452.32 165.488 1454.94 165.786C1457.85 166.114 1460.76 166.389 1463.69 166.511C1472.7 166.893 1481.72 167.221 1490.74 167.527C1496.97 167.741 1503.07 169.093 1509.27 169.619C1517.29 170.299 1525.31 171.048 1533.33 171.727C1536.26 171.972 1539.14 172.422 1542.03 172.865C1544.92 173.308 1546.22 175.08 1546.85 177.654C1547.53 180.426 1547.42 183.26 1547.21 186.04C1546.38 197.35 1545.36 208.646 1545.23 220.01C1545.12 228.893 1545.06 237.798 1544.2 246.665C1544.05 248.161 1543.99 249.826 1546.38 250.109C1548.57 250.369 1549.14 252.408 1549.53 254.18C1550.03 256.44 1550.11 258.793 1549.85 261.107C1549.53 263.963 1548.34 265.139 1545.5 265.651C1542.48 266.201 1539.42 266.247 1536.37 266.254C1533.78 266.262 1531.29 266.903 1528.73 267.117C1527.52 267.216 1527.05 267.858 1526.91 268.973C1526.22 274.419 1522.95 278.886 1521.19 283.934C1520.69 285.363 1519.9 286.47 1518.26 286.928C1516.96 287.295 1516.08 288.456 1515.12 289.38C1508.98 295.329 1501.44 297.888 1493.14 297.369C1488.69 297.086 1484.22 296.399 1479.74 295.925C1476.55 295.589 1473.8 293.787 1471.67 291.259C1470.72 290.136 1469.68 289.197 1468.35 288.471C1465.7 287.028 1464.62 284.37 1463.74 281.674C1462.8 278.772 1462.1 275.793 1461.09 272.922C1459.93 269.569 1460.53 266.224 1461.1 263.024ZM1379.04 193.035C1381.33 191.813 1381.38 191.714 1380.27 189.744C1379.83 190.844 1379.4 191.905 1378.97 192.974C1378.78 193.051 1378.59 193.127 1378.39 193.203C1378.49 193.31 1378.6 193.417 1378.71 193.524C1378.81 193.356 1378.93 193.196 1379.04 193.035ZM1227.18 286.783C1225.51 287.623 1224.4 289.418 1222.23 289.525C1223.72 290.564 1225.18 291.159 1226.95 291.121C1227.1 289.601 1227.24 288.295 1227.37 286.982C1227.7 286.837 1227.95 286.493 1227.63 286.294C1227.24 286.035 1227.24 286.516 1227.18 286.783ZM1224.95 281.697C1222.05 281.804 1219.01 282.422 1216.75 278.81C1216.65 282.483 1219.06 284.141 1220.23 286.608C1221.54 284.568 1222.7 282.606 1224.88 281.628C1225.01 281.567 1225.14 281.506 1225.27 281.445C1225.17 281.529 1225.06 281.613 1224.95 281.697ZM1246.24 283.11C1244.22 283.53 1242.55 281.895 1240.45 281.972C1240.95 283.56 1241.01 284.935 1240.54 286.356C1240.29 287.119 1240.03 287.975 1240.72 288.677C1240.53 288.601 1240.4 287.998 1240.12 288.601C1240.31 288.624 1240.5 288.639 1240.69 288.662C1243.28 287.646 1245.28 285.951 1246.61 283.492C1246.95 283.087 1247.01 282.652 1246.77 282.178C1248.16 281.743 1248.76 280.276 1248.38 279.421C1247.45 277.321 1248.69 275.931 1249.41 274.335C1252.4 267.705 1248.93 257.647 1240.56 256.272C1236.33 255.577 1232.06 255.799 1227.86 256.769C1227.45 256.86 1227.3 257.158 1227.24 257.532C1222.55 258.304 1221.56 262.237 1220.07 265.819C1225.07 266.521 1227.7 270.172 1226.37 274.38C1225.91 275.816 1224.79 276.397 1223.99 275.427C1222.21 273.265 1219.29 271.814 1219.49 267.629C1217.67 271.112 1216.82 273.991 1216.98 277.305C1220.15 275.213 1224.97 276.236 1226.14 279.344C1227.03 281.727 1228.69 282.208 1230.81 282.285C1231.3 282.3 1231.8 282.315 1232.28 282.254C1234.39 281.987 1234.76 283.957 1235.65 285.065C1236.55 286.195 1235.29 286.753 1234.51 287.57C1233.31 288.815 1232.73 290.564 1232.55 292.305C1233.58 292.679 1234.23 292.267 1234.89 291.977C1235.54 291.686 1236.28 291.503 1236.68 290.816C1235.91 289.578 1235.19 288.326 1234.35 287.157C1233.9 286.516 1233.39 285.691 1234.01 285.225C1235.69 283.935 1235.09 281.796 1236.11 280.314C1236.88 279.703 1238.5 281.063 1238.7 278.84C1238.99 275.64 1240.31 275.029 1243.34 276.122C1246.22 277.153 1247.18 278.825 1246.9 282.293C1246.67 282.56 1246.46 282.835 1246.24 283.11ZM1497.96 274.617C1496.55 274.449 1495.48 275.281 1494.18 275.701C1495.06 278.069 1496.17 280.192 1495.8 282.713C1495.44 285.202 1493.8 287.188 1492.99 289.762C1497.14 289.945 1500.5 288.166 1504.15 287.387C1503.04 286.447 1501.48 286.44 1500.84 285.149C1499.61 282.659 1498.35 280.162 1497.31 277.588C1496.92 276.626 1497.02 275.419 1497.87 274.51C1499.93 273.227 1501.32 274.395 1502.52 275.892C1504.81 278.741 1506.63 281.758 1505.05 286.379C1508.59 282.942 1511.53 280.154 1512.51 275.327C1510.95 276.465 1510.02 278.26 1508.46 277.359C1505.2 275.472 1501.65 273.769 1500.17 269.439C1500.02 271.638 1497.89 272.601 1497.96 274.617ZM1512.54 274.35C1512.57 274.541 1512.57 274.892 1512.63 274.9C1513.09 274.961 1512.98 274.609 1512.99 274.342C1513.9 271.715 1514.8 269.08 1515.71 266.453C1516.26 264.857 1516.3 263.268 1515.84 261.985C1510.7 262.313 1506.82 266.674 1501.47 265.338C1501.07 265.238 1500.84 265.574 1500.8 265.964C1500.77 266.437 1500.76 267.148 1501.33 267.087C1504.89 266.712 1506.89 269.76 1509.79 270.814C1511.45 271.409 1512.28 272.67 1512.54 274.35ZM1488.64 257.861C1490.56 257.013 1492.53 256.211 1494.64 256.96C1497.36 257.93 1499.02 260.099 1500.17 262.504C1504.63 258.189 1509.11 254.455 1515.77 255.577C1514.67 251.232 1513.73 246.787 1508.91 244.686C1508.6 250.46 1505.36 254.317 1501.42 257.746C1500.25 258.77 1498.9 258.785 1497.76 257.815C1496.7 256.914 1496.96 255.677 1497.43 254.485C1499.2 249.956 1501.6 245.855 1505.43 242.724C1500.38 239.776 1497.93 239.241 1493.82 240.165C1496.05 242.8 1496.97 249.933 1495.36 252.835C1494.68 254.065 1493.63 254.882 1492.06 254.646C1490.56 254.424 1490.1 253.324 1489.91 252.056C1489.61 250.002 1489.45 247.932 1489.62 245.847C1489.75 244.419 1489.91 242.983 1489.17 241.387C1486.01 242.426 1483.25 243.793 1480.28 246.413C1482 246.413 1482.86 246.405 1483.71 246.413C1485.09 246.428 1486.09 247.146 1486.55 248.36C1487.64 251.262 1489.44 254.065 1488.14 257.402C1485.25 258.449 1483.68 258.075 1481.93 255.585C1480.42 253.439 1479.11 251.148 1477.55 248.673C1476.14 251.308 1474.01 253.24 1473.72 256.181C1479.52 256.532 1482.68 258.838 1484.18 265.849C1484.73 264.246 1485 262.772 1485.71 261.55C1486.48 260.206 1487.65 259.083 1488.64 257.861ZM1197.26 262.558C1197.86 260.656 1197.7 258.938 1197.86 257.265C1198.38 251.743 1199.5 246.252 1202.69 241.723C1205.76 237.362 1209.66 233.567 1214.44 230.901C1216.5 229.756 1218.47 228.014 1220.68 227.632C1226.44 226.624 1232.25 225.952 1237.95 224.593C1243.01 223.378 1247.63 224.188 1251.84 227.22C1254.52 229.152 1257.28 230.962 1260.24 232.421C1264.4 234.468 1266.68 237.889 1267.97 242.136C1269.23 246.329 1270.86 250.43 1271.4 254.829C1271.56 256.165 1272.23 256.73 1273.73 256.99C1276.94 257.54 1280.06 256.761 1283.21 256.746C1289.89 256.708 1296.57 256.31 1303.56 256.043C1302.4 250.903 1301.96 245.954 1301.96 240.967C1301.96 239.134 1301.69 237.332 1301.53 235.514C1301.13 230.779 1300.08 226.059 1300.39 221.293C1301.46 205.087 1301.05 188.85 1301.57 172.629C1301.81 165.343 1301.98 158.018 1302.11 150.71C1302.37 137.184 1303.18 123.674 1303.68 110.148C1303.79 107.223 1303.79 104.305 1304.18 101.396C1304.37 99.9827 1304.89 99.1273 1306.41 99.028C1309.44 98.8218 1312.43 98.2719 1315.52 98.3483C1319.92 98.4552 1324.28 98.9975 1328.67 99.112C1338.05 99.3564 1347.42 100.578 1356.8 99.112C1358.6 98.8294 1360.43 98.6232 1362.26 98.5926C1365.66 98.5315 1365.85 98.8447 1365 102.136C1364.91 102.488 1364.87 102.862 1364.87 103.221C1364.86 110.789 1364.2 118.32 1363.68 125.858C1363.27 131.693 1363.33 137.551 1362.97 143.401C1362.45 152.26 1361.17 161.119 1361.95 170.047C1362.07 171.361 1361.76 172.713 1361.64 174.049C1361.52 175.386 1361.39 176.722 1361.25 178.059C1361.16 178.929 1361.49 179.594 1362.4 179.495C1364.82 179.227 1364.94 180.717 1364.87 182.473C1364.82 183.817 1364.88 185.161 1364.85 186.506C1364.79 189.079 1364.78 189.286 1362.29 189.224C1360.71 189.186 1360.35 189.896 1360.25 191.073C1360.12 192.531 1359.92 194.021 1360.12 195.449C1360.65 199.229 1360.37 203.01 1360.42 206.783C1360.45 209.104 1360.43 211.426 1360.42 213.748C1360.42 214.825 1360.58 215.68 1361.99 215.619C1363.97 215.535 1364.27 216.917 1364.54 218.491C1364.95 220.835 1364.18 223.119 1364.36 225.425C1364.52 227.587 1363.88 229.045 1361.55 229.274C1360.19 229.404 1359.71 230.092 1359.68 231.421C1359.66 232.757 1359.33 234.078 1359.22 235.415C1358.83 240.142 1358.66 244.862 1357.77 249.559C1356.76 254.867 1357.63 255.615 1363.05 255.234C1363.54 255.203 1364.03 255.188 1364.52 255.165C1365.28 255.127 1365.66 254.646 1365.49 253.966C1364.8 251.171 1365.56 248.429 1365.64 245.664C1365.89 237.278 1365.62 228.9 1366.29 220.507C1366.73 214.932 1367.19 209.333 1367.47 203.728C1367.98 193.265 1369.11 182.824 1368.7 172.323C1368.61 169.887 1368.18 167.443 1368.27 165.022C1368.67 153.558 1368.74 142.087 1368.61 130.616C1368.52 123.055 1369.32 115.547 1369.57 108.009C1369.66 105.596 1369.74 103.137 1370.05 100.731C1370.42 97.7984 1371.35 97.2103 1374.39 97.4394C1375.48 97.5234 1376.58 97.4394 1377.68 97.3478C1381.44 97.027 1385.2 96.5765 1388.97 96.3626C1393.6 96.0953 1398.24 96.0265 1402.87 95.8585C1412.01 95.5378 1421.12 94.5372 1430.27 94.6518C1433.2 94.69 1433.58 95.026 1433.89 97.9893C1434.1 99.9291 1434.16 101.869 1434.41 103.817C1435.24 110.14 1437.14 116.197 1438.82 122.306C1439.23 123.796 1439.3 125.392 1440.44 127.08C1440.66 125.232 1440.46 123.811 1440.27 122.383C1439.83 119 1439.58 115.586 1439.03 112.218C1438.1 106.566 1437.1 100.93 1436.35 95.2399C1435.93 92.0093 1435.3 91.7267 1431.95 91.658C1428.89 91.5893 1425.88 92.1697 1422.84 92.2537C1415.4 92.4447 1407.94 92.6814 1400.5 92.4217C1391.71 92.1086 1382.94 92.2308 1374.16 92.4828C1366.95 92.689 1359.74 93.1931 1352.56 92.8494C1345.45 92.5133 1338.37 92.6891 1331.36 93.2924C1321.11 94.1783 1310.86 93.6666 1300.63 94.4685C1295.29 94.8885 1289.89 94.1783 1284.55 94.2699C1275.15 94.4379 1265.74 94.5755 1256.34 94.7206C1248.9 94.8351 1241.47 95.1864 1234.05 95.9349C1227.62 96.584 1221.18 97.1568 1214.73 97.554C1208.74 97.9206 1202.92 99.1654 1197.15 100.67C1193.93 101.51 1192.05 103.679 1191.96 107.284C1191.81 113.371 1191.37 119.458 1191.2 125.545C1191.04 131.158 1191.06 136.771 1191 142.393C1190.89 151.405 1190.32 160.401 1190.96 169.421C1191.3 174.164 1191.18 178.937 1191.31 183.695C1191.33 184.459 1190.72 185.375 1191.72 185.994C1194.97 183.588 1198.19 181.228 1201.03 178.349C1202.25 177.119 1202.87 175.859 1202.94 174.194C1203.16 168.588 1203.81 162.975 1203.58 157.392C1203.16 147.739 1204.21 138.123 1203.81 128.485C1203.77 127.645 1203.9 126.782 1204.02 125.942C1204.3 124.04 1205.12 123.101 1207.35 122.963C1213.21 122.612 1219.03 122.558 1224.89 123.116C1227.13 123.33 1228.44 124.017 1229.01 126.919C1229.41 124.911 1230.48 124.888 1231.41 124.613C1234.42 123.735 1237.49 124.254 1240.53 124.086C1242.41 123.979 1243.36 124.605 1243.64 126.698C1244.37 132.013 1245.37 137.291 1246.28 142.576C1246.44 143.469 1246.17 144.607 1247.47 145.043C1247.58 143.92 1247.7 142.828 1247.78 141.728C1248.18 136.749 1249.12 131.83 1249.3 126.812C1249.42 123.651 1250.14 123.169 1253.17 123.498C1256.33 123.842 1259.49 124.048 1262.66 123.956C1264.02 123.918 1264.69 124.46 1264.65 125.881C1264.57 128.684 1264.85 131.54 1264.42 134.289C1263.38 140.911 1262.35 147.525 1261.93 154.223C1261.86 155.147 1261.34 156.292 1262.96 156.346C1264.15 156.384 1264.74 155.75 1264.67 154.528C1264.37 148.418 1265.74 142.377 1265.3 136.252C1265.08 133.213 1265.15 130.142 1265.26 127.095C1265.36 124.254 1265.68 123.979 1268.55 123.971C1274.77 123.956 1281 124.33 1287.23 124.048C1289.79 123.933 1292.34 124.223 1294.89 124.559C1296.44 124.766 1297.05 125.346 1296.91 126.866C1296.62 130.02 1296.46 133.197 1296.09 136.344C1295.71 139.483 1295.03 140.117 1291.9 140.155C1288.83 140.193 1285.83 140.59 1282.84 141.178C1281.31 141.476 1280.54 142.27 1280.3 143.821C1279.85 146.86 1279.91 149.908 1279.93 152.963C1279.93 154.36 1280.71 154.734 1282.03 154.864C1284.7 155.139 1287.37 155.407 1290.05 155.33C1291.05 155.3 1292.25 155.292 1292.28 156.621C1292.31 159.408 1292.82 162.196 1291.99 164.984C1291.48 166.679 1290.65 167.275 1288.87 167.305C1286.44 167.351 1284.02 167.84 1281.59 168.031C1280.17 168.146 1279.27 168.55 1279.33 170.192C1279.38 171.407 1279.27 172.629 1279.2 173.851C1279.14 174.973 1279.76 175.325 1280.77 175.34C1283.09 175.378 1285.41 175.393 1287.72 175.531C1290.62 175.699 1290.94 176.065 1290.75 178.792C1290.59 181.106 1290.38 183.412 1290.14 185.719C1289.83 188.629 1289.44 188.995 1286.45 188.919C1279.86 188.743 1273.28 188.865 1266.74 189.667C1265.1 189.866 1264.51 189.24 1264.52 187.674C1264.55 185.475 1264.66 183.298 1264.95 181.106C1265.39 177.791 1265.41 174.454 1265.33 171.002C1260.71 172.537 1260.75 172.537 1260.77 176.577C1260.79 178.563 1261.2 180.442 1261.86 182.297C1262.3 183.542 1262.38 184.955 1260.87 185.352C1257.82 186.147 1254.7 186.75 1251.58 187.254C1249.72 187.559 1248.29 186.88 1247.64 184.863C1247.12 183.244 1246.31 181.717 1245.73 180.113C1245.3 178.906 1245.03 177.868 1243.26 178.227C1241.5 178.586 1240.68 179.495 1240.72 181.182C1240.74 182.145 1241.05 183.099 1241.15 184.062C1241.41 186.391 1241.34 186.429 1238.87 186.559C1235.06 186.758 1231.32 186.269 1227.6 185.536C1226.29 185.276 1225.74 184.604 1225.76 183.283C1225.78 182.481 1226.04 181.602 1225.43 180.869C1223.82 180.93 1223.15 181.908 1222.69 183.328C1222.16 184.932 1221.82 186.635 1220.69 188.01C1215.72 194.067 1209.22 197.74 1201.87 200.069C1201.42 200.214 1200.92 200.283 1200.44 200.329C1199.38 200.428 1198.78 200.184 1198.29 198.97C1197.31 196.488 1196.22 194.059 1195.53 191.47C1195.35 190.813 1195.18 190.003 1194.13 190.164C1192.54 190.416 1191.29 191.737 1191.27 193.287C1191.22 197.687 1191.06 202.086 1191.18 206.469C1191.6 220.751 1191.18 235.033 1191.17 249.315C1191.16 252.973 1190.99 256.646 1191.43 260.297C1191.62 261.878 1191.88 263.398 1194.09 262.183C1195.13 261.634 1196 262.42 1197.26 262.558ZM1304.47 206.592C1303.95 213.786 1303.4 220.973 1304.34 228.159C1304.95 232.879 1305.55 237.576 1305.44 242.372C1305.35 246.519 1306.16 250.628 1306.75 254.737C1306.91 255.868 1307.13 256.799 1308.71 256.738C1313.71 256.54 1318.72 256.364 1323.72 256.395C1333.23 256.456 1342.73 255.249 1352.25 255.837C1353.97 255.944 1354.44 255.318 1354.36 253.798C1354.26 251.972 1353.81 250.056 1354.19 248.329C1355.41 242.823 1355.34 237.202 1355.99 231.65C1356.35 228.602 1356.26 228.48 1353.44 227.258C1350.53 225.998 1347.57 224.86 1344.65 223.623C1343.65 223.203 1342.48 222.851 1342.6 221.408C1342.73 219.926 1344.06 219.934 1345.03 219.598C1348.14 218.513 1351.24 217.368 1354.41 216.512C1356.44 215.963 1357.15 214.954 1357.01 212.9C1356.86 210.716 1357.07 208.509 1357.03 206.309C1356.94 201.436 1356.57 196.549 1356.77 191.684C1356.87 189.003 1357.37 188.636 1353.89 187.888C1351.39 187.346 1348.88 186.826 1346.37 186.307C1345.49 186.124 1344.68 185.872 1344.63 184.779C1344.58 183.756 1345.27 183.229 1346.1 182.901C1346.89 182.588 1347.72 182.305 1348.55 182.175C1351.11 181.786 1353.42 180.61 1355.89 179.976C1357.2 179.64 1357.66 179.006 1357.75 177.723C1357.99 174.439 1358.48 171.185 1358.45 167.871C1358.42 162.639 1358.45 157.4 1358.7 152.184C1358.91 147.678 1359.63 143.194 1359.86 138.688C1360.22 131.509 1360.14 124.307 1360.87 117.144C1361.29 112.89 1361.43 108.62 1361.33 104.351C1361.27 101.945 1361.2 101.793 1358.79 102.197C1353.22 103.129 1347.66 103.206 1342.03 102.915C1334.48 102.526 1326.93 102.136 1319.39 101.602C1316.13 101.373 1312.84 101.098 1309.54 101.8C1308.17 102.091 1307.8 102.702 1307.56 103.901C1307.08 106.207 1307.34 108.529 1307.21 110.835C1306.53 122.161 1306.47 133.518 1305.77 144.852C1305.02 157.163 1304.93 169.505 1304.83 181.839C1304.81 184.375 1304.83 186.91 1304.83 189.797C1306.34 187.781 1308.47 188.789 1310.19 188.117C1311.8 187.483 1312.53 188.255 1312.51 189.797C1312.45 195.892 1311.81 201.94 1310.93 207.966C1310.77 209.036 1310.2 210.006 1309.02 209.677C1307.24 209.196 1305.1 208.997 1304.47 206.592ZM1370.3 210.349C1370.22 211.625 1370.14 212.709 1370.09 213.801C1370.06 214.496 1370.35 215.038 1371.11 214.97C1374.5 214.649 1377.93 215.283 1381.29 214.58C1386.57 213.473 1391.84 212.831 1397.21 214.107C1399.01 214.534 1399.95 215.489 1400.47 217.131C1400.81 218.193 1400.86 219.277 1400.95 220.377C1401.22 223.73 1400.27 226.892 1399.69 230.122C1399.11 233.276 1399.45 233.605 1402.72 233.75C1402.96 233.757 1403.22 233.796 1403.45 233.75C1407.36 232.978 1411.23 233.651 1415.1 234.101C1419.46 234.613 1423.82 234.987 1428.21 234.246C1432.48 233.521 1432.79 233.345 1433.67 229.213C1433.87 228.266 1433.99 227.289 1434.05 226.319C1434.31 222.913 1434.55 219.514 1434.77 216.108C1434.86 214.519 1435.49 213.679 1437.25 213.671C1439.78 213.664 1442.31 213.45 1444.82 213.328C1445.02 208.898 1445.02 208.89 1441.25 207.852C1439.96 207.493 1438.64 207.218 1437.36 206.828C1435.96 206.401 1434.64 205.759 1433.47 204.843C1432.35 203.964 1432.31 203.025 1433.43 202.139C1434.48 201.307 1435.62 200.604 1436.93 200.207C1438.57 199.71 1440.19 199.168 1441.81 198.656C1443.65 198.084 1444.61 196.999 1444.57 194.914C1444.53 192.486 1444.81 190.049 1444.93 187.613C1445.14 183.405 1445.14 183.412 1440.88 182.695C1439.32 182.435 1437.76 182.152 1436.21 181.809C1435.38 181.625 1434.56 181.35 1433.78 181.014C1432.96 180.663 1432.33 180.113 1432.44 179.067C1432.54 178.189 1433.18 177.852 1433.89 177.631C1435.06 177.272 1436.17 176.814 1437.42 176.745C1440.58 176.585 1443.58 175.256 1445.63 173.186C1447.38 171.43 1445.44 168.55 1445.56 166.16C1445.56 166.038 1445.53 165.915 1445.5 165.801C1442.3 149.663 1438.41 133.686 1433.7 117.923C1433.47 117.144 1433.5 116.113 1432.52 115.486C1432.19 117.044 1432.53 118.343 1432.79 119.656C1434.24 126.706 1436.05 133.671 1437.97 140.598C1440.1 148.227 1442.43 155.804 1443.79 163.632C1444.2 165.938 1443.54 167.122 1441.31 167.634C1440.38 167.848 1439.37 167.848 1438.4 167.794C1431.57 167.435 1424.74 167.58 1417.9 167.435C1412.91 167.328 1407.95 167.932 1402.93 167.565C1397.72 167.183 1392.49 166.939 1387.22 167.718C1382.92 168.359 1378.51 168.046 1373.98 167.893C1374.17 165.526 1374.68 163.326 1374.46 161.203C1373.75 154.375 1374.21 147.563 1374.32 140.735C1374.48 130.501 1375.23 120.275 1374.71 110.033C1374.64 108.704 1374.79 107.353 1374.97 106.031C1375.48 102.327 1375.51 102.159 1379.18 102.167C1387.12 102.182 1395.02 101.64 1402.86 100.487C1410.33 99.3793 1417.71 100.701 1425.14 100.754C1427.14 100.769 1429.02 100.907 1430.34 102.679C1430.89 101.884 1430.47 101.304 1430.5 100.731C1430.65 98.6614 1429.67 98.0122 1427.68 98.1497C1425.13 98.3254 1422.55 98.1955 1419.99 98.3101C1412.32 98.669 1404.65 99.3029 1396.98 99.4022C1389.64 99.5015 1382.37 100.365 1375.07 100.708C1373.71 100.769 1373.16 101.243 1373.09 102.656C1372.67 110.568 1371.88 118.473 1371.78 126.392C1371.54 145.562 1371.62 164.732 1371.57 183.894C1371.57 186.284 1371.57 186.284 1373.9 186.185C1376.47 186.086 1379.04 185.948 1381.58 186.429C1382.85 186.674 1384.28 186.964 1384.7 188.568C1385.45 191.485 1383.23 195.617 1380.33 196.808C1379.6 197.114 1378.2 197.121 1378.36 198.076C1378.78 200.741 1376.76 203.247 1378.59 206.141C1380.24 208.768 1378.62 210.769 1375.43 210.991C1373.74 211.113 1372.08 210.891 1370.3 210.349ZM1428.38 148.709C1430.36 147.235 1431.99 145.99 1433.66 144.783C1435.49 143.454 1435.82 141.812 1435.19 139.658C1432.41 130.066 1429.55 120.474 1429.46 110.354C1429.44 108.689 1428.74 108.017 1427.01 108.025C1416.53 108.078 1406.07 108.048 1395.6 108.063C1395 108.063 1394.39 108.254 1393.79 108.292C1390.27 108.552 1386.75 108.918 1383.22 108.972C1381.81 108.995 1381.2 109.361 1381.04 110.683C1380.92 111.645 1380.59 112.615 1380.63 113.562C1380.95 120.519 1380.2 127.446 1380.06 134.389C1379.89 142.545 1380.56 150.717 1379.62 158.866C1379.3 161.532 1379.43 161.616 1382.32 161.745C1388.65 162.028 1395.02 161.913 1401.31 162.578C1406.96 163.174 1412.49 162.998 1418.08 162.333C1419.61 162.15 1420.12 161.7 1420.09 160.134C1419.99 155.498 1419.96 150.878 1419.44 146.257C1419.17 143.79 1420.61 141.889 1422.53 141.598C1425.11 141.209 1427.17 142.431 1427.88 144.928C1428.17 145.974 1428.18 147.097 1428.38 148.709ZM1542.57 206.08C1542.74 204.407 1542.89 203.079 1543.02 201.742C1543.14 200.505 1542.64 199.94 1541.33 200.1C1539.25 200.352 1537.21 200.146 1535.16 199.672C1531.39 198.809 1530.76 198.145 1530.87 194.204C1530.93 191.523 1531.16 188.85 1531.42 186.185C1531.54 184.917 1531.12 184.352 1529.87 184.314C1524.14 184.123 1518.46 183.328 1512.72 183.328C1502.49 183.328 1492.24 183.275 1482.12 181.305C1480.59 181.007 1479.03 180.548 1477.42 180.762C1475.88 180.968 1474.62 181.389 1474.49 183.298C1474.4 184.627 1474.04 185.94 1473.85 187.262C1472.67 195.22 1471.39 203.147 1472.6 211.258C1472.89 213.19 1473.71 213.786 1475.28 213.9C1478.8 214.175 1482.31 214.145 1485.85 213.862C1492.27 213.351 1498.71 212.556 1505.16 213.389C1512.05 214.275 1518.91 215.52 1525.9 215.008C1527.6 214.886 1529.53 215.321 1530.95 214.657C1532.72 213.824 1532.21 211.426 1532.82 209.754C1533.81 207.035 1534.71 206.202 1537.54 206.08C1539.14 206.019 1540.71 206.08 1542.57 206.08ZM1454.87 259.029C1456.78 259.656 1458.13 259.404 1459.46 259.434C1460.22 259.449 1460.86 259.289 1461.13 258.38C1462.21 254.768 1463.55 251.224 1464.41 247.558C1464.87 245.603 1465.55 243.846 1466.63 242.227C1470.04 237.103 1474.85 233.628 1480.46 231.443C1483.49 230.26 1486.2 227.64 1489.91 228.656C1491.92 226.319 1494.44 227.877 1496.74 227.755C1499.24 227.617 1501.45 228.259 1503.76 229.274C1506.52 230.489 1509.23 232.184 1512.27 232.429C1514.58 232.612 1516.17 233.605 1517.61 235.155C1521.19 239.004 1524.72 242.876 1526.45 248.009C1526.76 248.94 1526.93 250.315 1528.47 250.208C1531.9 249.956 1535.26 250.918 1538.67 250.926C1540.98 250.934 1541.57 250.262 1540.77 248.062C1539.93 245.733 1539.68 243.373 1539.4 240.952C1538.96 237.225 1538.45 233.475 1536.86 229.969C1535.3 226.517 1532.87 224.241 1529.13 223.348C1524.47 222.233 1519.76 221.79 1514.97 222.134C1509.87 222.5 1504.75 223.249 1499.66 223.126C1490.75 222.905 1481.86 223.432 1472.97 223.042C1469.35 222.882 1466.79 224.608 1465.19 227.548C1462.71 232.123 1460.24 236.744 1459.47 242.021C1459.26 243.457 1458.72 244.847 1458.37 246.26C1457.33 250.46 1456.69 254.768 1454.87 259.029ZM1461.07 181.373C1457.62 181.694 1453.54 179.426 1450.94 183.565C1448.21 183.527 1448.41 185.673 1448.24 187.376C1448.02 189.675 1448.05 192.004 1447.94 194.311C1447.88 195.548 1448.32 196.281 1449.54 196.808C1453.35 198.458 1453.35 198.519 1453.03 202.551C1452.93 203.88 1452.54 205.186 1452.41 206.508C1452.23 208.341 1451.61 209.326 1449.47 209.303C1447.17 209.272 1448.37 211.273 1448.18 212.381C1447.98 213.626 1448.76 214.198 1449.96 213.992C1452.26 213.595 1454.58 213.702 1456.9 213.694C1459.82 213.679 1462.71 214.191 1465.65 213.763C1467.17 213.549 1467.87 213.251 1467.48 211.548C1467.01 209.517 1467.12 207.416 1467.36 205.354C1468.2 198.107 1468.16 190.76 1469.8 183.611C1470.15 182.122 1469.77 181.289 1468.03 181.343C1465.7 181.434 1463.38 181.373 1461.07 181.373ZM1261.98 258.334C1260.75 253.141 1259.33 248.665 1256.01 245.122C1252.06 240.906 1246.7 239.042 1241.45 237.087C1241.01 236.919 1240.49 236.912 1240.01 236.912C1234.87 236.896 1229.84 237.225 1225.01 239.455C1221.01 241.303 1217.22 243.457 1213.5 245.794C1207.48 249.582 1205.18 255.371 1204.6 262.1C1204.57 262.428 1204.85 262.771 1205.37 262.733C1206.14 262.497 1206.4 261.802 1206.52 261.091C1207.35 256.295 1209.36 252.316 1213.15 249.002C1217 245.649 1221.41 243.464 1225.87 241.295C1228.18 240.18 1231.06 239.791 1233.34 240.18C1240.28 241.364 1247.25 242.945 1253.32 246.802C1256.14 248.597 1259.05 250.521 1259.44 254.493C1259.57 255.738 1260.34 257.005 1261.98 258.334ZM1261.22 168.52C1267 166.603 1272.98 165.679 1279.02 165.029C1281.68 164.747 1284.33 164.403 1286.98 164.09C1289.05 163.846 1289 162.395 1288.88 160.844C1288.78 159.569 1288.71 158.53 1286.94 158.438C1280.88 158.125 1274.84 157.69 1268.79 158.629C1261.64 159.737 1260.64 160.882 1261.06 168.138C1261.07 168.245 1261.15 168.352 1261.22 168.52ZM1427.45 257.227C1427.33 255.646 1427.23 254.309 1427.15 252.981C1427.07 251.667 1426.39 251.285 1425.08 251.003C1420.02 249.895 1414.92 250.025 1409.83 250.262C1407.16 250.384 1404.49 250.728 1401.84 251.125C1400.04 251.392 1399.4 252.721 1399.5 255.027C1399.59 257.051 1401.08 256.608 1402.15 256.524C1404.64 256.318 1406.97 257.25 1409.42 257.242C1415.26 257.212 1421.1 257.227 1427.45 257.227ZM1528.73 264.139C1533.29 263.818 1537.53 263.528 1541.77 263.222C1542.5 263.169 1543.23 263.092 1543.93 262.94C1546.28 262.435 1546.69 261.947 1546.86 259.518C1547 257.357 1546.78 255.264 1545.52 253.057C1544.42 254.218 1543.67 255.654 1541.88 255.035C1538.04 253.721 1533.98 254.126 1530.04 253.607C1528.78 253.439 1528.28 254.019 1528.31 255.257C1528.38 258.151 1528.13 261.068 1528.73 264.139ZM1436.7 145.913C1435.04 147.059 1433.77 147.991 1432.44 148.831C1431.55 149.396 1430.98 150.068 1431 151.16C1431.05 155.162 1431.1 159.172 1431.15 163.174C1431.17 164.22 1431.34 165.175 1432.63 165.259C1435.06 165.411 1437.48 165.556 1439.9 165.633C1441.15 165.671 1441.62 164.938 1441.34 163.731C1439.97 157.835 1439.05 151.832 1436.7 145.913ZM1486.61 267.911C1486.53 272.074 1490.02 274.579 1493.27 273.387C1498.56 271.448 1499.8 263.948 1495.44 260.206C1493.25 258.319 1491.81 258.388 1489.75 260.351C1487.37 262.611 1486.97 265.605 1486.61 267.911ZM1534.55 192.233C1534.49 195.777 1534.81 196.182 1537.65 196.663C1538.73 196.846 1539.82 196.839 1540.92 196.755C1542.49 196.633 1543.37 196.182 1543.36 194.364C1543.35 192.066 1543.56 189.751 1543.83 187.46C1544.02 185.925 1543.31 185.543 1542 185.497C1540.54 185.452 1539.09 185.452 1537.65 185.116C1536.16 184.764 1535.31 185.612 1535.1 187.017C1534.84 188.934 1534.68 190.882 1534.55 192.233ZM1422.43 154.689C1422.4 154.689 1422.38 154.689 1422.35 154.696C1422.51 157.614 1422.68 160.531 1422.81 163.449C1422.86 164.396 1423 165.114 1424.21 165.083C1425.15 165.06 1425.91 164.884 1426.1 163.823C1426.21 163.227 1426.38 162.601 1426.3 162.028C1425.91 159.477 1426.14 156.934 1426.13 154.383C1426.13 151.84 1425.88 149.281 1425.56 146.761C1425.39 145.478 1425.02 143.783 1423.29 144.027C1421.71 144.248 1422.05 145.845 1422.1 147.044C1422.2 149.579 1422.32 152.13 1422.43 154.689ZM1487.87 289.067C1488.09 284.232 1489.25 280.131 1491.97 276.557C1488.83 275.075 1485.68 274.541 1484.06 271.448C1484.11 273.051 1483.35 274.296 1482.93 275.671C1486.86 275.434 1488.82 277.267 1487.16 279.681C1485.36 282.3 1483.58 285.233 1479.71 286.035C1482.19 288.066 1485.15 287.493 1487.87 289.067ZM1228.41 129.623C1226.8 140.109 1225.68 151.374 1225.34 162.998C1226.07 162.647 1226.63 162.532 1226.66 162.341C1228.29 151.252 1229.19 140.124 1228.41 129.623ZM1483.76 269.828C1483.74 268.965 1484.16 268.148 1483.89 267.713C1478.72 267.682 1475.77 264.177 1472.3 261.756C1471.01 265.338 1470.9 266.957 1471.74 269.828C1475.66 269.828 1479.5 269.828 1483.76 269.828ZM1308.15 206.974C1309.69 201.696 1310.48 196.488 1309.85 191.065C1308.17 190.889 1307.23 191.302 1307.24 193.15C1307.27 196.915 1307.17 200.68 1307.17 204.446C1307.17 205.247 1307.02 206.156 1308.15 206.974ZM1542.57 216.459C1542.57 214.305 1542.58 212.747 1542.56 211.189C1542.55 210.586 1542.44 210.059 1541.8 209.7C1539.51 208.402 1537.28 209.196 1536.31 211.678C1535.95 212.587 1535.64 213.481 1535.99 214.626C1538.04 214.924 1540.21 215.084 1542.57 216.459ZM1472.21 276.076C1473.67 279.337 1474.65 281.781 1476.93 283.965C1477.61 280.307 1480.54 278.543 1482.76 275.839C1479.19 275.679 1476.21 278.084 1472.21 276.076ZM1419.73 241.601C1415.13 241.295 1410.52 240.975 1405.91 240.692C1405.21 240.646 1404.34 240.57 1404.23 241.593C1404.1 242.876 1405.06 242.831 1405.93 242.838C1410.54 242.892 1415.13 242.815 1419.73 241.601ZM1421.8 246.374C1419.62 245.152 1417.8 245.679 1416.04 245.756C1414.11 245.84 1412.16 245.924 1410.25 246.206C1408.68 246.443 1406.85 245.275 1404.85 247.199C1410.82 247.031 1416.09 247.245 1421.8 246.374ZM1445.35 200.963C1443.36 201.643 1441.36 202.33 1439.36 203.01C1441.51 204.117 1443.48 205.209 1445.79 205.225C1446.33 203.659 1446.62 202.269 1445.35 200.963ZM1463.34 223.012C1464.83 221.897 1466.02 220.843 1467.6 220.453C1468.71 220.178 1468.75 219.415 1468.44 218.468C1468.19 217.719 1467.89 217.085 1467.01 217.047C1465.86 216.986 1464.83 217.276 1464.09 218.246C1463.05 219.606 1463.15 221.118 1463.34 223.012ZM1224.61 177.073C1226.62 173.851 1226.76 170.33 1226.23 166.618C1225.77 166.763 1225.39 166.786 1225.36 166.916C1224.39 170.208 1225.17 173.667 1224.61 177.073ZM1181.99 109.881C1182.58 109.735 1182.81 109.644 1183.05 109.629C1184 109.545 1184.96 109.483 1185.91 109.415C1188.8 109.201 1188.8 109.201 1187.99 105.848C1186.04 107.055 1184.04 108.093 1181.99 109.881ZM1350.41 222.019C1352.43 222.829 1354.05 223.837 1356.08 223.936C1356.42 222.592 1356.53 221.339 1356.01 219.987C1354.05 220.232 1352.34 220.919 1350.41 222.019ZM1360.42 225.899C1360.79 223.653 1362.04 221.416 1360.35 218.582C1359.32 221.408 1359.74 223.653 1360.42 225.899ZM1446.57 177.18C1444.55 178.127 1443.04 178.441 1441.68 179.601C1443.11 179.869 1444.29 180.09 1445.52 180.327C1445.82 179.403 1446.08 178.632 1446.57 177.18ZM1187.46 261.733C1187.49 261.588 1187.53 261.443 1187.56 261.305C1183.51 261.305 1179.47 261.305 1175.42 261.305C1175.42 261.45 1175.42 261.596 1175.42 261.733C1179.44 261.733 1183.44 261.733 1187.46 261.733ZM1240.66 171.193C1240.59 172.468 1240.56 173.591 1240.96 174.683C1241.16 175.225 1241.63 175.37 1242.08 175.118C1242.34 174.981 1242.63 174.507 1242.56 174.278C1242.25 173.156 1241.89 172.025 1240.66 171.193ZM1374.09 194.212C1373.41 193.013 1373.17 191.859 1373.18 190.63C1373.18 189.897 1372.42 189.881 1372.17 190.156C1371.15 191.256 1371.56 192.669 1371.8 193.898C1371.95 194.731 1372.9 194.517 1374.09 194.212ZM1355.88 184.734C1356.7 184.879 1356.86 184.55 1356.87 184.176C1356.88 183.817 1356.74 183.466 1356.25 183.565C1355.74 183.664 1355.29 183.894 1355.33 184.443C1355.34 184.612 1355.89 184.741 1355.88 184.734ZM1375.12 198.336C1373.76 197.9 1372.85 197.687 1371.77 198.466C1372.92 198.909 1373.8 198.97 1375.12 198.336ZM1360.91 182.916C1360.48 183.741 1360.39 184.474 1361.37 185.956C1361.26 184.443 1361.71 183.695 1360.91 182.916Z" fill="#003872"/>
<path fill-rule="evenodd" clip-rule="evenodd" d="M1197.26 262.558C1196 262.413 1195.13 261.627 1194.14 262.176C1191.93 263.383 1191.66 261.871 1191.48 260.29C1191.04 256.639 1191.21 252.966 1191.21 249.308C1191.23 235.026 1191.65 220.744 1191.23 206.462C1191.1 202.071 1191.26 197.672 1191.31 193.28C1191.33 191.73 1192.59 190.409 1194.17 190.157C1195.22 189.989 1195.4 190.806 1195.57 191.463C1196.27 194.052 1197.36 196.481 1198.34 198.963C1198.82 200.177 1199.43 200.421 1200.48 200.322C1200.96 200.276 1201.46 200.207 1201.92 200.062C1209.27 197.725 1215.77 194.06 1220.74 188.003C1221.86 186.636 1222.2 184.925 1222.73 183.321C1223.2 181.901 1223.87 180.923 1225.48 180.862C1226.08 181.595 1225.82 182.474 1225.81 183.276C1225.79 184.604 1226.34 185.269 1227.65 185.529C1231.38 186.262 1235.1 186.751 1238.91 186.552C1241.37 186.422 1241.45 186.384 1241.2 184.055C1241.09 183.092 1240.79 182.138 1240.76 181.175C1240.72 179.495 1241.56 178.579 1243.31 178.22C1245.07 177.861 1245.34 178.907 1245.78 180.106C1246.36 181.71 1247.17 183.237 1247.69 184.857C1248.34 186.873 1249.77 187.553 1251.63 187.247C1254.75 186.735 1257.86 186.14 1260.92 185.345C1262.43 184.948 1262.35 183.535 1261.9 182.29C1261.25 180.434 1260.83 178.556 1260.82 176.57C1260.79 172.53 1260.76 172.53 1265.38 170.995C1265.46 174.447 1265.43 177.784 1265 181.099C1264.71 183.291 1264.58 185.467 1264.57 187.667C1264.55 189.233 1265.15 189.859 1266.78 189.66C1273.33 188.858 1279.9 188.736 1286.49 188.912C1289.49 188.988 1289.88 188.622 1290.18 185.712C1290.43 183.405 1290.63 181.091 1290.79 178.785C1290.98 176.058 1290.66 175.692 1287.77 175.524C1285.46 175.394 1283.13 175.379 1280.81 175.333C1279.8 175.318 1279.19 174.966 1279.25 173.844C1279.31 172.622 1279.41 171.4 1279.38 170.185C1279.32 168.543 1280.22 168.138 1281.64 168.024C1284.07 167.833 1286.49 167.344 1288.92 167.298C1290.69 167.268 1291.52 166.672 1292.03 164.977C1292.86 162.181 1292.36 159.394 1292.32 156.614C1292.31 155.293 1291.09 155.3 1290.1 155.323C1287.41 155.399 1284.75 155.132 1282.07 154.857C1280.75 154.72 1279.98 154.353 1279.97 152.956C1279.96 149.901 1279.89 146.853 1280.35 143.814C1280.58 142.263 1281.35 141.469 1282.88 141.171C1285.88 140.583 1288.88 140.186 1291.95 140.148C1295.09 140.11 1295.77 139.476 1296.13 136.337C1296.51 133.19 1296.67 130.021 1296.96 126.859C1297.09 125.339 1296.48 124.759 1294.93 124.552C1292.38 124.216 1289.83 123.926 1287.27 124.041C1281.04 124.323 1274.82 123.949 1268.59 123.964C1265.74 123.972 1265.42 124.247 1265.31 127.088C1265.2 130.135 1265.13 133.206 1265.35 136.245C1265.79 142.37 1264.42 148.411 1264.72 154.521C1264.78 155.743 1264.19 156.377 1263 156.339C1261.38 156.285 1261.92 155.147 1261.97 154.216C1262.39 147.518 1263.42 140.904 1264.46 134.282C1264.9 131.533 1264.61 128.677 1264.7 125.874C1264.74 124.453 1264.06 123.911 1262.7 123.949C1259.53 124.041 1256.37 123.834 1253.21 123.491C1250.18 123.162 1249.46 123.644 1249.35 126.805C1249.16 131.823 1248.22 136.742 1247.83 141.721C1247.74 142.813 1247.62 143.905 1247.51 145.036C1246.22 144.6 1246.48 143.462 1246.33 142.569C1245.41 137.284 1244.41 132.006 1243.69 126.691C1243.4 124.606 1242.46 123.98 1240.57 124.079C1237.53 124.247 1234.46 123.728 1231.46 124.606C1230.52 124.881 1229.47 124.904 1229.05 126.912C1228.48 124.01 1227.18 123.323 1224.94 123.109C1219.07 122.544 1213.26 122.597 1207.39 122.956C1205.16 123.094 1204.34 124.025 1204.06 125.935C1203.94 126.775 1203.81 127.638 1203.85 128.478C1204.25 138.116 1203.21 147.739 1203.62 157.385C1203.86 162.968 1203.2 168.589 1202.98 174.187C1202.91 175.852 1202.29 177.112 1201.08 178.342C1198.24 181.221 1195.01 183.581 1191.77 185.987C1190.76 185.368 1191.38 184.444 1191.36 183.688C1191.23 178.93 1191.34 174.157 1191.01 169.414C1190.37 160.394 1190.94 151.39 1191.04 142.385C1191.11 136.772 1191.08 131.151 1191.24 125.538C1191.42 119.451 1191.85 113.364 1192.01 107.277C1192.1 103.672 1193.98 101.503 1197.2 100.663C1202.97 99.166 1208.78 97.9135 1214.78 97.547C1221.23 97.1574 1227.66 96.577 1234.09 95.9278C1241.51 95.1794 1248.94 94.8281 1256.39 94.7135C1265.79 94.5684 1275.19 94.431 1284.59 94.263C1289.94 94.1637 1295.33 94.8815 1300.68 94.4615C1310.9 93.6672 1321.17 94.1713 1331.4 93.2854C1338.42 92.682 1345.5 92.5063 1352.6 92.8424C1359.78 93.186 1367 92.6743 1374.2 92.4758C1382.98 92.2237 1391.75 92.1016 1400.54 92.4147C1407.98 92.6744 1415.44 92.4453 1422.89 92.2467C1425.92 92.1703 1428.95 91.5899 1431.99 91.651C1435.34 91.7197 1435.97 92.0023 1436.4 95.2328C1437.15 100.915 1438.15 106.551 1439.07 112.211C1439.62 115.579 1439.88 118.992 1440.32 122.376C1440.5 123.804 1440.71 125.225 1440.49 127.073C1439.35 125.393 1439.28 123.789 1438.87 122.299C1437.19 116.19 1435.28 110.133 1434.46 103.81C1434.21 101.87 1434.15 99.9222 1433.94 97.9823C1433.63 95.0191 1433.24 94.683 1430.32 94.6448C1421.16 94.5303 1412.06 95.5384 1402.92 95.8515C1398.28 96.0119 1393.65 96.0883 1389.02 96.3556C1385.24 96.5694 1381.49 97.0276 1377.72 97.3407C1376.63 97.4324 1375.52 97.5164 1374.44 97.4324C1371.4 97.1956 1370.46 97.7914 1370.09 100.724C1369.79 103.137 1369.7 105.589 1369.62 108.002C1369.37 115.54 1368.56 123.048 1368.66 130.609C1368.79 142.08 1368.72 153.544 1368.31 165.015C1368.23 167.443 1368.66 169.88 1368.75 172.316C1369.15 182.817 1368.02 193.258 1367.51 203.721C1367.24 209.319 1366.78 214.917 1366.33 220.5C1365.66 228.893 1365.94 237.279 1365.69 245.657C1365.6 248.422 1364.85 251.164 1365.54 253.959C1365.71 254.631 1365.33 255.112 1364.56 255.158C1364.07 255.181 1363.59 255.196 1363.1 255.227C1357.67 255.601 1356.8 254.86 1357.81 249.552C1358.7 244.855 1358.87 240.128 1359.26 235.408C1359.37 234.071 1359.71 232.75 1359.73 231.413C1359.75 230.077 1360.23 229.397 1361.59 229.267C1363.93 229.038 1364.56 227.58 1364.4 225.418C1364.23 223.112 1365 220.836 1364.59 218.484C1364.31 216.91 1364.01 215.528 1362.03 215.612C1360.62 215.673 1360.46 214.818 1360.47 213.741C1360.48 211.419 1360.49 209.097 1360.46 206.776C1360.42 202.995 1360.69 199.215 1360.16 195.442C1359.97 194.014 1360.16 192.517 1360.29 191.066C1360.39 189.89 1360.75 189.179 1362.34 189.217C1364.82 189.279 1364.84 189.072 1364.9 186.499C1364.93 185.154 1364.86 183.81 1364.91 182.466C1364.98 180.71 1364.86 179.228 1362.45 179.488C1361.54 179.587 1361.2 178.915 1361.29 178.052C1361.43 176.715 1361.56 175.379 1361.68 174.042C1361.81 172.706 1362.11 171.354 1362 170.04C1361.22 161.112 1362.49 152.253 1363.02 143.394C1363.37 137.543 1363.32 131.686 1363.72 125.851C1364.24 118.313 1364.91 110.782 1364.91 103.214C1364.91 102.847 1364.95 102.481 1365.04 102.129C1365.89 98.8377 1365.71 98.5245 1362.3 98.5856C1360.48 98.6162 1358.64 98.8224 1356.84 99.105C1347.46 100.571 1338.08 99.3494 1328.71 99.105C1324.32 98.9904 1319.96 98.4482 1315.56 98.3413C1312.48 98.2649 1309.48 98.8071 1306.45 99.021C1304.94 99.1279 1304.42 99.9756 1304.23 101.389C1303.83 104.298 1303.83 107.216 1303.72 110.141C1303.23 123.666 1302.41 137.177 1302.16 150.703C1302.02 158.004 1301.85 165.336 1301.62 172.622C1301.1 188.843 1301.5 205.08 1300.44 221.286C1300.13 226.052 1301.17 230.772 1301.58 235.507C1301.73 237.325 1302.01 239.127 1302.01 240.96C1302.01 245.947 1302.45 250.896 1303.61 256.036C1296.61 256.296 1289.93 256.701 1283.26 256.739C1280.1 256.754 1276.99 257.533 1273.78 256.983C1272.27 256.724 1271.61 256.158 1271.45 254.822C1270.91 250.423 1269.29 246.329 1268.01 242.129C1266.72 237.882 1264.44 234.461 1260.28 232.414C1257.34 230.963 1254.56 229.153 1251.88 227.213C1247.67 224.181 1243.06 223.371 1238 224.586C1232.3 225.953 1226.48 226.625 1220.72 227.625C1218.52 228.007 1216.54 229.749 1214.48 230.894C1209.69 233.552 1205.81 237.348 1202.74 241.716C1199.55 246.245 1198.43 251.736 1197.9 257.258C1197.7 258.946 1197.86 260.664 1197.26 262.558ZM1230.65 201.819C1231.29 201.819 1232.02 201.819 1232.75 201.819C1233.42 201.819 1234.08 201.613 1234.07 200.895C1234.06 200.017 1233.42 199.78 1232.56 199.833C1231.6 199.894 1230.62 199.795 1229.64 199.734C1228.64 199.673 1227.65 199.604 1227.76 198.161C1227.85 196.969 1227.59 195.61 1229.32 195.35C1230.05 195.243 1230.79 195.243 1231.5 195.083C1232.59 194.838 1234.55 195.236 1234.34 193.662C1234.11 191.952 1232.34 193.242 1231.26 193.09C1230.35 192.967 1229.01 194.044 1228.62 192.952C1228.02 191.264 1229.94 191.776 1230.72 191.249C1231.28 190.867 1231.62 190.317 1230.89 189.828C1229.38 188.828 1226.72 189.92 1226.47 191.638C1226.17 193.685 1225.85 195.74 1225.75 197.802C1225.59 201.048 1225.95 201.391 1229.08 201.689C1229.59 201.743 1230.08 201.773 1230.65 201.819ZM1240.68 197.428C1241.28 198.375 1241.82 199.176 1242.31 199.994C1242.69 200.628 1243.08 201.384 1243.95 200.994C1244.96 200.544 1244.36 199.787 1244.08 199.169C1243.82 198.619 1243.57 198.054 1243.19 197.588C1242.31 196.488 1242.09 195.48 1243.27 194.418C1243.62 194.105 1243.86 193.647 1244.07 193.219C1244.3 192.761 1244.28 192.196 1243.89 191.875C1243.5 191.539 1243.04 191.692 1242.64 192.089C1242.06 192.67 1241.77 193.594 1240.7 193.716C1239.68 192.593 1238.63 191.425 1237.55 190.294C1237.18 189.912 1236.62 189.905 1236.23 190.203C1236.02 190.363 1235.88 190.928 1236 191.157C1236.8 192.654 1238.85 193.609 1238.85 195.228C1238.87 197.053 1236.66 197.909 1235.64 199.36C1235.29 199.841 1235.26 200.505 1235.84 200.994C1236.45 201.521 1236.96 201.216 1237.39 200.742C1238.35 199.688 1238.94 198.283 1240.68 197.428ZM1251.22 190.707C1248.97 190.752 1248.7 191.058 1249 193.204C1249.12 194.166 1249.21 195.136 1249.32 196.099C1249.66 198.871 1250.01 201.636 1250.32 204.408C1250.45 205.477 1250.32 207.028 1251.77 206.86C1253.51 206.661 1252.51 205.248 1252.36 204.263C1252.07 202.468 1251.81 200.666 1251.57 198.863C1251.42 197.748 1251.39 196.763 1252.83 196.267C1254.55 195.679 1255.3 194.304 1254.78 192.509C1254.26 190.707 1252.71 190.691 1251.22 190.707ZM1258.21 200.918C1258.84 201.521 1259.33 202.002 1259.84 202.468C1260.21 202.804 1260.61 203.064 1261.1 202.697C1261.71 202.239 1261.73 201.636 1261.22 201.155C1259.39 199.429 1259.12 197.84 1261.44 196.297C1261.7 196.122 1261.76 195.663 1261.93 195.335C1262.33 194.48 1262.3 193.624 1261.56 193.013C1260.41 192.066 1258.98 191.57 1257.56 191.738C1256.62 191.852 1256.59 192.99 1256.52 193.846C1256.3 196.496 1256.06 199.154 1255.87 201.804C1255.81 202.598 1255.5 203.728 1256.66 203.881C1257.83 204.041 1257.84 202.972 1257.9 202.109C1257.92 201.804 1258.05 201.491 1258.21 200.918ZM1288.88 202.094C1288.95 200.406 1287.95 199.306 1286.67 198.229C1285.04 196.862 1285.46 195.098 1287.44 194.495C1288.01 194.319 1288.65 194.403 1289.25 194.373C1289.76 194.342 1290.23 194.228 1290.3 193.617C1290.37 193.067 1290.07 192.669 1289.58 192.501C1287.92 191.944 1286.44 192.471 1285.14 193.456C1283.76 194.502 1283.33 196.03 1283.61 197.687C1283.84 199.016 1285.18 199.459 1286.01 200.307C1287.43 201.773 1287.14 203.186 1285.26 203.973C1284.24 204.4 1283.16 204.546 1282.04 204.423C1281.8 204.4 1281.36 204.782 1281.3 205.05C1281.24 205.324 1281.45 205.867 1281.68 205.958C1283.36 206.661 1285.01 206.378 1286.56 205.554C1287.91 204.859 1289 203.904 1288.88 202.094ZM1268.71 197.58C1268.34 196.725 1267.74 196.61 1267.12 196.587C1266.15 196.549 1265.87 196.03 1265.99 195.159C1266.1 194.388 1266.55 194.205 1267.26 194.296C1267.74 194.357 1268.26 194.403 1268.69 194.266C1269.3 194.082 1269.31 193.487 1268.96 193.112C1267.31 191.341 1264.82 191.891 1264.32 194.205C1263.84 196.45 1263.62 198.764 1263.35 201.055C1263.23 202.109 1263.83 202.667 1264.89 202.621C1266.71 202.537 1268.54 202.392 1270.37 202.613C1270.94 202.682 1271.7 202.728 1271.85 201.949C1272.01 201.109 1271.28 201.025 1270.69 200.918C1270.08 200.811 1269.42 200.864 1268.89 200.612C1267.81 200.101 1266 201.491 1265.64 200.001C1265.08 197.702 1268.04 199.092 1268.71 197.58ZM1277.41 200.36C1276.61 201.384 1275.6 200.75 1274.89 201.162C1274.61 201.323 1274.3 201.697 1274.3 201.972C1274.3 202.262 1274.58 202.674 1274.86 202.827C1275.87 203.392 1278.28 202.903 1278.97 202.071C1279.77 201.093 1279.57 199.161 1278.54 198.084C1278.28 197.825 1277.96 197.641 1277.67 197.412C1277.12 196.969 1276.28 196.542 1276.66 195.717C1277.02 194.907 1277.89 195.205 1278.57 195.388C1279.04 195.511 1279.5 195.824 1279.94 195.793C1280.8 195.732 1280.87 195.045 1280.53 194.48C1279.74 193.166 1276.86 192.753 1275.56 193.693C1274.15 194.701 1274.09 196.671 1275.42 198.161C1276.05 198.871 1277.14 199.131 1277.41 200.36Z" fill="#F7E74D"/>
<path fill-rule="evenodd" clip-rule="evenodd" d="M1304.46 206.593C1305.09 209.006 1307.23 209.197 1309.01 209.693C1310.18 210.022 1310.75 209.052 1310.91 207.982C1311.8 201.957 1312.43 195.908 1312.5 189.813C1312.52 188.271 1311.78 187.499 1310.17 188.133C1308.46 188.805 1306.33 187.79 1304.82 189.813C1304.82 186.927 1304.8 184.391 1304.82 181.855C1304.92 169.521 1305.01 157.179 1305.76 144.868C1306.45 133.534 1306.51 122.185 1307.19 110.851C1307.33 108.545 1307.08 106.223 1307.54 103.917C1307.79 102.71 1308.15 102.107 1309.52 101.816C1312.82 101.114 1316.1 101.389 1319.37 101.618C1326.92 102.145 1334.46 102.542 1342.02 102.932C1347.65 103.222 1353.21 103.145 1358.77 102.214C1361.19 101.809 1361.26 101.962 1361.32 104.367C1361.42 108.637 1361.29 112.906 1360.85 117.16C1360.13 124.324 1360.2 131.526 1359.84 138.705C1359.61 143.211 1358.9 147.694 1358.68 152.2C1358.43 157.424 1358.4 162.663 1358.44 167.887C1358.46 171.201 1357.97 174.455 1357.74 177.739C1357.64 179.022 1357.19 179.656 1355.88 179.992C1353.41 180.626 1351.09 181.802 1348.53 182.191C1347.69 182.321 1346.87 182.604 1346.08 182.917C1345.26 183.245 1344.57 183.772 1344.61 184.796C1344.67 185.88 1345.48 186.14 1346.36 186.323C1348.87 186.842 1351.37 187.362 1353.88 187.904C1357.35 188.653 1356.86 189.019 1356.75 191.7C1356.55 196.565 1356.93 201.445 1357.02 206.325C1357.06 208.525 1356.84 210.732 1356.99 212.916C1357.13 214.971 1356.43 215.979 1354.4 216.529C1351.23 217.384 1348.13 218.522 1345.02 219.614C1344.05 219.95 1342.71 219.943 1342.58 221.424C1342.46 222.875 1343.64 223.227 1344.63 223.639C1347.55 224.869 1350.51 226.014 1353.42 227.274C1356.25 228.496 1356.34 228.618 1355.98 231.666C1355.32 237.218 1355.39 242.839 1354.18 248.346C1353.79 250.072 1354.25 251.989 1354.34 253.814C1354.43 255.326 1353.96 255.952 1352.24 255.853C1342.72 255.265 1333.23 256.472 1323.7 256.411C1318.7 256.38 1313.7 256.556 1308.7 256.754C1307.12 256.815 1306.9 255.891 1306.73 254.753C1306.15 250.644 1305.34 246.536 1305.43 242.389C1305.53 237.592 1304.94 232.895 1304.32 228.176C1303.39 220.974 1303.94 213.787 1304.46 206.593ZM1307.34 154.934C1307.31 154.934 1307.28 154.934 1307.26 154.934C1307.26 158.226 1307.28 161.517 1307.25 164.809C1307.22 168.482 1307.35 168.673 1311.19 168.696C1317.53 168.727 1323.86 168.857 1330.2 169.254C1332.75 169.414 1335.34 169.292 1337.87 169.04C1341.64 168.666 1345.41 168.544 1349.19 168.62C1351.01 168.658 1352.85 168.673 1354.68 168.628C1356.45 168.582 1357.34 167.726 1357.19 165.84C1357.03 164.022 1357 162.189 1356.99 160.364C1356.93 149.763 1358.56 139.262 1358.85 128.677C1359.06 121.246 1359.64 113.822 1360.01 106.399C1360.13 103.917 1359.86 103.649 1357.38 103.711C1356.17 103.741 1354.96 103.985 1353.76 104.154C1351.34 104.482 1348.94 104.971 1346.52 105.139C1336.42 105.834 1326.32 106.17 1316.22 105.269C1314.53 105.116 1312.81 105.269 1311.1 105.299C1309.96 105.314 1309.19 105.857 1309.22 107.048C1309.34 111.073 1308.22 115.021 1308.55 119.084C1308.67 120.558 1309.57 121.811 1309.3 123.331C1308.12 130.036 1309.5 136.971 1307.46 143.608C1307.21 144.394 1307.34 145.303 1307.34 146.159C1307.34 149.076 1307.34 152.001 1307.34 154.934ZM1307.91 212.382C1306.25 212.282 1305.17 213.161 1305.07 214.566C1304.92 216.613 1305.64 217.751 1307.1 217.781C1308.54 217.812 1309.74 216.575 1309.77 214.917C1309.8 213.565 1309.31 212.55 1307.91 212.382Z" fill="#F7E74D"/>
<path fill-rule="evenodd" clip-rule="evenodd" d="M1370.29 210.35C1372.07 210.892 1373.73 211.106 1375.43 210.991C1378.62 210.778 1380.24 208.769 1378.58 206.142C1376.76 203.247 1378.77 200.742 1378.35 198.077C1378.2 197.122 1379.6 197.107 1380.33 196.809C1383.22 195.618 1385.44 191.493 1384.69 188.568C1384.28 186.965 1382.85 186.674 1381.57 186.43C1379.05 185.949 1376.47 186.086 1373.9 186.186C1371.57 186.277 1371.56 186.285 1371.57 183.894C1371.62 164.725 1371.54 145.555 1371.78 126.393C1371.88 118.481 1372.67 110.569 1373.08 102.656C1373.15 101.244 1373.71 100.778 1375.07 100.709C1382.38 100.365 1389.64 99.5022 1396.97 99.403C1404.65 99.3037 1412.31 98.6621 1419.98 98.3108C1422.54 98.1962 1425.11 98.3261 1427.67 98.1504C1429.67 98.013 1430.64 98.6621 1430.5 100.732C1430.46 101.305 1430.88 101.885 1430.33 102.679C1429.02 100.9 1427.13 100.762 1425.14 100.755C1417.71 100.701 1410.33 99.3876 1402.85 100.487C1395.02 101.648 1387.12 102.183 1379.18 102.168C1375.51 102.16 1375.48 102.336 1374.97 106.032C1374.78 107.353 1374.64 108.705 1374.71 110.034C1375.23 120.276 1374.48 130.502 1374.31 140.736C1374.2 147.564 1373.75 154.376 1374.46 161.204C1374.68 163.327 1374.17 165.527 1373.98 167.894C1378.5 168.047 1382.91 168.352 1387.22 167.719C1392.48 166.94 1397.72 167.184 1402.93 167.566C1407.95 167.932 1412.9 167.329 1417.9 167.436C1424.73 167.581 1431.56 167.436 1438.4 167.795C1439.36 167.848 1440.37 167.841 1441.31 167.635C1443.54 167.123 1444.19 165.939 1443.79 163.633C1442.43 155.804 1440.09 148.228 1437.97 140.598C1436.04 133.671 1434.23 126.706 1432.79 119.657C1432.52 118.343 1432.19 117.045 1432.52 115.487C1433.49 116.113 1433.46 117.144 1433.7 117.923C1438.41 133.687 1442.29 149.664 1445.49 165.802C1445.51 165.924 1445.55 166.046 1445.55 166.16C1445.44 168.559 1447.39 171.43 1445.63 173.187C1443.57 175.249 1440.58 176.578 1437.42 176.746C1436.16 176.807 1435.04 177.273 1433.89 177.632C1433.18 177.853 1432.54 178.182 1432.44 179.068C1432.32 180.114 1432.96 180.664 1433.78 181.015C1434.55 181.351 1435.38 181.626 1436.2 181.809C1437.75 182.153 1439.31 182.436 1440.88 182.695C1445.13 183.413 1445.14 183.406 1444.93 187.614C1444.8 190.05 1444.52 192.486 1444.57 194.915C1444.61 197 1443.65 198.084 1441.81 198.657C1440.18 199.169 1438.56 199.719 1436.93 200.208C1435.62 200.605 1434.48 201.307 1433.42 202.14C1432.31 203.026 1432.34 203.965 1433.47 204.843C1434.64 205.76 1435.95 206.401 1437.36 206.829C1438.64 207.219 1439.95 207.494 1441.24 207.853C1445.02 208.891 1445.02 208.899 1444.82 213.328C1442.31 213.451 1439.78 213.672 1437.24 213.672C1435.49 213.672 1434.86 214.52 1434.76 216.108C1434.55 219.515 1434.3 222.921 1434.05 226.32C1433.97 227.289 1433.87 228.259 1433.67 229.214C1432.79 233.346 1432.48 233.521 1428.21 234.247C1423.81 234.988 1419.46 234.614 1415.09 234.102C1411.21 233.644 1407.36 232.972 1403.45 233.751C1403.21 233.796 1402.96 233.758 1402.71 233.751C1399.44 233.605 1399.11 233.277 1399.68 230.123C1400.26 226.892 1401.22 223.723 1400.94 220.378C1400.85 219.278 1400.81 218.193 1400.47 217.132C1399.95 215.49 1399.01 214.535 1397.21 214.107C1391.83 212.832 1386.57 213.474 1381.28 214.581C1377.92 215.284 1374.49 214.65 1371.1 214.97C1370.35 215.039 1370.06 214.497 1370.09 213.802C1370.14 212.71 1370.22 211.625 1370.29 210.35ZM1398.58 208.402C1401.45 208.341 1401.48 208.28 1404.37 209.8C1408.27 211.847 1412.09 211.755 1415.78 209.411C1417 208.639 1418.02 207.532 1419 206.463C1420.11 205.248 1421.23 204.454 1423.03 204.416C1424.97 204.37 1426.82 203.545 1428.38 202.293C1430.44 200.62 1431.01 197.626 1429.32 195.786C1428.07 194.426 1425.95 193.785 1426.45 191.31C1426.47 191.18 1425.91 190.776 1425.63 190.776C1424.14 190.783 1423.95 189.745 1423.63 188.637C1422.83 185.933 1421.17 183.871 1418.58 182.718C1414.49 180.893 1410.21 180.114 1405.78 181.053C1399.19 182.443 1395.85 187.568 1392.66 192.792C1392.3 193.38 1392.14 194.205 1392.2 194.9C1392.37 197.168 1391.62 199.154 1390.77 201.2C1389.6 204.026 1391.03 206.73 1393.92 207.799C1395.44 208.364 1397 208.418 1398.58 208.402Z" fill="#F7E74D"/>
<path fill-rule="evenodd" clip-rule="evenodd" d="M1428.38 148.71C1428.18 147.098 1428.17 145.975 1427.88 144.937C1427.18 142.447 1425.11 141.217 1422.53 141.607C1420.62 141.897 1419.17 143.799 1419.45 146.266C1419.97 150.886 1420 155.507 1420.1 160.143C1420.13 161.716 1419.61 162.166 1418.08 162.342C1412.49 163.007 1406.96 163.182 1401.32 162.587C1395.02 161.922 1388.65 162.037 1382.32 161.754C1379.42 161.624 1379.31 161.548 1379.62 158.875C1380.57 150.726 1379.89 142.554 1380.06 134.397C1380.21 127.455 1380.95 120.528 1380.64 113.57C1380.59 112.616 1380.93 111.653 1381.04 110.691C1381.2 109.37 1381.81 109.003 1383.22 108.98C1386.75 108.927 1390.27 108.553 1393.79 108.301C1394.4 108.255 1395 108.071 1395.6 108.071C1406.08 108.056 1416.54 108.087 1427.01 108.033C1428.74 108.026 1429.45 108.698 1429.46 110.363C1429.55 120.482 1432.4 130.075 1435.2 139.667C1435.82 141.813 1435.49 143.463 1433.66 144.792C1432 145.991 1430.37 147.236 1428.38 148.71ZM1384.88 128.326C1384.96 129.708 1384.7 130.701 1385.81 131.029C1386.96 131.365 1388.01 131.182 1388.63 130.006C1388.91 129.471 1389.16 128.898 1389.3 128.31C1390.37 124.011 1393.57 121.582 1397.19 119.726C1398.85 118.871 1400.19 117.679 1401.68 116.648C1402.71 115.938 1403.59 114.777 1403.06 113.532C1402.43 112.066 1400.92 112.096 1399.55 112.455C1398.84 112.639 1398.14 112.913 1397.51 113.28C1394.89 114.838 1392.27 116.465 1390.11 118.634C1387.3 121.46 1385.6 124.935 1384.88 128.326ZM1388.75 136.65C1388.82 135.337 1387.64 133.908 1386.45 133.878C1385.39 133.847 1384.12 135.619 1384.09 137.124C1384.08 138.292 1384.67 138.934 1385.8 139.064C1387.46 139.247 1388.67 138.246 1388.75 136.65Z" fill="#FDF9F7"/>
<path fill-rule="evenodd" clip-rule="evenodd" d="M1261.99 258.334C1260.34 257.012 1259.57 255.737 1259.45 254.507C1259.06 250.536 1256.15 248.611 1253.33 246.817C1247.25 242.96 1240.29 241.371 1233.35 240.195C1231.07 239.806 1228.18 240.195 1225.88 241.31C1221.42 243.471 1217 245.663 1213.16 249.016C1209.37 252.331 1207.36 256.31 1206.53 261.106C1206.41 261.809 1206.14 262.511 1205.38 262.748C1204.86 262.786 1204.58 262.443 1204.61 262.114C1205.19 255.386 1207.49 249.589 1213.51 245.808C1217.22 243.471 1221.02 241.318 1225.02 239.469C1229.84 237.239 1234.87 236.911 1240.01 236.926C1240.5 236.926 1241.01 236.942 1241.46 237.102C1246.71 239.057 1252.07 240.921 1256.02 245.136C1259.34 248.657 1260.75 253.133 1261.99 258.334Z" fill="#F7E74D"/>
<path fill-rule="evenodd" clip-rule="evenodd" d="M1246.88 282.27C1247.18 278.818 1246.22 277.137 1243.34 276.106C1240.3 275.022 1238.98 275.625 1238.7 278.825C1238.5 281.048 1236.88 279.688 1236.11 280.299C1235.9 280.085 1235.68 279.879 1235.47 279.665C1236.7 277.901 1238.14 276.252 1238.2 273.586C1241.43 275.496 1244.15 274.518 1246.74 273.082C1248.08 272.341 1248.9 271.012 1248.29 269.386C1247.67 267.706 1246.42 267.591 1244.74 267.896C1241.99 268.393 1239.8 269.714 1237.75 271.753C1237.23 270.821 1236.1 270.394 1235.98 269.179C1240.87 268.042 1243.68 265.109 1243.87 261.007C1243.93 259.694 1243.63 258.594 1242.39 257.937C1241.32 257.372 1240.3 257.517 1239.29 258.136C1236.61 259.793 1234.12 265.292 1234.6 268.53C1233.64 268.584 1232.67 268.637 1231.71 268.691L1231.71 268.798C1230.99 266.842 1231.9 264.902 1231.8 262.932C1231.58 258.976 1231.19 258.334 1227.21 257.441L1227.27 257.517C1227.33 257.143 1227.48 256.853 1227.89 256.754C1232.09 255.784 1236.35 255.57 1240.59 256.257C1248.96 257.624 1252.43 267.69 1249.43 274.319C1248.71 275.908 1247.48 277.305 1248.4 279.406C1248.78 280.269 1248.18 281.735 1246.8 282.171C1246.78 282.186 1246.88 282.27 1246.88 282.27Z" fill="#F9E8E2"/>
<path fill-rule="evenodd" clip-rule="evenodd" d="M1261.21 168.519C1261.15 168.359 1261.07 168.252 1261.07 168.137C1260.65 160.874 1261.64 159.729 1268.8 158.629C1274.85 157.697 1280.89 158.125 1286.94 158.438C1288.71 158.53 1288.78 159.568 1288.88 160.844C1289 162.394 1289.04 163.838 1286.99 164.09C1284.33 164.403 1281.68 164.746 1279.02 165.029C1272.97 165.67 1266.99 166.595 1261.21 168.519Z" fill="#DF2A3C"/>
<path fill-rule="evenodd" clip-rule="evenodd" d="M1427.45 257.226C1421.1 257.226 1415.26 257.211 1409.41 257.234C1406.96 257.241 1404.63 256.31 1402.14 256.516C1401.07 256.608 1399.58 257.051 1399.49 255.019C1399.39 252.713 1400.04 251.391 1401.83 251.116C1404.48 250.719 1407.15 250.376 1409.82 250.253C1414.92 250.017 1420.02 249.887 1425.07 250.994C1426.39 251.284 1427.06 251.659 1427.14 252.972C1427.23 254.309 1427.33 255.638 1427.45 257.226Z" fill="#F7E74D"/>
<path fill-rule="evenodd" clip-rule="evenodd" d="M1436.7 145.914C1439.05 151.833 1439.97 157.836 1441.34 163.724C1441.62 164.931 1441.15 165.664 1439.9 165.626C1437.48 165.557 1435.06 165.404 1432.63 165.252C1431.33 165.168 1431.16 164.213 1431.15 163.167C1431.11 159.165 1431.06 155.155 1431 151.153C1430.99 150.061 1431.55 149.389 1432.44 148.824C1433.77 147.991 1435.04 147.06 1436.7 145.914Z" fill="#FDF9F7"/>
<path fill-rule="evenodd" clip-rule="evenodd" d="M1236.11 280.3C1235.08 281.789 1235.69 283.928 1234.01 285.211C1233.39 285.684 1233.89 286.501 1234.35 287.143C1235.18 288.311 1235.9 289.564 1236.68 290.801C1236.28 291.488 1235.53 291.679 1234.89 291.962C1234.24 292.252 1233.58 292.665 1232.55 292.29C1232.73 290.542 1233.31 288.792 1234.5 287.555C1235.29 286.738 1236.54 286.181 1235.64 285.05C1234.76 283.943 1234.38 281.972 1232.27 282.24C1231.79 282.301 1231.3 282.286 1230.81 282.27C1228.69 282.194 1227.03 281.713 1226.13 279.33C1224.96 276.221 1220.15 275.198 1216.98 277.291C1216.82 273.976 1217.67 271.097 1219.48 267.614C1219.29 271.8 1222.21 273.251 1223.99 275.412C1224.79 276.382 1225.9 275.801 1226.36 274.366C1227.7 270.157 1225.06 266.499 1220.07 265.804C1221.57 262.222 1222.54 258.289 1227.24 257.518L1227.18 257.441C1224.33 260.344 1225.06 263.635 1226.18 266.95C1226.66 268.386 1229.07 269.249 1228.84 269.997C1228.39 271.441 1227.76 272.876 1227.45 274.411C1227.43 274.534 1227.42 274.656 1227.41 274.778C1227.12 277.39 1228.3 279.91 1230.26 281.064C1232.5 282.385 1233.89 280.766 1235.45 279.681C1235.67 279.88 1235.89 280.094 1236.11 280.3Z" fill="#F9E8E2"/>
<path fill-rule="evenodd" clip-rule="evenodd" d="M1422.43 154.689C1422.31 152.138 1422.2 149.58 1422.09 147.029C1422.05 145.837 1421.69 144.241 1423.28 144.012C1425.01 143.768 1425.38 145.463 1425.55 146.746C1425.87 149.274 1426.12 151.825 1426.12 154.368C1426.13 156.919 1425.9 159.462 1426.29 162.013C1426.37 162.594 1426.2 163.22 1426.09 163.808C1425.9 164.869 1425.14 165.045 1424.2 165.068C1422.99 165.099 1422.85 164.373 1422.8 163.434C1422.66 160.516 1422.5 157.599 1422.34 154.681C1422.37 154.689 1422.4 154.689 1422.43 154.689Z" fill="#FDF9F7"/>
<path fill-rule="evenodd" clip-rule="evenodd" d="M1228.41 129.623C1229.19 140.124 1228.29 151.259 1226.66 162.341C1226.63 162.532 1226.07 162.647 1225.34 162.998C1225.68 151.366 1226.8 140.109 1228.41 129.623Z" fill="#F7E74D"/>
<path fill-rule="evenodd" clip-rule="evenodd" d="M1308.15 206.973C1307.03 206.156 1307.17 205.247 1307.17 204.453C1307.17 200.687 1307.27 196.922 1307.24 193.157C1307.22 191.309 1308.17 190.896 1309.85 191.072C1310.48 196.487 1309.69 201.696 1308.15 206.973Z" fill="#F9E8E2"/>
<path fill-rule="evenodd" clip-rule="evenodd" d="M1419.74 241.601C1415.13 242.823 1410.54 242.892 1405.95 242.831C1405.07 242.823 1404.11 242.869 1404.24 241.586C1404.34 240.57 1405.21 240.647 1405.92 240.685C1410.52 240.975 1415.13 241.288 1419.74 241.601Z" fill="#F7E74D"/>
<path fill-rule="evenodd" clip-rule="evenodd" d="M1246.62 283.484C1245.29 285.943 1243.3 287.639 1240.7 288.655L1240.74 288.7C1240.03 287.975 1240.3 287.119 1240.54 286.356C1241.01 284.935 1240.95 283.56 1240.45 281.972C1242.55 281.888 1244.22 283.53 1246.24 283.11C1246.36 283.24 1246.49 283.369 1246.62 283.484Z" fill="#F9E8E2"/>
<path fill-rule="evenodd" clip-rule="evenodd" d="M1421.79 246.375C1416.09 247.246 1410.81 247.032 1404.84 247.2C1406.85 245.283 1408.67 246.444 1410.24 246.207C1412.15 245.924 1414.1 245.84 1416.03 245.756C1417.8 245.68 1419.62 245.153 1421.79 246.375Z" fill="#E4AA9C"/>
<path fill-rule="evenodd" clip-rule="evenodd" d="M1224.87 281.621C1222.69 282.598 1221.53 284.561 1220.22 286.6C1219.06 284.134 1216.65 282.484 1216.75 278.803C1219.01 282.415 1222.05 281.797 1224.95 281.69L1224.87 281.621Z" fill="#F9E8E2"/>
<path fill-rule="evenodd" clip-rule="evenodd" d="M1445.35 200.963C1446.62 202.269 1446.33 203.659 1445.79 205.224C1443.48 205.209 1441.51 204.117 1439.37 203.01C1441.37 202.33 1443.36 201.643 1445.35 200.963Z" fill="#F9E8E2"/>
<path fill-rule="evenodd" clip-rule="evenodd" d="M1224.61 177.074C1225.16 173.668 1224.38 170.209 1225.35 166.909C1225.39 166.787 1225.77 166.764 1226.22 166.611C1226.76 170.331 1226.61 173.844 1224.61 177.074Z" fill="#DF2A3C"/>
<path fill-rule="evenodd" clip-rule="evenodd" d="M1181.99 109.88C1184.04 108.093 1186.04 107.054 1187.99 105.84C1188.8 109.193 1188.8 109.193 1185.91 109.406C1184.96 109.475 1184 109.536 1183.05 109.62C1182.8 109.643 1182.57 109.735 1181.99 109.88Z" fill="#F9E8E2"/>
<path fill-rule="evenodd" clip-rule="evenodd" d="M1350.41 222.02C1352.33 220.92 1354.05 220.233 1356.01 219.988C1356.53 221.34 1356.42 222.6 1356.08 223.937C1354.05 223.83 1352.43 222.822 1350.41 222.02Z" fill="#F9E8E2"/>
<path fill-rule="evenodd" clip-rule="evenodd" d="M1360.42 225.899C1359.74 223.653 1359.31 221.4 1360.34 218.582C1362.04 221.415 1360.79 223.653 1360.42 225.899Z" fill="#F9E8E2"/>
<path fill-rule="evenodd" clip-rule="evenodd" d="M1227.38 286.982C1227.24 288.295 1227.11 289.601 1226.96 291.121C1225.19 291.16 1223.74 290.571 1222.25 289.525C1224.42 289.418 1225.52 287.623 1227.2 286.783L1227.38 286.982Z" fill="#F9E8E2"/>
<path fill-rule="evenodd" clip-rule="evenodd" d="M1187.46 261.732C1183.45 261.732 1179.44 261.732 1175.42 261.732C1175.42 261.587 1175.42 261.442 1175.42 261.305C1179.47 261.305 1183.51 261.305 1187.56 261.305C1187.53 261.442 1187.49 261.587 1187.46 261.732Z" fill="#E4AA9C"/>
<path fill-rule="evenodd" clip-rule="evenodd" d="M1240.66 171.193C1241.89 172.026 1242.25 173.156 1242.57 174.279C1242.63 174.508 1242.34 174.974 1242.09 175.119C1241.64 175.371 1241.17 175.233 1240.97 174.684C1240.56 173.591 1240.59 172.469 1240.66 171.193Z" fill="#DF2A3C"/>
<path fill-rule="evenodd" clip-rule="evenodd" d="M1374.08 194.212C1372.89 194.517 1371.94 194.731 1371.78 193.899C1371.55 192.669 1371.14 191.264 1372.16 190.156C1372.41 189.882 1373.17 189.904 1373.17 190.63C1373.17 191.86 1373.4 193.013 1374.08 194.212Z" fill="#FDF9F7"/>
<path fill-rule="evenodd" clip-rule="evenodd" d="M1378.98 192.967C1379.4 191.905 1379.83 190.836 1380.27 189.736C1381.38 191.707 1381.34 191.814 1379.05 193.028L1378.98 192.967Z" fill="#E4AA9C"/>
<path fill-rule="evenodd" clip-rule="evenodd" d="M1355.88 184.734C1355.89 184.734 1355.34 184.612 1355.33 184.444C1355.29 183.894 1355.74 183.658 1356.24 183.566C1356.75 183.467 1356.88 183.818 1356.87 184.177C1356.87 184.551 1356.71 184.887 1355.88 184.734Z" fill="#E4AA9C"/>
<path fill-rule="evenodd" clip-rule="evenodd" d="M1375.12 198.336C1373.81 198.97 1372.93 198.909 1371.77 198.466C1372.84 197.687 1373.76 197.901 1375.12 198.336Z" fill="#F9E8E2"/>
<path fill-rule="evenodd" clip-rule="evenodd" d="M1360.92 182.916C1361.71 183.695 1361.25 184.443 1361.37 185.956C1360.4 184.474 1360.49 183.741 1360.92 182.916Z" fill="#F9E8E2"/>
<path fill-rule="evenodd" clip-rule="evenodd" d="M1240.7 288.663C1240.51 288.64 1240.32 288.625 1240.13 288.602C1240.41 288.006 1240.53 288.609 1240.73 288.693C1240.74 288.701 1240.7 288.663 1240.7 288.663Z" fill="#F9E8E2"/>
<path fill-rule="evenodd" clip-rule="evenodd" d="M1227.18 286.784C1227.24 286.517 1227.24 286.036 1227.63 286.295C1227.95 286.494 1227.7 286.837 1227.37 286.983L1227.18 286.784Z" fill="#F9E8E2"/>
<path fill-rule="evenodd" clip-rule="evenodd" d="M1246.24 283.11C1246.45 282.835 1246.67 282.56 1246.88 282.285C1246.87 282.277 1246.78 282.186 1246.77 282.186C1247.01 282.651 1246.95 283.087 1246.62 283.499C1246.49 283.369 1246.36 283.239 1246.24 283.11Z" fill="#F9E8E2"/>
<path fill-rule="evenodd" clip-rule="evenodd" d="M1224.95 281.697C1225.06 281.613 1225.17 281.522 1225.27 281.438C1225.14 281.499 1225 281.56 1224.87 281.621C1224.87 281.621 1224.95 281.697 1224.95 281.697Z" fill="#F9E8E2"/>
<path fill-rule="evenodd" clip-rule="evenodd" d="M1379.04 193.036C1378.92 193.196 1378.81 193.356 1378.7 193.517C1378.59 193.41 1378.48 193.303 1378.38 193.196C1378.57 193.119 1378.76 193.043 1378.96 192.967C1378.97 192.967 1379.04 193.036 1379.04 193.036Z" fill="#E4AA9C"/>
<path fill-rule="evenodd" clip-rule="evenodd" d="M1230.65 201.818C1230.07 201.772 1229.58 201.742 1229.1 201.696C1225.98 201.398 1225.61 201.054 1225.76 197.808C1225.86 195.746 1226.18 193.692 1226.49 191.645C1226.74 189.927 1229.4 188.834 1230.9 189.835C1231.64 190.324 1231.3 190.874 1230.73 191.256C1229.96 191.783 1228.04 191.271 1228.63 192.959C1229.02 194.051 1230.37 192.974 1231.28 193.096C1232.35 193.241 1234.13 191.958 1234.36 193.669C1234.57 195.242 1232.61 194.845 1231.51 195.089C1230.8 195.25 1230.06 195.25 1229.34 195.357C1227.6 195.609 1227.86 196.968 1227.77 198.167C1227.66 199.611 1228.66 199.679 1229.66 199.741C1230.63 199.802 1231.61 199.901 1232.58 199.84C1233.44 199.786 1234.08 200.023 1234.09 200.901C1234.1 201.619 1233.43 201.826 1232.77 201.826C1232.03 201.818 1231.29 201.818 1230.65 201.818Z" fill="#003872"/>
<path fill-rule="evenodd" clip-rule="evenodd" d="M1240.68 197.427C1238.94 198.282 1238.35 199.687 1237.39 200.749C1236.96 201.223 1236.46 201.528 1235.84 201.001C1235.26 200.512 1235.29 199.848 1235.64 199.367C1236.66 197.923 1238.87 197.06 1238.85 195.235C1238.84 193.616 1236.8 192.661 1236 191.164C1235.88 190.935 1236.02 190.378 1236.23 190.21C1236.62 189.904 1237.18 189.919 1237.55 190.301C1238.63 191.432 1239.67 192.6 1240.7 193.723C1241.76 193.601 1242.06 192.676 1242.64 192.096C1243.04 191.699 1243.5 191.546 1243.89 191.882C1244.28 192.203 1244.3 192.768 1244.07 193.226C1243.86 193.654 1243.62 194.112 1243.27 194.425C1242.09 195.479 1242.31 196.487 1243.19 197.595C1243.57 198.061 1243.83 198.626 1244.08 199.176C1244.36 199.794 1244.96 200.55 1243.95 201.001C1243.08 201.398 1242.69 200.635 1242.31 200.001C1241.82 199.176 1241.28 198.374 1240.68 197.427Z" fill="#003872"/>
<path fill-rule="evenodd" clip-rule="evenodd" d="M1251.22 190.706C1252.72 190.698 1254.27 190.706 1254.78 192.501C1255.3 194.295 1254.54 195.67 1252.82 196.258C1251.39 196.755 1251.42 197.74 1251.56 198.855C1251.79 200.657 1252.06 202.46 1252.35 204.254C1252.51 205.24 1253.5 206.653 1251.76 206.851C1250.32 207.012 1250.44 205.469 1250.32 204.4C1250 201.627 1249.65 198.863 1249.32 196.09C1249.2 195.128 1249.12 194.158 1248.99 193.196C1248.71 191.057 1248.98 190.752 1251.22 190.706ZM1252.68 193.402C1252.52 193.02 1252.26 192.829 1251.87 192.867C1251.5 192.906 1251.24 193.089 1251.28 193.509C1251.34 194.074 1251.67 194.357 1252.21 194.181C1252.52 194.082 1252.73 193.761 1252.68 193.402Z" fill="#003872"/>
<path fill-rule="evenodd" clip-rule="evenodd" d="M1258.21 200.917C1258.06 201.49 1257.92 201.803 1257.9 202.124C1257.84 202.987 1257.83 204.056 1256.67 203.896C1255.5 203.743 1255.82 202.613 1255.87 201.819C1256.06 199.161 1256.31 196.511 1256.52 193.861C1256.59 193.005 1256.62 191.86 1257.56 191.753C1258.99 191.585 1260.42 192.089 1261.56 193.028C1262.3 193.639 1262.33 194.495 1261.93 195.35C1261.77 195.678 1261.7 196.137 1261.44 196.312C1259.12 197.855 1259.39 199.444 1261.23 201.17C1261.73 201.643 1261.71 202.254 1261.1 202.712C1260.61 203.079 1260.21 202.812 1259.84 202.483C1259.33 202.002 1258.84 201.521 1258.21 200.917ZM1259.99 195.403C1259.84 194.334 1259.46 194.105 1259.18 194.136C1258.64 194.189 1258.48 194.678 1258.47 195.167C1258.46 195.579 1258.77 195.839 1259.12 195.762C1259.56 195.663 1259.97 195.403 1259.99 195.403Z" fill="#003872"/>
<path fill-rule="evenodd" clip-rule="evenodd" d="M1288.88 202.093C1289 203.911 1287.91 204.858 1286.57 205.568C1285.02 206.393 1283.37 206.676 1281.69 205.973C1281.46 205.874 1281.25 205.331 1281.31 205.064C1281.37 204.805 1281.82 204.415 1282.05 204.438C1283.18 204.552 1284.25 204.407 1285.27 203.987C1287.15 203.201 1287.44 201.788 1286.02 200.321C1285.18 199.466 1283.85 199.031 1283.63 197.702C1283.34 196.045 1283.77 194.517 1285.15 193.471C1286.45 192.486 1287.93 191.959 1289.59 192.516C1290.08 192.676 1290.38 193.081 1290.31 193.631C1290.23 194.242 1289.77 194.357 1289.26 194.387C1288.66 194.418 1288.02 194.334 1287.45 194.509C1285.47 195.12 1285.05 196.885 1286.68 198.244C1287.96 199.306 1288.95 200.405 1288.88 202.093Z" fill="#003872"/>
<path fill-rule="evenodd" clip-rule="evenodd" d="M1268.71 197.58C1268.05 199.092 1265.08 197.702 1265.64 200.001C1266.01 201.49 1267.81 200.108 1268.9 200.612C1269.42 200.856 1270.09 200.811 1270.69 200.917C1271.29 201.024 1272.01 201.108 1271.85 201.949C1271.71 202.735 1270.95 202.682 1270.38 202.613C1268.55 202.392 1266.73 202.529 1264.89 202.621C1263.84 202.674 1263.24 202.109 1263.36 201.055C1263.63 198.764 1263.85 196.457 1264.33 194.204C1264.83 191.883 1267.32 191.34 1268.97 193.112C1269.32 193.486 1269.3 194.082 1268.7 194.265C1268.26 194.403 1267.74 194.357 1267.27 194.296C1266.56 194.204 1266.09 194.388 1265.99 195.159C1265.87 196.03 1266.15 196.557 1267.12 196.587C1267.73 196.61 1268.33 196.725 1268.71 197.58Z" fill="#003872"/>
<path fill-rule="evenodd" clip-rule="evenodd" d="M1277.41 200.359C1277.14 199.13 1276.04 198.862 1275.41 198.16C1274.08 196.671 1274.14 194.7 1275.55 193.692C1276.86 192.753 1279.73 193.165 1280.52 194.479C1280.86 195.051 1280.79 195.739 1279.93 195.792C1279.49 195.823 1279.03 195.51 1278.57 195.387C1277.87 195.212 1277.02 194.906 1276.65 195.716C1276.27 196.548 1277.11 196.968 1277.66 197.411C1277.95 197.64 1278.28 197.824 1278.53 198.083C1279.57 199.16 1279.76 201.093 1278.96 202.07C1278.28 202.903 1275.86 203.391 1274.85 202.826C1274.58 202.673 1274.3 202.261 1274.29 201.971C1274.29 201.696 1274.6 201.322 1274.88 201.161C1275.6 200.749 1276.61 201.383 1277.41 200.359Z" fill="#003872"/>
<path fill-rule="evenodd" clip-rule="evenodd" d="M1307.34 154.934C1307.34 152.009 1307.33 149.084 1307.35 146.151C1307.35 145.295 1307.22 144.387 1307.46 143.6C1309.5 136.963 1308.12 130.028 1309.3 123.323C1309.57 121.803 1308.67 120.543 1308.55 119.077C1308.22 115.014 1309.34 111.073 1309.22 107.04C1309.19 105.849 1309.97 105.314 1311.1 105.291C1312.81 105.268 1314.52 105.116 1316.22 105.261C1326.32 106.154 1336.43 105.826 1346.52 105.131C1348.94 104.963 1351.34 104.474 1353.76 104.146C1354.96 103.978 1356.17 103.733 1357.38 103.703C1359.86 103.642 1360.13 103.909 1360.01 106.391C1359.65 113.822 1359.06 121.238 1358.85 128.669C1358.56 139.254 1356.93 149.756 1356.99 160.356C1357 162.181 1357.03 164.014 1357.19 165.832C1357.35 167.719 1356.46 168.582 1354.68 168.62C1352.86 168.666 1351.02 168.643 1349.19 168.612C1345.41 168.536 1341.64 168.658 1337.87 169.032C1335.33 169.284 1332.75 169.406 1330.2 169.246C1323.87 168.849 1317.53 168.711 1311.19 168.688C1307.35 168.673 1307.22 168.482 1307.25 164.801C1307.28 161.509 1307.26 158.218 1307.26 154.926C1307.29 154.934 1307.32 154.934 1307.34 154.934ZM1354.54 161.845C1354.83 144.646 1357.12 128.073 1356.9 111.172C1349.62 111.867 1342.55 111.332 1335.5 111.768C1330.27 112.088 1325.02 111.546 1319.81 112.432C1317.11 112.89 1317.08 112.845 1317.1 115.64C1317.14 120.52 1317.45 125.416 1317.17 130.28C1316.67 138.934 1316.59 147.594 1316.53 156.247C1316.53 157.462 1316.27 158.859 1316.76 159.86C1317.47 161.28 1319.17 160.257 1320.41 160.57C1324.23 161.532 1328.11 161.693 1332 160.822C1332.56 160.692 1333.27 160.692 1333.79 160.914C1336.93 162.243 1340.22 161.929 1343.49 161.861C1347.04 161.792 1350.57 161.845 1354.54 161.845Z" fill="#003872"/>
<path fill-rule="evenodd" clip-rule="evenodd" d="M1307.92 212.381C1309.32 212.549 1309.81 213.565 1309.78 214.916C1309.74 216.574 1308.56 217.811 1307.11 217.78C1305.66 217.75 1304.94 216.612 1305.08 214.565C1305.18 213.152 1306.27 212.281 1307.92 212.381Z" fill="#003872"/>
<path fill-rule="evenodd" clip-rule="evenodd" d="M1398.59 208.402C1397 208.417 1395.44 208.363 1393.91 207.798C1391.03 206.729 1389.6 204.025 1390.77 201.2C1391.61 199.153 1392.36 197.167 1392.2 194.899C1392.14 194.204 1392.3 193.371 1392.65 192.791C1395.85 187.567 1399.18 182.45 1405.78 181.052C1410.21 180.113 1414.49 180.892 1418.58 182.717C1421.16 183.871 1422.83 185.933 1423.62 188.636C1423.94 189.744 1424.14 190.775 1425.62 190.775C1425.91 190.775 1426.48 191.18 1426.45 191.309C1425.95 193.784 1428.06 194.425 1429.31 195.785C1431.01 197.625 1430.44 200.627 1428.37 202.292C1426.82 203.552 1424.98 204.377 1423.03 204.415C1421.23 204.453 1420.11 205.247 1419 206.462C1418.03 207.531 1416.99 208.638 1415.78 209.41C1412.1 211.754 1408.27 211.846 1404.37 209.799C1401.48 208.287 1401.46 208.341 1398.59 208.402ZM1395.41 199.038C1393.18 199.298 1392.28 200.81 1392.33 202.781C1392.37 204.27 1393.26 205.614 1394.76 206.042C1396.94 206.668 1399.17 207.287 1401.46 206.294C1403.11 205.583 1404.83 205.026 1406.52 204.407C1406.59 204.4 1406.72 204.407 1406.73 204.377C1406.81 204.163 1406.72 204.102 1406.51 204.193C1404.04 203.705 1401.67 204.568 1399.25 204.698C1393.6 204.988 1393.14 204.369 1395.5 199.42C1395.69 199.382 1396.05 199.329 1396.05 199.306C1396.01 198.832 1395.72 198.893 1395.41 199.038ZM1420.16 197.526C1420.28 198.725 1418.93 200.321 1421.3 200.535C1422.48 200.642 1423.17 200.192 1423.11 198.954C1423 196.686 1421.06 198.359 1420.16 197.526ZM1402.24 197.9C1404.81 197.305 1407.59 197.9 1409.86 196.319C1407.13 196.075 1404.71 197.251 1402.24 197.9ZM1407.86 204.018C1410.22 203.583 1411.97 203.262 1414.24 202.842C1411.77 202.185 1410.04 202.582 1407.86 204.018ZM1407.18 184.795C1407.24 184.909 1407.28 185.047 1407.36 185.1C1407.42 185.138 1407.6 185.1 1407.65 185.039C1408.21 184.329 1409.19 183.894 1409.56 182.61C1407.84 182.817 1407.52 183.817 1407.18 184.795ZM1424.11 192.936C1423.72 192.906 1423.46 193.112 1423.35 193.448C1423.19 193.929 1423.36 194.372 1423.78 194.601C1424.26 194.861 1424.31 194.372 1424.39 194.097C1424.51 193.677 1424.6 193.226 1424.11 192.936ZM1421.82 190.248C1420.26 189.843 1419.29 189.728 1418.29 190.408C1419.35 190.897 1420.32 191.034 1421.82 190.248ZM1420.42 187.292C1420.2 187.17 1419.9 186.88 1419.67 186.918C1419.41 186.964 1419.02 187.292 1419 187.529C1418.97 187.896 1419.42 187.972 1419.73 187.941C1420.04 187.903 1420.41 187.85 1420.42 187.292ZM1399.12 198.488C1399.07 198.435 1399.03 198.351 1398.99 198.351C1398.76 198.336 1398.5 198.282 1398.28 198.351C1397.95 198.458 1398.01 198.611 1398.41 198.611C1398.64 198.611 1398.88 198.534 1399.12 198.488Z" fill="#003872"/>
<path fill-rule="evenodd" clip-rule="evenodd" d="M1384.88 128.325C1385.6 124.934 1387.29 121.459 1390.1 118.633C1392.26 116.464 1394.88 114.837 1397.5 113.279C1398.13 112.913 1398.83 112.63 1399.53 112.455C1400.91 112.096 1402.41 112.073 1403.05 113.531C1403.58 114.776 1402.7 115.937 1401.67 116.647C1400.18 117.671 1398.84 118.87 1397.17 119.725C1393.56 121.574 1390.35 124.01 1389.29 128.31C1389.15 128.898 1388.9 129.47 1388.62 130.005C1388.01 131.181 1386.96 131.364 1385.8 131.028C1384.7 130.7 1384.96 129.707 1384.88 128.325ZM1389.57 123.788C1389.73 123.406 1389.88 123.025 1390.04 122.643C1390.49 122.643 1390.74 122.398 1390.85 121.978C1391.13 121.764 1391.49 121.596 1391.67 121.321C1391.84 121.077 1391.98 120.588 1391.85 120.42C1391.45 119.916 1391.03 120.252 1390.71 120.604C1390.48 120.863 1390.29 121.184 1390.09 121.474C1389.9 121.734 1389.71 121.994 1389.51 122.261C1389.09 122.795 1389.32 123.315 1389.56 123.819C1389.4 123.674 1389.23 123.521 1389.07 123.376C1389.01 123.483 1388.95 123.582 1388.9 123.689C1389.12 123.72 1389.34 123.75 1389.57 123.788ZM1400.15 114.41C1397.3 114.853 1395.43 116.938 1393.22 118.473C1392.92 118.664 1392.58 118.801 1392.35 119.053C1392.16 119.267 1391.93 119.695 1392.02 119.878C1392.32 120.458 1392.78 120.168 1393.13 119.893C1393.4 119.679 1393.6 119.374 1393.82 119.114C1396.43 118.236 1399.02 117.312 1400.68 114.891C1400.89 114.601 1400.95 114.295 1400.6 114.097C1400.54 114.043 1400.3 114.287 1400.15 114.41Z" fill="#003872"/>
<path fill-rule="evenodd" clip-rule="evenodd" d="M1388.75 136.65C1388.66 138.246 1387.46 139.246 1385.79 139.055C1384.67 138.925 1384.07 138.292 1384.09 137.115C1384.11 135.611 1385.39 133.839 1386.45 133.87C1387.63 133.908 1388.81 135.336 1388.75 136.65Z" fill="#003872"/>
<path fill-rule="evenodd" clip-rule="evenodd" d="M1235.45 279.673C1233.89 280.758 1232.5 282.377 1230.26 281.056C1228.31 279.902 1227.12 277.39 1227.41 274.77C1227.43 274.648 1227.44 274.526 1227.46 274.404C1227.76 272.876 1228.4 271.433 1228.84 269.989C1229.07 269.241 1226.66 268.378 1226.18 266.942C1225.07 263.635 1224.33 260.343 1227.18 257.434C1231.16 258.327 1231.56 258.969 1231.77 262.925C1231.88 264.895 1230.96 266.835 1231.69 268.775C1231.68 268.447 1231.67 268.134 1231.22 268.431C1231.38 268.515 1231.53 268.599 1231.68 268.683C1232.64 268.63 1233.61 268.576 1234.58 268.523L1234.47 268.408C1234.65 269.378 1235.43 269.157 1236.07 269.241L1235.95 269.172C1236.07 270.379 1237.2 270.806 1237.72 271.746C1239.77 269.707 1241.96 268.393 1244.71 267.889C1246.39 267.584 1247.65 267.691 1248.26 269.378C1248.87 271.005 1248.05 272.334 1246.7 273.075C1244.12 274.503 1241.4 275.488 1238.17 273.579C1238.12 276.252 1236.69 277.909 1235.45 279.673ZM1229.89 275.916C1230.13 276.802 1230.02 278.444 1231.62 278.795C1233 279.101 1233.73 277.81 1234.42 276.81C1234.97 276.008 1235.42 275.145 1235.45 274.114C1235.48 272.533 1234.81 271.586 1233.17 271.387C1231.03 271.135 1229.82 272.632 1229.89 275.916Z" fill="#003872"/>
<path fill-rule="evenodd" clip-rule="evenodd" d="M1234.59 268.538C1234.11 265.3 1236.6 259.801 1239.28 258.144C1240.29 257.518 1241.31 257.373 1242.38 257.945C1243.62 258.602 1243.92 259.71 1243.86 261.016C1243.68 265.117 1240.86 268.05 1235.97 269.188L1236.09 269.256C1235.81 268.508 1235.13 268.5 1234.49 268.424L1234.59 268.538Z" fill="#003872"/>
<path fill-rule="evenodd" clip-rule="evenodd" d="M1252.68 193.403C1252.74 193.762 1252.52 194.083 1252.21 194.189C1251.67 194.365 1251.34 194.075 1251.29 193.517C1251.25 193.097 1251.5 192.914 1251.87 192.876C1252.26 192.83 1252.51 193.021 1252.68 193.403Z" fill="#F7E74D"/>
<path fill-rule="evenodd" clip-rule="evenodd" d="M1259.98 195.403C1259.97 195.411 1259.55 195.671 1259.11 195.762C1258.76 195.839 1258.45 195.579 1258.46 195.167C1258.47 194.678 1258.64 194.189 1259.17 194.135C1259.45 194.105 1259.83 194.334 1259.98 195.403Z" fill="#F7E74D"/>
<path fill-rule="evenodd" clip-rule="evenodd" d="M1354.55 161.845C1350.57 161.845 1347.04 161.792 1343.5 161.861C1340.23 161.929 1336.94 162.242 1333.8 160.914C1333.28 160.692 1332.57 160.7 1332.01 160.822C1328.11 161.693 1324.24 161.54 1320.42 160.57C1319.18 160.257 1317.48 161.28 1316.77 159.86C1316.28 158.867 1316.54 157.469 1316.54 156.247C1316.6 147.587 1316.67 138.933 1317.18 130.28C1317.46 125.415 1317.15 120.52 1317.11 115.64C1317.09 112.845 1317.12 112.89 1319.82 112.432C1325.03 111.554 1330.28 112.088 1335.51 111.768C1342.56 111.332 1349.63 111.867 1356.91 111.172C1357.13 128.073 1354.84 144.646 1354.55 161.845ZM1349.57 139.712C1349.51 139.476 1349.52 139.216 1349.41 139.01C1347.39 135.145 1345.4 131.258 1343.8 127.187C1343.51 126.439 1342.75 126.256 1341.95 126.66C1341.17 127.057 1340.28 127.523 1340.51 128.509C1341.5 132.755 1342.49 137.032 1345.16 140.629C1345.99 141.752 1347.34 141.492 1348.48 141.385C1349.28 141.301 1349.57 140.514 1349.57 139.712ZM1351.8 145.127C1351.72 144.058 1351.26 143.103 1349.96 143.019C1348.46 142.928 1347.44 143.753 1347.12 145.219C1346.83 146.586 1347.75 147.182 1348.91 147.388C1350.13 147.602 1351.65 146.426 1351.8 145.127Z" fill="#FDF9F7"/>
<path fill-rule="evenodd" clip-rule="evenodd" d="M1406.52 204.408C1404.83 205.034 1403.11 205.584 1401.46 206.294C1399.16 207.28 1396.94 206.661 1394.76 206.042C1393.26 205.615 1392.37 204.271 1392.33 202.781C1392.29 200.811 1393.19 199.299 1395.41 199.039L1395.32 199.261L1395.5 199.421C1393.14 204.378 1393.59 204.996 1399.25 204.706C1401.67 204.584 1404.05 203.713 1406.51 204.202C1406.49 204.194 1406.52 204.408 1406.52 204.408Z" fill="#F9E8E2"/>
<path fill-rule="evenodd" clip-rule="evenodd" d="M1420.16 197.525C1421.06 198.358 1423 196.693 1423.11 198.961C1423.17 200.191 1422.48 200.641 1421.3 200.542C1418.93 200.313 1420.28 198.717 1420.16 197.525Z" fill="#F9E8E2"/>
<path fill-rule="evenodd" clip-rule="evenodd" d="M1402.24 197.901C1404.71 197.252 1407.14 196.076 1409.86 196.32C1407.59 197.901 1404.81 197.305 1402.24 197.901Z" fill="#E4AA9C"/>
<path fill-rule="evenodd" clip-rule="evenodd" d="M1407.86 204.019C1410.04 202.583 1411.77 202.186 1414.24 202.843C1411.98 203.263 1410.22 203.583 1407.86 204.019Z" fill="#E4AA9C"/>
<path fill-rule="evenodd" clip-rule="evenodd" d="M1407.18 184.796C1407.52 183.818 1407.84 182.818 1409.55 182.611C1409.19 183.894 1408.21 184.33 1407.65 185.04C1407.6 185.101 1407.42 185.139 1407.36 185.101C1407.28 185.048 1407.25 184.91 1407.18 184.796Z" fill="#E4AA9C"/>
<path fill-rule="evenodd" clip-rule="evenodd" d="M1424.12 192.937C1424.61 193.227 1424.52 193.677 1424.4 194.097C1424.32 194.38 1424.27 194.861 1423.8 194.601C1423.37 194.372 1423.21 193.922 1423.36 193.448C1423.47 193.112 1423.73 192.906 1424.12 192.937Z" fill="#E4AA9C"/>
<path fill-rule="evenodd" clip-rule="evenodd" d="M1421.82 190.249C1420.32 191.043 1419.35 190.898 1418.29 190.409C1419.29 189.729 1420.26 189.844 1421.82 190.249Z" fill="#F9E8E2"/>
<path fill-rule="evenodd" clip-rule="evenodd" d="M1420.42 187.293C1420.41 187.858 1420.04 187.912 1419.72 187.942C1419.4 187.973 1418.96 187.896 1418.99 187.53C1419.01 187.301 1419.41 186.965 1419.67 186.919C1419.9 186.873 1420.19 187.171 1420.42 187.293Z" fill="#F9E8E2"/>
<path fill-rule="evenodd" clip-rule="evenodd" d="M1399.11 198.488C1398.87 198.534 1398.65 198.61 1398.41 198.61C1398 198.603 1397.94 198.45 1398.27 198.351C1398.49 198.282 1398.75 198.335 1398.99 198.351C1399.03 198.351 1399.07 198.435 1399.11 198.488Z" fill="#E4AA9C"/>
<path fill-rule="evenodd" clip-rule="evenodd" d="M1395.41 199.039C1395.73 198.894 1396.02 198.832 1396.05 199.306C1396.05 199.329 1395.69 199.382 1395.5 199.421L1395.33 199.26L1395.41 199.039Z" fill="#E4AA9C"/>
<path fill-rule="evenodd" clip-rule="evenodd" d="M1406.52 204.408C1406.52 204.408 1406.49 204.194 1406.5 204.194C1406.72 204.102 1406.81 204.171 1406.73 204.385C1406.72 204.415 1406.59 204.4 1406.52 204.408Z" fill="#E4AA9C"/>
<path fill-rule="evenodd" clip-rule="evenodd" d="M1393.22 118.465C1395.42 116.93 1397.3 114.845 1400.15 114.402C1400.31 114.578 1400.49 114.731 1400.69 114.876C1399.02 117.297 1396.44 118.221 1393.83 119.099C1393.62 118.893 1393.42 118.679 1393.22 118.465Z" fill="#F9E8E2"/>
<path fill-rule="evenodd" clip-rule="evenodd" d="M1390.09 121.474C1390.29 121.184 1390.47 120.863 1390.71 120.604C1391.03 120.252 1391.45 119.916 1391.85 120.42C1391.98 120.581 1391.83 121.077 1391.67 121.322C1391.48 121.596 1391.12 121.764 1390.85 121.978C1390.59 121.81 1390.34 121.642 1390.09 121.474Z" fill="#F9E8E2"/>
<path fill-rule="evenodd" clip-rule="evenodd" d="M1393.83 119.099C1393.6 119.366 1393.41 119.664 1393.14 119.878C1392.79 120.16 1392.33 120.443 1392.03 119.862C1391.94 119.687 1392.17 119.251 1392.36 119.037C1392.59 118.785 1392.93 118.648 1393.23 118.457C1393.43 118.679 1393.62 118.892 1393.83 119.099Z" fill="#F9E8E2"/>
<path fill-rule="evenodd" clip-rule="evenodd" d="M1400.15 114.41C1400.31 114.296 1400.54 114.044 1400.61 114.082C1400.96 114.281 1400.9 114.586 1400.69 114.876C1400.49 114.739 1400.32 114.578 1400.15 114.41Z" fill="#F9E8E2"/>
<path fill-rule="evenodd" clip-rule="evenodd" d="M1390.84 121.978C1390.74 122.398 1390.49 122.643 1390.03 122.643C1389.87 122.498 1389.7 122.368 1389.51 122.253C1389.7 121.994 1389.89 121.726 1390.09 121.467C1390.34 121.642 1390.59 121.81 1390.84 121.978Z" fill="#F9E8E2"/>
<path fill-rule="evenodd" clip-rule="evenodd" d="M1390.03 122.643C1389.87 123.025 1389.72 123.407 1389.56 123.789V123.827C1389.32 123.308 1389.08 122.796 1389.5 122.254C1389.69 122.368 1389.87 122.498 1390.03 122.643Z" fill="#F9E8E2"/>
<path fill-rule="evenodd" clip-rule="evenodd" d="M1389.57 123.787C1389.35 123.749 1389.12 123.718 1388.89 123.68C1388.96 123.573 1389.02 123.474 1389.07 123.367C1389.23 123.512 1389.4 123.665 1389.56 123.818C1389.56 123.825 1389.57 123.787 1389.57 123.787Z" fill="#F9E8E2"/>
<path fill-rule="evenodd" clip-rule="evenodd" d="M1229.89 275.915C1229.82 272.631 1231.03 271.126 1233.16 271.386C1234.81 271.585 1235.47 272.532 1235.44 274.113C1235.41 275.144 1234.96 276.007 1234.41 276.809C1233.72 277.801 1232.99 279.1 1231.61 278.794C1230.02 278.443 1230.13 276.809 1229.89 275.915Z" fill="#FDF9F7"/>
<path fill-rule="evenodd" clip-rule="evenodd" d="M1234.48 268.424C1235.12 268.493 1235.79 268.5 1236.07 269.256C1235.44 269.18 1234.65 269.394 1234.48 268.424Z" fill="#F9E8E2"/>
<path fill-rule="evenodd" clip-rule="evenodd" d="M1231.68 268.698C1231.53 268.614 1231.38 268.53 1231.22 268.446C1231.67 268.148 1231.67 268.461 1231.69 268.79C1231.69 268.805 1231.68 268.698 1231.68 268.698Z" fill="#F9E8E2"/>
<path fill-rule="evenodd" clip-rule="evenodd" d="M1349.57 139.711C1349.58 140.513 1349.29 141.3 1348.49 141.384C1347.34 141.498 1346 141.75 1345.16 140.628C1342.5 137.031 1341.51 132.754 1340.51 128.507C1340.28 127.522 1341.17 127.056 1341.96 126.659C1342.76 126.254 1343.51 126.438 1343.81 127.186C1345.41 131.257 1347.39 135.144 1349.42 139.009C1349.53 139.207 1349.52 139.474 1349.57 139.711Z" fill="#003872"/>
<path fill-rule="evenodd" clip-rule="evenodd" d="M1351.8 145.127C1351.65 146.426 1350.13 147.61 1348.91 147.388C1347.75 147.182 1346.83 146.586 1347.12 145.219C1347.44 143.753 1348.45 142.936 1349.97 143.02C1351.26 143.104 1351.72 144.058 1351.8 145.127Z" fill="#003872"/>
</svg>
