<svg width="52" height="131" viewBox="0 0 52 131" fill="none" xmlns="http://www.w3.org/2000/svg">
<path fill-rule="evenodd" clip-rule="evenodd" d="M0.290115 130.167C5.99498e-05 129.825 -0.0219471 129.433 0.0120593 128.999C0.106077 127.789 0.276123 126.58 0.276123 125.364C0.276123 125.01 0.414134 124.862 0.760199 124.886C0.936233 124.898 1.11227 124.896 1.2883 124.904C4.08683 125.048 6.88538 124.958 9.68191 124.876C10.8741 124.84 12.0704 124.74 13.2686 124.712C13.6347 124.704 14.0047 124.766 14.3688 124.734C15.0049 124.678 15.1189 124.408 14.7469 123.9C13.3406 121.976 11.8863 120.083 10.5381 118.121C9.63389 116.803 8.70373 115.502 7.80556 114.18C7.4915 113.718 7.08341 113.434 6.54531 113.296C5.72515 113.086 4.917 112.826 4.09484 112.622C3.76478 112.54 3.67476 112.382 3.66476 112.058C3.62275 110.731 3.56073 109.405 3.48672 108.081C3.46872 107.767 3.67876 107.883 3.79679 107.879C5.18905 107.837 6.58132 107.823 7.97158 107.771C10.8361 107.665 13.6967 107.863 16.5592 107.917C17.4954 107.935 17.9575 107.561 18.0435 106.619C18.3475 103.258 18.6316 99.8934 18.9437 96.5327C19.2657 93.0781 19.6158 89.6254 19.9499 86.1708C20.2559 83.0022 20.55 79.8335 20.86 76.6649C21.2541 72.6202 21.5822 68.5714 21.7542 64.5106C21.8702 61.8101 22.0062 59.1096 22.1503 56.4111C22.3323 53.0245 22.7124 49.6518 22.9844 46.2712C23.2585 42.8425 23.4765 39.4119 23.7286 35.9812C23.9846 32.5026 24.1387 29.0199 24.2867 25.5352C24.3407 24.253 24.0486 23.1008 23.4185 22.0086C23.1785 21.5925 22.9784 21.1564 22.7384 20.7423C22.5684 20.4503 22.6304 20.2622 22.8944 20.0542C23.9086 19.25 24.1887 18.3759 23.5365 17.2797C22.2203 15.0692 22.6744 13.0449 24.0046 11.0885C24.4807 10.3884 24.8008 9.75223 24.6108 8.85006C24.3987 7.84387 24.8908 6.9397 25.3889 6.09154C26.4811 4.23119 27.5413 2.34483 28.9756 0.710517C29.1836 0.472471 29.2756 -0.0156189 29.5357 0.000384098C29.8117 0.0163871 29.7797 0.514481 29.9338 0.780531C30.4139 1.61069 30.8699 2.45485 31.34 3.29101C31.7641 4.04516 32.1462 4.8153 32.3982 5.64946C32.7443 6.79167 32.7403 7.92189 32.2762 9.0301C32.0682 9.53019 32.0682 10.0083 32.2362 10.5204C32.5743 11.5506 32.9823 12.5568 33.1404 13.645C33.2984 14.7392 33.2004 15.7894 32.7103 16.7776C32.4462 17.3117 32.4542 17.7938 32.6863 18.3359C32.9583 18.964 33.1564 19.6241 33.3764 20.2742C33.4824 20.5843 33.5244 20.9164 33.3804 21.2144C32.4282 23.1748 32.3682 25.2572 32.5383 27.3636C32.9203 32.1005 33.1103 36.8474 33.4444 41.5863C34.0245 49.8078 34.2546 58.0454 34.5706 66.277C34.7287 70.3698 34.8527 74.4645 35.0687 78.5533C35.2788 82.5301 35.5788 86.5028 35.8509 90.4756C36.0749 93.7502 36.1229 97.0288 36.1469 100.309C36.1649 102.692 36.1009 105.078 36.467 107.447C36.571 108.113 36.581 108.161 37.2612 108.181C40.6678 108.277 44.0744 108.371 47.4811 108.467C48.1012 108.485 48.2872 108.643 48.3633 109.237C48.5033 110.331 48.6293 111.428 48.7853 112.52C48.8433 112.926 48.7333 113.138 48.3173 113.248C47.7011 113.412 47.101 113.636 46.4929 113.832C45.8708 114.034 45.3467 114.366 44.9186 114.876C42.2001 118.109 39.4696 121.331 36.745 124.558C36.595 124.736 36.447 124.916 36.297 125.094C36.311 125.152 36.325 125.21 36.339 125.268C36.9851 125.268 37.6332 125.252 38.2793 125.27C42.6302 125.394 46.979 125.53 51.3298 125.642C51.6959 125.652 51.7459 125.786 51.7339 126.096C51.6839 127.279 51.6519 128.463 51.6179 129.647C51.6139 129.819 51.5639 129.999 51.6639 130.163C34.5366 130.167 17.4134 130.167 0.290115 130.167ZM7.30546 129.211C7.33347 129.311 7.40747 129.325 7.49549 129.317L7.5255 129.327L7.55551 129.315C7.61152 129.367 7.66752 129.369 7.72353 129.317C7.85556 129.317 7.98758 129.317 8.12161 129.317C8.5837 129.479 9.06778 129.395 9.53787 129.411C11.2222 129.465 12.9085 129.503 14.5948 129.427C15.431 129.489 16.2672 129.495 17.1053 129.471C18.1175 129.629 19.1357 129.565 20.1519 129.555C20.49 129.563 20.828 129.573 21.1661 129.581C22.3643 129.737 23.5665 129.675 24.7668 129.671C25.3469 129.677 25.925 129.681 26.5051 129.687C26.5971 129.707 26.6891 129.743 26.7812 129.743C31.332 129.807 35.8829 129.833 40.4338 129.751C40.5578 129.749 40.6818 129.709 40.8038 129.687C42.0201 129.713 43.2303 129.631 44.4445 129.589C46.4729 129.519 48.4913 129.305 50.5177 129.207C50.7597 129.195 50.9097 129.105 50.9157 128.837C50.9318 128.295 50.9557 127.751 50.9838 127.209C51.0018 126.864 50.8517 126.72 50.5057 126.71C47.6631 126.63 44.8186 126.54 41.976 126.456C40.1397 126.4 38.3014 126.342 36.465 126.294C34.1186 126.23 31.7721 126.088 29.4216 126.126C28.4855 125.962 27.5453 125.952 26.6011 126.018C26.215 125.956 25.827 125.948 25.4389 125.98C25.4129 125.958 25.3849 125.956 25.3569 125.976C25.2869 125.974 25.2169 125.972 25.1468 125.97C24.4227 125.81 23.6906 125.882 22.9624 125.894C22.5084 125.886 22.0543 125.876 21.6002 125.866C20.68 125.702 19.7538 125.772 18.8296 125.774C17.9675 125.734 17.1053 125.688 16.2431 125.658C13.6066 125.568 10.9702 125.472 8.33366 125.406C6.9794 125.372 7.21344 125.238 7.19743 126.48C7.19543 126.56 7.20943 126.638 7.21543 126.718C7.17142 127.549 7.13742 128.379 7.29945 129.201L7.30546 129.211ZM27.5513 108.911C27.5513 108.917 27.5513 108.923 27.5513 108.931C23.1685 108.869 18.7856 108.805 14.4028 108.747C12.2264 108.719 10.052 108.699 7.87757 108.677C7.65753 108.675 7.42147 108.623 7.41347 108.981C7.38946 110.037 7.34947 111.091 7.30947 112.146C7.29946 112.416 7.41148 112.514 7.68153 112.504C8.28965 112.48 8.89776 112.5 9.50388 112.46C13.0526 112.222 16.6032 112.32 20.1519 112.436C23.9726 112.56 27.7914 112.702 31.6101 112.876C33.3044 112.952 34.9987 112.98 36.693 113.026C40.0037 113.116 43.3123 113.184 46.6229 113.246C47.261 113.258 47.5431 112.97 47.6571 112.348C47.8132 111.49 47.6771 110.619 47.7691 109.763C47.8211 109.271 47.6291 109.157 47.179 109.159C45.3387 109.167 43.5003 109.127 41.662 109.095C36.9571 109.009 32.2542 108.967 27.5513 108.911ZM31.7041 7.05973C31.7101 6.79968 31.6501 6.55163 31.6241 6.29758C31.5841 5.92151 31.478 5.89351 31.2 6.12155C29.0716 7.86588 26.9612 9.63022 25.0828 11.6486C24.4487 12.3287 23.9726 13.1029 23.8426 14.0371C23.7566 14.6532 23.8286 15.2813 23.7326 15.9034C23.6786 16.2575 23.9386 16.4235 24.2627 16.2595C24.3867 16.1955 24.4867 16.0814 24.5847 15.9774C26.6751 13.751 28.7675 11.5246 30.8499 9.29015C31.43 8.66603 31.6721 7.89989 31.7041 7.05973ZM28.6175 20.4243C26.9492 20.4903 25.6249 20.5423 24.2987 20.5963C24.1006 20.6043 23.8386 20.5503 23.8786 20.8884C24.0086 22.0086 24.2567 22.7387 25.725 22.6907C27.4013 22.6367 29.0716 22.5147 30.7539 22.5887C31.8881 22.6367 32.5743 21.8885 32.6303 20.7823C32.6463 20.4603 32.5583 20.3142 32.2082 20.3282C30.8979 20.3763 29.5857 20.3442 28.6175 20.4243ZM4.70497 128.203C4.73697 127.547 4.60895 126.898 4.60695 126.242C4.60695 125.992 4.52292 125.864 4.24687 125.856C3.3547 125.834 2.46053 125.806 1.56836 125.75C1.14028 125.722 0.994249 125.91 0.990248 126.302C0.980246 127.277 0.968246 128.251 0.942241 129.223C0.934239 129.535 1.07827 129.691 1.36832 129.651C2.21048 129.533 3.06065 129.611 3.90281 129.547C4.71297 129.487 4.71297 129.475 4.70497 128.677C4.70497 128.523 4.70497 128.363 4.70497 128.203ZM32.3342 14.7392C32.2922 14.1471 32.1942 13.567 31.9902 13.0089C31.9562 12.9128 31.9761 12.7608 31.8221 12.7528C31.6901 12.7468 31.6501 12.8788 31.5821 12.9648C31.014 13.677 30.4459 14.3891 29.8777 15.1013C29.4497 15.6374 29.0216 16.1775 28.5915 16.7116C28.3955 16.9536 28.3875 17.2017 28.5475 17.4657C28.7095 17.7338 28.9096 17.5537 29.0996 17.5197C29.4297 17.4597 29.7597 17.4077 30.0878 17.3397C31.5821 17.0276 32.3542 16.1334 32.3342 14.7392ZM27.7493 125.106C27.7493 125.102 27.7493 125.098 27.7493 125.094C28.1154 125.078 28.4835 125.05 28.8495 125.048C29.1556 125.046 29.2276 124.914 29.1816 124.626C29.0696 123.92 28.9736 123.21 28.8836 122.5C28.7975 121.812 28.7495 121.746 28.0634 121.738C27.7293 121.734 27.3953 121.77 27.0632 121.808C26.2791 121.896 25.971 122.264 26.009 123.05C26.037 123.61 26.195 124.148 26.3051 124.694C26.3771 125.052 26.5551 125.212 26.9352 125.154C27.2032 125.11 27.4793 125.118 27.7493 125.106ZM25.831 9.26214C25.893 9.25414 25.945 9.26215 25.983 9.24214C27.9954 8.21795 29.7697 6.9237 30.9099 4.90531C30.982 4.77729 31.096 4.66327 30.962 4.52324C30.8259 4.38121 30.6679 4.34921 30.4899 4.46723C30.0778 4.74128 29.6497 4.99333 29.2456 5.27938C28.0674 6.11154 26.9192 6.97771 26.149 8.23795C25.959 8.55001 25.773 8.86206 25.831 9.26214ZM30.96 10.7744C30.1178 11.7086 29.3296 12.5808 28.5435 13.4529C27.4753 14.6392 26.4071 15.8254 25.3389 17.0116C25.2669 17.0916 25.1248 17.1676 25.1908 17.2837C25.2689 17.4237 25.4169 17.3517 25.5309 17.3037C25.781 17.1977 26.047 17.1136 26.2691 16.9656C28.2814 15.6334 29.8577 13.911 30.8799 11.7106C30.998 11.4546 31.092 11.1765 30.96 10.7744ZM24.8668 19.5361C27.1672 19.5741 29.4036 19.4101 31.7481 19.4021C30.2798 18.0118 25.5509 18.2559 24.8668 19.5361ZM25.1508 123.438C25.2029 121.7 25.2028 121.705 23.7646 121.864C23.4645 121.898 23.3505 122.024 23.3485 122.322C23.3485 122.992 23.3285 123.662 23.3085 124.332C23.3025 124.558 23.3605 124.696 23.6205 124.702C24.0026 124.71 24.3847 124.736 24.7668 124.758C25.0228 124.772 25.1568 124.672 25.1508 124.4C25.1448 124.016 25.1508 123.632 25.1508 123.438ZM26.5071 6.05354C26.5411 6.08954 26.5771 6.12355 26.6111 6.15755C27.6633 5.64746 28.7135 5.12536 29.4697 4.18118C29.9157 3.62507 29.8797 2.81492 29.4557 2.26281C29.3216 2.08678 29.2056 2.02677 29.0576 2.25081C28.2094 3.52105 27.3573 4.7873 26.5071 6.05354ZM4.79297 110.435C4.79897 110.435 4.80697 110.435 4.81297 110.435C4.81297 109.971 4.79897 109.507 4.81898 109.043C4.83098 108.755 4.74696 108.643 4.44291 108.653C4.12485 108.665 4.06884 108.815 4.10285 109.085C4.12886 109.291 4.12484 109.499 4.13884 109.707C4.18685 110.409 4.23086 111.111 4.28687 111.812C4.29887 111.966 4.30888 112.17 4.51892 112.178C4.77297 112.19 4.70295 111.968 4.71295 111.824C4.74496 111.362 4.76697 110.897 4.79297 110.435Z" fill="#D5D5D5"/>
<path fill-rule="evenodd" clip-rule="evenodd" d="M27.5511 108.911C32.254 108.969 36.9569 109.009 41.6598 109.093C43.4981 109.125 45.3385 109.165 47.1768 109.157C47.6269 109.155 47.8189 109.269 47.7669 109.761C47.6769 110.619 47.8129 111.487 47.6549 112.346C47.5409 112.968 47.2588 113.256 46.6207 113.244C43.3101 113.182 39.9995 113.114 36.6908 113.024C34.9965 112.978 33.3022 112.952 31.6079 112.874C27.7891 112.7 23.9704 112.558 20.1497 112.434C16.601 112.318 13.0503 112.22 9.50165 112.458C8.89554 112.498 8.28543 112.478 7.67931 112.502C7.41126 112.512 7.29724 112.414 7.30724 112.144C7.34725 111.089 7.38724 110.033 7.41124 108.979C7.41924 108.619 7.6553 108.673 7.87534 108.675C10.0518 108.697 12.2262 108.715 14.4006 108.745C18.7834 108.803 23.1662 108.867 27.5491 108.929C27.5511 108.923 27.5511 108.917 27.5511 108.911Z" fill="#999999"/>
<path fill-rule="evenodd" clip-rule="evenodd" d="M7.21364 126.714C7.20764 126.634 7.19564 126.554 7.19564 126.476C7.21364 125.234 6.97961 125.368 8.33187 125.402C10.9684 125.468 13.6049 125.564 16.2414 125.654C17.1035 125.684 17.9657 125.73 18.8279 125.77C19.374 125.936 19.9341 125.85 20.4842 125.832C20.8602 125.82 21.2243 126.092 21.6004 125.862C22.0545 125.872 22.5086 125.88 22.9627 125.888C23.6828 126.176 24.4169 126.04 25.147 125.964C25.2171 125.966 25.2871 125.968 25.3571 125.97C25.3851 125.972 25.4111 125.972 25.4391 125.974C25.8272 125.942 26.2153 125.948 26.6013 126.01C26.6713 126.164 26.8114 126.13 26.9334 126.13C27.7636 126.128 28.5917 126.124 29.4219 126.12C31.7723 126.082 34.1168 126.224 36.4652 126.288C38.3036 126.338 40.1399 126.396 41.9762 126.45C44.8188 126.536 47.6633 126.626 50.5059 126.704C50.8539 126.714 51.002 126.859 50.984 127.203C50.956 127.745 50.934 128.287 50.916 128.831C50.908 129.099 50.7599 129.189 50.5179 129.201C48.4915 129.299 46.4731 129.513 44.4447 129.583C43.2305 129.625 42.0203 129.707 40.804 129.681C36.0371 129.681 31.2702 129.681 26.5053 129.681C25.9252 129.675 25.3471 129.671 24.767 129.665C24.6169 129.531 24.4329 129.589 24.2649 129.589C23.2327 129.581 22.1985 129.579 21.1663 129.577C20.8282 129.569 20.4902 129.559 20.1521 129.551C19.9221 129.511 19.692 129.451 19.46 129.437C18.6738 129.389 17.8877 129.327 17.1055 129.467C16.2674 129.491 15.4312 129.485 14.595 129.423C14.527 129.267 14.385 129.303 14.263 129.303C12.2166 129.305 10.1682 129.309 8.12182 129.313C7.98979 129.313 7.85777 129.313 7.72374 129.313C7.66773 129.313 7.61173 129.313 7.55572 129.311L7.52571 129.323L7.4957 129.313C7.45769 129.231 7.38969 129.205 7.30567 129.207L7.29766 129.193C7.29766 128.861 7.31766 128.529 7.29566 128.199C7.26165 127.709 7.40567 127.203 7.21364 126.714Z" fill="#999999"/>
<path fill-rule="evenodd" clip-rule="evenodd" d="M31.7042 7.05978C31.6742 7.89994 31.4302 8.66609 30.8501 9.29021C28.7677 11.5246 26.6753 13.7491 24.5849 15.9775C24.4869 16.0815 24.3868 16.1975 24.2628 16.2595C23.9388 16.4256 23.6787 16.2575 23.7327 15.9035C23.8287 15.2833 23.7567 14.6532 23.8427 14.0371C23.9728 13.1029 24.4509 12.3288 25.083 11.6487C26.9633 9.63027 29.0717 7.86594 31.2001 6.12161C31.4782 5.89356 31.5842 5.92157 31.6242 6.29764C31.6502 6.54969 31.7102 6.79973 31.7042 7.05978Z" fill="#999999"/>
<path fill-rule="evenodd" clip-rule="evenodd" d="M28.617 20.4241C29.5852 20.3461 30.8974 20.3761 32.2077 20.3261C32.5578 20.3121 32.6458 20.4581 32.6298 20.7802C32.5738 21.8884 31.8876 22.6366 30.7534 22.5865C29.0711 22.5145 27.4008 22.6346 25.7245 22.6886C24.2562 22.7366 24.0081 22.0064 23.8781 20.8862C23.8381 20.5482 24.1001 20.6042 24.2982 20.5942C25.6244 20.5422 26.9507 20.4901 28.617 20.4241Z" fill="#999999"/>
<path fill-rule="evenodd" clip-rule="evenodd" d="M4.70445 128.203C4.70445 128.363 4.70245 128.523 4.70445 128.681C4.71245 129.479 4.71245 129.489 3.90229 129.551C3.06013 129.613 2.20996 129.537 1.3678 129.655C1.07775 129.695 0.933721 129.539 0.941722 129.227C0.965727 128.253 0.979727 127.278 0.989729 126.306C0.99373 125.914 1.13776 125.726 1.56784 125.754C2.46001 125.81 3.35218 125.836 4.24635 125.86C4.52241 125.868 4.60643 125.994 4.60643 126.246C4.60843 126.898 4.73846 127.547 4.70445 128.203Z" fill="#999999"/>
<path fill-rule="evenodd" clip-rule="evenodd" d="M32.3345 14.7394C32.3525 16.1337 31.5824 17.0278 30.0881 17.3399C29.76 17.4079 29.43 17.4599 29.0999 17.5199C28.9119 17.5539 28.7118 17.734 28.5478 17.4659C28.3878 17.2019 28.3957 16.9558 28.5918 16.7118C29.0219 16.1757 29.45 15.6376 29.878 15.1015C30.4461 14.3893 31.0143 13.6772 31.5824 12.9651C31.6504 12.879 31.6904 12.749 31.8224 12.753C31.9764 12.759 31.9544 12.9131 31.9905 13.0091C32.1945 13.5672 32.2945 14.1493 32.3345 14.7394Z" fill="#999999"/>
<path fill-rule="evenodd" clip-rule="evenodd" d="M27.7492 125.106C27.4792 125.12 27.2031 125.11 26.9371 125.152C26.557 125.21 26.379 125.052 26.307 124.692C26.197 124.146 26.0389 123.61 26.0109 123.048C25.9729 122.264 26.281 121.894 27.0651 121.806C27.3972 121.768 27.7332 121.732 28.0653 121.736C28.7494 121.744 28.7975 121.808 28.8855 122.498C28.9755 123.208 29.0695 123.918 29.1835 124.624C29.2295 124.912 29.1555 125.044 28.8515 125.046C28.4854 125.048 28.1173 125.076 27.7512 125.092C27.7492 125.098 27.7492 125.102 27.7492 125.106Z" fill="#F1F2F6"/>
<path fill-rule="evenodd" clip-rule="evenodd" d="M25.8318 9.26221C25.7718 8.86214 25.9578 8.54808 26.1498 8.23802C26.92 6.97778 28.0682 6.11161 29.2464 5.27946C29.6505 4.9934 30.0766 4.74135 30.4907 4.4673C30.6687 4.34928 30.8287 4.38129 30.9627 4.52331C31.0948 4.66334 30.9828 4.77736 30.9107 4.90539C29.7725 6.92377 27.9962 8.21802 25.9838 9.24221C25.9458 9.26222 25.8938 9.25621 25.8318 9.26221Z" fill="#999999"/>
<path fill-rule="evenodd" clip-rule="evenodd" d="M30.96 10.7744C31.092 11.1765 30.998 11.4545 30.878 11.7126C29.8558 13.913 28.2795 15.6353 26.2671 16.9676C26.0451 17.1156 25.777 17.1996 25.529 17.3057C25.415 17.3537 25.2669 17.4257 25.1889 17.2857C25.1229 17.1696 25.2649 17.0936 25.3369 17.0136C26.4032 15.8254 27.4713 14.6392 28.5415 13.4549C29.3297 12.5788 30.1179 11.7066 30.96 10.7744Z" fill="#999999"/>
<path fill-rule="evenodd" clip-rule="evenodd" d="M24.8662 19.5363C25.5503 18.2561 30.2812 18.012 31.7475 19.4023C29.4011 19.4083 27.1666 19.5743 24.8662 19.5363Z" fill="#999999"/>
<path fill-rule="evenodd" clip-rule="evenodd" d="M25.1513 123.438C25.1513 123.632 25.1453 124.016 25.1533 124.398C25.1593 124.67 25.0273 124.77 24.7692 124.756C24.3871 124.734 24.0051 124.708 23.623 124.7C23.363 124.696 23.305 124.558 23.311 124.33C23.331 123.66 23.351 122.99 23.351 122.319C23.351 122.021 23.467 121.895 23.767 121.861C25.2053 121.705 25.2033 121.699 25.1513 123.438Z" fill="#F1F2F6"/>
<path fill-rule="evenodd" clip-rule="evenodd" d="M26.5068 6.05337C27.357 4.78713 28.2092 3.52089 29.0573 2.25265C29.2073 2.02861 29.3214 2.08862 29.4554 2.26465C29.8795 2.81476 29.9155 3.62491 29.4694 4.18302C28.7132 5.12719 27.6631 5.6493 26.6109 6.15939C26.5769 6.12338 26.5428 6.08738 26.5068 6.05337Z" fill="#999999"/>
<path fill-rule="evenodd" clip-rule="evenodd" d="M4.79263 110.435C4.76663 110.9 4.74261 111.362 4.71061 111.826C4.70061 111.97 4.77063 112.192 4.51658 112.18C4.30854 112.17 4.29655 111.968 4.28455 111.814C4.22854 111.114 4.18251 110.411 4.1365 109.709C4.1225 109.501 4.12651 109.293 4.10051 109.087C4.0665 108.817 4.1225 108.667 4.44056 108.655C4.74662 108.643 4.82864 108.757 4.81663 109.045C4.79663 109.509 4.81063 109.973 4.81063 110.437C4.80663 110.433 4.80063 110.435 4.79263 110.435Z" fill="#999999"/>
<path fill-rule="evenodd" clip-rule="evenodd" d="M26.5068 129.687C31.2737 129.687 36.0406 129.687 40.8055 129.687C40.6815 129.709 40.5575 129.749 40.4355 129.751C35.8846 129.835 31.3338 129.807 26.7829 129.743C26.6909 129.743 26.5989 129.707 26.5068 129.687Z" fill="#999999"/>
<path fill-rule="evenodd" clip-rule="evenodd" d="M8.12109 129.315C10.1675 129.311 12.2159 129.307 14.2623 129.305C14.3843 129.305 14.5263 129.269 14.5943 129.425C12.908 129.501 11.2217 129.463 9.53735 129.409C9.06726 129.395 8.58318 129.477 8.12109 129.315Z" fill="#999999"/>
<path fill-rule="evenodd" clip-rule="evenodd" d="M17.1055 129.469C17.8896 129.329 18.6758 129.391 19.4599 129.439C19.692 129.453 19.922 129.515 20.152 129.553C19.1359 129.565 18.1177 129.629 17.1055 129.469Z" fill="#999999"/>
<path fill-rule="evenodd" clip-rule="evenodd" d="M29.4211 126.124C28.591 126.128 27.7628 126.132 26.9327 126.134C26.8106 126.134 26.6686 126.17 26.6006 126.014C27.5448 125.95 28.4869 125.96 29.4211 126.124Z" fill="#999999"/>
<path fill-rule="evenodd" clip-rule="evenodd" d="M25.1463 125.966C24.4142 126.042 23.6801 126.178 22.9619 125.89C23.6921 125.88 24.4242 125.808 25.1463 125.966Z" fill="#999999"/>
<path fill-rule="evenodd" clip-rule="evenodd" d="M21.168 129.581C22.2002 129.585 23.2344 129.585 24.2666 129.593C24.4346 129.595 24.6186 129.535 24.7687 129.669C23.5664 129.675 22.3642 129.737 21.168 129.581Z" fill="#999999"/>
<path fill-rule="evenodd" clip-rule="evenodd" d="M21.5997 125.864C21.2256 126.092 20.8595 125.822 20.4835 125.834C19.9334 125.852 19.3733 125.938 18.8271 125.772C19.7533 125.77 20.6795 125.7 21.5997 125.864Z" fill="#999999"/>
<path fill-rule="evenodd" clip-rule="evenodd" d="M7.21319 126.714C7.40523 127.2 7.26121 127.707 7.29522 128.205C7.31722 128.535 7.29722 128.867 7.29722 129.199C7.13519 128.375 7.16919 127.545 7.21319 126.714Z" fill="#999999"/>
<path fill-rule="evenodd" clip-rule="evenodd" d="M7.30566 129.211C7.38968 129.209 7.45768 129.235 7.49569 129.317C7.40767 129.325 7.33367 129.311 7.30566 129.211Z" fill="#999999"/>
<path fill-rule="evenodd" clip-rule="evenodd" d="M25.4385 125.978C25.4105 125.976 25.3845 125.974 25.3564 125.974C25.3845 125.954 25.4125 125.956 25.4385 125.978Z" fill="#999999"/>
<path fill-rule="evenodd" clip-rule="evenodd" d="M7.55566 129.315C7.61167 129.315 7.66768 129.315 7.72369 129.317C7.66768 129.369 7.61167 129.367 7.55566 129.315Z" fill="#999999"/>
</svg>
