<svg width="866" height="298" viewBox="0 0 866 298" fill="none" xmlns="http://www.w3.org/2000/svg">
<g opacity="0.2">
<path fill-rule="evenodd" clip-rule="evenodd" d="M631.365 12.1013C633.589 17.5434 633.389 22.3974 633.802 27.1264C634.277 32.681 634.239 32.4182 639.401 33.2814C650.8 35.1705 662.124 32.3307 673.486 33.0313C676.86 33.2439 680.285 32.806 683.672 32.9436C689.784 33.1938 694.996 31.1672 699.721 27.4141C705.745 22.6351 710.67 16.9053 714.644 10.3498C716.194 7.78518 717.469 5.07047 718.894 2.43077C719.444 1.41742 719.694 -0.0839084 721.169 0.00366465C722.894 0.103748 723.206 1.59255 723.431 3.03125C725.019 13.3023 726.431 23.6109 728.256 33.8445C730.281 45.1539 729.056 56.601 730.306 67.9354C730.993 74.0905 731.58 80.2582 732.618 86.3633C733.243 90.0914 732.118 92.3932 728.493 93.0313C723.344 93.932 718.769 96.8345 713.494 97.0347C711.32 97.1098 710.882 98.1356 711.157 100.15C715.069 128.874 713.17 158.111 718.769 186.697C719.494 190.425 719.944 194.228 721.006 197.856C724.306 209.041 723.606 220.413 722.969 231.797C722.769 235.388 722.206 238.966 722.006 242.556C721.844 245.308 720.319 248.586 724.831 249.8C726.168 250.162 726.018 252.177 725.343 253.54C723.994 256.293 721.794 257.381 718.682 257.769C688.897 261.484 658.987 262.898 629.002 263.861C595.63 264.937 562.258 266.188 528.874 265.638C492.302 265.037 455.731 265.15 419.171 264.399C398.998 263.986 378.8 263.373 358.64 263.711C316.656 264.399 274.747 262.272 232.826 261.096C225.339 260.884 217.94 261.86 210.441 261.297C203.091 260.746 195.655 261.484 188.268 261.334C168.645 260.921 149.271 258.845 130.336 253.228C120.499 250.313 110.225 250.137 100.013 250.638C95.3887 250.863 90.8142 250.763 86.2646 250.087C84.4272 249.812 82.1025 249.825 82.29 246.772C82.4899 243.594 84.7147 243.307 86.9645 243.569C99.2759 245.008 111.712 243.244 124.011 245.396C131.71 246.747 138.997 249.612 146.671 250.938C149.421 251.413 152.134 252.139 154.896 252.589C159.97 253.403 160.608 252.965 160.52 247.948C160.458 244.37 159.87 240.792 159.583 237.214C158.845 227.856 158.695 218.398 157.296 209.141C154.158 188.411 153.183 167.381 148.284 146.901C146.147 137.969 144.622 128.886 143.134 119.816C142.572 116.426 141.172 114.975 137.747 114.825C129.561 114.487 121.561 112.523 113.362 112.035C106.775 111.647 100.588 108.907 94.2138 107.256C92.314 106.768 91.1766 105.517 91.2266 103.327C91.5266 90.9045 88.9393 78.6693 88.6894 66.2714C88.4644 54.6617 88.4768 43.0646 89.0393 31.4675C89.1643 28.8903 89.4393 26.2506 90.1642 23.786C91.1766 20.3206 92.6265 20.1079 94.9513 22.8227C96.2512 24.3365 97.5135 25.9003 98.6384 27.5517C103.288 34.3949 109.237 40.037 115.224 45.6417C124.811 54.6242 136.735 56.6385 149.121 56.3883C154.446 56.2757 159.708 54.4616 165.032 53.6484C167.795 53.2231 168.645 51.5968 168.907 49.1698C169.344 45.1914 169.832 41.2256 170.344 37.2598C170.569 35.4833 170.857 33.7068 171.219 31.9429C171.544 30.3415 172.132 28.6401 173.907 28.3398C175.606 28.0521 175.956 29.9411 176.794 30.942C188.243 44.6909 202.741 52.7352 220.69 53.661C241.325 54.7243 261.723 51.922 282.097 48.9946C284.621 48.6318 285.296 47.6059 285.409 45.1914C285.784 37.0095 286.434 28.8277 286.971 20.6459C287.021 19.8452 286.959 19.032 287.146 18.2564C287.471 16.8427 288.234 15.5166 289.546 14.9786C291.346 14.253 291.821 16.1046 292.658 17.093C299.583 25.4124 308.044 31.58 318.143 35.4457C320.968 36.5216 323.505 38.1105 325.993 39.7744C333.429 44.7536 341.554 45.4541 350.128 43.9403C352.44 43.5275 353.503 41.9887 354.615 40.3498C358.677 34.4074 362.839 28.5274 366.701 22.4598C372.088 14.0153 380 8.18546 387.437 1.84266C390.199 -0.5093 392.611 -0.459197 395.936 1.59251C406.148 7.9228 413.859 16.8553 421.946 25.4124C425.796 29.4783 429.521 33.6443 433.345 37.7352C435.932 40.5 438.757 42.4015 442.857 40.8127C444.732 40.0871 446.794 40.6251 448.794 40.8252C469.492 42.902 488.378 37.8352 505.589 26.2756C510.126 23.223 513.825 19.3449 516.838 14.7786C518.937 11.6134 521.175 8.53577 523.387 5.4582C524.087 4.48238 524.962 3.38151 526.274 3.63172C527.949 3.95699 528.074 5.52082 528.224 6.9345C528.874 13.0896 529.449 19.2698 530.211 25.4124C530.949 31.3674 532.011 37.2723 532.711 43.2273C532.974 45.4041 534.173 46.3548 535.936 47.0304C547.21 51.2964 558.584 53.686 570.308 48.7944C579.707 44.8786 589.131 41.013 598.405 36.822C604.992 33.8445 610.854 29.7034 616.128 24.6867C620.728 20.3456 625.44 16.0671 631.365 12.1013ZM440.532 77.2556C439.77 79.1822 440.27 81.159 440.37 83.1106C440.444 84.6369 441.582 85.0371 442.782 85.1872C443.307 85.2498 444.094 85.0746 444.407 84.7118C445.207 83.7735 444.457 82.8102 443.957 82.0596C442.882 80.4332 441.619 78.9195 440.432 77.3557C437.145 73.2647 433.283 69.8244 428.746 67.1847C423.446 64.1071 419.396 59.8285 416.059 54.6993C409.735 44.9787 403.211 35.3957 396.711 25.7877C395.561 24.0988 394.674 22.0596 392.461 20.9962C391.212 23.4358 390.824 25.8502 389.462 27.8519C386.212 32.6059 384.775 37.8728 384.637 43.6651C384.525 48.2439 383.775 52.7977 381.925 57.1013C377.588 67.1973 373.513 77.4058 368.476 87.189C367.589 88.9279 366.301 90.5667 366.314 92.8686C368.489 93.4191 370.626 93.0813 372.776 92.7185C374.826 92.3807 376.263 91.1547 377.888 89.9287C379.7 88.5526 381.513 91.1548 383.937 90.7419C392.961 89.1906 402.111 88.365 411.172 87.0264C418.134 86.0005 425.121 86.1631 432.108 85.8503C436.107 85.6751 436.107 85.5251 435.895 81.7219C435.62 77.6686 435.62 77.6685 440.532 77.2556ZM469.654 112.785C472.629 113.674 474.954 113.336 477.266 112.986C482.241 112.235 487.265 112.06 492.19 112.848C497.377 113.673 502.526 113.536 507.713 113.573C521.962 113.686 535.786 109.87 549.947 109.157C552.734 109.02 555.509 108.632 558.271 108.206C583.319 104.303 607.679 97.0472 632.689 92.9688C633.177 92.8937 633.402 92.6185 633.389 92.4684C633.377 90.4041 631.777 90.6793 630.84 90.1789C629.802 89.6159 628.415 89.3032 628.615 87.7769C628.765 86.7136 629.727 86.113 630.752 85.9503C634.489 85.3623 633.552 82.5976 633.227 80.3707C631.627 69.274 630.915 58.1147 630.79 46.9178C630.752 43.49 630.965 40.4375 626.84 38.6985C624.278 37.6226 624.465 34.3823 627.065 33.7443C631.015 32.7685 631.015 30.4541 630.402 27.5392C629.927 25.2623 630.865 22.0095 628.515 20.9587C626.115 19.8953 624.303 22.6851 622.703 24.2113C609.491 36.7218 593.568 44.3031 576.645 50.158C573.82 51.1338 571.07 52.3223 568.295 53.4482C561.608 56.1505 554.772 56.651 547.735 55.1122C543.298 54.1364 538.823 53.2981 534.161 52.3473C533.986 53.4107 533.649 54.2114 533.786 54.937C535.123 62.2306 534.523 69.6869 535.586 77.0055C536.311 82.0347 535.673 82.9104 530.799 84.0113C524.374 85.45 517.975 86.9637 511.538 88.3774C498.102 91.3174 484.665 94.2198 471.017 97.1848C471.304 98.0606 471.467 98.8362 471.817 99.5243C473.054 101.951 476.504 103.252 476.029 106.442C475.566 109.495 471.942 109.945 469.654 112.785ZM322.693 105.704C320.356 104.741 318.456 105.442 316.506 105.829C310.244 107.043 303.957 108.219 297.683 109.37C293.458 110.133 288.834 109.945 285.359 108.131C281.547 106.155 278.197 106.543 274.472 106.818C263.923 107.606 253.387 109.445 242.813 108.494C230.901 107.431 218.952 106.28 207.266 103.477C203.779 102.639 200.229 101.851 196.667 101.651C188.868 101.188 181.193 99.8245 173.494 98.6985C167.207 97.7853 167.245 97.51 167.045 91.0171C166.732 81.2089 166.62 71.4258 167.832 61.6677C168.17 58.9779 167.22 57.9645 164.495 58.59C161.583 59.2656 158.646 59.8661 155.696 60.3916C136.785 63.6943 120.536 58.7527 107.325 44.5909C104.05 41.088 100.926 37.4474 97.651 33.932C96.7636 32.9812 96.1886 31.4174 94.4388 31.7301C94.1388 32.0304 93.6639 32.2806 93.6264 32.5684C92.564 41.6885 91.3016 50.796 91.6641 60.0413C92.1515 72.4391 93.3514 84.7619 94.4388 97.1097C94.8013 101.238 96.5136 102.927 100.238 104.153C110.387 107.468 120.949 108.432 131.398 109.908C135.623 110.496 139.935 112.235 144.259 110.221C150.696 113.648 157.896 112.548 164.732 113.648C173.444 115.062 182.356 114.049 191.03 115.162C207.516 117.277 224.127 117.039 240.638 118.415C245.6 118.828 250.612 118.89 255.599 118.803C275.197 118.44 294.57 115.3 314.081 113.774C320.481 113.261 320.831 112.898 322.693 105.704ZM175.856 37.9853C175.181 39.7493 174.881 40.7001 174.469 41.5884C172.069 46.8427 173.069 52.6601 171.744 58.0396C169.219 68.3107 170.194 78.6944 170.182 89.053C170.182 92.043 171.657 93.4067 174.432 93.757C177.594 94.1573 180.756 94.6076 183.906 95.0454C197.917 96.9846 211.591 100.65 225.752 102.176C244 104.141 261.986 103.578 280.097 101.701C283.146 101.388 284.246 100.225 284.234 97.2348C284.221 89.2406 284.471 81.2591 285.071 73.2774C285.446 68.2982 285.571 63.2814 285.434 58.3023C285.334 54.6242 284.209 53.8611 280.584 54.2239C277.41 54.5491 274.247 55.0121 271.085 55.3999C255.037 57.3891 238.988 59.5659 222.777 59.3157C209.416 59.103 197.317 54.9496 186.743 46.6426C183.306 43.9654 179.906 41.2255 175.856 37.9853ZM720.794 10.6626C720.306 10.4999 719.819 10.3498 719.331 10.1872C717.757 12.4265 716.132 14.6284 714.619 16.9053C710.807 22.61 705.983 27.3265 700.708 31.6802C695.696 35.8211 689.984 38.0103 683.61 37.7977C668.611 37.2847 653.7 39.2239 638.726 38.9612C633.639 38.8736 633.389 39.0488 633.527 44.4909C633.814 56.0755 634.764 67.6351 636.302 79.1197C637.139 85.3624 637.376 85.2999 644.001 86.0881C645.976 86.3258 647.913 86.9137 649.888 87.1139C666.149 88.7527 682.397 90.4292 698.583 92.7686C705.483 93.7569 712.545 93.9821 719.382 91.8554C728.556 89.003 729.443 87.8395 728.031 78.3566C726.931 71.0004 726.643 63.6317 726.681 56.2505C726.743 40.7501 722.981 25.8127 720.794 10.6626ZM443.132 48.7944C445.669 52.1847 447.856 55.2373 450.169 58.2023C456.231 65.9837 461.118 74.4158 464.442 83.7361C464.98 85.2374 465.855 86.6384 466.242 88.1772C467.105 91.6676 469.329 92.5059 472.542 91.8804C473.517 91.6928 474.517 91.5801 475.504 91.4675C492.79 89.3907 509.551 84.6618 526.524 81.0338C531.524 79.9579 531.399 79.8578 531.586 74.7285C531.999 62.7185 528.949 51.0337 528.561 39.0612C528.299 30.9169 526.562 22.8102 525.449 14.6909C525.299 13.6275 525.774 12.1638 523.962 11.851C522.087 12.7393 521.137 14.5909 520.012 16.1797C506.439 35.3207 486.653 42.4016 464.53 45.279C457.706 46.1548 450.544 44.8536 443.132 48.7944ZM382.687 244.232C382.687 247.36 382.812 249.975 382.65 252.564C382.462 255.579 383.85 256.468 386.612 256.13C389.774 255.742 392.974 255.142 396.136 255.229C415.097 255.742 434.07 254.966 453.031 256.58C463.492 257.468 462.38 257.994 461.78 248.111C460.893 233.749 459.455 219.424 458.268 205.075C457.943 201.097 457.93 197.131 454.643 194.016C453.618 193.04 453.356 191.138 452.968 189.612C451.869 185.358 450.919 181.067 449.869 176.801C446.257 162.189 445.982 147.126 443.882 132.314C443.519 129.749 443.032 127.197 442.619 124.633C442.244 122.268 440.657 122.643 438.995 122.894C437.157 123.169 436.72 124.145 437.032 125.821C437.732 129.549 438.395 133.29 439.02 137.031C441.132 149.879 441.394 162.902 442.307 175.863C442.582 179.779 445.269 182.944 444.882 186.722C444.044 194.866 446.782 202.66 446.757 210.817C446.732 218.699 447.906 226.73 449.431 234.599C449.994 237.527 449.919 240.579 450.206 243.557C450.456 246.034 449.656 247.11 446.944 247.06C430.558 246.785 414.159 246.572 397.773 246.522C394.499 246.509 393.749 245.208 393.724 242.206C393.599 225.592 392.661 209.103 388.737 192.815C386.837 184.895 386.724 176.564 385.537 168.469C383.375 153.644 379.613 139.082 378.45 124.095C377.875 116.726 377.438 109.332 376.825 101.964C376.5 98.023 374.476 96.9721 370.989 98.5735C368.339 99.787 369.439 102.026 369.576 103.803C371.151 125.133 372.551 146.488 374.626 167.769C375.413 175.775 374.863 184.157 378.825 191.689C379.213 192.427 378.875 193.678 378.613 194.629C378.075 196.63 378.4 198.569 378.588 200.571C380.025 215.296 381.962 229.971 382.687 244.232ZM624.978 198.194C624.315 198.432 623.828 198.081 623.565 197.556C621.915 194.278 620.278 195.304 618.128 197.243C613.529 201.372 611.816 206.789 610.629 212.531C608.004 225.254 608.979 237.965 610.929 250.65C611.604 255.029 611.954 255.304 616.279 255.142C632.027 254.554 647.776 253.79 663.524 253.302C666.761 253.202 667.611 251.989 667.436 249.024C666.824 238.465 666.274 227.906 665.849 217.335C665.749 214.883 664.474 213.294 663.012 211.618C661.374 209.741 664.636 207.402 662.549 205.488C662.274 205.237 662.199 204.775 661.962 204.449C653.513 193.002 646.188 189.036 633.027 190.6C627.102 191.301 627.127 191.413 625.778 197.368C625.715 197.694 625.253 197.919 624.978 198.194ZM291.971 23.4106C291.471 24.6117 291.008 25.1747 291.058 25.6876C291.471 30.279 291.308 34.7701 289.246 39.0362C288.846 39.8744 289.008 41.0005 288.983 42.0013C288.508 59.9913 288.021 77.9812 287.584 95.9712C287.484 100.175 287.546 100.175 292.308 100.463C293.658 100.538 296.108 100.375 295.758 101.789C294.645 106.242 297.87 104.766 299.508 104.729C306.332 104.541 312.856 102.327 319.581 101.488C324.168 100.913 326.893 98.8111 328.642 94.2448C334.079 80.0704 339.991 66.0838 346.816 52.4974C347.341 51.4716 348.178 50.4457 347.253 48.9195C346.428 48.9195 345.453 48.8444 344.478 48.932C336.379 49.595 329.067 47.5683 322.443 42.8394C320.168 41.213 317.693 39.8494 314.981 39.0737C309.282 37.4349 304.457 34.3073 300.02 30.5041C297.445 28.2898 294.945 26.0253 291.971 23.4106ZM226.714 235.3C226.564 235.3 226.414 235.3 226.277 235.3C226.277 230.296 226.327 225.304 226.264 220.3C226.202 215.859 226.014 215.609 221.427 215.646C215.04 215.709 208.628 216.372 202.266 215.634C190.692 214.282 179.143 214.845 167.582 215.458C162.158 215.746 161.883 215.696 162.295 221.301C163.02 231.059 164.22 240.78 164.97 250.538C165.17 253.24 165.907 254.141 168.707 254.541C185.618 256.968 202.604 254.979 219.54 255.579C220.302 255.604 221.115 255.354 221.852 255.092C226.877 253.328 226.827 253.315 226.752 247.886C226.664 243.695 226.714 239.503 226.714 235.3ZM556.259 256.455C561.571 256.83 569.07 255.254 576.645 255.592C579.494 255.717 580.619 254.529 580.357 251.676C579.957 247.51 579.844 243.307 579.419 239.128C578.119 226.368 575.882 213.807 570.658 201.972C568.795 197.744 566.57 193.715 563.108 190.55C559.509 187.26 556.871 187.097 552.972 189.987C547.86 193.79 544.372 198.87 542.135 204.775C540.085 210.179 538.648 215.846 536.323 221.126C531.661 231.71 532.936 242.131 536.148 252.689C536.823 254.916 537.798 255.93 540.223 256.13C544.822 256.555 549.397 256.418 556.259 256.455ZM253.037 252.439C253.037 252.677 253.037 252.915 253.037 253.152C258.611 253.152 264.198 253.027 269.773 253.202C272.685 253.29 273.735 252.214 273.46 249.374C272.972 244.22 272.685 239.041 272.185 233.874C271.498 226.931 270.91 219.975 269.86 213.082C268.623 204.912 265.073 197.894 258.111 193.015C249.6 187.06 239.575 189.699 235.113 199.032C233.913 201.547 233.114 204.212 232.514 206.964C229.464 221.026 231.239 235.162 231.751 249.274C231.851 252.102 233.514 252.439 235.713 252.427C241.475 252.427 247.25 252.439 253.037 252.439ZM708.52 207.202C696.434 207.051 684.785 209.916 673.061 212.256C670.773 212.706 669.911 213.832 670.098 216.459C670.823 226.605 671.161 236.789 671.761 246.96C672.111 252.99 672.236 253.177 677.985 252.677C689.897 251.626 701.796 250.3 713.707 249.199C716.244 248.974 716.957 247.673 717.357 245.408C719.119 235.55 719.794 225.592 719.681 215.609C719.594 207.064 719.244 206.951 710.932 207.214C710.12 207.227 709.32 207.202 708.52 207.202ZM511.988 235.125C511.963 235.125 511.95 235.125 511.925 235.125C511.925 230.121 512.063 225.116 511.901 220.125C511.563 209.679 510.138 199.445 505.689 189.825C503.189 184.433 500.764 183.444 495.277 185.508C492.777 186.459 490.79 188.048 489.065 190.05C484.891 194.916 482.603 200.596 482.166 206.951C481.116 222.589 482.853 238.077 484.703 253.553C485.028 256.255 486.29 257.381 489.015 257.281C495.602 257.043 502.189 256.906 508.763 256.831C511.376 256.806 512.126 255.692 512.038 253.115C511.863 247.122 511.988 241.117 511.988 235.125ZM285.359 230.684C285.684 237.252 285.359 243.857 286.159 250.425C286.459 252.877 287.434 253.916 289.908 253.941C298.095 254.016 306.269 254.141 314.456 254.391C317.056 254.466 317.943 253.453 317.956 250.951C318.006 240.567 318.193 230.171 317.306 219.8C316.006 204.449 304.245 195.604 293.108 192.527C288.771 191.326 288.396 191.563 287.721 196.067C286.021 207.527 284.884 219.049 285.359 230.684ZM362.614 239.091C362.752 230.671 361.264 222.364 360.939 213.982C360.789 209.979 359.777 206.076 358.54 202.285C357.402 198.82 355.502 195.817 352.44 193.628C343.491 187.247 337.367 189.775 335.617 200.508C333.454 213.707 335.529 226.818 336.392 239.954C336.667 244.12 337.529 248.261 338.004 252.414C338.229 254.378 339.116 255.167 341.079 255.179C347.266 255.229 353.465 255.304 359.639 255.542C362.177 255.642 362.652 254.353 362.639 252.264C362.589 247.886 362.614 243.482 362.614 239.091ZM678.885 154.145C679.085 153.444 679.323 153.056 679.285 152.694C677.81 138.569 674.661 124.77 671.111 111.059C670.111 107.193 668.536 106.317 663.899 106.78C658.55 107.318 653.225 108.244 647.875 108.732C644.926 108.995 644.326 110.571 644.288 113.098C644.126 123.282 643.626 133.465 644.851 143.611C645.176 146.363 644.238 149.729 646.088 151.73C648.163 153.995 651.775 152.881 654.687 153.419C655.662 153.594 656.65 153.82 657.637 153.92C664.737 154.645 671.861 155.308 678.885 154.145ZM431.133 119.603C431.57 118.465 431.87 118.102 431.795 117.827C429.833 109.883 427.758 101.964 425.896 93.9946C425.196 91.0046 423.446 91.1672 420.984 91.2798C409.385 91.8177 398.098 94.9203 386.499 95.3332C385.512 95.3707 384.525 95.6209 383.562 95.8586C381.387 96.3966 380.138 97.5475 380.325 100.062C380.888 107.506 381.312 114.962 381.812 122.794C382.637 122.131 383.087 121.955 383.2 121.643C386.387 113.173 392.999 110.746 401.348 111.209C404.735 111.397 408.16 111.522 411.522 111.247C419.409 110.609 426.871 110.759 431.133 119.603ZM184.856 182.093C186.618 182.181 187.805 182.281 188.993 182.306C193.53 182.406 193.63 182.368 193.03 177.602C192.18 170.896 191.205 164.191 190.267 157.498C189.33 150.792 188.368 144.099 187.418 137.393C187.218 135.98 187.055 134.679 185.093 134.579C176.794 134.191 171.344 138.907 171.732 146.701C172.232 156.835 173.094 166.956 173.707 177.089C173.844 179.466 174.956 180.592 177.144 181.28C179.868 182.131 182.668 181.768 184.856 182.093ZM474.041 137.631C474.041 144.274 473.967 150.629 474.066 156.997C474.142 162.026 474.416 162.339 479.453 162.652C485.603 163.027 491.765 163.19 497.752 164.866C500.427 165.617 500.814 164.015 500.752 161.951C500.439 152.181 499.227 142.548 496.802 133.052C496.089 130.262 495.015 130.025 492.665 131.226C486.965 134.116 480.978 136.23 474.041 137.631ZM344.416 165.867C343.928 160.1 343.566 154.332 342.916 148.578C342.304 143.148 341.466 142.46 336.142 142.585C332.555 142.673 328.992 143.223 325.405 143.298C322.593 143.361 321.593 144.161 322.055 147.251C323.393 155.971 325.805 164.366 328.492 172.723C329.192 174.887 330.405 175.55 332.467 175.312C333.454 175.2 334.454 175.237 335.454 175.212C344.591 175 344.591 175 344.416 165.867ZM545.922 157.335C548.297 157.335 550.684 157.385 553.059 157.322C554.784 157.272 555.534 156.409 555.147 154.608C553.472 146.826 552.759 138.895 551.684 131.025C551.197 127.435 550.785 127.21 546.91 127.873C543.198 128.523 539.56 129.574 535.848 130.187C532.924 130.675 532.374 132.339 532.811 134.866C533.561 139.17 534.186 143.498 534.998 147.789C537.011 158.373 534.973 156.81 545.922 157.335ZM294.545 146C289.933 146.801 286.871 149.141 283.459 150.692C280.984 151.818 277.097 150.792 276.085 153.394C275.047 156.059 277.297 159.061 278.209 161.864C282.484 174.912 279.359 173.549 294.608 175.375C294.995 175.425 295.383 175.575 295.783 175.6C297.758 175.738 298.87 174.9 298.595 172.823C297.42 163.978 296.995 155.02 294.545 146ZM253.074 163.052C251.862 156.985 250.65 150.917 249.425 144.85C249.012 142.823 247.975 142.26 245.975 143.086C243.4 144.149 240.725 144.987 238.088 145.925C227.502 149.691 227.564 149.679 230.639 160.688C231.326 163.152 232.451 164.391 235.163 164.391C239.963 164.391 244.725 164.979 249.412 166.042C251.962 166.618 253.337 165.992 253.074 163.052ZM572.045 131.926C572.145 131.926 572.232 131.926 572.332 131.926C572.332 133.915 572.157 135.917 572.382 137.881C572.62 140.045 573.12 142.185 573.657 144.299C575.47 151.417 576.632 152.218 583.869 152.431C586.556 152.506 587.406 151.68 586.919 148.978C585.594 141.747 584.444 134.491 583.206 127.247C582.494 123.069 582.469 123.069 578.319 123.206C572.032 123.419 571.783 123.707 572.058 130.125C572.07 130.725 572.045 131.326 572.045 131.926ZM460.368 113.611C456.356 105.867 451.319 99.3741 448.606 91.6426C448.019 89.9662 446.806 90.2916 445.769 90.9171C444.294 91.8178 441.382 91.1046 441.782 94.2573C442.557 100.362 443.294 106.467 444.132 112.56C444.432 114.762 445.419 116.138 448.044 115.913C451.981 115.588 455.881 115.25 460.368 113.611ZM435.845 118.302C441.157 116.714 441.145 116.714 440.482 112.035C440.345 111.046 440.307 110.046 440.157 109.07C439.37 103.965 438.557 98.8612 437.757 93.757C437.307 90.9046 435.395 90.4041 432.933 90.7294C431.27 90.9421 429.695 91.1422 430.058 93.4942C431.37 101.914 432.92 110.271 435.845 118.302Z" fill="#999999"/>
<path fill-rule="evenodd" clip-rule="evenodd" d="M14.5949 296.676C14.0574 290.546 14.8074 284.329 12.6951 278.273C11.9202 276.072 13.1576 273.232 13.1576 270.68C13.1451 255.079 13.0951 239.478 12.9076 223.878C12.8701 220.3 12.2576 216.722 11.8702 213.144C11.5827 210.579 10.2703 209.516 7.53309 209.366C4.95833 209.216 1.18362 210.642 0.133714 207.289C-0.753705 204.424 3.00851 203.398 4.57087 201.459C9.24544 195.667 12.9326 189.262 16.4697 182.781C27.1313 163.302 35.743 142.885 44.1922 122.393C44.5671 121.468 44.8046 120.479 45.2296 119.591C47.1169 115.6 49.5542 115.212 52.429 118.578C54.2413 120.704 55.9536 122.944 57.416 125.321C59.4783 128.674 62.6156 130.275 66.2027 130.925C74.8269 132.514 83.3137 132.577 91.0505 127.473C93.3752 125.934 95.775 124.483 98.0498 122.856C103.299 119.116 105.024 119.666 106.287 126.146C107.699 133.39 108.824 140.709 109.986 148.002C112.161 161.639 115.498 175 119.01 188.323C120.273 193.102 120.373 193.152 115.673 194.591C104.399 198.019 92.9502 200.734 81.3888 202.973C75.7143 204.074 76.1393 204.174 76.1143 210.016C76.0393 231.534 80.7764 252.477 83.2011 273.695C84.0511 281.163 83.8386 288.757 85.3634 296.188C83.926 297.414 82.2387 296.739 80.6514 296.776C79.8515 292.26 79.5015 287.606 76.9017 283.152C76.9017 287.869 76.9017 292.035 76.9017 296.213C74.102 297.502 72.4146 297.152 72.2646 293.524C72.1271 290.158 71.6522 286.806 71.2272 283.453C71.0522 282.077 70.7523 280.5 68.8274 280.7C66.8026 280.913 67.1026 282.627 67.2151 283.928C67.5151 287.494 68.0025 291.034 68.3275 294.6C68.415 295.588 68.265 296.601 66.9401 296.789C65.6402 296.976 64.4653 296.676 64.0279 295.375C63.6654 294.262 63.6404 293.036 63.5029 291.86C63.153 289.095 62.803 286.343 62.4905 283.578C62.3405 282.264 61.9406 281.163 60.4032 281.288C58.7159 281.426 58.7284 282.74 58.9409 283.953C59.4283 286.893 60.0658 289.808 60.5032 292.761C61.0657 296.589 60.8282 296.751 56.3411 296.163C56.6036 292.698 55.4037 289.445 54.7913 286.117C53.7664 280.513 53.6913 280.513 48.2043 280.325C47.6419 280.313 47.067 280.538 46.5795 280.638C45.3921 285.93 46.442 291.084 46.8045 296.238C44.7922 297.277 42.4549 297.602 42.2299 294.812C41.83 289.758 39.7926 284.754 41.68 279.6C36.8929 279.287 36.7304 279.312 37.3428 283.19C38.0303 287.556 38.3927 291.922 38.4302 296.326C35.468 297.677 33.8556 296.864 33.8056 293.474C33.7556 289.458 33.0682 285.554 31.7683 281.764C31.4058 280.713 31.3309 279.237 29.6436 279.437C28.0687 279.625 27.9312 280.938 27.9687 282.127C28.0687 285.705 28.2936 289.283 28.4186 292.861C28.4686 294.562 29.1061 296.651 26.3188 296.876C23.4816 297.102 23.9191 295.025 23.7691 293.273C23.4816 289.908 23.1066 286.543 22.7066 283.177C22.5192 281.589 22.3317 279.775 20.0569 280.1C18.1946 280.363 18.3945 281.989 18.332 283.378C18.0946 287.931 18.932 292.535 17.8071 297.052C16.7072 296.927 15.6573 296.801 14.5949 296.676ZM43.6547 233.448C42.8798 242.494 44.1297 252.389 45.4546 262.273C45.9295 265.813 46.9795 269.278 47.6669 272.806C48.0044 274.533 48.6543 275.821 50.5416 276.147C54.2788 276.797 58.0534 277.66 61.7656 276.334C63.5279 275.696 64.9528 275.496 66.8651 276.047C74.2644 278.161 77.9391 274.896 77.0017 267.464C75.5018 255.592 73.852 243.72 72.6896 231.81C72.0147 224.866 72.2147 217.836 71.9022 210.855C71.6147 204.662 70.7523 203.999 64.5529 205.15C57.8785 206.388 51.4166 208.403 44.9422 210.442C42.5424 211.192 41.7299 212.193 41.9674 214.57C42.5549 220.525 43.0298 226.493 43.6547 233.448ZM42.4424 274.47C41.5175 264.912 39.7426 255.917 39.1176 246.772C38.6052 239.178 38.6802 231.585 38.1802 224.016C37.3178 210.867 37.2179 210.867 24.494 208.853C23.5066 208.703 22.5067 208.64 21.5193 208.503C18.982 208.152 17.6071 208.991 18.2571 211.78C19.8694 218.686 19.2195 225.705 19.232 232.685C19.257 245.083 19.0945 257.481 19.132 269.879C19.1445 274.921 19.782 275.571 24.544 275.559C30.331 275.534 36.1305 275.621 42.4424 274.47Z" fill="#999999"/>
<path fill-rule="evenodd" clip-rule="evenodd" d="M786.986 297.19C785.824 297.139 784.661 297.089 783.499 297.039C782.074 290.384 782.486 283.566 781.686 276.86C781.499 275.259 782.099 272.907 779.699 272.444C777.337 271.993 774.887 272.431 772.737 273.532C771.437 274.195 772.137 275.646 772.162 276.785C772.35 283.541 773.037 290.284 772.512 297.052C770.95 296.939 769.238 297.189 768.225 295.526C769.013 290.321 768.738 285.129 767.625 280.038C766.763 276.059 766.75 272.144 767.213 268.14C767.963 261.56 767.8 254.954 767.538 248.361C767.275 241.743 767.65 235.188 768.438 228.607C768.888 224.892 769.738 221.114 767.813 217.448C766.988 215.884 767.963 214.37 768.638 212.907C771.05 207.627 772.787 202.11 774.35 196.518C775.912 190.926 777.862 185.484 780.324 180.229C783.811 172.773 785.949 164.867 787.961 156.923C788.861 153.395 788.598 149.766 788.486 146.163C788.423 144.399 788.898 142.936 790.736 142.435C792.873 141.847 794.285 143.023 794.96 144.85C797.11 150.655 799.56 156.397 801.06 162.377C802.46 167.982 805.234 171.31 810.809 173.199C822.895 177.302 823.583 177.352 831.244 167.118C833.382 164.253 835.882 161.601 836.981 158.048C837.581 156.109 839.169 155.058 841.044 154.996C843.468 154.921 843.618 157.21 844.081 158.824C846.243 166.305 848.993 173.611 850.405 181.305C852.205 191.088 855.017 200.409 863.629 206.664C864.916 207.602 865.479 208.903 864.841 210.317C864.316 211.468 863.066 211.831 861.779 211.768C860.979 211.731 860.179 211.743 859.379 211.656C856.342 211.293 855.58 212.844 855.78 215.584C856.717 228.345 857.454 241.118 858.517 253.866C859.067 260.421 859.579 267.014 861.429 273.395C861.592 273.97 861.904 274.758 861.667 275.146C857.692 281.551 860.917 288.307 860.617 294.887C860.579 295.676 860.342 296.451 860.192 297.239C858.929 297.089 857.779 296.652 856.767 295.876C856.767 289.933 855.98 284.091 854.93 278.261C849.905 279.049 849.905 279.049 846.943 277.16C846.943 283.653 846.943 289.883 846.943 296.114C845.381 297.302 843.831 297.215 842.293 296.051C842.293 290.922 842.293 285.792 842.293 280.738C841.106 279.575 840.569 280.951 839.769 281.201C836.944 282.102 836.257 280.551 836.244 278.161C836.244 277.223 836.419 276.072 835.119 275.784C833.757 275.471 832.969 276.247 832.294 277.373C831.019 279.487 830.644 281.589 831.019 284.129C831.644 288.407 833.232 292.598 832.494 297.027C828.057 297.878 827.932 294.462 827.507 291.31C825.845 293.174 828.207 297.327 824.32 296.702C821.445 296.239 822.833 293.161 822.845 291.184C822.883 286.756 821.97 282.502 820.845 278.261C820.283 276.134 818.958 275.384 816.858 275.671C814.633 275.972 814.584 277.623 814.683 279.225C814.971 283.791 815.408 288.345 815.671 292.911C815.896 296.739 815.821 296.752 811.409 296.639C810.946 290.672 810.509 284.704 809.996 278.737C809.871 277.235 810.421 275.296 808.484 274.583C806.397 273.82 804.109 273.87 801.985 274.32C801.022 274.521 801.072 275.947 801.172 276.96C801.485 280.138 801.947 283.303 802.11 286.493C802.285 289.871 802.172 293.274 802.185 296.664C800.81 296.727 799.422 296.789 798.047 296.864C797.81 290.534 797.81 284.204 796.748 277.923C796.085 274.008 791.961 271.468 788.286 272.882C786.811 273.445 787.024 274.758 787.011 275.859C786.986 281.001 787.023 286.143 787.061 291.297C787.073 293.261 787.648 295.238 786.986 297.19ZM836.831 244.608C836.831 240.229 837.006 235.838 836.794 231.46C836.519 225.892 836.082 220.325 834.832 214.858C834.269 212.419 833.094 211.405 830.632 212.356C830.07 212.569 829.507 212.844 828.932 212.894C825.882 213.169 824.757 214.433 825.807 217.636C827.382 222.39 827.732 227.381 828.032 232.373C828.77 244.508 829.92 256.618 831.532 268.666C831.782 270.517 831.982 272.381 834.569 272.144C836.919 271.918 836.506 270.029 836.669 268.528C837.494 260.559 837.156 252.577 836.831 244.608ZM816.658 242.556C817.058 242.556 817.458 242.556 817.846 242.556C817.846 250.926 817.833 259.295 817.858 267.652C817.858 269.241 817.771 271.055 819.77 271.556C822.058 272.119 824.433 272.769 826.77 271.893C827.507 271.618 827.507 270.542 827.457 269.742C827.357 268.153 827.295 266.551 827.057 264.988C826.107 258.895 824.97 252.84 824.882 246.622C824.807 241.243 824.295 235.876 824.108 230.509C823.933 225.642 822.458 221.151 820.545 216.76C820.095 215.734 819.433 214.508 817.896 215.008C816.746 215.384 816.633 216.435 816.608 217.448C816.596 218.249 816.646 219.037 816.646 219.837C816.658 227.406 816.658 234.975 816.658 242.556ZM792.336 219.787C784.636 218.074 785.386 220.1 784.924 224.716C783.899 235.013 782.961 245.334 783.061 255.692C783.086 258.47 783.249 261.272 783.624 264.037C784.074 267.34 786.486 268.878 790.136 268.365C793.598 267.89 791.886 265.238 791.711 263.687C790.598 254.341 790.748 245.021 791.561 235.676C792.011 230.371 792.098 225.042 792.336 219.787ZM806.259 244.233C806.197 244.233 806.134 244.233 806.072 244.233C806.072 250.601 805.972 256.981 806.134 263.349C806.184 265.375 804.872 268.353 807.234 269.291C809.821 270.317 810.509 266.439 812.809 265.626C814.071 265.175 813.559 263.111 813.546 261.772C813.459 250.826 813.383 239.867 813.146 228.92C813.084 225.955 812.546 222.99 812.046 220.05C811.796 218.536 811.509 216.697 809.259 216.923C807.247 217.123 806.822 218.737 806.609 220.363C806.422 221.739 806.284 223.14 806.272 224.529C806.247 231.097 806.259 237.665 806.259 244.233ZM847.88 271.806C846.243 263.837 845.581 256.343 845.718 248.762C845.831 242.181 845.731 235.576 845.506 228.995C845.306 223.415 845.081 217.823 843.993 212.331C843.731 210.993 843.231 209.579 841.219 210.092C839.531 210.517 838.131 211.03 838.631 213.219C838.769 213.795 838.781 214.408 838.881 214.996C840.144 222.89 840.906 230.822 840.919 238.816C840.931 247.798 840.893 256.793 840.968 265.776C840.993 271.13 841.068 271.13 847.88 271.806ZM780.237 230.771C780.237 227.782 780.149 224.792 780.262 221.802C780.337 219.725 779.337 219.099 777.449 218.837C774.062 218.374 774.212 220.676 773.812 222.89C771.275 236.714 773.387 250.776 771.612 264.625C771.312 266.927 772.062 268.478 774.862 268.328C777.237 268.203 779.224 268.165 778.949 264.813C778.037 253.441 779.137 242.106 780.237 230.771ZM801.535 268.315C801.222 258.007 801.21 248.061 801.497 238.115C801.66 232.535 801.56 226.956 801.547 221.376C801.547 220.188 801.61 218.824 799.985 218.661C798.36 218.499 797.385 219.437 797.01 220.976C796.873 221.551 796.86 222.164 796.798 222.752C795.36 236.251 794.923 249.75 796.223 263.299C796.523 266.376 797.623 268.14 801.535 268.315ZM849.343 209.979C848.493 210.605 848.518 211.505 848.705 212.469C849.53 216.822 849.343 221.239 849.468 225.63C849.78 237.027 850.08 248.424 850.48 259.821C850.63 264.174 851.38 268.441 853.805 273.732C854.067 269.516 855.155 266.914 854.88 263.874C853.38 246.948 852.118 229.996 850.768 213.057C850.68 211.981 851.043 210.68 849.343 209.979Z" fill="#999999"/>
<path fill-rule="evenodd" clip-rule="evenodd" d="M469.653 112.785C471.941 109.958 475.565 109.495 476.028 106.43C476.503 103.24 473.065 101.939 471.816 99.5116C471.466 98.8361 471.316 98.0479 471.016 97.1722C484.677 94.2072 498.113 91.3048 511.537 88.3648C517.961 86.9511 524.373 85.4499 530.798 83.9987C535.672 82.8978 536.31 82.022 535.585 76.9929C534.522 69.6742 535.122 62.218 533.785 54.9244C533.648 54.1988 533.997 53.3981 534.16 52.3347C538.822 53.273 543.297 54.1238 547.734 55.0996C554.77 56.6384 561.607 56.1378 568.294 53.4356C571.069 52.3097 573.819 51.1212 576.643 50.1453C593.579 44.2905 609.503 36.7091 622.702 24.1987C624.314 22.6849 626.126 19.8826 628.514 20.946C630.863 21.9969 629.926 25.2496 630.401 27.5265C631.014 30.4415 631.013 32.7558 627.064 33.7317C624.464 34.3697 624.277 37.61 626.839 38.6859C630.976 40.4248 630.751 43.4773 630.789 46.9052C630.901 58.102 631.626 69.2613 633.226 80.3581C633.551 82.5849 634.488 85.3499 630.751 85.9379C629.726 86.1005 628.764 86.7009 628.614 87.7643C628.401 89.2906 629.801 89.6034 630.838 90.1664C631.776 90.6793 633.376 90.404 633.388 92.4557C633.401 92.6059 633.176 92.8811 632.688 92.9562C607.678 97.0346 583.318 104.278 558.27 108.194C555.508 108.619 552.733 109.007 549.946 109.145C535.785 109.858 521.961 113.661 507.712 113.561C502.525 113.523 497.363 113.661 492.189 112.835C487.264 112.047 482.24 112.222 477.265 112.973C474.953 113.323 472.628 113.673 469.653 112.785Z" fill="#4D4D4D"/>
<path fill-rule="evenodd" clip-rule="evenodd" d="M322.692 105.705C320.829 112.898 320.492 113.261 314.067 113.761C294.557 115.288 275.183 118.428 255.585 118.791C250.598 118.878 245.586 118.828 240.624 118.403C224.113 117.014 207.502 117.252 191.016 115.15C182.342 114.037 173.43 115.05 164.719 113.636C157.894 112.535 150.682 113.636 144.246 110.208C139.921 112.235 135.609 110.496 131.384 109.896C120.923 108.419 110.374 107.456 100.225 104.141C96.4874 102.927 94.7875 101.238 94.4251 97.0975C93.3377 84.7497 92.1378 72.4269 91.6504 60.029C91.2879 50.7838 92.5503 41.6888 93.6127 32.5562C93.6502 32.2559 94.1251 32.0182 94.4251 31.7179C96.1749 31.4052 96.7624 32.969 97.6373 33.9198C100.912 37.4227 104.037 41.0632 107.311 44.5787C120.523 58.7405 136.771 63.6946 155.682 60.3794C158.632 59.8664 161.569 59.2535 164.481 58.5779C167.206 57.9524 168.156 58.9657 167.818 61.6555C166.606 71.4136 166.718 81.1967 167.031 91.0049C167.243 97.4978 167.193 97.7606 173.48 98.6863C181.18 99.8123 188.854 101.176 196.653 101.639C200.215 101.851 203.765 102.64 207.252 103.465C218.951 106.255 230.888 107.406 242.799 108.482C253.373 109.433 263.909 107.594 274.459 106.806C278.171 106.53 281.533 106.143 285.345 108.119C288.832 109.921 293.444 110.121 297.669 109.358C303.956 108.219 310.23 107.043 316.492 105.817C318.442 105.442 320.354 104.741 322.692 105.705Z" fill="#4D4D4D"/>
<path fill-rule="evenodd" clip-rule="evenodd" d="M175.854 37.9854C179.916 41.2256 183.304 43.9654 186.741 46.6552C197.315 54.9621 209.426 59.1156 222.775 59.3282C238.986 59.591 255.034 57.4141 271.083 55.4125C274.258 55.0121 277.407 54.5492 280.582 54.2364C284.207 53.8736 285.332 54.6367 285.432 58.3148C285.569 63.3065 285.444 68.3231 285.069 73.2898C284.469 81.2714 284.207 89.2531 284.232 97.2473C284.232 100.237 283.144 101.401 280.095 101.714C261.984 103.59 243.998 104.153 225.75 102.189C211.588 100.663 197.915 96.9971 183.903 95.058C180.741 94.6201 177.592 94.1697 174.429 93.7694C171.642 93.4191 170.167 92.0556 170.18 89.0656C170.192 78.7069 169.217 68.3232 171.742 58.0521C173.067 52.6601 172.067 46.8428 174.467 41.6009C174.879 40.6876 175.179 39.7493 175.854 37.9854Z" fill="#4D4D4D"/>
<path fill-rule="evenodd" clip-rule="evenodd" d="M720.793 10.6626C722.968 25.8127 726.743 40.7502 726.668 56.2256C726.63 63.6193 726.93 70.9879 728.017 78.3315C729.43 87.8144 728.543 88.9779 719.368 91.8303C712.532 93.9571 705.47 93.7444 698.57 92.7435C682.384 90.4166 666.136 88.7402 649.875 87.0888C647.9 86.8886 645.963 86.3007 643.988 86.063C637.363 85.2748 637.126 85.3373 636.288 79.0946C634.751 67.61 633.801 56.0505 633.514 44.4658C633.376 39.0237 633.626 38.8485 638.713 38.9361C653.687 39.2113 668.598 37.2723 683.597 37.7727C689.971 37.9854 695.683 35.7961 700.695 31.6551C705.97 27.3015 710.782 22.585 714.606 16.8802C716.131 14.6033 717.743 12.4015 719.318 10.1621C719.818 10.3498 720.306 10.4999 720.793 10.6626Z" fill="#4D4D4D"/>
<path fill-rule="evenodd" clip-rule="evenodd" d="M443.13 48.7943C450.542 44.8535 457.704 46.1546 464.528 45.2664C486.651 42.4015 506.437 35.3081 520.01 16.1671C521.135 14.5783 522.085 12.7266 523.96 11.8384C525.76 12.1511 525.297 13.6274 525.447 14.6783C526.56 22.7975 528.297 30.8918 528.56 39.0486C528.947 51.0086 531.997 62.7058 531.584 74.7158C531.409 79.8326 531.534 79.9453 526.522 81.0212C509.549 84.6492 492.8 89.3781 475.502 91.4548C474.515 91.5799 473.515 91.6801 472.54 91.8678C469.34 92.4933 467.103 91.655 466.24 88.1646C465.865 86.6258 464.978 85.2247 464.44 83.7234C461.116 74.4032 456.241 65.9711 450.167 58.1896C447.854 55.2371 445.655 52.1846 443.13 48.7943Z" fill="#4D4D4D"/>
<path fill-rule="evenodd" clip-rule="evenodd" d="M382.686 244.232C381.949 229.97 380.024 215.296 378.586 200.571C378.386 198.569 378.061 196.63 378.611 194.628C378.874 193.69 379.211 192.439 378.824 191.688C374.862 184.157 375.412 175.775 374.624 167.768C372.537 146.488 371.15 125.133 369.575 103.803C369.45 102.026 368.337 99.7867 370.987 98.5732C374.474 96.9719 376.499 98.0227 376.824 101.964C377.436 109.332 377.886 116.713 378.449 124.095C379.611 139.082 383.373 153.644 385.536 168.469C386.723 176.576 386.836 184.908 388.735 192.814C392.66 209.103 393.598 225.592 393.723 242.205C393.747 245.195 394.497 246.509 397.772 246.522C414.158 246.572 430.557 246.784 446.943 247.06C449.655 247.11 450.455 246.034 450.205 243.557C449.905 240.567 449.992 237.527 449.43 234.599C447.917 226.73 446.743 218.698 446.755 210.817C446.78 202.673 444.043 194.879 444.88 186.722C445.268 182.944 442.581 179.791 442.306 175.863C441.393 162.914 441.131 149.891 439.018 137.03C438.406 133.29 437.731 129.549 437.031 125.821C436.719 124.145 437.156 123.169 438.993 122.893C440.668 122.643 442.243 122.268 442.618 124.632C443.03 127.197 443.518 129.749 443.88 132.314C445.98 147.126 446.255 162.189 449.867 176.801C450.917 181.067 451.88 185.358 452.967 189.612C453.367 191.138 453.617 193.039 454.642 194.015C457.929 197.13 457.942 201.096 458.267 205.075C459.454 219.424 460.891 233.749 461.779 248.111C462.391 257.994 463.491 257.468 453.029 256.58C434.069 254.966 415.096 255.742 396.135 255.229C392.973 255.141 389.785 255.742 386.611 256.13C383.848 256.467 382.461 255.579 382.649 252.564C382.824 249.975 382.686 247.36 382.686 244.232Z" fill="white"/>
<path fill-rule="evenodd" clip-rule="evenodd" d="M624.976 198.194C625.251 197.931 625.714 197.694 625.789 197.381C627.126 191.426 627.113 191.313 633.038 190.613C646.187 189.049 653.511 193.002 661.973 204.462C662.21 204.775 662.285 205.237 662.56 205.5C664.647 207.414 661.385 209.754 663.023 211.63C664.472 213.307 665.76 214.895 665.86 217.347C666.285 227.919 666.835 238.478 667.447 249.036C667.622 252.001 666.772 253.215 663.535 253.315C647.786 253.79 632.038 254.553 616.289 255.154C611.965 255.317 611.615 255.041 610.94 250.663C608.99 237.977 608.015 225.279 610.64 212.543C611.827 206.801 613.54 201.384 618.139 197.256C620.289 195.317 621.926 194.303 623.576 197.569C623.826 198.081 624.301 198.432 624.976 198.194Z" fill="white"/>
<path fill-rule="evenodd" clip-rule="evenodd" d="M291.969 23.4106C294.944 26.0378 297.444 28.3023 300.019 30.4916C304.456 34.2948 309.28 37.4223 314.98 39.0612C317.692 39.8369 320.167 41.2005 322.442 42.8269C329.066 47.5683 336.378 49.595 344.477 48.9195C345.439 48.8444 346.427 48.9069 347.252 48.9069C348.177 50.4332 347.327 51.459 346.814 52.4849C339.99 66.0712 334.078 80.0581 328.641 94.2324C326.879 98.8112 324.167 100.913 319.579 101.476C312.843 102.314 306.318 104.528 299.506 104.716C297.881 104.766 294.644 106.23 295.757 101.776C296.107 100.362 293.657 100.538 292.307 100.45C287.545 100.162 287.47 100.162 287.582 95.9587C288.02 77.9687 288.507 59.9788 288.982 41.9888C289.007 40.9879 288.845 39.862 289.245 39.0238C291.319 34.7452 291.469 30.2664 291.057 25.6751C291.007 25.1622 291.469 24.5991 291.969 23.4106Z" fill="#4D4D4D"/>
<path fill-rule="evenodd" clip-rule="evenodd" d="M226.713 235.3C226.713 239.491 226.663 243.695 226.725 247.886C226.813 253.315 226.85 253.328 221.826 255.092C221.088 255.355 220.276 255.605 219.514 255.58C202.578 254.979 185.604 256.968 168.681 254.541C165.881 254.141 165.144 253.228 164.944 250.538C164.206 240.78 162.994 231.059 162.269 221.301C161.856 215.696 162.131 215.759 167.556 215.459C179.117 214.846 190.666 214.283 202.24 215.634C208.602 216.372 215.014 215.709 221.401 215.646C225.988 215.609 226.175 215.859 226.238 220.3C226.313 225.304 226.25 230.296 226.25 235.3C226.413 235.3 226.563 235.3 226.713 235.3Z" fill="white"/>
<path fill-rule="evenodd" clip-rule="evenodd" d="M440.544 77.243C435.632 77.6683 435.632 77.6684 435.856 81.7218C436.069 85.525 436.082 85.675 432.069 85.8502C425.083 86.1629 418.096 85.9879 411.134 87.0262C402.072 88.3648 392.923 89.1905 383.899 90.7418C381.487 91.1546 379.662 88.5649 377.849 89.9286C376.225 91.1546 374.787 92.3806 372.737 92.7184C370.587 93.0812 368.45 93.419 366.275 92.8685C366.263 90.5666 367.538 88.9278 368.438 87.1889C373.475 77.4057 377.549 67.1971 381.887 57.1012C383.736 52.7976 384.486 48.2438 384.599 43.665C384.736 37.8852 386.174 32.6058 389.423 27.8518C390.798 25.8501 391.173 23.4356 392.423 20.9961C394.623 22.072 395.523 24.0986 396.673 25.7875C403.172 35.3956 409.696 44.9785 416.021 54.6991C419.358 59.8409 423.408 64.107 428.707 67.1845C433.257 69.8242 437.106 73.2521 440.394 77.3555L440.544 77.243Z" fill="#4D4D4D"/>
<path fill-rule="evenodd" clip-rule="evenodd" d="M556.258 256.455C549.396 256.418 544.821 256.555 540.222 256.155C537.797 255.942 536.822 254.942 536.147 252.715C532.935 242.156 531.66 231.735 536.322 221.151C538.647 215.871 540.084 210.217 542.134 204.8C544.371 198.895 547.859 193.816 552.971 190.012C556.87 187.122 559.508 187.285 563.107 190.575C566.569 193.74 568.794 197.769 570.657 201.997C575.869 213.832 578.118 226.393 579.418 239.153C579.843 243.319 579.956 247.523 580.356 251.701C580.631 254.554 579.493 255.742 576.643 255.617C569.069 255.254 561.57 256.831 556.258 256.455Z" fill="white"/>
<path fill-rule="evenodd" clip-rule="evenodd" d="M253.035 252.439C247.261 252.439 241.474 252.427 235.699 252.452C233.5 252.464 231.85 252.126 231.737 249.299C231.237 235.175 229.45 221.05 232.5 206.989C233.1 204.236 233.887 201.584 235.1 199.057C239.574 189.712 249.586 187.072 258.097 193.04C265.059 197.906 268.609 204.937 269.846 213.106C270.896 220 271.484 226.955 272.171 233.899C272.684 239.053 272.971 244.232 273.446 249.399C273.709 252.227 272.671 253.315 269.759 253.227C264.184 253.052 258.598 253.177 253.023 253.177C253.036 252.915 253.035 252.677 253.035 252.439Z" fill="white"/>
<path fill-rule="evenodd" clip-rule="evenodd" d="M708.52 207.202C709.32 207.202 710.12 207.227 710.92 207.202C719.232 206.939 719.582 207.064 719.669 215.596C719.782 225.58 719.107 235.538 717.344 245.396C716.944 247.661 716.232 248.962 713.695 249.187C701.783 250.275 689.897 251.614 677.973 252.665C672.223 253.165 672.111 252.99 671.748 246.947C671.148 236.789 670.824 226.605 670.086 216.447C669.899 213.832 670.774 212.706 673.048 212.244C684.797 209.917 696.446 207.052 708.52 207.202Z" fill="white"/>
<path fill-rule="evenodd" clip-rule="evenodd" d="M511.987 235.125C511.987 241.13 511.849 247.135 512.049 253.127C512.137 255.704 511.387 256.818 508.774 256.843C502.188 256.918 495.601 257.056 489.026 257.293C486.301 257.393 485.027 256.255 484.714 253.565C482.864 238.077 481.127 222.589 482.177 206.964C482.602 200.608 484.889 194.929 489.076 190.062C490.801 188.06 492.776 186.472 495.288 185.521C500.775 183.457 503.212 184.445 505.7 189.837C510.149 199.445 511.574 209.691 511.912 220.137C512.074 225.129 511.937 230.133 511.937 235.137C511.949 235.125 511.962 235.125 511.987 235.125Z" fill="white"/>
<path fill-rule="evenodd" clip-rule="evenodd" d="M285.358 230.683C284.883 219.061 286.02 207.539 287.72 196.067C288.382 191.563 288.77 191.326 293.107 192.527C304.243 195.604 315.992 204.449 317.305 219.799C318.192 230.171 318.005 240.554 317.955 250.95C317.942 253.452 317.055 254.478 314.455 254.391C306.281 254.14 298.094 254.015 289.907 253.94C287.432 253.915 286.457 252.889 286.157 250.425C285.357 243.844 285.683 237.251 285.358 230.683Z" fill="white"/>
<path fill-rule="evenodd" clip-rule="evenodd" d="M362.613 239.091C362.613 243.482 362.576 247.873 362.626 252.264C362.651 254.354 362.163 255.63 359.626 255.542C353.439 255.304 347.252 255.229 341.065 255.179C339.103 255.167 338.215 254.379 337.99 252.415C337.528 248.249 336.653 244.12 336.378 239.954C335.516 226.831 333.441 213.72 335.603 200.509C337.353 189.775 343.477 187.248 352.427 193.628C355.489 195.817 357.389 198.82 358.526 202.285C359.776 206.076 360.776 209.979 360.926 213.983C361.263 222.377 362.751 230.684 362.613 239.091Z" fill="white"/>
<path fill-rule="evenodd" clip-rule="evenodd" d="M678.885 154.145C671.86 155.321 664.736 154.645 657.624 153.907C656.637 153.807 655.662 153.595 654.675 153.407C651.762 152.869 648.163 153.982 646.075 151.718C644.225 149.716 645.175 146.351 644.838 143.599C643.613 133.453 644.113 123.269 644.275 113.086C644.313 110.559 644.913 108.982 647.863 108.72C653.212 108.244 658.537 107.306 663.886 106.768C668.523 106.305 670.098 107.181 671.098 111.047C674.648 124.758 677.797 138.557 679.272 152.681C679.31 153.057 679.085 153.432 678.885 154.145Z" fill="white"/>
<path fill-rule="evenodd" clip-rule="evenodd" d="M431.133 119.604C426.871 110.771 419.396 110.609 411.522 111.259C408.148 111.535 404.723 111.409 401.348 111.222C392.999 110.771 386.399 113.186 383.2 121.655C383.087 121.956 382.637 122.143 381.812 122.806C381.312 114.975 380.888 107.519 380.325 100.075C380.138 97.5603 381.387 96.4094 383.562 95.8715C384.525 95.6338 385.512 95.3835 386.499 95.346C398.098 94.9206 409.385 91.8305 420.984 91.2926C423.446 91.18 425.196 91.0174 425.896 94.0074C427.771 101.977 429.845 109.896 431.795 117.84C431.87 118.103 431.583 118.465 431.133 119.604Z" fill="white"/>
<path fill-rule="evenodd" clip-rule="evenodd" d="M184.855 182.093C182.667 181.768 179.868 182.143 177.13 181.28C174.943 180.592 173.831 179.466 173.693 177.089C173.093 166.956 172.218 156.835 171.718 146.701C171.343 138.907 176.78 134.191 185.08 134.579C187.042 134.666 187.205 135.98 187.405 137.394C188.354 144.099 189.317 150.792 190.254 157.498C191.192 164.204 192.167 170.897 193.017 177.602C193.616 182.369 193.516 182.394 188.979 182.306C187.804 182.281 186.617 182.181 184.855 182.093Z" fill="white"/>
<path fill-rule="evenodd" clip-rule="evenodd" d="M474.041 137.631C480.99 136.23 486.977 134.116 492.651 131.213C495.001 130.012 496.076 130.25 496.789 133.04C499.213 142.535 500.413 152.168 500.738 161.939C500.801 164.003 500.413 165.605 497.738 164.854C491.751 163.177 485.59 163.002 479.44 162.64C474.403 162.339 474.128 162.014 474.053 156.985C473.966 150.629 474.041 144.274 474.041 137.631Z" fill="white"/>
<path fill-rule="evenodd" clip-rule="evenodd" d="M344.415 165.867C344.59 175 344.59 175 335.466 175.212C334.466 175.237 333.466 175.2 332.479 175.312C330.404 175.55 329.192 174.9 328.504 172.723C325.817 164.366 323.405 155.959 322.067 147.251C321.592 144.174 322.592 143.361 325.417 143.298C329.004 143.223 332.566 142.673 336.153 142.585C341.478 142.447 342.315 143.148 342.928 148.578C343.565 154.32 343.928 160.1 344.415 165.867Z" fill="white"/>
<path fill-rule="evenodd" clip-rule="evenodd" d="M545.922 157.335C534.961 156.81 536.998 158.373 534.998 147.802C534.186 143.511 533.548 139.182 532.811 134.879C532.373 132.364 532.923 130.688 535.848 130.2C539.56 129.587 543.197 128.536 546.909 127.885C550.784 127.21 551.197 127.448 551.684 131.038C552.759 138.907 553.484 146.839 555.146 154.62C555.534 156.422 554.784 157.285 553.059 157.335C550.684 157.385 548.309 157.335 545.922 157.335Z" fill="white"/>
<path fill-rule="evenodd" clip-rule="evenodd" d="M294.545 146C296.995 155.021 297.42 163.978 298.595 172.823C298.869 174.9 297.757 175.738 295.782 175.6C295.395 175.575 295.007 175.425 294.607 175.375C279.371 173.536 282.483 174.9 278.209 161.864C277.296 159.061 275.047 156.059 276.084 153.394C277.096 150.792 280.984 151.818 283.458 150.692C286.871 149.141 289.945 146.801 294.545 146Z" fill="white"/>
<path fill-rule="evenodd" clip-rule="evenodd" d="M253.073 163.052C253.348 165.992 251.974 166.618 249.424 166.042C244.737 164.979 239.962 164.403 235.175 164.391C232.463 164.391 231.338 163.152 230.651 160.688C227.576 149.679 227.513 149.691 238.1 145.925C240.737 144.987 243.399 144.149 245.987 143.085C247.987 142.26 249.024 142.823 249.436 144.85C250.636 150.917 251.849 156.985 253.073 163.052Z" fill="white"/>
<path fill-rule="evenodd" clip-rule="evenodd" d="M572.043 131.926C572.043 131.325 572.068 130.738 572.043 130.137C571.768 123.719 572.018 123.431 578.305 123.219C582.467 123.081 582.48 123.081 583.192 127.26C584.43 134.503 585.567 141.772 586.905 148.99C587.404 151.692 586.554 152.518 583.855 152.443C576.618 152.23 575.455 151.43 573.643 144.311C573.106 142.197 572.606 140.045 572.368 137.893C572.156 135.929 572.318 133.928 572.318 131.938C572.231 131.926 572.143 131.926 572.043 131.926Z" fill="white"/>
<path fill-rule="evenodd" clip-rule="evenodd" d="M460.366 113.611C455.879 115.25 451.98 115.575 448.042 115.913C445.418 116.138 444.418 114.762 444.13 112.56C443.305 106.468 442.555 100.362 441.781 94.2573C441.381 91.1172 444.293 91.8304 445.768 90.9171C446.805 90.2916 448.018 89.9538 448.605 91.6427C451.33 99.3741 456.354 105.88 460.366 113.611Z" fill="#4D4D4D"/>
<path fill-rule="evenodd" clip-rule="evenodd" d="M435.843 118.302C432.919 110.271 431.356 101.914 430.056 93.4941C429.694 91.1422 431.269 90.9421 432.931 90.7294C435.393 90.4041 437.306 90.9046 437.756 93.757C438.556 98.8612 439.368 103.965 440.156 109.07C440.306 110.046 440.343 111.046 440.481 112.035C441.155 116.714 441.155 116.714 435.843 118.302Z" fill="white"/>
<path fill-rule="evenodd" clip-rule="evenodd" d="M440.405 77.3559C441.593 78.9197 442.855 80.4335 443.93 82.0598C444.43 82.8104 445.18 83.7737 444.38 84.712C444.067 85.0748 443.28 85.25 442.755 85.1874C441.555 85.0373 440.418 84.6246 440.343 83.1108C440.243 81.1592 439.743 79.1825 440.518 77.2559C440.543 77.2433 440.405 77.3559 440.405 77.3559Z" fill="#4D4D4D"/>
<path fill-rule="evenodd" clip-rule="evenodd" d="M43.6544 233.449C43.042 226.493 42.567 220.525 41.9546 214.558C41.7171 212.168 42.5295 211.18 44.9293 210.429C51.4037 208.39 57.8656 206.376 64.54 205.137C70.7394 203.986 71.6019 204.65 71.8893 210.842C72.2143 217.823 72.0018 224.854 72.6768 231.797C73.8392 243.707 75.4765 255.58 76.9889 267.452C77.9263 274.883 74.2641 278.148 66.8523 276.034C64.9274 275.484 63.5151 275.696 61.7528 276.322C58.0531 277.648 54.2659 276.785 50.5288 276.134C48.6414 275.809 47.9915 274.508 47.6541 272.794C46.9666 269.279 45.9167 265.813 45.4417 262.26C44.1169 252.389 42.867 242.494 43.6544 233.449Z" fill="white"/>
<path fill-rule="evenodd" clip-rule="evenodd" d="M42.4424 274.47C36.1305 275.621 30.331 275.533 24.5566 275.546C19.7945 275.558 19.157 274.908 19.1445 269.866C19.107 257.468 19.2695 245.071 19.2446 232.673C19.2321 225.692 19.882 218.674 18.2696 211.768C17.6197 208.99 18.9945 208.14 21.5318 208.49C22.5192 208.628 23.5191 208.678 24.5065 208.84C37.2179 210.855 37.3179 210.842 38.1928 224.003C38.6927 231.572 38.6177 239.178 39.1302 246.759C39.7426 255.917 41.5175 264.912 42.4424 274.47Z" fill="white"/>
<path fill-rule="evenodd" clip-rule="evenodd" d="M836.831 244.608C837.156 252.589 837.494 260.571 836.644 268.528C836.481 270.029 836.906 271.918 834.544 272.143C831.957 272.393 831.757 270.517 831.507 268.665C829.894 256.605 828.744 244.507 828.007 232.372C827.707 227.381 827.357 222.389 825.782 217.635C824.72 214.432 825.845 213.169 828.907 212.894C829.482 212.844 830.057 212.568 830.607 212.356C833.069 211.405 834.244 212.418 834.806 214.858C836.069 220.325 836.506 225.892 836.769 231.459C836.994 235.825 836.831 240.216 836.831 244.608Z" fill="white"/>
<path fill-rule="evenodd" clip-rule="evenodd" d="M816.659 242.556C816.659 234.987 816.659 227.406 816.659 219.837C816.659 219.036 816.596 218.248 816.621 217.448C816.646 216.434 816.759 215.383 817.909 215.008C819.446 214.508 820.108 215.734 820.558 216.76C822.471 221.138 823.945 225.642 824.12 230.509C824.308 235.888 824.82 241.255 824.895 246.622C824.983 252.84 826.108 258.895 827.07 264.987C827.32 266.551 827.37 268.152 827.47 269.741C827.52 270.542 827.52 271.605 826.783 271.893C824.458 272.769 822.071 272.131 819.783 271.555C817.784 271.067 817.871 269.253 817.871 267.652C817.859 259.283 817.859 250.913 817.859 242.556C817.446 242.556 817.046 242.556 816.659 242.556Z" fill="white"/>
<path fill-rule="evenodd" clip-rule="evenodd" d="M792.336 219.787C792.086 225.042 792.011 230.383 791.548 235.675C790.736 245.033 790.598 254.341 791.698 263.686C791.886 265.238 793.586 267.89 790.124 268.365C786.474 268.878 784.061 267.327 783.612 264.037C783.237 261.284 783.087 258.482 783.049 255.692C782.937 245.321 783.887 235 784.911 224.716C785.386 220.1 784.649 218.073 792.336 219.787Z" fill="white"/>
<path fill-rule="evenodd" clip-rule="evenodd" d="M806.259 244.232C806.259 237.664 806.234 231.096 806.272 224.528C806.272 223.14 806.422 221.739 806.609 220.363C806.834 218.736 807.247 217.122 809.259 216.922C811.509 216.697 811.796 218.536 812.046 220.05C812.546 222.99 813.071 225.955 813.146 228.92C813.384 239.866 813.459 250.825 813.546 261.772C813.559 263.111 814.071 265.175 812.809 265.625C810.497 266.439 809.809 270.317 807.234 269.291C804.872 268.353 806.184 265.388 806.134 263.348C805.972 256.981 806.072 250.6 806.072 244.232C806.134 244.232 806.197 244.232 806.259 244.232Z" fill="white"/>
<path fill-rule="evenodd" clip-rule="evenodd" d="M847.881 271.806C841.069 271.117 840.994 271.118 840.944 265.776C840.869 256.793 840.906 247.798 840.894 238.816C840.881 230.821 840.132 222.877 838.857 214.996C838.757 214.408 838.744 213.795 838.607 213.219C838.107 211.03 839.507 210.517 841.194 210.092C843.219 209.579 843.706 210.992 843.969 212.331C845.069 217.823 845.293 223.428 845.481 228.995C845.718 235.575 845.818 242.181 845.694 248.761C845.581 256.355 846.243 263.836 847.881 271.806Z" fill="white"/>
<path fill-rule="evenodd" clip-rule="evenodd" d="M780.238 230.771C779.138 242.105 778.025 253.44 778.963 264.812C779.238 268.165 777.251 268.202 774.876 268.327C772.076 268.477 771.326 266.939 771.626 264.624C773.401 250.763 771.289 236.701 773.826 222.889C774.226 220.675 774.076 218.361 777.463 218.836C779.338 219.099 780.35 219.724 780.275 221.801C780.163 224.791 780.238 227.781 780.238 230.771Z" fill="white"/>
<path fill-rule="evenodd" clip-rule="evenodd" d="M801.535 268.315C797.623 268.14 796.523 266.376 796.236 263.311C794.936 249.762 795.386 236.264 796.811 222.765C796.873 222.164 796.886 221.564 797.023 220.988C797.398 219.45 798.373 218.511 799.998 218.674C801.635 218.837 801.56 220.2 801.56 221.389C801.56 226.968 801.673 232.548 801.51 238.128C801.21 248.061 801.235 258.007 801.535 268.315Z" fill="white"/>
<path fill-rule="evenodd" clip-rule="evenodd" d="M849.344 209.979C851.044 210.68 850.681 211.981 850.769 213.082C852.119 230.021 853.381 246.972 854.881 263.899C855.143 266.939 854.056 269.541 853.806 273.757C851.394 268.453 850.644 264.199 850.481 259.846C850.081 248.449 849.769 237.052 849.469 225.655C849.344 221.251 849.531 216.847 848.707 212.494C848.519 211.505 848.494 210.605 849.344 209.979Z" fill="white"/>
</g>
</svg>
