<svg width="92" height="95" viewBox="0 0 92 95" fill="none" xmlns="http://www.w3.org/2000/svg">
<path d="M91.2983 52.6536C92.2983 47.8536 91.2483 42.9936 90.5283 38.3136C90.318 37.0658 90.318 35.7915 90.5283 34.5436V30.2336C90.0424 29.5244 89.7025 28.7255 89.5283 27.8836C87.1883 20.9436 82.4183 15.7136 77.5883 10.5136C76.6907 9.45678 75.5919 8.58897 74.3558 7.96064C73.1198 7.33231 71.7711 6.956 70.3883 6.85361C66.2783 6.52361 62.6183 4.23362 58.8883 2.59362C55.9431 1.14554 52.6889 0.4384 49.4083 0.53362C46.2883 0.70362 42.8883 -1.40638 40.1783 1.75362C35.1783 0.383621 31.4983 3.92361 27.3983 5.52361C19.7977 8.30577 13.261 13.4016 8.70833 20.0936C7.27878 22.2948 6.26219 24.738 5.70833 27.3036C4.70833 31.6736 3.15834 35.9136 1.80834 40.1936C1.82752 40.9749 1.70904 41.7534 1.45833 42.4936C1.45833 42.4936 1.45833 42.5936 1.45833 42.6436C1.45833 43.1336 1.45833 43.6436 1.45833 44.1236C1.50833 45.4036 1.38834 46.6836 1.36834 47.9736C1.34819 48.9777 1.14837 49.97 0.778341 50.9036C0.238341 54.3936 -0.0216869 57.9836 1.21831 61.5836C2.58831 65.4636 3.53834 69.4836 4.80834 73.4136C5.98834 77.0536 7.45832 80.6436 11.0383 82.5936C12.7587 83.5526 14.2795 84.8324 15.5183 86.3636C18.1895 89.7899 22.0867 92.045 26.3883 92.6536C32.3883 93.2936 38.4883 94.2236 44.4983 94.6536C49.936 95.0979 55.4056 94.363 60.5331 92.4991C65.6606 90.6351 70.3253 87.6862 74.2083 83.8536C75.4983 82.6036 76.6883 81.0336 78.4583 80.5436C79.4132 80.2726 80.2804 79.756 80.9734 79.0454C81.6665 78.3348 82.1612 77.455 82.4083 76.4936C84.7883 69.6736 89.2083 63.6336 90.1383 56.2736C90.1463 55.894 90.2331 55.5202 90.3932 55.1759C90.5533 54.8316 90.7832 54.5243 91.0683 54.2736C91.0986 53.728 91.1756 53.1861 91.2983 52.6536ZM23.4683 28.7836C25.5683 32.1236 27.3483 35.2236 29.3883 38.1236C31.7583 41.4836 33.8683 41.9936 37.7783 40.5736C39.5383 36.0636 37.0983 32.2736 35.6283 28.3536C35.3564 27.5624 34.8374 26.8796 34.1477 26.4061C33.458 25.9325 32.6344 25.6932 31.7983 25.7236H27.1483C30.6158 22.6268 34.7081 20.3112 39.1483 18.9336C40.1483 21.0936 39.9283 23.0336 39.7683 24.9336C39.5729 27.7359 39.7038 30.5515 40.1583 33.3236C40.4183 35.0336 41.0383 36.5236 43.0583 36.8236C43.9681 36.9665 44.8995 36.8035 45.7066 36.3601C46.5137 35.9167 47.1509 35.218 47.5183 34.3736C49.6983 30.4536 48.4583 20.8136 45.4383 17.2536C50.9883 16.0036 54.2983 16.7236 61.1283 20.7036C55.9483 24.9436 52.7083 30.4836 50.3183 36.6036C49.6883 38.2136 49.3183 39.8836 50.7583 41.1036C51.4315 41.7385 52.3265 42.0847 53.2517 42.0678C54.1769 42.051 55.0587 41.6726 55.7083 41.0136C61.0383 36.3736 65.4183 31.1636 65.8283 23.3636C72.3483 26.1936 73.6183 32.2036 75.0983 38.0836C66.0983 36.5636 60.0483 41.6136 54.0183 47.4436C52.4583 44.1936 50.2183 41.2536 46.5483 39.9436C43.6883 38.9436 41.0383 40.0236 38.4383 41.1636C36.9702 42.7178 35.6323 44.3901 34.4383 46.1636C33.4383 47.8136 33.1183 49.8036 32.3783 51.9736C30.3783 42.4936 26.0783 39.3836 18.2483 38.9036C18.6883 34.9836 21.5583 32.3736 23.4683 28.8136V28.7836ZM44.7083 62.1836C40.3183 63.7936 35.6083 60.4036 35.7083 54.7836C36.1983 51.6636 36.7083 47.6136 39.9383 44.5636C42.7283 41.9136 44.6783 41.8136 47.6383 44.3636C53.5383 49.4536 51.8583 59.5836 44.7083 62.2136V62.1836ZM16.3883 46.4936C21.0683 49.7636 25.0583 54.4936 32.0483 54.4936C32.4183 55.0836 31.8483 56.1836 31.8683 57.3536H15.6083C14.4883 53.5236 14.6283 51.3336 16.3883 46.4936ZM16.2583 65.8436C21.6683 68.5636 25.6983 65.3036 30.5183 65.5236C27.5183 69.1736 23.5183 71.5236 22.6383 76.5236C19.5583 73.5536 18.2183 70.2536 16.2483 65.8436H16.2583ZM37.3883 83.4036C33.7083 81.2736 29.7083 82.0536 26.3883 79.3036C31.6083 78.2236 34.0283 74.3036 36.4583 70.7136C38.6983 67.4536 36.0483 64.9736 30.7383 65.2936C31.2983 63.4436 32.3283 61.7536 32.2583 59.5836C34.4483 63.7736 38.7083 64.4936 42.9583 66.4936C39.2783 71.3236 37.7083 76.8636 37.3883 83.4036ZM60.6083 79.7636C62.7383 73.5236 60.2783 69.4436 57.1783 65.5936C55.5783 63.5936 53.7483 62.0436 51.0283 63.6636C51.0234 63.7335 51.0234 63.8037 51.0283 63.8736H50.7983C50.3319 64.4157 50.0243 65.0761 49.9096 65.782C49.7949 66.4879 49.8775 67.2117 50.1483 67.8736C51.5683 71.3536 53.2583 74.7336 54.9283 78.0936C55.7983 79.8436 57.9283 79.8536 59.3983 81.0936C54.4683 82.0936 49.9183 84.5436 44.3183 84.3036C45.4083 80.8236 47.6283 78.1436 48.1183 74.7736C48.6083 71.4036 47.1183 68.4936 45.9283 65.2936C47.6083 64.7536 49.0183 63.7036 50.7983 63.8236L50.9183 63.6836L51.0383 63.6236C51.1083 61.0436 53.8183 59.7236 54.0383 56.8336C56.0383 62.6836 60.8283 64.9936 65.2483 67.5336C67.3583 68.7536 68.6083 66.3336 70.7083 64.7936C69.3883 71.3536 65.3883 75.1236 60.6383 79.7636H60.6083ZM75.0183 52.8336L71.3883 63.5036C71.3883 63.8636 71.5283 64.3336 70.9083 64.2536C70.8383 64.2536 70.8183 63.7736 70.7883 63.5136C70.6975 62.4437 70.2989 61.423 69.6405 60.5747C68.9821 59.7265 68.0923 59.087 67.0783 58.7336C63.1483 57.3036 60.4483 53.1936 55.6383 53.7336C54.8683 53.8136 54.8883 52.8536 54.9283 52.2136C54.9683 51.5736 55.2883 51.2136 55.8283 51.3736C63.0483 53.1736 68.2983 47.2836 75.2483 46.8436C75.8498 48.8069 75.7794 50.9148 75.0483 52.8336H75.0183Z" fill="#003872"/>
<path fill-rule="evenodd" clip-rule="evenodd" d="M37.7784 40.6534C39.5384 36.1434 37.0984 32.3534 35.6284 28.4334C35.3579 27.6413 34.8392 26.9576 34.1492 26.4838C33.4592 26.01 32.6348 25.7714 31.7984 25.8034C30.6384 25.8034 29.4984 25.8034 27.1484 25.8034C30.6159 22.7066 34.7082 20.391 39.1484 19.0134C40.1484 21.1834 39.9284 23.1234 39.7684 25.0134C39.573 27.8158 39.7039 30.6313 40.1584 33.4034C40.4184 35.1134 41.0284 36.6034 43.0584 36.9034C43.9682 37.0463 44.8996 36.8833 45.7067 36.4399C46.5139 35.9965 47.151 35.2979 47.5184 34.4534C49.6984 30.5334 48.4584 20.8934 45.4484 17.3334C50.9884 16.0834 54.2984 16.8034 61.1384 20.7834C55.9484 25.0234 52.7084 30.5634 50.3184 36.6834C49.6884 38.2934 49.3184 39.9634 50.7584 41.1834C51.4351 41.8311 52.3404 42.1851 53.277 42.1682C54.2135 42.1514 55.1055 41.7651 55.7584 41.0934C61.0784 36.4534 65.4484 31.2434 65.8684 23.4434C72.3884 26.2834 73.6584 32.2834 75.1384 38.1634C66.1384 36.6534 60.0884 41.6934 54.0584 47.5234C52.4984 44.2734 50.2584 41.3434 46.5884 40.0234C43.7284 39.0234 41.0784 40.1034 38.4784 41.2434L37.7784 40.6534Z" fill="#FDF9F7"/>
<path fill-rule="evenodd" clip-rule="evenodd" d="M35.7187 54.8133C36.1987 51.6933 36.7187 47.6433 39.9487 44.5933C42.7387 41.9333 44.6887 41.8434 47.6487 44.3934C53.5287 49.4634 51.8587 59.5833 44.7087 62.2133C40.3187 63.8133 35.6087 60.4333 35.7187 54.8133Z" fill="#FDF9F7"/>
<path d="M55.7983 51.3337C55.2583 51.1937 54.9383 51.6537 54.8983 52.1737C54.8583 52.6937 54.8383 53.7737 55.6083 53.6937C60.4183 53.1937 63.1283 57.3037 67.0483 58.6937C68.0608 59.0493 68.9494 59.6894 69.6074 60.5372C70.2654 61.385 70.665 62.4046 70.7582 63.4737C70.9577 63.4537 71.1588 63.4537 71.3583 63.4737L75.0483 52.8037C75.7718 50.8785 75.8316 48.7668 75.2182 46.8037C68.2482 47.2437 63.0183 53.1337 55.7983 51.3337Z" fill="#FDF9F7"/>
<path fill-rule="evenodd" clip-rule="evenodd" d="M38.4485 41.2235C36.986 42.7825 35.6485 44.4544 34.4485 46.2235C33.4485 47.8735 33.1285 49.8635 32.3885 52.0335C30.3885 42.5535 26.0985 39.4435 18.2485 38.9635C18.6485 34.9635 21.5186 32.3735 23.4286 28.8135C25.5286 32.1635 27.2985 35.2635 29.3485 38.1635C31.7085 41.5135 33.8286 42.0335 37.7386 40.6135L38.4485 41.2235Z" fill="#FDF9F7"/>
<path fill-rule="evenodd" clip-rule="evenodd" d="M37.3887 83.403C33.7087 81.273 29.7087 82.043 26.3887 79.303C31.5987 78.223 34.0287 74.303 36.4587 70.713C38.6987 67.453 36.0487 64.973 30.7287 65.293C31.2887 63.443 32.3287 61.743 32.2587 59.583C34.4487 63.773 38.7087 64.503 42.9587 66.493C39.2787 71.333 37.7087 76.873 37.3887 83.403Z" fill="#F9E8E2"/>
<path fill-rule="evenodd" clip-rule="evenodd" d="M50.9586 63.7529C50.4371 64.2905 50.085 64.9696 49.9464 65.7057C49.8077 66.4418 49.8885 67.2024 50.1786 67.8929C51.5886 71.3729 53.2886 74.7429 54.9586 78.1129C55.8286 79.8529 57.9586 79.8729 59.4286 81.1129C54.4987 82.1629 49.9486 84.5729 44.3486 84.3229C45.4386 80.8429 47.6587 78.1629 48.1487 74.7929C48.6387 71.4229 47.1486 68.5129 45.9586 65.3129C47.7086 64.7529 49.1587 63.6229 51.0587 63.8529L50.9586 63.7529Z" fill="#F9E8E2"/>
<path fill-rule="evenodd" clip-rule="evenodd" d="M51.0485 63.873C50.9685 61.143 53.8385 59.873 54.0485 56.873C56.0485 62.723 60.8385 65.033 65.2585 67.583C67.3685 68.793 68.6185 66.373 70.7185 64.833C69.3985 71.343 65.4385 75.123 60.6485 79.763C62.7885 73.533 60.3185 69.443 57.2185 65.593C55.5985 63.593 53.7285 62.003 50.9585 63.743L51.0485 63.873Z" fill="#F9E8E2"/>
<path fill-rule="evenodd" clip-rule="evenodd" d="M31.8584 57.4032H15.6084C14.4884 53.5232 14.6084 51.3332 16.3784 46.4932C21.0584 49.7632 25.0384 54.4932 32.0384 54.4932C32.3884 55.1332 31.8384 56.2332 31.8584 57.4032Z" fill="#FDF9F7"/>
<path fill-rule="evenodd" clip-rule="evenodd" d="M16.2485 65.8437C21.6585 68.5537 25.6885 65.3037 30.5085 65.5137C27.5085 69.1637 23.5085 71.5637 22.6285 76.5137C19.5585 73.5537 18.2085 70.2537 16.2485 65.8437Z" fill="#F9E8E2"/>
<path fill-rule="evenodd" clip-rule="evenodd" d="M70.7583 63.513C70.9575 63.4879 71.1591 63.4879 71.3583 63.513C71.3583 63.873 71.4983 64.343 70.8783 64.263C70.7983 64.243 70.7983 63.773 70.7583 63.513Z" fill="#F9E8E2"/>
</svg>
