<svg width="89" height="87" viewBox="0 0 89 87" fill="none" xmlns="http://www.w3.org/2000/svg">
<path d="M88.3291 28.3355C87.8423 27.0778 87.4695 25.787 87.2142 24.4755C84.9844 22.7655 83.8695 21.1355 83.7134 19.5255C83.1225 14.1555 78.7409 11.5255 74.4819 9.13552C65.3508 3.91552 54.8371 1.78551 44.3793 0.185507C40.543 -0.31632 36.6268 0.205341 33.1187 1.68551C26.4292 4.61551 19.7397 7.57552 13.9645 12.1055C8.53341 16.2895 4.97005 22.0922 3.93027 28.4455C3.91189 28.9231 3.74006 29.3858 3.43546 29.7778C3.13086 30.1699 2.70646 30.4747 2.2133 30.6555C1.76587 32.1154 1.13369 33.5246 0.329102 34.8555C2.61467 35.0155 2.69272 35.5155 2.48088 38.3355C2.13124 43.7423 2.25052 49.1653 2.83765 54.5555C3.67384 63.0655 9.25954 69.3155 15.4139 75.2855C18.9258 78.6855 22.9395 82.1455 27.3992 83.6955C33.219 85.6955 39.273 87.6255 46.3527 86.6055C54.9932 85.3855 62.6192 83.5555 69.3644 78.3355C73.9913 74.7355 75.6414 69.6055 79.2426 65.5655C79.4394 65.2822 79.522 64.9469 79.4767 64.6155C78.9304 59.6155 81.5727 55.3755 83.4569 50.9455C86.2124 44.6434 87.5902 37.9246 87.5152 31.1555C87.6267 29.2955 87.5821 28.5555 88.3291 28.3355ZM24.6676 62.9255C22.9172 59.5955 19.2826 57.3555 19.4275 52.3955C22.7723 57.1455 27.2319 56.4755 31.4463 56.3055L31.6693 56.1955L32.2713 55.9555L31.7919 56.2955H31.4463C28.3245 57.6555 26.563 60.2355 24.6676 62.9255ZM35.4265 63.4355C35.2258 65.2155 35.0252 66.9755 34.791 69.0355C32.2183 69.044 29.7157 68.284 27.6779 66.8755C30.9446 66.7255 32.617 64.3055 35.1367 63.1655C35.2147 62.8055 35.2147 62.1655 35.8056 62.5055C36.3965 62.8455 35.9171 63.2355 35.4823 63.4355H35.4265ZM68.6398 46.3455C67.5248 48.4955 65.6964 50.3455 67.0789 53.2155C67.6363 54.3355 66.8001 56.2155 64.849 56.8655C64.849 56.9455 64.849 57.0155 64.849 57.0955L64.7599 57.2055C64.8665 57.4602 64.8917 57.7365 64.8326 58.0033C64.7735 58.2701 64.6324 58.5167 64.4254 58.7155C62.5047 61.9472 59.3322 64.437 55.5061 65.7155L54.6476 65.6355C55.049 64.8555 55.2385 65.5655 55.5061 65.7155C54.5027 64.7655 54.8929 63.6255 55.2608 62.5955C55.9398 60.6622 55.8928 58.5825 55.127 56.6755C58.2934 56.5755 60.8131 58.7855 63.8456 58.2155C64.1578 57.8755 64.4477 57.5355 64.7487 57.2155C64.7203 57.1274 64.6868 57.0406 64.6484 56.9555L64.8602 56.8755C65.2058 52.3455 63.7453 50.1355 59.4863 48.7655C54.9152 47.2955 52.9306 48.1155 52.4958 52.4455C52.1948 55.4455 49.7531 53.6055 48.5936 54.4455C47.4787 55.8955 47.6348 57.7955 46.8544 59.4455C47.161 59.9536 47.5074 60.4415 47.8912 60.9055C49.2068 62.3855 47.4787 63.1355 46.2858 64.1855C47.4007 65.6355 48.393 67.1855 49.4521 68.6755C48.767 69.448 47.8198 69.9992 46.754 70.2455C46.2409 70.5506 45.658 70.7485 45.0482 70.8247C44.4385 70.9009 43.8174 70.8533 43.2309 70.6855C43.3908 68.3208 44.4267 66.0718 46.1743 64.2955L46.2858 64.1855L45.9401 63.7355C45.2489 62.8655 44.4908 61.7355 45.4273 61.1255C46.0622 60.6903 46.5551 60.1101 46.8544 59.4455C46.0182 58.1455 45.0928 56.8455 42.8184 57.1055C42.0762 57.156 41.3308 57.156 40.5886 57.1055C37.3888 57.0055 34.8914 56.3555 33.5535 53.1055C31.7919 48.9055 24.5227 47.5155 19.7509 50.3455C19.5056 45.8655 20.7989 41.9755 23.5304 37.2655C23.2294 42.9255 27.6333 44.8855 30.3202 47.8055C31.5243 49.1155 33.2079 48.3355 33.8991 46.3955C35.9059 40.7055 31.9369 35.7755 24.4112 34.8255C26.641 29.9855 28.135 24.6655 35.2147 23.6255C35.2258 23.3895 35.3237 23.1634 35.4931 22.9825C35.6625 22.8016 35.8939 22.6761 36.1512 22.6255C42.418 21.2819 48.9174 21.0509 55.2831 21.9455C67.9262 23.7855 73.144 37.3855 68.6398 46.3455Z" fill="#003872"/>
<path fill-rule="evenodd" clip-rule="evenodd" d="M64.8267 57.0657C65.2727 52.3957 63.8233 50.1357 59.4975 48.7357C54.9152 47.2657 52.9306 48.0857 52.507 52.4157C52.2059 55.4157 49.7531 53.5757 48.6048 54.4157L47.6348 53.5057C49.4856 51.1257 51.6485 48.8957 51.76 45.2857C56.6098 47.8757 60.6793 46.5457 64.6038 44.6057C66.6329 43.6057 67.8705 41.8157 66.9562 39.6057C66.042 37.3957 64.1355 37.1757 61.6046 37.6057C57.5691 38.3139 53.888 40.152 51.091 42.8557C50.3106 41.5957 48.6159 41.0157 48.4264 39.3757C55.796 37.8357 60.0326 33.8757 60.3113 28.3257C60.4117 26.5557 59.9434 25.0657 58.0815 24.1857C57.3525 23.8365 56.5296 23.6759 55.7047 23.7218C54.8798 23.7677 54.0854 24.0183 53.41 24.4457C49.3741 26.6857 45.6057 34.1257 46.3415 38.4957L41.9822 38.7157V38.8557C40.8673 36.2157 42.2721 33.5957 42.1048 30.9357C41.7815 25.5857 41.1906 24.7157 35.1924 23.5057L35.2816 23.6157C35.3015 23.3821 35.4025 23.16 35.5705 22.9806C35.7385 22.8012 35.965 22.6736 36.2181 22.6157C42.4902 21.2802 48.9921 21.0527 55.3611 21.9457C67.9708 23.7957 73.1997 37.4057 68.7401 46.3657C67.6252 48.5057 65.7967 50.3657 67.1904 53.2357C67.4186 54.0193 67.2925 54.852 66.8393 55.5525C66.3862 56.253 65.6427 56.7646 64.771 56.9757L64.8267 57.0657Z" fill="#F9E8E2"/>
<path fill-rule="evenodd" clip-rule="evenodd" d="M48.5938 54.4063C47.044 56.4063 47.9583 59.3063 45.4274 61.0463C44.4909 61.6863 45.249 62.7863 45.9403 63.6563C47.2001 65.2363 48.2816 66.9263 49.4522 68.5963C48.7682 69.3745 47.8151 69.9268 46.743 70.1663C46.2321 70.4716 45.6516 70.6704 45.0439 70.7483C44.4362 70.8261 43.8168 70.781 43.231 70.6163C43.3969 68.2469 44.4317 65.9932 46.1744 64.2063C47.3562 63.1063 49.2404 62.3563 47.8914 60.8263C46.5423 59.2963 45.9849 56.6663 42.8074 57.0263C42.0652 57.0774 41.3197 57.0774 40.5775 57.0263C37.3889 56.9263 34.8803 56.2763 33.5424 53.0263C31.7809 48.8263 24.5117 47.4363 19.7398 50.2663C19.4946 45.7863 20.7879 41.8963 23.5082 37.1863C23.2295 42.8463 27.6223 44.8063 30.298 47.7263C31.5133 49.0363 33.1968 48.2563 33.8769 46.3163C35.8949 40.6263 31.9258 35.6863 24.4002 34.7463C26.63 29.9063 28.124 24.5863 35.2037 23.5463L35.1145 23.4463C30.8221 27.3663 31.9258 31.8163 33.6093 36.2963C34.334 38.2363 37.9575 39.3963 37.6119 40.4063C36.8024 42.3728 36.1065 44.3755 35.527 46.4063C35.527 46.5763 35.527 46.7363 35.4601 46.9063C35.212 48.5403 35.4833 50.204 36.2426 51.7059C37.002 53.2079 38.2186 54.487 39.7525 55.3963C43.0972 57.1863 45.2156 54.9963 47.5569 53.5263C47.936 53.8363 48.2593 54.1263 48.5938 54.4063Z" fill="#F9E8E2"/>
<path fill-rule="evenodd" clip-rule="evenodd" d="M64.4699 58.7059C62.5492 61.9375 59.3768 64.4273 55.5507 65.7059V65.7659C54.4357 64.7659 54.8817 63.6358 55.2496 62.5958C55.9286 60.6626 55.8816 58.5829 55.1158 56.6759C58.2822 56.5659 60.8019 58.7758 63.8344 58.2158C64.0463 58.3758 64.2358 58.5559 64.4699 58.7059Z" fill="#F9E8E2"/>
<path fill-rule="evenodd" clip-rule="evenodd" d="M31.6578 56.1857C28.38 57.5157 26.6296 60.1858 24.6673 62.9258C22.9169 59.5858 19.2711 57.3557 19.4272 52.3857C22.8277 57.2657 27.41 56.3857 31.7804 56.2857L31.6578 56.1857Z" fill="#F9E8E2"/>
<path fill-rule="evenodd" clip-rule="evenodd" d="M35.4826 63.436C35.2708 65.216 35.0812 66.976 34.8471 69.026C32.255 69.0579 29.7276 68.2999 27.6782 66.876C30.9449 66.726 32.6173 64.306 35.137 63.166L35.4826 63.436Z" fill="#F9E8E2"/>
<path fill-rule="evenodd" clip-rule="evenodd" d="M55.5509 65.7062L54.6924 65.6262C55.116 64.8162 55.2944 65.6262 55.5955 65.7462L55.5509 65.7062Z" fill="#F9E8E2"/>
<path fill-rule="evenodd" clip-rule="evenodd" d="M35.1479 63.1657C35.226 62.8057 35.226 62.1657 35.828 62.5057C36.4301 62.8457 35.9284 63.2357 35.4378 63.4357L35.1479 63.1657Z" fill="#F9E8E2"/>
<path fill-rule="evenodd" clip-rule="evenodd" d="M63.8569 58.2061L64.8269 57.086L64.6708 56.9561C64.8429 57.236 64.9128 57.5573 64.8708 57.8748C64.8288 58.1923 64.677 58.4899 64.4367 58.726L63.8569 58.2061Z" fill="#F9E8E2"/>
<path fill-rule="evenodd" clip-rule="evenodd" d="M31.792 56.2963C31.9481 56.1763 32.1042 56.0563 32.2714 55.9463L31.6582 56.1863L31.792 56.2963Z" fill="#F9E8E2"/>
<path fill-rule="evenodd" clip-rule="evenodd" d="M47.6126 53.5558C45.249 55.0258 43.1529 57.2158 39.8082 55.4258C38.2691 54.5195 37.0466 53.2419 36.2813 51.7399C35.516 50.238 35.2391 48.5727 35.4823 46.9358C35.4823 46.7658 35.4823 46.6058 35.5492 46.4358C36.1288 44.405 36.8247 42.4023 37.6341 40.4358C37.9797 39.4358 34.3563 38.2658 33.6316 36.3258C31.9481 31.8558 30.8443 27.4058 35.1367 23.4658C41.1349 24.6758 41.7258 25.5458 42.0492 30.8958C42.2164 33.5558 40.8339 36.1758 41.9265 38.7958C41.9265 38.3558 41.9265 37.9358 41.2241 38.3358L41.9154 38.6758L46.2747 38.4558L46.1186 38.3058C46.375 39.6158 47.568 39.3058 48.5157 39.4258L48.3484 39.3358C48.5268 40.9658 50.2326 41.5458 51.0019 42.8158C53.8178 40.1258 57.5091 38.3024 61.549 37.6058C64.0798 37.1858 66.0086 37.3358 66.9006 39.6058C67.7925 41.8758 66.5772 43.6058 64.5481 44.6058C60.657 46.5458 56.5542 47.8758 51.6932 45.2958C51.6263 48.9358 49.4745 51.1758 47.6126 53.5558ZM39.2173 48.5058C39.5852 49.7058 39.4291 51.9258 41.8373 52.4058C43.9111 52.8158 45.0037 51.0658 46.0406 49.7158C46.9565 48.6706 47.5005 47.4022 47.6014 46.0758C47.6014 43.9358 46.6426 42.6558 44.1675 42.3858C40.9454 42.0158 39.1169 44.0458 39.2173 48.5058Z" fill="#003872"/>
<path fill-rule="evenodd" clip-rule="evenodd" d="M46.2967 38.506C45.572 34.136 49.3293 26.696 53.3653 24.456C54.0395 24.0271 54.8334 23.7747 55.6583 23.727C56.4832 23.6794 57.3067 23.8382 58.0367 24.186C59.8986 25.076 60.3669 26.576 60.2666 28.346C59.9878 33.886 55.74 37.846 48.3704 39.346L48.5488 39.436C48.114 38.436 47.1106 38.436 46.1406 38.316L46.2967 38.506Z" fill="#003872"/>
<path fill-rule="evenodd" clip-rule="evenodd" d="M39.2173 48.5061C39.117 44.0761 40.9454 42.0361 44.1564 42.3861C46.6426 42.6561 47.6349 43.9361 47.5903 46.0761C47.4948 47.4036 46.9503 48.6734 46.0294 49.7161C45.0037 51.0561 43.8999 52.8161 41.8262 52.4061C39.4291 51.8961 39.5852 49.6861 39.2173 48.5061Z" fill="#FDF9F7"/>
<path fill-rule="evenodd" clip-rule="evenodd" d="M46.1406 38.3555C47.0994 38.4455 48.114 38.4555 48.5377 39.4755C47.59 39.3755 46.3971 39.6655 46.1406 38.3555Z" fill="#F9E8E2"/>
<path fill-rule="evenodd" clip-rule="evenodd" d="M41.9378 38.7259L41.2466 38.3859C41.9155 37.9859 41.9267 38.3859 41.949 38.8459C41.949 38.8759 41.9378 38.7259 41.9378 38.7259Z" fill="#F9E8E2"/>
</svg>
