<svg width="52" height="69" viewBox="0 0 52 69" fill="none" xmlns="http://www.w3.org/2000/svg">
<path d="M49.4109 31.4473C49.0508 28.7973 48.5908 26.1573 48.0908 23.5373C47.635 20.2868 46.9126 17.0793 45.9309 13.9473C44.9309 11.2273 42.5108 9.52728 41.2208 7.18728C39.2208 3.52728 36.2809 2.99728 32.7009 3.04728C30.1809 3.04728 27.5909 4.83728 25.1009 2.77728C24.9009 2.59728 24.1708 2.94728 23.7508 3.16728C21.4487 4.23044 19.6365 6.12848 18.6809 8.47727C22.3309 8.47727 25.3109 6.53727 28.7309 6.11727C28.3609 7.89727 26.9409 8.16728 25.7909 8.60728C23.6399 9.4545 21.4084 10.081 19.1308 10.4773C18.2947 10.6067 17.4953 10.9114 16.7853 11.3716C16.0752 11.8318 15.4705 12.4369 15.0109 13.1473C8.47409 21.9894 4.17499 32.2826 2.48086 43.1473C2.03907 45.2338 2.10553 47.3959 2.67464 49.4513C3.24376 51.5068 4.29881 53.3952 5.75085 54.9573C9.28042 58.8267 13.3489 62.1677 17.8309 64.8773C19.2458 65.8561 20.9305 66.37 22.6509 66.3473C26.1509 66.0773 29.7109 66.1873 33.1409 65.2373C35.042 64.779 36.8136 63.8932 38.3209 62.6473C42.3209 59.1673 45.7508 55.1773 47.5608 50.1873C49.6804 44.1814 50.3152 37.7517 49.4109 31.4473ZM17.7508 57.0273C16.3708 56.8973 14.9609 56.0973 13.6409 57.4373C12.9209 58.1673 12.1509 57.4373 11.9809 56.7973C11.5409 55.0273 10.1509 53.9673 9.14086 52.6273C7.91993 51.1759 7.08469 49.44 6.71239 47.5802C6.34009 45.7205 6.44274 43.7969 7.01086 41.9873C8.08086 38.5073 9.42084 35.1173 10.5908 31.6673C11.0908 30.2173 12.0909 28.8173 11.3809 27.1373C11.1609 26.6373 11.3109 25.9673 11.7309 25.8773C14.0509 25.4173 14.3708 23.1973 15.5008 21.7273C17.5508 19.0373 18.6609 18.8073 21.9909 19.3173C27.8109 20.2273 30.5509 23.7573 31.4509 29.3173C32.2209 34.0073 32.5509 38.7173 32.9309 42.8173C33.0111 44.789 32.6653 46.7549 31.9171 48.5809C31.1689 50.4069 30.0359 52.0502 28.5952 53.3988C27.1546 54.7474 25.4402 55.7696 23.5688 56.3958C21.6974 57.0219 19.713 57.2373 17.7508 57.0273Z" fill="#DF2A3C"/>
<path d="M49.501 20.2373C48.341 13.5073 45.901 7.39731 40.801 2.57731C40.4938 2.30585 40.1586 2.06783 39.801 1.8673C39.3033 1.70453 38.7909 1.59067 38.271 1.52731C37.471 1.38731 37.461 1.4273 36.101 1.2273C34.741 1.0273 34.301 1.13731 33.501 0.927314C27.311 -1.33269 22.081 0.927301 18.611 5.6173C17.2779 7.54511 15.7278 9.31337 13.991 10.8873C13.4612 11.2945 12.993 11.7761 12.601 12.3173C12.401 12.5873 12.081 13.4273 11.771 13.9973C11.5037 14.753 11.1966 15.494 10.851 16.2173C4.92101 24.8173 1.99102 34.5173 0.511017 44.7273C0.0410174 47.9773 0.441017 51.1073 2.51102 53.7273C4.42994 56.3983 6.6701 58.8232 9.18103 60.9473C19.501 68.9473 18.951 68.5273 30.421 67.5873C32.7309 67.4259 34.9824 66.7882 37.0338 65.7143C39.0852 64.6404 40.8922 63.1536 42.341 61.3473C43.341 60.1373 44.231 58.8073 45.271 57.6173C51.271 50.7173 51.911 42.3673 51.601 33.9173C51.371 29.3473 50.291 24.7873 49.501 20.2373ZM47.551 50.1573C45.751 55.1573 42.291 59.1573 38.311 62.6173C36.8063 63.8672 35.0337 64.7534 33.131 65.2073C29.701 66.1573 26.131 66.0573 22.641 66.3173C20.9206 66.34 19.2359 65.8262 17.821 64.8473C13.3409 62.1351 9.2728 58.7944 5.74103 54.9273C4.29113 53.3638 3.23745 51.4753 2.66846 49.4203C2.09947 47.3654 2.03175 45.2039 2.47101 43.1173C4.16514 32.2526 8.46424 21.9594 15.001 13.1173C15.4607 12.4069 16.0654 11.8018 16.7754 11.3416C17.4855 10.8815 18.2848 10.5767 19.121 10.4473C21.3992 10.0537 23.6309 9.42711 25.781 8.57731C26.941 8.13731 28.361 7.8773 28.781 6.0873C25.361 6.5073 22.381 8.4673 18.731 8.4473C19.6866 6.09851 21.4989 4.20047 23.801 3.13731C24.221 2.91731 24.951 2.56731 25.151 2.74731C27.641 4.80731 30.231 3.04731 32.751 3.01731C36.331 2.96731 39.251 3.49731 41.271 7.15731C42.561 9.49731 44.981 11.1573 45.981 13.9173C46.9627 17.0493 47.6852 20.2568 48.141 23.5073C48.641 26.1273 49.141 28.7673 49.461 31.4173C50.3514 37.7265 49.6959 44.1575 47.551 50.1573Z" fill="#003872"/>
<path d="M31.4809 29.297C30.5809 23.767 27.8609 20.237 22.0209 19.297C18.7009 18.777 17.5909 19.017 15.5309 21.707C14.4109 23.177 14.0809 25.397 11.7709 25.857C11.3409 25.937 11.2009 26.617 11.4109 27.117C12.1209 28.797 11.1208 30.187 10.6208 31.647C9.45085 35.087 8.12086 38.487 7.04086 41.957C6.47022 43.7653 6.36254 45.6879 6.72769 47.5486C7.09284 49.4092 7.91913 51.1485 9.13086 52.607C10.1309 53.947 11.5209 55.007 11.9709 56.777C12.1409 57.447 12.9709 58.147 13.6409 57.417C14.9509 56.077 16.3709 56.867 17.7509 57.007C19.7195 57.2262 21.7122 57.0174 23.5926 56.395C25.4731 55.7726 27.1968 54.7513 28.6459 53.4009C30.0951 52.0505 31.2353 50.403 31.9887 48.5711C32.742 46.7392 33.0907 44.7662 33.0109 42.787C32.5909 38.687 32.2609 33.967 31.4809 29.297ZM18.0109 22.427C19.6209 21.427 21.5709 20.797 23.7609 22.197C21.2209 26.197 21.2809 30.877 19.4209 35.557C17.3109 33.027 15.5909 30.557 14.9609 27.757C14.4809 25.757 16.1309 23.577 18.0109 22.427ZM14.1809 51.577C13.4609 53.207 12.8409 53.287 11.5609 51.977C10.6168 51.0293 9.87485 49.8999 9.37982 48.6572C8.8848 47.4145 8.64702 46.0843 8.68088 44.747C8.68088 42.197 11.6809 33.747 13.5509 31.197C15.5509 33.527 16.7509 36.317 18.1909 38.947C18.4869 39.7544 18.451 40.6462 18.0909 41.427C17.03 44.8989 15.7234 48.2908 14.1809 51.577ZM17.3409 54.877C16.1309 54.627 15.4009 53.947 15.9709 52.557L19.8809 43.027C22.1309 45.487 22.8009 48.657 25.1009 50.677C25.7437 51.0813 26.4361 51.4006 27.1609 51.627C24.3609 54.347 21.1909 55.677 17.3409 54.887V54.877ZM28.1109 51.007C25.3675 47.796 23.1255 44.1885 21.4609 40.307C20.9905 39.1831 20.9338 37.9288 21.3009 36.767C22.5109 32.207 23.6909 27.637 24.9809 22.707C26.0735 23.2332 27.022 24.0168 27.7448 24.9905C28.4677 25.9642 28.9433 27.0989 29.1309 28.297C30.398 34.1169 31.0052 40.0611 30.9409 46.017C30.925 47.0207 30.6577 48.0043 30.1632 48.8778C29.6688 49.7513 28.9632 50.4868 28.1109 51.017V51.007Z" fill="#003872"/>
<path fill-rule="evenodd" clip-rule="evenodd" d="M25.0114 22.7168C26.1043 23.2453 27.0527 24.0309 27.7754 25.0062C28.4982 25.9815 28.9738 27.1175 29.1614 28.3168C30.4373 34.1355 31.0479 40.0803 30.9814 46.0368C30.9814 48.1868 29.9215 49.6868 28.1515 51.0368C25.4015 47.8286 23.1558 44.2206 21.4914 40.3368C21.0311 39.2106 20.9746 37.9599 21.3314 36.7968C22.5114 32.2168 23.6914 27.6468 25.0114 22.7168Z" fill="#FDF9F7"/>
<path d="M18.1907 38.967C16.7507 36.337 15.5607 33.547 13.5507 31.207C11.6907 33.747 8.6807 42.207 8.6807 44.767C8.648 46.1041 8.8863 47.434 9.38126 48.6766C9.87622 49.9191 10.6176 51.0486 11.5607 51.997C12.8407 53.307 13.4607 53.227 14.1807 51.597C15.7249 48.3081 17.0316 44.9127 18.0907 41.437C18.4459 40.6585 18.4818 39.7717 18.1907 38.967Z" fill="#FDF9F7"/>
<path fill-rule="evenodd" clip-rule="evenodd" d="M19.8713 43.0371C22.1313 45.4971 22.8013 48.6671 25.1013 50.6771C25.7381 51.1047 26.4315 51.4413 27.1613 51.6771C24.3613 54.3871 21.1613 55.6771 17.3413 54.9371C16.1313 54.6871 15.3913 53.9971 15.9613 52.6071C17.2413 49.4571 18.5113 46.3671 19.8713 43.0371Z" fill="#FDF9F7"/>
<path fill-rule="evenodd" clip-rule="evenodd" d="M23.7514 22.1974C21.2114 26.1974 21.2714 30.8774 19.4114 35.5574C17.3014 33.0274 15.5814 30.5574 14.9414 27.7574C14.4914 25.7574 16.1314 23.5774 18.0014 22.4274C19.6114 21.4474 21.5614 20.7974 23.7514 22.1974Z" fill="#FDF9F7"/>
</svg>
