<svg width="73" height="73" viewBox="0 0 73 73" fill="none" xmlns="http://www.w3.org/2000/svg">
<path d="M59.4293 48.3246C51.9393 53.3246 44.3393 50.7747 36.7493 48.6347C36.5493 48.6347 36.3893 48.3246 36.2193 48.1546C30.8602 43.0312 26.057 37.3565 21.8893 31.2247C19.8077 27.9303 18.3879 24.262 17.7093 20.4247C17.0693 17.2046 16.9393 13.9147 16.5493 10.6647C16.2793 8.48466 15.2093 7.32464 13.2693 6.96464C10.5693 6.47464 5.40927 10.0246 5.08927 12.8446C3.83927 23.5446 3.91927 34.2247 7.08927 44.6147C11.3493 58.4647 21.8693 65.7146 34.9193 70.0746C38.7871 71.3784 43.0081 71.1457 46.7093 69.4247C55.4993 65.6347 61.4293 58.8946 65.8393 50.6846C66.9276 48.6091 67.3534 46.2497 67.0593 43.9247C63.8993 44.5847 62.7093 48.1946 59.4293 48.3246Z" fill="#DF2A3C"/>
<path fill-rule="evenodd" clip-rule="evenodd" d="M41.2688 15.0742C44.6339 15.4696 47.8158 16.8194 50.4388 18.9642C52.1288 20.3442 53.8788 21.6542 55.6288 22.9642C57.8161 24.5023 60.2927 25.5808 62.9088 26.1342C64.1488 26.4342 65.9088 25.7242 66.5588 27.1342C67.4788 29.1342 69.0988 30.7342 68.9088 33.3942C68.5988 37.8642 67.3588 41.4642 63.2188 43.7742C61.4288 44.7742 60.0588 44.6542 58.6588 43.3142C57.4288 42.1342 56.2088 40.9742 54.9988 39.7742C51.1603 35.8933 47.0859 32.253 42.7988 28.8742C41.9373 28.3138 41.2561 27.5164 40.8374 26.5778C40.4187 25.6392 40.2803 24.5997 40.4388 23.5842C40.7888 20.8642 40.3988 18.0442 41.2688 15.0742Z" fill="#FDF9F7"/>
<path fill-rule="evenodd" clip-rule="evenodd" d="M18.7087 10.2247C18.878 10.1505 19.0666 10.1328 19.2467 10.1742C19.4269 10.2157 19.5888 10.314 19.7087 10.4547C25.1187 15.1647 30.4987 19.9147 35.9487 24.5847C36.9056 25.3305 37.6476 26.3167 38.0991 27.4427C38.5506 28.5688 38.6954 29.7944 38.5187 30.9947C38.0687 35.3347 38.4087 39.7447 37.5187 44.0647C37.5232 44.3803 37.4293 44.6895 37.2501 44.9493C37.0709 45.2091 36.8153 45.4067 36.5187 45.5147C26.2487 36.0147 17.7087 25.6347 18.7087 10.2247Z" fill="#FDF9F7"/>
<path fill-rule="evenodd" clip-rule="evenodd" d="M40.5087 29.7646C47.5087 34.8446 52.8587 40.7646 58.9387 46.5446C54.5587 49.4746 50.0287 49.8847 45.2587 49.1147C45.0287 49.1147 44.7887 48.9946 44.5587 48.9346C39.3287 47.3746 39.3187 47.3746 39.6987 41.9346C39.8287 39.9946 39.9887 38.0747 40.1287 36.1447C40.2687 34.2147 40.3587 32.2846 40.5087 29.7646Z" fill="#FDF9F7"/>
<path d="M69.3586 20.3244C62.4186 16.3844 55.8886 11.6844 48.2986 8.96443C46.8281 8.36815 45.2844 7.9713 43.7086 7.78444C42.0886 7.17444 41.5286 8.29443 41.2786 9.57443C41.0286 10.8544 40.6286 12.5744 42.7186 13.0444C47.9686 14.2744 52.1086 17.4344 56.1386 20.7744C58.6012 22.7661 61.5546 24.0579 64.6886 24.5144C65.6886 24.6844 66.4486 24.5144 66.5586 23.4044C66.7586 21.2644 67.7186 21.3244 69.1686 22.3444C69.2658 22.4177 69.3785 22.4674 69.4981 22.4899C69.6176 22.5124 69.7407 22.507 69.8578 22.4741C69.9749 22.4412 70.0829 22.3817 70.1732 22.3002C70.2635 22.2188 70.3338 22.1175 70.3786 22.0044C70.6586 21.4844 70.3786 21.0744 69.9986 20.7244C69.8112 20.5535 69.5944 20.418 69.3586 20.3244Z" fill="#DF2A3C"/>
<path fill-rule="evenodd" clip-rule="evenodd" d="M36.7089 11.6746C31.6189 10.4146 26.0189 9.45457 20.6389 7.67457C18.8189 7.06457 18.4289 5.96458 19.0189 4.27458C19.6089 2.58458 20.7089 2.04458 22.4289 2.53458C24.8489 3.28458 27.2989 3.95458 29.7489 4.58458C32.4289 5.27458 35.1289 5.93458 37.8389 6.52458C39.1189 6.80458 39.7089 7.31458 39.4689 8.74458C39.0389 11.2646 38.7089 11.7546 36.7089 11.6746Z" fill="#DF2A3C"/>
<path fill-rule="evenodd" clip-rule="evenodd" d="M24.5488 11.0742C28.6688 11.9642 32.7688 12.9342 36.8988 13.7042C38.3888 13.9742 38.8988 14.5542 38.8988 16.0442C38.8088 18.5242 38.8988 21.0442 38.8988 24.2842C33.6583 20.405 28.8476 15.9765 24.5488 11.0742Z" fill="#FDF9F7"/>
<path fill-rule="evenodd" clip-rule="evenodd" d="M6.70898 7.03489C6.9009 6.02703 7.39822 5.1026 8.13347 4.38703C8.86871 3.67147 9.80629 3.1994 10.819 3.03489C12.3608 2.68885 13.9244 2.44829 15.499 2.31489C16.179 2.24489 17.139 2.06489 17.139 3.14489C17.139 4.22489 16.509 5.64489 15.709 5.33489C12.329 3.97489 9.94898 6.72489 6.70898 7.03489Z" fill="#DF2A3C"/>
<path d="M72.1693 20.9147C72.1693 20.5247 72.0694 19.5847 71.9994 19.1647C71.9684 18.6477 71.7877 18.1508 71.4793 17.7347C70.8375 16.8822 70.0956 16.11 69.2693 15.4347C67.8894 14.1347 66.6893 14.0647 63.0193 12.2547C60.2832 10.9349 57.4479 9.83153 54.5394 8.95469C50.9394 7.82469 47.5394 6.30468 43.9294 5.12468C37.7294 3.06468 31.4793 0.984679 24.8393 0.714679C22.4594 0.614679 19.0194 0.49468 17.6894 0.32468C16.0584 0.00538427 14.3858 -0.0419203 12.7394 0.184681C10.9293 0.544681 10.1094 0.674679 9.10935 0.964679C7.96352 1.32753 6.91185 1.93873 6.02935 2.75469C5.35935 3.45469 5.42935 3.75469 4.21935 5.27469C2.51567 7.18782 1.2375 9.44081 0.46935 11.8847C0.18935 12.9447 0.279353 14.1647 1.35935 14.2747C3.23935 14.4647 2.66935 15.5447 2.59935 16.5747C2.27782 22.6389 2.40148 28.7185 2.96935 34.7647C4.71935 54.6447 17.6194 66.5847 34.6494 71.9847C38.6236 73.2841 42.9386 73.0632 46.7594 71.3647C55.7594 67.5147 62.0794 60.7947 66.9394 52.5547C68.0154 50.5001 68.6939 48.2609 68.9394 45.9547C69.9394 39.4947 70.6594 29.3347 70.8694 27.0647C71.0794 24.7947 70.8094 25.1147 71.3694 23.8547C71.6637 23.241 71.9013 22.6016 72.0794 21.9447C72.3394 21.0747 72.1993 21.2947 72.1693 20.9147ZM39.7094 41.8847C39.8394 39.9547 40.0093 38.0247 40.1394 36.0947C40.2694 34.1647 40.3793 32.2747 40.5294 29.7547C47.5294 34.8347 52.8793 40.7547 58.9594 46.5347C54.5793 49.4647 50.0494 49.8847 45.2894 49.1047C45.0521 49.0613 44.8181 49.0011 44.5893 48.9247C39.3193 47.3547 39.3194 47.3547 39.7094 41.8847ZM19.0394 4.25469C19.6294 2.58469 20.6894 2.04468 22.4294 2.57468C24.8494 3.32468 27.2994 3.99468 29.7494 4.62468C32.416 5.29135 35.1127 5.93802 37.8393 6.56469C39.1193 6.84469 39.7094 7.35469 39.4694 8.78469C39.0394 11.2647 38.7293 11.7847 36.7293 11.6747C31.6393 10.4147 26.0393 9.45469 20.6593 7.67469C18.8393 7.04469 18.4494 5.94469 19.0394 4.25469ZM38.8694 24.2547C33.6393 20.3738 28.8387 15.9453 24.5493 11.0447C28.6693 11.9347 32.7694 12.9047 36.8994 13.6747C38.3894 13.9447 38.8994 14.5247 38.8994 16.0147C38.8094 18.5347 38.8694 21.0147 38.8694 24.2847V24.2547ZM18.7094 10.2347C18.878 10.1571 19.0676 10.1376 19.2486 10.1792C19.4295 10.2209 19.5915 10.3212 19.7094 10.4647C25.1194 15.1747 30.4993 19.9147 35.9493 24.5847C36.9047 25.3341 37.6454 26.3223 38.0967 27.4495C38.5479 28.5767 38.6937 29.8031 38.5193 31.0047C38.0693 35.3447 38.4093 39.7547 37.5193 44.0747C37.5195 44.3893 37.424 44.6965 37.2453 44.9555C37.0667 45.2145 36.8135 45.4131 36.5193 45.5247C26.2493 36.0147 17.7094 25.6347 18.7094 10.2347ZM10.7094 3.01468C12.2505 2.6671 13.8145 2.42984 15.3894 2.30469C16.0694 2.22469 17.0194 2.04468 17.0194 3.12468C17.0194 4.20468 16.3994 5.62469 15.5994 5.31469C12.2494 3.98469 9.86935 6.72469 6.59935 7.03469C6.79242 6.01185 7.2999 5.07476 8.051 4.35413C8.80211 3.6335 9.7594 3.16525 10.7894 3.01468H10.7094ZM65.7094 50.6847C61.2894 58.8847 55.3594 65.6247 46.5794 69.4147C42.8945 71.1142 38.7016 71.3501 34.8493 70.0747C21.8493 65.7147 11.2794 58.4547 7.01935 44.6047C3.81935 34.2147 3.73935 23.5347 5.01935 12.8347C5.33935 10.0247 10.4994 6.46468 13.1994 6.96468C14.0993 7.08046 14.927 7.51778 15.5298 8.19594C16.1326 8.87411 16.4699 9.74738 16.4794 10.6547C16.8794 13.9047 16.9994 17.1947 17.6494 20.4247C18.3164 24.2621 19.7298 27.9314 21.8094 31.2247C25.9706 37.3554 30.7709 43.0272 36.1293 48.1447C36.3093 48.3147 36.4593 48.5747 36.6593 48.6247C44.2493 50.7647 51.8493 53.2947 59.3393 48.3147C62.5593 48.1847 63.7993 44.5847 66.9493 43.9147C67.2705 46.2327 66.8799 48.5936 65.8294 50.6847H65.7094ZM63.0893 43.7947C61.2993 44.7947 59.9294 44.6747 58.5294 43.3347C57.3093 42.1547 56.0794 40.9847 54.8694 39.7947C51.0309 35.9137 46.9565 32.2734 42.6693 28.8947C41.8106 28.3316 41.1316 27.5338 40.7132 26.596C40.2948 25.6581 40.1546 24.6199 40.3093 23.6047C40.6593 20.8647 40.3093 18.0447 41.1394 15.0747C44.5039 15.4722 47.6852 16.8217 50.3093 18.9647C51.9993 20.3447 53.7494 21.6547 55.4994 22.9647C57.6824 24.5105 60.1606 25.5896 62.7794 26.1347C64.0194 26.4347 65.7794 25.7347 66.4193 27.1347C67.3393 29.1347 68.9694 30.7447 68.7794 33.3947C68.5993 37.8847 67.3594 41.5347 63.2094 43.7947H63.0893ZM70.2194 21.9947C70.1775 22.109 70.1092 22.2117 70.02 22.2945C69.9308 22.3773 69.8232 22.4378 69.7061 22.471C69.589 22.5041 69.4657 22.5091 69.3464 22.4854C69.227 22.4617 69.1149 22.4101 69.0193 22.3347C67.5593 21.3347 66.6094 21.2547 66.3994 23.3947C66.2894 24.4747 65.5294 24.6747 64.5394 24.5047C61.4016 24.0504 58.4445 22.7584 55.9793 20.7647C51.9793 17.4247 47.8194 14.2647 42.5694 13.0447C40.4694 12.5547 40.8494 10.9747 41.1194 9.56469C41.3694 8.30469 41.9293 7.17468 43.5493 7.79468C45.1398 7.9721 46.698 8.36922 48.1794 8.97469C55.7694 11.6947 62.2994 16.3947 69.2393 20.3247C69.4644 20.4258 69.6707 20.5645 69.8493 20.7347C70.2993 21.0647 70.6193 21.4647 70.3393 21.9947H70.2194Z" fill="#003872"/>
</svg>
