<svg width="77" height="78" viewBox="0 0 77 78" fill="none" xmlns="http://www.w3.org/2000/svg">
<path d="M76.9819 29.9237C75.0919 9.85375 50.9319 -0.566261 32.9019 0.0237387C23.4519 0.333739 13.1319 6.93374 9.20192 15.6637C5.27192 24.3937 0.761919 38.8737 0.561919 43.3937C0.361919 47.9137 4.34192 62.4838 8.56192 66.1838C12.7819 69.8838 18.4219 70.3238 23.6819 73.0238C33.1417 77.8261 44.083 78.8175 54.2519 75.7937C59.7519 74.0537 64.2519 70.4637 69.4019 67.9737L70.0219 67.6937C72.9332 63.6506 74.9232 59.0187 75.8519 54.1238C77.1419 46.8638 76.8019 39.5837 76.8519 32.2837C76.9219 31.5037 76.9319 30.7337 76.9819 29.9237ZM29.4319 59.2637C29.0911 59.1779 28.7569 59.0677 28.4319 58.9338C28.6519 58.7538 28.8919 58.4637 29.0719 58.5037C29.2519 58.5437 29.5719 58.8037 29.8119 58.9837C29.7419 59.0837 29.5619 59.2937 29.4319 59.2637ZM33.5719 60.1337C33.3891 60.1535 33.2047 60.1535 33.0219 60.1337C32.899 60.0903 32.7648 60.0903 32.6419 60.1337C32.3619 60.2637 32.5119 60.6337 32.6419 60.1337V60.0838C32.6419 59.9338 33.2919 59.9237 33.6419 59.8537C33.6319 59.9337 33.6119 60.1337 33.5719 60.1337ZM36.7419 44.2337C36.2195 44.1251 35.7247 43.9113 35.2876 43.6052C34.8505 43.2991 34.4804 42.9072 34.1997 42.4534C33.919 41.9996 33.7336 41.4934 33.6549 40.9657C33.5762 40.4379 33.6058 39.8997 33.7419 39.3837C34.6519 36.1737 37.2719 34.3137 39.9519 32.7637C41.3019 31.9837 44.5119 35.5937 44.6019 37.7637C44.6219 40.6537 39.5219 44.8537 36.7419 44.2337ZM58.8419 50.2337C57.0819 57.4537 51.9119 60.3737 42.2419 60.1637C42.2419 59.0237 42.9219 58.5537 43.9619 58.4537C50.1519 57.8837 53.3619 53.8137 55.0319 48.4537C56.6256 43.1572 57.4738 37.6644 57.5519 32.1337C57.716 28.1656 56.5704 24.2536 54.2916 21.0008C52.0128 17.748 48.7275 15.335 44.9419 14.1337C43.3687 13.5337 41.6787 13.3027 40.0022 13.4588C38.3257 13.6148 36.7074 14.1536 35.2719 15.0337C27.6819 19.8337 21.8519 26.1437 19.9319 35.1837C18.1919 43.3637 20.0819 50.7537 25.9319 56.9537L27.1019 57.8437C26.4419 58.6337 25.8119 58.1537 25.1819 57.7937C15.9719 54.4837 13.6619 37.0837 17.9819 29.5737C20.02 25.7601 22.3892 22.1329 25.0619 18.7337C30.7819 11.9337 38.8619 10.9337 46.7219 12.5137C53.8519 13.9537 57.8619 19.7337 59.3019 26.7937C60.8759 34.5575 60.7051 42.574 58.8019 50.2637L58.8419 50.2337Z" fill="#DF2A3C"/>
<path d="M46.7419 12.5042C38.8719 10.9142 30.8019 11.9142 25.0819 18.7242C22.3849 22.1206 19.9924 25.748 17.9319 29.5642C13.6219 37.0742 15.9319 54.4742 25.1419 57.7842C25.3919 57.4842 25.6519 57.2042 25.8819 56.9442C20.0519 50.7442 18.1619 43.3542 19.8819 35.1742C21.8019 26.1142 27.6319 19.8042 35.2119 15.0242C36.6473 14.1441 38.2657 13.6053 39.9422 13.4492C41.6187 13.2932 43.3087 13.5241 44.8819 14.1242C48.6693 15.3225 51.9566 17.7348 54.2358 20.9883C56.5151 24.2417 57.6594 28.1553 57.4919 32.1242C57.4278 37.656 56.5793 43.1507 54.9719 48.4442C53.3119 53.8042 50.1019 57.8742 43.9119 58.4442C42.9119 58.5442 42.2219 59.0142 42.1919 60.1542C51.8619 60.3442 57.0219 57.4442 58.7919 50.2242C60.6983 42.5312 60.8657 34.51 59.2819 26.7442C57.8519 19.7342 53.8419 13.9442 46.7419 12.5042Z" fill="#F9E8E2"/>
<path d="M39.8819 32.7336C37.2019 34.2736 34.6019 36.1436 33.6719 39.3536C33.5343 39.8696 33.5036 40.4083 33.5816 40.9365C33.6597 41.4648 33.8449 41.9716 34.1258 42.4257C34.4067 42.8799 34.7775 43.2718 35.2153 43.5775C35.6531 43.8833 36.1488 44.0963 36.6719 44.2036C39.5119 44.8236 44.6119 40.6236 44.5019 37.7536C44.4419 35.5936 41.2319 31.9836 39.8819 32.7336Z" fill="#F9E8E2"/>
<path fill-rule="evenodd" clip-rule="evenodd" d="M33.6619 59.8242C33.3119 59.8942 32.6619 59.9042 32.6619 60.0542C32.4819 60.8242 32.2419 59.9242 33.0219 60.0542C33.2047 60.074 33.3891 60.074 33.5719 60.0542C33.5719 60.0542 33.6319 59.9342 33.6619 59.8242Z" fill="#F9E8E2"/>
<path fill-rule="evenodd" clip-rule="evenodd" d="M28.4722 58.9342C28.7022 58.7542 28.9322 58.4742 29.1122 58.5042C29.2922 58.5342 29.6121 58.8042 29.8521 58.9842C29.7221 59.0842 29.5622 59.2942 29.4322 59.2642C29.104 59.1797 28.783 59.0693 28.4722 58.9342Z" fill="#F9E8E2"/>
<path fill-rule="evenodd" clip-rule="evenodd" d="M25.8821 56.9336L27.0421 57.8236C26.3821 58.6136 25.7521 58.1436 25.1221 57.8236C25.3621 57.4836 25.6221 57.2036 25.8821 56.9336Z" fill="#F9E8E2"/>
</svg>
