<svg width="81" height="76" viewBox="0 0 81 76" fill="none" xmlns="http://www.w3.org/2000/svg">
<path d="M73.6422 14.6125C72.5158 12.934 71.2727 11.3367 69.9222 9.83252C62.9222 4.27252 52.8122 2.56252 44.2122 1.00252C41.209 0.436447 38.1667 0.102128 35.1122 0.00251914H33.6822C28.3423 -0.0669323 23.082 1.30083 18.4522 3.96253C17.7012 4.41516 16.9828 4.91972 16.3022 5.47252L15.6222 6.02252C15.6222 6.02252 11.8322 10.5225 10.0722 12.5225C2.64219 21.0025 -0.827808 30.7925 0.672192 42.0325C1.38219 47.2925 2.8922 52.4525 3.9022 57.6825C4.25165 59.1586 4.78938 60.5836 5.50219 61.9225C5.90219 62.9225 7.27219 64.2225 8.93219 65.6225C11.7694 68.0945 14.9405 70.1547 18.3522 71.7425C21.99 73.2391 25.8098 74.2479 29.7122 74.7425C37.7122 75.9325 46.4422 76.0325 54.2722 73.7425C60.7722 71.8225 65.9422 67.3125 71.6322 63.7425C79.1222 54.0025 81.5222 37.5925 80.4422 30.2525C79.5238 24.5512 77.1853 19.1727 73.6422 14.6125ZM61.4022 22.8625L61.7122 23.0825L61.3522 23.2225L61.4022 22.8625ZM40.5822 34.3725C43.9922 34.3725 47.7922 36.9825 47.7722 39.3725C47.7722 41.1225 42.4422 47.2325 41.0622 47.0825C39.9722 46.9625 34.9322 40.7425 34.8522 39.4025C34.7422 37.2925 38.0222 34.3825 40.5822 34.3725ZM27.0122 16.7225C27.1322 16.7225 27.2422 16.9325 27.3622 17.0625C27.2322 17.1725 27.0922 17.3825 26.9822 17.3625C26.8722 17.3425 26.7522 17.1525 26.6222 17.0325C26.7422 16.9625 26.8822 16.7225 27.0122 16.7225ZM40.8122 64.4925C37.3927 65.0231 33.901 64.8534 30.549 63.994C27.197 63.1345 24.0545 61.603 21.3122 59.4925C18.0146 57.2193 15.7191 53.7635 14.9022 49.8425C13.6822 43.4325 13.1222 36.9525 14.7122 30.4825C15.9622 25.3025 18.5422 21.0125 23.1822 18.1525C24.0022 17.6525 24.9122 17.1525 26.0522 18.0425C24.7722 20.6725 22.6122 22.6725 20.7222 24.8325C12.9522 33.7625 14.8522 46.8325 19.4222 54.2025C22.7922 59.6125 28.1522 62.0225 34.2822 62.6925C38.9953 63.2826 43.7788 62.9256 48.3522 61.6425C46.4122 64.2325 43.4122 64.1025 40.8122 64.4925ZM50.8122 61.3825C50.7522 61.3825 50.5122 61.1625 50.4422 61.0025C50.3722 60.8425 50.5622 60.7525 50.6422 60.6325C50.7222 60.5125 50.9422 60.6325 51.0322 60.6325C51.3522 60.8825 51.2722 61.1725 50.7422 61.3825H50.8122ZM51.8822 60.6325C62.5422 50.4325 63.9622 38.4825 62.4722 25.2225C64.4085 28.1668 65.6762 31.4996 66.1861 34.9865C66.6959 38.4734 66.4355 42.0297 65.4231 45.4051C64.4108 48.7805 62.6711 51.8931 60.3265 54.5239C57.9819 57.1547 55.0893 59.2398 51.8522 60.6325H51.8822Z" fill="#DF2A3C"/>
<path d="M34.2921 62.6827C28.1721 62.0127 22.8121 59.6027 19.4421 54.1927C14.8721 46.8627 12.9821 33.7527 20.7321 24.8227C22.6121 22.6627 24.7321 20.6527 26.0621 18.0327C24.8921 17.1427 24.0621 17.6427 23.1921 18.1427C18.5621 21.0027 15.9821 25.2927 14.7221 30.4727C13.1421 36.9327 13.7221 43.4727 14.9121 49.8327C15.7295 53.7561 18.0292 57.2129 21.3321 59.4827C24.0742 61.5937 27.2166 63.1255 30.5687 63.985C33.9208 64.8445 37.4126 65.0138 40.8321 64.4827C43.4221 64.0927 46.4221 64.2227 48.3621 61.6227C43.7903 62.9142 39.0058 63.2747 34.2921 62.6827Z" fill="#F9E8E2"/>
<path d="M51.8521 60.6327C55.0866 59.237 57.9762 57.1498 60.3177 54.5177C62.6591 51.8855 64.3956 48.7725 65.405 45.3974C66.4144 42.0222 66.6722 38.467 66.1603 34.9815C65.6484 31.4961 64.3793 28.165 62.442 25.2227C63.932 38.4827 62.5121 50.4327 51.8521 60.6327Z" fill="#F9E8E2"/>
<path d="M40.5818 34.3721C38.0318 34.3721 34.7118 37.2721 34.8618 39.3721C34.9518 40.7121 39.9818 46.9321 41.0718 47.0521C42.4418 47.2021 47.7718 41.0521 47.7818 39.3421C47.7918 36.9621 43.9918 34.3621 40.5818 34.3721Z" fill="#F9E8E2"/>
</svg>
