<svg width="81" height="79" viewBox="0 0 81 79" fill="none" xmlns="http://www.w3.org/2000/svg">
<path d="M75.1324 11.6853C69.9224 5.68527 47.0523 -0.0347378 32.3523 0.00526219C26.9587 -0.116514 21.732 1.87941 17.7923 5.56526C14.9723 8.13526 12.6124 11.1153 9.95238 13.8253C8.78238 15.0253 6.95238 16.0753 6.01238 17.5153C5.25899 18.8757 4.67467 20.3231 4.27239 21.8253C1.18934 29.7684 -0.223405 38.2618 0.122363 46.7752C0.432363 54.7752 2.92238 61.8553 8.95238 67.4353C9.95238 68.3553 10.8124 69.4353 11.8124 70.4353C25.4824 81.8253 49.9723 79.6553 65.2823 72.0153C66.1423 70.8253 67.4024 70.3253 68.3924 69.5853C72.2076 66.8998 75.3077 63.3215 77.422 59.1625C79.5364 55.0035 80.6008 50.3902 80.5224 45.7253C80.5224 42.1753 80.6424 38.6053 80.5224 35.0553C80.1624 26.8953 80.3524 17.6853 75.1324 11.6853ZM57.9823 56.9653C51.0533 59.9602 43.3616 60.7154 35.9823 59.1253C33.2823 58.5953 30.6324 57.7253 27.9324 57.2053C22.1024 56.1053 19.1224 52.2053 17.9324 46.8353C16.8634 42.6091 16.7191 38.2021 17.5096 33.9151C18.3 29.6281 20.0065 25.5623 22.5124 21.9953C27.6524 14.5653 35.0423 12.2453 43.7823 13.6053C47.4417 13.931 50.9139 15.3687 53.7323 17.7253C57.4676 19.2214 60.6229 21.8788 62.7323 25.3053C65.3724 28.9253 68.3724 32.4253 66.6124 37.4853C66.4024 38.1153 66.9623 38.9953 67.1023 39.7753C68.4523 47.8753 65.5023 53.6553 57.9823 56.9653Z" fill="#DF2A3C"/>
<path d="M66.5425 37.4952C68.2925 32.4252 65.3125 28.9352 62.6625 25.3152C62.2225 25.7752 61.7825 26.2352 61.3425 26.7152C65.4825 33.8952 64.6725 41.1053 61.3425 48.2653C58.8125 53.7653 54.3425 56.7052 48.3425 57.2653C43.0116 57.665 37.652 57.1165 32.5126 55.6453C25.8526 53.8153 22.2626 49.3152 21.5126 42.4952C21.0126 37.4952 22.0325 32.6452 22.6725 27.7652C22.8128 26.8823 23.1284 26.0363 23.6007 25.2772C24.073 24.5181 24.6924 23.8612 25.4225 23.3452C30.8325 19.2552 36.4725 15.7052 43.5625 15.4652L43.6225 13.6552C34.8925 12.2952 27.4925 14.6552 22.3525 22.0552C19.842 25.6181 18.1327 29.6823 17.3421 33.9685C16.5515 38.2546 16.6984 42.6612 17.7726 46.8852C19.0126 52.2252 21.9826 56.1453 27.7726 57.2653C30.4826 57.7752 33.1225 58.6453 35.8225 59.1753C43.2018 60.7654 50.8935 60.0102 57.8225 57.0153C65.3525 53.7052 68.3025 47.9252 66.8225 39.8252C66.9025 39.0052 66.3225 38.1252 66.5425 37.4952Z" fill="#F9E8E2"/>
<path d="M53.6725 17.7246C53.5025 17.9246 53.3126 18.1146 53.1426 18.3146L61.3425 26.7046L62.6625 25.3246C60.5589 21.8923 57.407 19.2278 53.6725 17.7246Z" fill="#E4AA9C"/>
<path d="M43.6724 15.4145C47.0224 15.7845 50.0023 17.2645 53.1523 18.3145L53.6924 17.7245C50.8579 15.3624 47.3682 13.9247 43.6924 13.6045L43.6724 15.4145Z" fill="#E4AA9C"/>
<path d="M53.1423 18.315C50.0023 17.265 47.0122 15.785 43.6722 15.415C36.5822 15.655 30.9323 19.205 25.5223 23.295C24.794 23.812 24.1765 24.4693 23.7059 25.2283C23.2354 25.9874 22.9213 26.8329 22.7822 27.715C22.1422 32.605 21.1222 37.475 21.6222 42.435C22.3122 49.265 25.9222 53.765 32.6222 55.595C37.7483 57.0643 43.0956 57.6061 48.4122 57.195C54.4122 56.675 58.8422 53.735 61.4122 48.245C64.7022 41.095 65.5222 33.865 61.4122 26.695L53.1423 18.315ZM44.3622 41.105C43.6455 41.4167 42.8725 41.5782 42.0909 41.5795C41.3094 41.5809 40.5358 41.422 39.818 41.1128C39.1003 40.8035 38.4535 40.3505 37.9176 39.7816C37.3817 39.2127 36.9681 38.54 36.7023 37.805C35.8723 35.225 37.5422 32.955 40.5622 33.075C41.6822 33.485 43.1722 33.975 44.6222 34.575C46.0722 35.175 48.0522 35.325 48.1622 37.165C48.3122 39.535 46.0522 40.285 44.3622 41.105Z" fill="#DF2A3C"/>
<path fill-rule="evenodd" clip-rule="evenodd" d="M40.5622 33.0747C41.6822 33.4847 43.1622 33.9747 44.6222 34.5547C46.0822 35.1347 48.0522 35.3147 48.1622 37.1547C48.3122 39.5247 46.0522 40.2747 44.3622 41.0947C43.6455 41.4064 42.8725 41.5678 42.0909 41.5692C41.3094 41.5705 40.5358 41.4117 39.818 41.1024C39.1002 40.7932 38.4535 40.3402 37.9176 39.7713C37.3817 39.2023 36.9681 38.5297 36.7022 37.7947C35.8722 35.1947 37.5522 32.9447 40.5622 33.0747Z" fill="#F9E8E2"/>
</svg>
